<?xml version="1.0" standalone="no"?><!DOCTYPE svg PUBLIC "-//W3C//DTD SVG 1.1//EN" "http://www.w3.org/Graphics/SVG/1.1/DTD/svg11.dtd"><svg xmlns:xlink="http://www.w3.org/1999/xlink" version="1.1" class="highcharts-root" style="font-family:'Unica One', sans-serif;font-size:12px;" xmlns="http://www.w3.org/2000/svg" width="600" height="5000" viewBox="0 0 600 5000"><desc>Created with Highcharts 9.3.3</desc><defs><linearGradient x1="0" y1="0" x2="1" y2="1" id="highcharts-4eql3l6-259"><stop offset="0" stop-color="#2a2a2b" stop-opacity="1"></stop><stop offset="1" stop-color="#3e3e40" stop-opacity="1"></stop></linearGradient><clipPath id="highcharts-4eql3l6-260-"><rect x="0" y="0" width="580" height="4896" fill="none"></rect></clipPath><clipPath id="highcharts-4eql3l6-311-"><rect x="0" y="0" width="580" height="4896" fill="none"></rect></clipPath><clipPath id="highcharts-4eql3l6-312-"><rect x="10" y="89" width="580" height="4896" fill="none"></rect></clipPath></defs><rect fill="url(#highcharts-4eql3l6-259)" class="highcharts-background" x="0" y="0" width="600" height="5000" rx="0" ry="0"></rect><rect fill="none" class="highcharts-plot-background" x="10" y="89" width="580" height="4896"></rect><rect fill="none" class="highcharts-plot-border" data-z-index="1" x="10" y="89" width="580" height="4896"></rect><g class="highcharts-series-group" data-z-index="3"><g class="highcharts-series highcharts-series-0 highcharts-sankey-series" data-z-index="0.1" opacity="1" transform="translate(10,89) scale(1 1)" clip-path="url(#highcharts-4eql3l6-311-)"><path fill="rgb(211,72,54)" fill-opacity="0.9" d="M 20 0 C 204.8 0 375.2 245 560 245 L 560 422.2504533554686 L 560 599.5009067109372 C 375.2 599.5009067109372 204.8 354.5009067109372 20 354.5009067109372 Z" class="highcharts-link highcharts-point highcharts-color-0"></path><path fill="rgb(211,72,54)" fill-opacity="0.9" d="M 20 364 C 204.8 364 375.2 599.5009067109372 560 599.5009067109372 L 560 736.4155029618925 L 560 873.3300992128477 C 375.2 873.3300992128477 204.8 637.8291925019105 20 637.8291925019105 Z" class="highcharts-link highcharts-point highcharts-color-1"></path><path fill="rgb(211,72,54)" fill-opacity="0.9" d="M 20 648 C 204.8 648 375.2 873.3300992128477 560 873.3300992128477 L 560 1010.1296713261356 L 560 1146.9292434394235 C 375.2 1146.9292434394235 204.8 921.5991442265758 20 921.5991442265758 Z" class="highcharts-link highcharts-point highcharts-color-2"></path><path fill="rgb(211,72,54)" fill-opacity="0.9" d="M 20 931 C 204.8 931 375.2 1146.9292434394235 560 1146.9292434394235 L 560 1245.8485495084 L 560 1344.7678555773768 C 375.2 1344.7678555773768 204.8 1128.8386121379533 20 1128.8386121379533 Z" class="highcharts-link highcharts-point highcharts-color-3"></path><path fill="rgb(15,157,88)" fill-opacity="0.9" d="M 20 1138.9361289760561 C 204.8 1138.9361289760561 375.2 1344.7678555773766 560 1344.7678555773766 L 560 1442.7997910893487 L 560 1540.8317266013205 C 375.2 1540.8317266013205 204.8 1335 20 1335 Z" class="highcharts-link highcharts-point highcharts-color-4"></path><path fill="rgb(211,72,54)" fill-opacity="0.9" d="M 20 1344.7804331730958 C 204.8 1344.7804331730958 375.2 1540.8317266013207 560 1540.8317266013207 L 560 1636.9415100147728 L 560 1733.0512934282249 C 375.2 1733.0512934282249 204.8 1537 20 1537 Z" class="highcharts-link highcharts-point highcharts-color-5"></path><path fill="rgb(211,72,54)" fill-opacity="0.9" d="M 20 1547.516457083362 C 204.8 1547.516457083362 375.2 1733.0512934282247 560 1733.0512934282247 L 560 1802.2930648865436 L 560 1871.5348363448627 C 375.2 1871.5348363448627 204.8 1686 20 1686 Z" class="highcharts-link highcharts-point highcharts-color-0"></path><path fill="rgb(15,157,88)" fill-opacity="0.9" d="M 20 1696 C 204.8 1696 375.2 1871.5348363448627 560 1871.5348363448627 L 560 1938.4870174871132 L 560 2005.4391986293638 C 375.2 2005.4391986293638 204.8 1829.904362284501 20 1829.904362284501 Z" class="highcharts-link highcharts-point highcharts-color-1"></path><path fill="rgb(15,157,88)" fill-opacity="0.9" d="M 20 1840 C 204.8 1840 375.2 2005.4391986293638 560 2005.4391986293638 L 560 2070.884592614671 L 560 2136.3299865999784 C 375.2 2136.3299865999784 204.8 1970.8907879706144 20 1970.8907879706144 Z" class="highcharts-link highcharts-point highcharts-color-2"></path><path fill="rgb(211,72,54)" fill-opacity="0.9" d="M 20 1980.7430776212518 C 204.8 1980.7430776212518 375.2 2136.329986599978 560 2136.329986599978 L 560 2200.9584477893522 L 560 2265.586908978726 C 375.2 2265.586908978726 204.8 2110 20 2110 Z" class="highcharts-link highcharts-point highcharts-color-3"></path><path fill="rgb(15,157,88)" fill-opacity="0.9" d="M 20 2120 C 204.8 2120 375.2 2265.5869089787266 560 2265.5869089787266 L 560 2329.924905173991 L 560 2394.262901369256 C 375.2 2394.262901369256 204.8 2248.6759923905292 20 2248.6759923905292 Z" class="highcharts-link highcharts-point highcharts-color-4"></path><path fill="rgb(211,72,54)" fill-opacity="0.9" d="M 20 2258.8551195681416 C 204.8 2258.8551195681416 375.2 2394.2629013692554 560 2394.2629013692554 L 560 2457.335341585185 L 560 2520.4077818011137 C 375.2 2520.4077818011137 204.8 2385 20 2385 Z" class="highcharts-link highcharts-point highcharts-color-5"></path><path fill="rgb(15,157,88)" fill-opacity="0.9" d="M 20 2394.6188874209765 C 204.8 2394.6188874209765 375.2 2520.4077818011137 560 2520.4077818011137 L 560 2580.0983380906255 L 560 2639.788894380137 C 375.2 2639.788894380137 204.8 2514 20 2514 Z" class="highcharts-link highcharts-point highcharts-color-0"></path><path fill="rgb(211,72,54)" fill-opacity="0.9" d="M 20 2523.909352415086 C 204.8 2523.909352415086 375.2 2639.7888943801377 560 2639.7888943801377 L 560 2699.334218172595 L 560 2758.879541965052 C 375.2 2758.879541965052 204.8 2643 20 2643 Z" class="highcharts-link highcharts-point highcharts-color-1"></path><path fill="rgb(15,157,88)" fill-opacity="0.9" d="M 20 2652.5567923208387 C 204.8 2652.5567923208387 375.2 2758.8795419650514 560 2758.8795419650514 L 560 2816.1011458046323 L 560 2873.3227496442128 C 375.2 2873.3227496442128 204.8 2767 20 2767 Z" class="highcharts-link highcharts-point highcharts-color-2"></path><path fill="rgb(15,157,88)" fill-opacity="0.9" d="M 20 2777.5567923208387 C 204.8 2777.5567923208387 375.2 2873.3227496442128 560 2873.3227496442128 L 560 2930.5443534837937 L 560 2987.765957323374 C 375.2 2987.765957323374 204.8 2892 20 2892 Z" class="highcharts-link highcharts-point highcharts-color-3"></path><path fill="rgb(15,157,88)" fill-opacity="0.9" d="M 20 2901.8078763268354 C 204.8 2901.8078763268354 375.2 2987.765957323374 560 2987.765957323374 L 560 3037.8620191599566 L 560 3087.9580809965387 C 375.2 3087.9580809965387 204.8 3002 20 3002 Z" class="highcharts-link highcharts-point highcharts-color-4"></path><path fill="rgb(15,157,88)" fill-opacity="0.9" d="M 20 3012 C 204.8 3012 375.2 3087.9580809965387 560 3087.9580809965387 L 560 3134.2091124735957 L 560 3180.460143950653 C 375.2 3180.460143950653 204.8 3104.5020629541145 20 3104.5020629541145 Z" class="highcharts-link highcharts-point highcharts-color-5"></path><path fill="rgb(15,157,88)" fill-opacity="0.9" d="M 20 3114.9558518260405 C 204.8 3114.9558518260405 375.2 3180.460143950653 560 3180.460143950653 L 560 3225.4822180376327 L 560 3270.5042921246127 C 375.2 3270.5042921246127 204.8 3205 20 3205 Z" class="highcharts-link highcharts-point highcharts-color-0"></path><path fill="rgb(15,157,88)" fill-opacity="0.9" d="M 20 3215 C 204.8 3215 375.2 3270.504292124612 560 3270.504292124612 L 560 3314.903899729215 L 560 3359.3035073338183 C 375.2 3359.3035073338183 204.8 3303.799215209206 20 3303.799215209206 Z" class="highcharts-link highcharts-point highcharts-color-1"></path><path fill="rgb(15,157,88)" fill-opacity="0.9" d="M 20 3313.9891067848075 C 204.8 3313.9891067848075 375.2 3359.3035073338183 560 3359.3035073338183 L 560 3403.3089539414145 L 560 3447.3144005490108 C 375.2 3447.3144005490108 204.8 3402 20 3402 Z" class="highcharts-link highcharts-point highcharts-color-2"></path><path fill="rgb(15,157,88)" fill-opacity="0.9" d="M 20 3412 C 204.8 3412 375.2 3447.314400549011 560 3447.314400549011 L 560 3491.263061250259 L 560 3535.211721951507 C 375.2 3535.211721951507 204.8 3499.897321402496 20 3499.897321402496 Z" class="highcharts-link highcharts-point highcharts-color-3"></path><path fill="rgb(15,157,88)" fill-opacity="0.9" d="M 20 3509.6032917317934 C 204.8 3509.6032917317934 375.2 3535.2117219515067 560 3535.2117219515067 L 560 3577.91007608561 L 560 3620.6084302197132 C 375.2 3620.6084302197132 204.8 3595 20 3595 Z" class="highcharts-link highcharts-point highcharts-color-4"></path><path fill="rgb(15,157,88)" fill-opacity="0.9" d="M 20 3604.5079416728886 C 204.8 3604.5079416728886 375.2 3620.6084302197132 560 3620.6084302197132 L 560 3661.854459383269 L 560 3703.1004885468246 C 375.2 3703.1004885468246 204.8 3687 20 3687 Z" class="highcharts-link highcharts-point highcharts-color-5"></path><path fill="rgb(211,72,54)" fill-opacity="0.9" d="M 20 3697.669801649327 C 204.8 3697.669801649327 375.2 3703.1004885468246 560 3703.1004885468246 L 560 3743.765587722161 L 560 3784.4306868974977 C 375.2 3784.4306868974977 204.8 3779 20 3779 Z" class="highcharts-link highcharts-point highcharts-color-0"></path><path fill="rgb(15,157,88)" fill-opacity="0.9" d="M 20 3789 C 204.8 3789 375.2 3784.4306868974977 560 3784.4306868974977 L 560 3822.7029354513597 L 560 3860.9751840052218 C 375.2 3860.9751840052218 204.8 3865.544497107724 20 3865.544497107724 Z" class="highcharts-link highcharts-point highcharts-color-1"></path><path fill="rgb(211,72,54)" fill-opacity="0.9" d="M 20 3875 C 204.8 3875 375.2 3860.9751840052218 560 3860.9751840052218 L 560 3898.8619855119005 L 560 3936.748787018579 C 375.2 3936.748787018579 204.8 3950.7736030133574 20 3950.7736030133574 Z" class="highcharts-link highcharts-point highcharts-color-2"></path><path fill="rgb(15,157,88)" fill-opacity="0.9" d="M 20 3960.623139338009 C 204.8 3960.623139338009 375.2 3936.748787018579 560 3936.748787018579 L 560 3964.4372173495744 L 560 3992.12564768057 C 375.2 3992.12564768057 204.8 4016 20 4016 Z" class="highcharts-link highcharts-point highcharts-color-3"></path><path fill="rgb(15,157,88)" fill-opacity="0.9" d="M 20 4026.6301104978675 C 204.8 4026.6301104978675 375.2 3992.12564768057 560 3992.12564768057 L 560 4019.8105924316365 L 560 4047.4955371827027 C 375.2 4047.4955371827027 204.8 4082 20 4082 Z" class="highcharts-link highcharts-point highcharts-color-4"></path><path fill="rgb(211,72,54)" fill-opacity="0.9" d="M 20 4091.811651119186 C 204.8 4091.811651119186 375.2 4047.4955371827023 560 4047.4955371827023 L 560 4075.089711623109 L 560 4102.683886063516 C 375.2 4102.683886063516 204.8 4147 20 4147 Z" class="highcharts-link highcharts-point highcharts-color-5"></path><path fill="rgb(15,157,88)" fill-opacity="0.9" d="M 20 4157 C 204.8 4157 375.2 4102.683886063516 560 4102.683886063516 L 560 4128.68050303632 L 560 4154.677120009125 C 375.2 4154.677120009125 204.8 4208.993233945609 20 4208.993233945609 Z" class="highcharts-link highcharts-point highcharts-color-0"></path><path fill="rgb(15,157,88)" fill-opacity="0.9" d="M 20 4219 C 204.8 4219 375.2 4154.677120009125 560 4154.677120009125 L 560 4180.16135673232 L 560 4205.645593455516 C 375.2 4205.645593455516 204.8 4269.96847344639 20 4269.96847344639 Z" class="highcharts-link highcharts-point highcharts-color-1"></path><path fill="rgb(15,157,88)" fill-opacity="0.9" d="M 20 4280 C 204.8 4280 375.2 4205.645593455515 560 4205.645593455515 L 560 4231.061280440101 L 560 4256.476967424685 C 375.2 4256.476967424685 204.8 4330.83137396917 20 4330.83137396917 Z" class="highcharts-link highcharts-point highcharts-color-2"></path><path fill="rgb(211,72,54)" fill-opacity="0.9" d="M 20 4340.9823604287685 C 204.8 4340.9823604287685 375.2 4256.476967424685 560 4256.476967424685 L 560 4280.485787210301 L 560 4304.494606995917 C 375.2 4304.494606995917 204.8 4389 20 4389 Z" class="highcharts-link highcharts-point highcharts-color-3"></path><path fill="rgb(211,72,54)" fill-opacity="0.9" d="M 20 4399 C 204.8 4399 375.2 4304.494606995917 560 4304.494606995917 L 560 4328.402054498589 L 560 4352.30950200126 C 375.2 4352.30950200126 204.8 4446.814895005343 20 4446.814895005343 Z" class="highcharts-link highcharts-point highcharts-color-4"></path><path fill="rgb(15,157,88)" fill-opacity="0.9" d="M 20 4456.681638486793 C 204.8 4456.681638486793 375.2 4352.309502001261 560 4352.309502001261 L 560 4370.9686827578635 L 560 4389.627863514467 C 375.2 4389.627863514467 204.8 4494 20 4494 Z" class="highcharts-link highcharts-point highcharts-color-5"></path><path fill="rgb(211,72,54)" fill-opacity="0.9" d="M 20 4503.781119464217 C 204.8 4503.781119464217 375.2 4389.627863514467 560 4389.627863514467 L 560 4407.237303782358 L 560 4424.84674405025 C 375.2 4424.84674405025 204.8 4539 20 4539 Z" class="highcharts-link highcharts-point highcharts-color-0"></path><path fill="rgb(15,157,88)" fill-opacity="0.9" d="M 20 4548.9148043362275 C 204.8 4548.9148043362275 375.2 4424.84674405025 560 4424.84674405025 L 560 4441.889341882136 L 560 4458.9319397140225 C 375.2 4458.9319397140225 204.8 4583 20 4583 Z" class="highcharts-link highcharts-point highcharts-color-1"></path><path fill="rgb(211,72,54)" fill-opacity="0.9" d="M 20 4593 C 204.8 4593 375.2 4458.931939714023 560 4458.931939714023 L 560 4475.778909372377 L 560 4492.625879030731 C 375.2 4492.625879030731 204.8 4626.693939316708 20 4626.693939316708 Z" class="highcharts-link highcharts-point highcharts-color-2"></path><path fill="rgb(15,157,88)" fill-opacity="0.9" d="M 20 4637 C 204.8 4637 375.2 4492.62587903073 560 4492.62587903073 L 560 4503.926782707805 L 560 4515.227686384879 C 375.2 4515.227686384879 204.8 4659.601807354149 20 4659.601807354149 Z" class="highcharts-link highcharts-point highcharts-color-3"></path><path fill="rgb(15,157,88)" fill-opacity="0.9" d="M 20 4670 C 204.8 4670 375.2 4515.227686384879 560 4515.227686384879 L 560 4526.190401669312 L 560 4537.153116953745 C 375.2 4537.153116953745 204.8 4691.9254305688655 20 4691.9254305688655 Z" class="highcharts-link highcharts-point highcharts-color-4"></path><path fill="rgb(211,72,54)" fill-opacity="0.9" d="M 20 4702 C 204.8 4702 375.2 4537.153116953745 560 4537.153116953745 L 560 4547.016828886464 L 560 4556.880540819185 C 375.2 4556.880540819185 204.8 4721.72742386544 20 4721.72742386544 Z" class="highcharts-link highcharts-point highcharts-color-5"></path><path fill="rgb(15,157,88)" fill-opacity="0.9" d="M 20 4730.938234761561 C 204.8 4730.938234761561 375.2 4556.880540819185 560 4556.880540819185 L 560 4566.411423438404 L 560 4575.942306057624 C 375.2 4575.942306057624 204.8 4750 20 4750 Z" class="highcharts-link highcharts-point highcharts-color-0"></path><path fill="rgb(15,157,88)" fill-opacity="0.9" d="M 20 4759.845937868154 C 204.8 4759.845937868154 375.2 4575.942306057624 560 4575.942306057624 L 560 4585.019337123547 L 560 4594.09636818947 C 375.2 4594.09636818947 204.8 4778 20 4778 Z" class="highcharts-link highcharts-point highcharts-color-1"></path><path fill="rgb(15,157,88)" fill-opacity="0.9" d="M 20 4788.880503202452 C 204.8 4788.880503202452 375.2 4594.096368189471 560 4594.096368189471 L 560 4603.156116588245 L 560 4612.215864987019 C 375.2 4612.215864987019 204.8 4807 20 4807 Z" class="highcharts-link highcharts-point highcharts-color-2"></path><path fill="rgb(15,157,88)" fill-opacity="0.9" d="M 20 4816.765617731165 C 204.8 4816.765617731165 375.2 4612.215864987018 560 4612.215864987018 L 560 4619.333056121436 L 560 4626.450247255853 C 375.2 4626.450247255853 204.8 4831 20 4831 Z" class="highcharts-link highcharts-point highcharts-color-3"></path><path fill="rgb(211,72,54)" fill-opacity="0.9" d="M 20 4840.602511787796 C 204.8 4840.602511787796 375.2 4626.450247255854 560 4626.450247255854 L 560 4630.648991361956 L 560 4634.847735468058 C 375.2 4634.847735468058 204.8 4849 20 4849 Z" class="highcharts-link highcharts-point highcharts-color-4"></path><path fill="rgb(211,72,54)" fill-opacity="0.9" d="M 20 4859 C 204.8 4859 375.2 4634.847735468058 560 4634.847735468058 L 560 4638.822516540452 L 560 4642.797297612846 C 375.2 4642.797297612846 204.8 4866.949562144788 20 4866.949562144788 Z" class="highcharts-link highcharts-point highcharts-color-5"></path><path fill="rgb(211,72,54)" fill-opacity="0.9" d="M 20 4877 C 204.8 4877 375.2 4642.797297612846 560 4642.797297612846 L 560 4645.12358818092 L 560 4647.449878748995 C 375.2 4647.449878748995 204.8 4881.652581136149 20 4881.652581136149 Z" class="highcharts-link highcharts-point highcharts-color-0"></path><path fill="rgb(15,157,88)" fill-opacity="0.9" d="M 20 4892 C 204.8 4892 375.2 4647.449878748995 560 4647.449878748995 L 560 4649.224939374498 L 560 4651 C 375.2 4651 204.8 4895.550121251005 20 4895.550121251005 Z" class="highcharts-link highcharts-point highcharts-color-1"></path><rect x="0" y="0" width="20" height="355" display="" fill="#d34836" class="highcharts-node highcharts-point highcharts-color-0 highcharts-node"></rect><rect x="0" y="364" width="20" height="274" display="" fill="#d34836" class="highcharts-node highcharts-point highcharts-color-2 highcharts-node"></rect><rect x="0" y="648" width="20" height="274" display="" fill="#d34836" class="highcharts-node highcharts-point highcharts-color-3 highcharts-node"></rect><rect x="0" y="931" width="20" height="198" display="" fill="#d34836" class="highcharts-node highcharts-point highcharts-color-4 highcharts-node"></rect><rect x="0" y="1139" width="20" height="196" display="" fill="#0f9d58" class="highcharts-node highcharts-point highcharts-color-5 highcharts-node"></rect><rect x="0" y="1345" width="20" height="192" display="" fill="#d34836" class="highcharts-node highcharts-point highcharts-color-0 highcharts-node"></rect><rect x="0" y="1548" width="20" height="138" display="" fill="#d34836" class="highcharts-node highcharts-point highcharts-color-1 highcharts-node"></rect><rect x="0" y="1696" width="20" height="134" display="" fill="#0f9d58" class="highcharts-node highcharts-point highcharts-color-2 highcharts-node"></rect><rect x="0" y="1840" width="20" height="131" display="" fill="#0f9d58" class="highcharts-node highcharts-point highcharts-color-3 highcharts-node"></rect><rect x="0" y="1981" width="20" height="129" display="" fill="#d34836" class="highcharts-node highcharts-point highcharts-color-4 highcharts-node"></rect><rect x="0" y="2120" width="20" height="129" display="" fill="#0f9d58" class="highcharts-node highcharts-point highcharts-color-5 highcharts-node"></rect><rect x="0" y="2259" width="20" height="126" display="" fill="#d34836" class="highcharts-node highcharts-point highcharts-color-0 highcharts-node"></rect><rect x="0" y="2395" width="20" height="119" display="" fill="#0f9d58" class="highcharts-node highcharts-point highcharts-color-1 highcharts-node"></rect><rect x="0" y="2524" width="20" height="119" display="" fill="#d34836" class="highcharts-node highcharts-point highcharts-color-2 highcharts-node"></rect><rect x="0" y="2653" width="20" height="114" display="" fill="#0f9d58" class="highcharts-node highcharts-point highcharts-color-3 highcharts-node"></rect><rect x="0" y="2778" width="20" height="114" display="" fill="#0f9d58" class="highcharts-node highcharts-point highcharts-color-4 highcharts-node"></rect><rect x="0" y="2902" width="20" height="100" display="" fill="#0f9d58" class="highcharts-node highcharts-point highcharts-color-5 highcharts-node"></rect><rect x="0" y="3012" width="20" height="93" display="" fill="#0f9d58" class="highcharts-node highcharts-point highcharts-color-0 highcharts-node"></rect><rect x="0" y="3115" width="20" height="90" display="" fill="#0f9d58" class="highcharts-node highcharts-point highcharts-color-1 highcharts-node"></rect><rect x="0" y="3215" width="20" height="89" display="" fill="#0f9d58" class="highcharts-node highcharts-point highcharts-color-2 highcharts-node"></rect><rect x="0" y="3314" width="20" height="88" display="" fill="#0f9d58" class="highcharts-node highcharts-point highcharts-color-3 highcharts-node"></rect><rect x="0" y="3412" width="20" height="88" display="" fill="#0f9d58" class="highcharts-node highcharts-point highcharts-color-4 highcharts-node"></rect><rect x="0" y="3510" width="20" height="85" display="" fill="#0f9d58" class="highcharts-node highcharts-point highcharts-color-5 highcharts-node"></rect><rect x="0" y="3605" width="20" height="82" display="" fill="#0f9d58" class="highcharts-node highcharts-point highcharts-color-0 highcharts-node"></rect><rect x="0" y="3698" width="20" height="81" display="" fill="#d34836" class="highcharts-node highcharts-point highcharts-color-1 highcharts-node"></rect><rect x="0" y="3789" width="20" height="77" display="" fill="#0f9d58" class="highcharts-node highcharts-point highcharts-color-2 highcharts-node"></rect><rect x="0" y="3875" width="20" height="76" display="" fill="#d34836" class="highcharts-node highcharts-point highcharts-color-3 highcharts-node"></rect><rect x="0" y="3961" width="20" height="55" display="" fill="#0f9d58" class="highcharts-node highcharts-point highcharts-color-4 highcharts-node"></rect><rect x="0" y="4027" width="20" height="55" display="" fill="#0f9d58" class="highcharts-node highcharts-point highcharts-color-5 highcharts-node"></rect><rect x="0" y="4092" width="20" height="55" display="" fill="#d34836" class="highcharts-node highcharts-point highcharts-color-0 highcharts-node"></rect><rect x="0" y="4157" width="20" height="52" display="" fill="#0f9d58" class="highcharts-node highcharts-point highcharts-color-1 highcharts-node"></rect><rect x="0" y="4219" width="20" height="51" display="" fill="#0f9d58" class="highcharts-node highcharts-point highcharts-color-2 highcharts-node"></rect><rect x="0" y="4280" width="20" height="51" display="" fill="#0f9d58" class="highcharts-node highcharts-point highcharts-color-3 highcharts-node"></rect><rect x="0" y="4341" width="20" height="48" display="" fill="#d34836" class="highcharts-node highcharts-point highcharts-color-4 highcharts-node"></rect><rect x="0" y="4399" width="20" height="48" display="" fill="#d34836" class="highcharts-node highcharts-point highcharts-color-5 highcharts-node"></rect><rect x="0" y="4457" width="20" height="37" display="" fill="#0f9d58" class="highcharts-node highcharts-point highcharts-color-0 highcharts-node"></rect><rect x="0" y="4504" width="20" height="35" display="" fill="#d34836" class="highcharts-node highcharts-point highcharts-color-1 highcharts-node"></rect><rect x="0" y="4549" width="20" height="34" display="" fill="#0f9d58" class="highcharts-node highcharts-point highcharts-color-2 highcharts-node"></rect><rect x="0" y="4593" width="20" height="34" display="" fill="#d34836" class="highcharts-node highcharts-point highcharts-color-3 highcharts-node"></rect><rect x="0" y="4637" width="20" height="23" display="" fill="#0f9d58" class="highcharts-node highcharts-point highcharts-color-4 highcharts-node"></rect><rect x="0" y="4670" width="20" height="22" display="" fill="#0f9d58" class="highcharts-node highcharts-point highcharts-color-5 highcharts-node"></rect><rect x="0" y="4702" width="20" height="20" display="" fill="#d34836" class="highcharts-node highcharts-point highcharts-color-0 highcharts-node"></rect><rect x="0" y="4731" width="20" height="19" display="" fill="#0f9d58" class="highcharts-node highcharts-point highcharts-color-1 highcharts-node"></rect><rect x="0" y="4760" width="20" height="18" display="" fill="#0f9d58" class="highcharts-node highcharts-point highcharts-color-2 highcharts-node"></rect><rect x="0" y="4789" width="20" height="18" display="" fill="#0f9d58" class="highcharts-node highcharts-point highcharts-color-3 highcharts-node"></rect><rect x="0" y="4817" width="20" height="14" display="" fill="#0f9d58" class="highcharts-node highcharts-point highcharts-color-4 highcharts-node"></rect><rect x="0" y="4841" width="20" height="8" display="" fill="#d34836" class="highcharts-node highcharts-point highcharts-color-5 highcharts-node"></rect><rect x="0" y="4859" width="20" height="8" display="" fill="#d34836" class="highcharts-node highcharts-point highcharts-color-0 highcharts-node"></rect><rect x="0" y="4877" width="20" height="5" display="" fill="#d34836" class="highcharts-node highcharts-point highcharts-color-1 highcharts-node"></rect><rect x="0" y="4892" width="20" height="4" display="" fill="#0f9d58" class="highcharts-node highcharts-point highcharts-color-2 highcharts-node"></rect><rect x="560" y="245" width="20" height="4406" display="" fill="#0f9d58" class="highcharts-node highcharts-point highcharts-color-1 highcharts-node"></rect></g><g class="highcharts-markers highcharts-series-0 highcharts-sankey-series" data-z-index="0.1" opacity="1" transform="translate(10,89) scale(1 1)" clip-path="none"></g></g><text x="300" text-anchor="middle" class="highcharts-title" data-z-index="4" style="color:#E0E0E3;font-size:18px;fill:#E0E0E3;" y="24">Overall Mood Predictors Flow Chart</text><text x="300" text-anchor="middle" class="highcharts-subtitle" data-z-index="4" style="color:#E0E0E3;font-size:12px;fill:#E0E0E3;" y="44">These are the strongest predictors of Overall Mood based on our current data. The percent value<tspan dy="15" x="300">​</tspan>indicates the typical change in Overall Mood from baseline following above average measurements<tspan dy="15" x="300">​</tspan>for the predictor on the left.</text><text x="10" text-anchor="start" class="highcharts-caption" data-z-index="4" style="color:#666666;fill:#666666;" y="4997"></text><g class="highcharts-data-labels highcharts-series-0 highcharts-sankey-series" data-z-index="6" opacity="1" transform="translate(10,89) scale(1 1)"><g class="highcharts-label highcharts-data-label highcharts-data-label-color-0" data-z-index="1" transform="translate(0,161)"><rect fill="none" class="highcharts-label-box highcharts-data-label-box" x="0" y="0" width="288" height="33" rx="0" ry="0"></rect><text x="5" data-z-index="1" y="23" style="color:black;font-size:20px;font-weight:normal;fill:black;">Lack of Motivation ↓12% Lower</text></g><g class="highcharts-label highcharts-data-label highcharts-data-label-color-2" data-z-index="1" transform="translate(0,485)"><rect fill="none" class="highcharts-label-box highcharts-data-label-box" x="0" y="0" width="250" height="33" rx="0" ry="0"></rect><text x="5" data-z-index="1" y="23" style="color:black;font-size:20px;font-weight:normal;fill:black;">Pain Severity ↓9.4% Lower</text></g><g class="highcharts-label highcharts-data-label highcharts-data-label-color-3" data-z-index="1" transform="translate(0,769)"><rect fill="none" class="highcharts-label-box highcharts-data-label-box" x="0" y="0" width="303" height="33" rx="0" ry="0"></rect><text x="5" data-z-index="1" y="23" style="color:black;font-size:20px;font-weight:normal;fill:black;">Tiredness / Fatigue ↓9.4% Lower</text></g><g class="highcharts-label highcharts-data-label highcharts-data-label-color-4" data-z-index="1" transform="translate(0,1014)"><rect fill="none" class="highcharts-label-box highcharts-data-label-box" x="0" y="0" width="290" height="33" rx="0" ry="0"></rect><text x="5" data-z-index="1" y="23" style="color:black;font-size:20px;font-weight:normal;fill:black;">Caffeine (serving) ↓6.8% Lower</text></g><g class="highcharts-label highcharts-data-label highcharts-data-label-color-5" data-z-index="1" transform="translate(0,1221)"><rect fill="none" class="highcharts-label-box highcharts-data-label-box" x="0" y="0" width="274" height="33" rx="0" ry="0"></rect><text x="5" data-z-index="1" y="23" style="color:black;font-size:20px;font-weight:normal;fill:black;">Buspirone (mg) ↑6.8% Higher</text></g><g class="highcharts-label highcharts-data-label highcharts-data-label-color-0" data-z-index="1" transform="translate(0,1425)"><rect fill="none" class="highcharts-label-box highcharts-data-label-box" x="0" y="0" width="266" height="33" rx="0" ry="0"></rect><text x="5" data-z-index="1" y="23" style="color:black;font-size:20px;font-weight:normal;fill:black;">Other Activities ↓6.6% Lower</text></g><g class="highcharts-label highcharts-data-label highcharts-data-label-color-1" data-z-index="1" transform="translate(0,1601)"><rect fill="none" class="highcharts-label-box highcharts-data-label-box" x="0" y="0" width="301" height="33" rx="0" ry="0"></rect><text x="5" data-z-index="1" y="23" style="color:black;font-size:20px;font-weight:normal;fill:black;">Headache Severity ↓4.8% Lower</text></g><g class="highcharts-label highcharts-data-label highcharts-data-label-color-2" data-z-index="1" transform="translate(0,1747)"><rect fill="none" class="highcharts-label-box highcharts-data-label-box" x="0" y="0" width="367" height="33" rx="0" ry="0"></rect><text x="5" data-z-index="1" y="23" style="color:black;font-size:20px;font-weight:normal;fill:black;">Instant Message Activities ↑4.6% Higher</text></g><g class="highcharts-label highcharts-data-label highcharts-data-label-color-3" data-z-index="1" transform="translate(0,1889)"><rect fill="none" class="highcharts-label-box highcharts-data-label-box" x="0" y="0" width="217" height="33" rx="0" ry="0"></rect><text x="5" data-z-index="1" y="23" style="color:black;font-size:20px;font-weight:normal;fill:black;">Body Fat ↑4.5% Higher</text></g><g class="highcharts-label highcharts-data-label highcharts-data-label-color-4" data-z-index="1" transform="translate(0,2029)"><rect fill="none" class="highcharts-label-box highcharts-data-label-box" x="0" y="0" width="298" height="33" rx="0" ry="0"></rect><text x="5" data-z-index="1" y="23" style="color:black;font-size:20px;font-weight:normal;fill:black;">Heart Rate (Pulse) ↓4.5% Lower</text></g><g class="highcharts-label highcharts-data-label highcharts-data-label-color-5" data-z-index="1" transform="translate(0,2168)"><rect fill="none" class="highcharts-label-box highcharts-data-label-box" x="0" y="0" width="266" height="33" rx="0" ry="0"></rect><text x="5" data-z-index="1" y="23" style="color:black;font-size:20px;font-weight:normal;fill:black;">Food Activities ↑4.4% Higher</text></g><g class="highcharts-label highcharts-data-label highcharts-data-label-color-0" data-z-index="1" transform="translate(0,2306)"><rect fill="none" class="highcharts-label-box highcharts-data-label-box" x="0" y="0" width="257" height="33" rx="0" ry="0"></rect><text x="5" data-z-index="1" y="23" style="color:black;font-size:20px;font-weight:normal;fill:black;">Acne Severity ↓4.3% Lower</text></g><g class="highcharts-label highcharts-data-label highcharts-data-label-color-1" data-z-index="1" transform="translate(0,2438)"><rect fill="none" class="highcharts-label-box highcharts-data-label-box" x="0" y="0" width="247" height="33" rx="0" ry="0"></rect><text x="5" data-z-index="1" y="23" style="color:black;font-size:20px;font-weight:normal;fill:black;">Precipitation ↑4.1% Higher</text></g><g class="highcharts-label highcharts-data-label highcharts-data-label-color-2" data-z-index="1" transform="translate(0,2567)"><rect fill="none" class="highcharts-label-box highcharts-data-label-box" x="0" y="0" width="453" height="33" rx="0" ry="0"></rect><text x="5" data-z-index="1" y="23" style="color:black;font-size:20px;font-weight:normal;fill:black;">General Social Networking Activities ↓4.1% Lower</text></g><g class="highcharts-label highcharts-data-label highcharts-data-label-color-3" data-z-index="1" transform="translate(0,2694)"><rect fill="none" class="highcharts-label-box highcharts-data-label-box" x="0" y="0" width="287" height="33" rx="0" ry="0"></rect><text x="5" data-z-index="1" y="23" style="color:black;font-size:20px;font-weight:normal;fill:black;">Daily Step Count ↑3.9% Higher</text></g><g class="highcharts-label highcharts-data-label highcharts-data-label-color-4" data-z-index="1" transform="translate(0,2819)"><rect fill="none" class="highcharts-label-box highcharts-data-label-box" x="0" y="0" width="425" height="33" rx="0" ry="0"></rect><text x="5" data-z-index="1" y="23" style="color:black;font-size:20px;font-weight:normal;fill:black;">Cardio Heart Rate Zone Minutes ↑3.9% Higher</text></g><g class="highcharts-label highcharts-data-label highcharts-data-label-color-5" data-z-index="1" transform="translate(0,2936)"><rect fill="none" class="highcharts-label-box highcharts-data-label-box" x="0" y="0" width="445" height="33" rx="0" ry="0"></rect><text x="5" data-z-index="1" y="23" style="color:black;font-size:20px;font-weight:normal;fill:black;">Time Between Sunrise And Sunset ↑3.4% Higher</text></g><g class="highcharts-label highcharts-data-label highcharts-data-label-color-0" data-z-index="1" transform="translate(0,3042)"><rect fill="none" class="highcharts-label-box highcharts-data-label-box" x="0" y="0" width="256" height="33" rx="0" ry="0"></rect><text x="5" data-z-index="1" y="23" style="color:black;font-size:20px;font-weight:normal;fill:black;">Sleep Quality ↑3.2% Higher</text></g><g class="highcharts-label highcharts-data-label highcharts-data-label-color-1" data-z-index="1" transform="translate(0,3144)"><rect fill="none" class="highcharts-label-box highcharts-data-label-box" x="0" y="0" width="293" height="33" rx="0" ry="0"></rect><text x="5" data-z-index="1" y="23" style="color:black;font-size:20px;font-weight:normal;fill:black;">Outdoor Humidity ↑3.1% Higher</text></g><g class="highcharts-label highcharts-data-label highcharts-data-label-color-2" data-z-index="1" transform="translate(0,3243)"><rect fill="none" class="highcharts-label-box highcharts-data-label-box" x="0" y="0" width="463" height="33" rx="0" ry="0"></rect><text x="5" data-z-index="1" y="23" style="color:black;font-size:20px;font-weight:normal;fill:black;">Brain Fog (difficulty Thinking Clearly) ↑3.1% Higher</text></g><g class="highcharts-label highcharts-data-label highcharts-data-label-color-3" data-z-index="1" transform="translate(0,3342)"><rect fill="none" class="highcharts-label-box highcharts-data-label-box" x="0" y="0" width="426" height="33" rx="0" ry="0"></rect><text x="5" data-z-index="1" y="23" style="color:black;font-size:20px;font-weight:normal;fill:black;">Fat Burn Heart Rate Zone Minutes ↑3% Higher</text></g><g class="highcharts-label highcharts-data-label highcharts-data-label-color-4" data-z-index="1" transform="translate(0,3440)"><rect fill="none" class="highcharts-label-box highcharts-data-label-box" x="0" y="0" width="427" height="33" rx="0" ry="0"></rect><text x="5" data-z-index="1" y="23" style="color:black;font-size:20px;font-weight:normal;fill:black;">Efficiency Score From Rescuetime ↑3% Higher</text></g><g class="highcharts-label highcharts-data-label highcharts-data-label-color-5" data-z-index="1" transform="translate(0,3536)"><rect fill="none" class="highcharts-label-box highcharts-data-label-box" x="0" y="0" width="319" height="33" rx="0" ry="0"></rect><text x="5" data-z-index="1" y="23" style="color:black;font-size:20px;font-weight:normal;fill:black;">Barometric Pressure ↑2.9% Higher</text></g><g class="highcharts-label highcharts-data-label highcharts-data-label-color-0" data-z-index="1" transform="translate(0,3630)"><rect fill="none" class="highcharts-label-box highcharts-data-label-box" x="0" y="0" width="319" height="33" rx="0" ry="0"></rect><text x="5" data-z-index="1" y="23" style="color:black;font-size:20px;font-weight:normal;fill:black;">Sleep Quality Rating ↑2.8% Higher</text></g><g class="highcharts-label highcharts-data-label highcharts-data-label-color-1" data-z-index="1" transform="translate(0,3722)"><rect fill="none" class="highcharts-label-box highcharts-data-label-box" x="0" y="0" width="243" height="33" rx="0" ry="0"></rect><text x="5" data-z-index="1" y="23" style="color:black;font-size:20px;font-weight:normal;fill:black;">Panic Attack ↓2.8% Lower</text></g><g class="highcharts-label highcharts-data-label highcharts-data-label-color-2" data-z-index="1" transform="translate(0,3811)"><rect fill="none" class="highcharts-label-box highcharts-data-label-box" x="0" y="0" width="269" height="33" rx="0" ry="0"></rect><text x="5" data-z-index="1" y="23" style="color:black;font-size:20px;font-weight:normal;fill:black;">Sleep Duration ↑2.6% Higher</text></g><g class="highcharts-label highcharts-data-label highcharts-data-label-color-3" data-z-index="1" transform="translate(0,3897)"><rect fill="none" class="highcharts-label-box highcharts-data-label-box" x="0" y="0" width="436" height="33" rx="0" ry="0"></rect><text x="5" data-z-index="1" y="23" style="color:black;font-size:20px;font-weight:normal;fill:black;">General News &amp; Opinion Activities ↓2.6% Lower</text></g><g class="highcharts-label highcharts-data-label highcharts-data-label-color-4" data-z-index="1" transform="translate(0,3972)"><rect fill="none" class="highcharts-label-box highcharts-data-label-box" x="0" y="0" width="335" height="33" rx="0" ry="0"></rect><text x="5" data-z-index="1" y="23" style="color:black;font-size:20px;font-weight:normal;fill:black;">Walk Or Run Distance ↑1.9% Higher</text></g><g class="highcharts-label highcharts-data-label highcharts-data-label-color-5" data-z-index="1" transform="translate(0,4038)"><rect fill="none" class="highcharts-label-box highcharts-data-label-box" x="0" y="0" width="274" height="33" rx="0" ry="0"></rect><text x="5" data-z-index="1" y="23" style="color:black;font-size:20px;font-weight:normal;fill:black;">Water (serving) ↑1.9% Higher</text></g><g class="highcharts-label highcharts-data-label highcharts-data-label-color-0" data-z-index="1" transform="translate(0,4103)"><rect fill="none" class="highcharts-label-box highcharts-data-label-box" x="0" y="0" width="280" height="33" rx="0" ry="0"></rect><text x="5" data-z-index="1" y="23" style="color:black;font-size:20px;font-weight:normal;fill:black;">Sleep Start Time ↓1.9% Lower</text></g><g class="highcharts-label highcharts-data-label highcharts-data-label-color-1" data-z-index="1" transform="translate(0,4167)"><rect fill="none" class="highcharts-label-box highcharts-data-label-box" x="0" y="0" width="193" height="33" rx="0" ry="0"></rect><text x="5" data-z-index="1" y="23" style="color:black;font-size:20px;font-weight:normal;fill:black;">Snack ↑1.8% Higher</text></g><g class="highcharts-label highcharts-data-label highcharts-data-label-color-2" data-z-index="1" transform="translate(0,4228)"><rect fill="none" class="highcharts-label-box highcharts-data-label-box" x="0" y="0" width="484" height="33" rx="0" ry="0"></rect><text x="5" data-z-index="1" y="23" style="color:black;font-size:20px;font-weight:normal;fill:black;">Time Spent On Entertainment Activities ↑1.8% Higher</text></g><g class="highcharts-label highcharts-data-label highcharts-data-label-color-3" data-z-index="1" transform="translate(0,4289)"><rect fill="none" class="highcharts-label-box highcharts-data-label-box" x="0" y="0" width="227" height="33" rx="0" ry="0"></rect><text x="5" data-z-index="1" y="23" style="color:black;font-size:20px;font-weight:normal;fill:black;">Wellbutrin ↑1.8% Higher</text></g><g class="highcharts-label highcharts-data-label highcharts-data-label-color-4" data-z-index="1" transform="translate(0,4349)"><rect fill="none" class="highcharts-label-box highcharts-data-label-box" x="0" y="0" width="225" height="33" rx="0" ry="0"></rect><text x="5" data-z-index="1" y="23" style="color:black;font-size:20px;font-weight:normal;fill:black;">Meditation ↓1.7% Lower</text></g><g class="highcharts-label highcharts-data-label highcharts-data-label-color-5" data-z-index="1" transform="translate(0,4407)"><rect fill="none" class="highcharts-label-box highcharts-data-label-box" x="0" y="0" width="314" height="33" rx="0" ry="0"></rect><text x="5" data-z-index="1" y="23" style="color:black;font-size:20px;font-weight:normal;fill:black;">Operations Activities ↓1.6% Lower</text></g><g class="highcharts-label highcharts-data-label highcharts-data-label-color-0" data-z-index="1" transform="translate(0,4459)"><rect fill="none" class="highcharts-label-box highcharts-data-label-box" x="0" y="0" width="520" height="33" rx="0" ry="0"></rect><text x="5" data-z-index="1" y="23" style="color:black;font-size:20px;font-weight:normal;fill:black;">Time Spent On Social Networking Activities ↑1.3% Higher</text></g><g class="highcharts-label highcharts-data-label highcharts-data-label-color-1" data-z-index="1" transform="translate(0,4505)"><rect fill="none" class="highcharts-label-box highcharts-data-label-box" x="0" y="0" width="555" height="33" rx="0" ry="0"></rect><text x="5" data-z-index="1" y="23" style="color:black;font-size:20px;font-weight:normal;fill:black;">General Communication &amp; Scheduling Activities ↓1.2% Lower</text></g><g class="highcharts-label highcharts-data-label highcharts-data-label-color-2" data-z-index="1" transform="translate(0,4550)"><rect fill="none" class="highcharts-label-box highcharts-data-label-box" x="0" y="0" width="238" height="33" rx="0" ry="0"></rect><text x="5" data-z-index="1" y="23" style="color:black;font-size:20px;font-weight:normal;fill:black;">Cholesterol ↑1.2% Higher</text></g><g class="highcharts-label highcharts-data-label highcharts-data-label-color-3" data-z-index="1" transform="translate(0,4594)"><rect fill="none" class="highcharts-label-box highcharts-data-label-box" x="0" y="0" width="209" height="33" rx="0" ry="0"></rect><text x="5" data-z-index="1" y="23" style="color:black;font-size:20px;font-weight:normal;fill:black;">Exercise ↓1.2% Lower</text></g><g class="highcharts-label highcharts-data-label highcharts-data-label-color-4" data-z-index="1" transform="translate(0,4632)"><rect fill="none" class="highcharts-label-box highcharts-data-label-box" x="0" y="0" width="387" height="33" rx="0" ry="0"></rect><text x="5" data-z-index="1" y="23" style="color:black;font-size:20px;font-weight:normal;fill:black;">Resting Heart Rate (Pulse) ↑0.78% Higher</text></g><g class="highcharts-label highcharts-data-label highcharts-data-label-color-5" data-z-index="1" transform="translate(0,4665)"><rect fill="none" class="highcharts-label-box highcharts-data-label-box" x="0" y="0" width="290" height="33" rx="0" ry="0"></rect><text x="5" data-z-index="1" y="23" style="color:black;font-size:20px;font-weight:normal;fill:black;">Sleep Efficiency ↑0.75% Higher</text></g><g class="highcharts-label highcharts-data-label highcharts-data-label-color-0 highcharts-data-label-hidden" data-z-index="1" transform="translate(0,4696)" opacity="0" style="pointer-events:none;"><rect fill="none" class="highcharts-label-box highcharts-data-label-box" x="0" y="0" width="388" height="33" rx="0" ry="0"></rect><text x="5" data-z-index="1" y="23" style="color:black;font-size:20px;font-weight:normal;fill:black;">General Shopping Activities ↓0.68% Lower</text></g><g class="highcharts-label highcharts-data-label highcharts-data-label-color-1" data-z-index="1" transform="translate(0,4724)"><rect fill="none" class="highcharts-label-box highcharts-data-label-box" x="0" y="0" width="416" height="33" rx="0" ry="0"></rect><text x="5" data-z-index="1" y="23" style="color:black;font-size:20px;font-weight:normal;fill:black;">Project Management Activities ↑0.66% Higher</text></g><g class="highcharts-label highcharts-data-label highcharts-data-label-color-2 highcharts-data-label-hidden" data-z-index="1" transform="translate(0,4753)" opacity="0" style="pointer-events:none;"><rect fill="none" class="highcharts-label-box highcharts-data-label-box" x="0" y="0" width="254" height="33" rx="0" ry="0"></rect><text x="5" data-z-index="1" y="23" style="color:black;font-size:20px;font-weight:normal;fill:black;">Multivitamin ↑0.63% Higher</text></g><g class="highcharts-label highcharts-data-label highcharts-data-label-color-3" data-z-index="1" transform="translate(0,4782)"><rect fill="none" class="highcharts-label-box highcharts-data-label-box" x="0" y="0" width="207" height="33" rx="0" ry="0"></rect><text x="5" data-z-index="1" y="23" style="color:black;font-size:20px;font-weight:normal;fill:black;">Coffee ↑0.62% Higher</text></g><g class="highcharts-label highcharts-data-label highcharts-data-label-color-4 highcharts-data-label-hidden" data-z-index="1" transform="translate(0,4808)" opacity="0" style="pointer-events:none;"><rect fill="none" class="highcharts-label-box highcharts-data-label-box" x="0" y="0" width="333" height="33" rx="0" ry="0"></rect><text x="5" data-z-index="1" y="23" style="color:black;font-size:20px;font-weight:normal;fill:black;">Cloud Cover Amount ↑0.49% Higher</text></g><g class="highcharts-label highcharts-data-label highcharts-data-label-color-5" data-z-index="1" transform="translate(0,4829)"><rect fill="none" class="highcharts-label-box highcharts-data-label-box" x="0" y="0" width="333" height="33" rx="0" ry="0"></rect><text x="5" data-z-index="1" y="23" style="color:black;font-size:20px;font-weight:normal;fill:black;">Outdoor Temperature ↓0.29% Lower</text></g><g class="highcharts-label highcharts-data-label highcharts-data-label-color-0 highcharts-data-label-hidden" data-z-index="1" transform="translate(0,4847)" opacity="0" style="pointer-events:none;"><rect fill="none" class="highcharts-label-box highcharts-data-label-box" x="0" y="0" width="323" height="33" rx="0" ry="0"></rect><text x="5" data-z-index="1" y="23" style="color:black;font-size:20px;font-weight:normal;fill:black;">Polyunsaturated Fat ↓0.27% Lower</text></g><g class="highcharts-label highcharts-data-label highcharts-data-label-color-1" data-z-index="1" transform="translate(0,4863)"><rect fill="none" class="highcharts-label-box highcharts-data-label-box" x="0" y="0" width="255" height="33" rx="0" ry="0"></rect><text x="5" data-z-index="1" y="23" style="color:black;font-size:20px;font-weight:normal;fill:black;">Cloud Cover ↓0.16% Lower</text></g><g class="highcharts-label highcharts-data-label highcharts-data-label-color-2 highcharts-data-label-hidden" data-z-index="1" transform="translate(0,4863)" opacity="0" style="pointer-events:none;"><rect fill="none" class="highcharts-label-box highcharts-data-label-box" x="0" y="0" width="447" height="33" rx="0" ry="0"></rect><text x="5" data-z-index="1" y="23" style="color:black;font-size:20px;font-weight:normal;fill:black;">Professional Networking Activities ↑0.12% Higher</text></g><g class="highcharts-label highcharts-data-label highcharts-data-label-color-1" data-z-index="1" transform="translate(451,2432)"><rect fill="none" class="highcharts-label-box highcharts-data-label-box" x="0" y="0" width="129" height="32" rx="0" ry="0"></rect><text x="5" data-z-index="1" y="23" style="color:black;font-size:20px;font-weight:normal;fill:black;">Overall Mood</text></g></g><g class="highcharts-legend highcharts-no-tooltip" data-z-index="7"><rect fill="none" class="highcharts-legend-box" rx="0" ry="0" x="0" y="0" width="8" height="8" visibility="hidden"></rect><g data-z-index="1"><g></g></g></g><g class="highcharts-control-points" data-z-index="99" clip-path="url(#highcharts-4eql3l6-312-)"></g></svg>