<svg width="1230" height="1071" viewBox="0 0 1230 1071" fill="none" xmlns="http://www.w3.org/2000/svg">
<path d="M1100.23 286.569C1099.68 285.519 1099.1 284.469 1098.56 283.409L1098.31 282.939C1008.64 114.839 832.201 0.519043 629.22 0.519043C426.24 0.519043 249.83 114.839 160.16 282.939C159.51 284.139 158.9 285.369 158.24 286.569C155.09 292.59 152.04 298.719 149.1 304.879H1109.33C1106.43 298.719 1103.38 292.589 1100.23 286.569Z" fill="black"></path>
<path d="M149.1 766.029C152.04 772.189 155.09 778.319 158.24 784.34C247.3 954.43 424.79 1070.39 629.22 1070.39C833.65 1070.39 1011.17 954.43 1100.23 784.34C1103.38 778.319 1106.43 772.19 1109.33 766.029H149.1Z" fill="black"></path>
<path d="M629.23 1037.06C354.148 1037.06 130.355 812.037 130.355 535.441C130.355 258.846 354.149 33.8191 629.23 33.8191C904.31 33.8191 1128.1 258.845 1128.1 535.441C1128.1 812.037 904.31 1037.06 629.23 1037.06ZM629.23 55.5751C366.146 55.5751 152.11 270.843 152.11 535.441C152.11 800.04 366.146 1015.31 629.23 1015.31C892.313 1015.31 1106.35 800.039 1106.35 535.441C1106.35 270.843 892.313 55.5751 629.23 55.5751Z" fill="white"></path>
<path fill-rule="evenodd" clip-rule="evenodd" d="M1230 535.495C1230 539.404 1229.98 543.322 1229.93 547.231C1229.69 572.273 1228.63 597.205 1226.78 621.967C1226.2 629.754 1225.53 637.513 1224.79 645.26C1220.88 686.146 1214.78 726.494 1206.5 766H23.4679C7.89127 691.545 0 613.94 0 535.495C0 457.06 7.89127 379.526 23.4679 305H1206.53C1214.78 344.487 1220.87 384.834 1224.79 425.731C1225.53 433.478 1226.19 441.246 1226.77 449.033C1228.63 473.785 1229.69 498.717 1229.93 523.769C1229.98 527.678 1230 531.586 1230 535.495Z" fill="black"></path>
<path d="M1109.33 304.878H149.105C152.043 298.714 155.088 292.586 158.243 286.567C158.896 285.37 159.512 284.137 160.165 282.941H1098.31L1098.56 283.412L1109.33 304.878Z" fill="white"></path>
<path fill-rule="evenodd" clip-rule="evenodd" d="M149.105 766.027H1109.33C1106.43 772.191 1103.38 778.318 1100.23 784.338H158.242L149.105 766.027Z" fill="white"></path>
<path fill-rule="evenodd" clip-rule="evenodd" d="M386.252 573.768V721.115H426.417V615.779L427.574 615.162H537.609V573.779H387.832L386.252 573.768Z" fill="white"></path>
<path fill-rule="evenodd" clip-rule="evenodd" d="M612.665 515.758V664.794L686.226 664.866L687.261 664.915C752.322 664.469 804.91 611.784 804.91 546.868C804.91 482.05 752.489 429.422 687.586 428.819L686.946 429.097L386.261 429.135L386.251 557.094L386.709 557.117L537.426 557.14L537.317 515.756L426.45 515.718L426.416 514.91V469.863L427.42 469.84L687.26 469.853C729.586 470.36 763.73 504.709 763.73 547.011C763.73 589.083 729.924 623.298 687.901 624.144L686.307 624.168H657.659L654.192 624.253V515.758H612.665Z" fill="white"></path>
<path fill-rule="evenodd" clip-rule="evenodd" d="M1035.1 374.903H988.488L1170.15 681.12L1196.09 638.139L1035.1 374.903Z" fill="white"></path>
<path fill-rule="evenodd" clip-rule="evenodd" d="M1063.5 625.02H926.023V664.68H1137.78L984.143 410.452L797.871 720.794H854.095L984.143 492.642L1063.5 625.02Z" fill="white"></path>
<path fill-rule="evenodd" clip-rule="evenodd" d="M926.023 720.794L1142.36 720.708L1142.68 719.757L1165.95 680.776L926.023 680.713V720.794Z" fill="white"></path>
<path fill-rule="evenodd" clip-rule="evenodd" d="M825.736 640.356L839.754 616.667L984.286 374.56H937.676L853.394 512.31C838.244 432.364 768.151 373.704 683.71 372.941H682.106L327.058 372.965L327.045 720.771H367.201L367.212 412.94L682.106 412.949L683.385 412.915C756.75 413.603 816.031 473.098 816.031 546.368C816.031 619.757 756.583 679.314 683.061 679.831L682.106 679.797H591.355L591.366 679.473V515.401H549.838L549.668 679.472V720.384H682.107L683.711 720.373C743.037 719.839 794.648 685.914 825.736 640.356Z" fill="white"></path>
<path d="M281 247.552C284.06 241.485 288.807 233.93 294.563 226.481C304.158 214.112 312.716 207.622 321.498 204.125C330.963 200.333 340.379 200.68 348.568 206.219C357.457 212.243 359.941 219.909 359.195 227.286C358.269 235.337 352.937 244.707 344.723 255.624C339.81 262.168 336.167 266.846 333.578 270C316.052 262.518 298.526 255.035 281 247.552ZM334.087 252.726C335.146 251.72 336.493 249.926 337.733 248.321C346.753 236.798 347.848 226.633 336.286 219.539C326.372 213.351 314.319 217.144 304.638 229.483C302.15 232.674 300.817 234.896 300.125 236.25C311.445 241.742 322.766 247.234 334.087 252.726Z" fill="white"></path>
<path d="M390.806 177.778C383.407 183.129 376.231 188.769 369.302 194.699C372.777 197.368 376.252 200.037 379.727 202.706C387.162 196.344 394.893 190.328 402.887 184.658C405.355 186.935 407.823 189.213 410.291 191.491C398.277 200.012 386.878 209.34 376.21 219.475C360.88 208.854 345.551 198.233 330.222 187.612C342.38 176.061 355.343 165.401 368.988 155.631C371.469 157.899 373.95 160.168 376.431 162.436C368.046 168.44 359.926 174.789 352.102 181.485C355.142 183.821 358.182 186.156 361.223 188.492C368.363 182.383 375.757 176.57 383.381 171.056C385.856 173.296 388.331 175.537 390.806 177.778Z" fill="white"></path>
<path d="M457.629 161.893C455.646 164.041 450.504 167.825 443.105 171.888C422.371 183.395 404.058 183.036 392.476 172.521C378.664 160.131 387.295 141.332 409.472 129.313C417.959 124.704 425.333 122.485 428.931 121.932C429.665 124.989 430.434 128.036 431.236 131.072C427.339 131.887 422.188 133.454 416.546 136.502C403.822 143.375 398.492 153.597 406.875 162.115C414.447 169.832 426.228 170.016 438.868 163.158C443.174 160.823 447.54 157.745 449.875 155.581C452.48 157.67 455.065 159.775 457.629 161.893Z" fill="white"></path>
<path d="M491.403 126.51C482.583 129.493 473.886 132.764 465.338 136.325C467.556 139.758 469.773 143.192 471.99 146.626C481.163 142.805 490.513 139.331 500.008 136.203C501.442 138.996 502.876 141.79 504.31 144.584C490.041 149.285 476.11 154.793 462.635 161.108C452.433 147.025 442.23 132.942 432.027 118.859C447.383 111.661 463.241 105.354 479.476 99.9373C480.925 102.726 482.375 105.514 483.824 108.303C473.847 111.631 464.017 115.306 454.364 119.327C456.304 122.331 458.244 125.336 460.184 128.341C468.992 124.672 477.953 121.301 487.042 118.227C488.496 120.988 489.949 123.749 491.403 126.51Z" fill="white"></path>
<path d="M509.102 143.039C501.655 127.884 494.208 112.73 486.762 97.575C493.756 95.3709 500.816 93.3299 507.932 91.4514C515.867 95.6408 523.527 100.013 530.902 104.551C537.243 108.466 543.643 113.434 548.551 118.146C548.66 118.125 548.769 118.103 548.879 118.082C545.869 112.03 543.519 105.702 541.31 98.5981C539.873 93.9797 538.436 89.3613 536.999 84.7428C542.7 83.6115 548.429 82.5807 554.179 81.651C558.231 97.6074 562.283 113.564 566.335 129.521C560.756 130.423 555.201 131.437 549.677 132.563C542.761 127.49 535.527 122.578 527.987 117.844C521.721 113.908 514.346 109.2 508.217 104.837C508.111 104.891 508.007 104.946 507.901 105C510.993 110.97 514.004 117.424 517.24 124.965C519.231 129.603 521.221 134.242 523.213 138.881C518.476 140.182 513.772 141.568 509.102 143.039Z" fill="white"></path>
<path d="M581.268 87.3912C573.979 88.186 566.714 89.1448 559.484 90.2676C558.744 87.2325 558.004 84.1974 557.263 81.1623C578.568 77.8549 600.159 75.9283 621.798 75.382C621.921 78.4724 622.044 81.5628 622.167 84.6527C614.701 84.8415 607.241 85.1991 599.797 85.7254C601.261 98.8627 602.725 112 604.188 125.136C598.778 125.519 593.378 126.005 587.993 126.592C585.751 113.525 583.509 100.458 581.268 87.3912Z" fill="white"></path>
<path d="M624.952 75.9645C631.061 75.2637 640.234 74.7812 650.398 75.1006C662.946 75.5002 671.63 77.2685 677.184 80.4995C681.819 83.229 683.937 86.893 683.226 91.346C682.202 97.5206 674.477 101.05 667.674 102.111C667.665 102.183 667.658 102.255 667.649 102.327C672.905 104.087 675.419 107.609 676.651 112.244C678.193 117.931 679.409 124.487 680.459 126.501C674.966 125.913 669.459 125.431 663.941 125.056C662.919 123.604 661.637 119.521 659.959 113.396C658.511 107.221 655.312 105.349 648.255 105.058C646.51 105.006 644.765 104.965 643.019 104.933C642.836 111.333 642.654 117.732 642.471 124.132C637.115 124.035 631.756 124.037 626.4 124.14C625.918 108.082 625.435 92.023 624.952 75.9645ZM643.246 96.9651C645.585 97.0076 647.923 97.0672 650.261 97.1439C659.116 97.4438 664.636 95.0848 665.085 90.8125C665.552 86.3456 660.652 83.7339 652.077 83.3525C647.554 83.1966 644.976 83.3721 643.629 83.4903C643.502 87.9814 643.374 92.4731 643.246 96.9651Z" fill="white"></path>
<path d="M702.908 116.733C700.161 120.566 697.488 124.421 694.891 128.296C689.36 127.512 683.809 126.836 678.242 126.27C688.085 110.859 699.195 95.7646 711.542 81.0864C719.769 82.3551 727.954 83.8293 736.082 85.5099C739.469 103.028 741.51 120.506 742.222 137.841C736.656 136.372 731.049 135.02 725.409 133.786C725.002 129.364 724.511 124.936 723.935 120.504C716.968 119.077 709.956 117.819 702.908 116.733ZM724.051 112.006C723.536 108.343 722.962 104.678 722.332 101.011C721.777 97.9282 721.376 94.1374 720.972 91.0952C720.892 91.0809 720.812 91.0666 720.732 91.0523C718.743 93.6674 716.575 97.0719 714.558 99.6183C712.105 102.733 709.702 105.864 707.351 109.011C712.941 109.905 718.51 110.903 724.051 112.006Z" fill="white"></path>
<path d="M765.437 92.5465C771.535 94.2147 777.59 96.0031 783.596 97.9116C777.52 110.174 771.444 122.437 765.368 134.701C774.602 137.635 783.703 140.894 792.643 144.477C790.921 147.245 789.2 150.014 787.478 152.782C773.893 147.338 759.924 142.667 745.68 138.77C752.265 123.362 758.851 107.954 765.437 92.5465Z" fill="white"></path>
<path d="M835.718 118.137C825.593 132.256 815.468 146.376 805.343 160.495C800.539 158.267 795.677 156.14 790.763 154.116C800.023 139.618 809.282 125.121 818.542 110.623C824.331 113.007 830.059 115.512 835.718 118.137Z" fill="white"></path>
<path d="M812.208 156.83C829.519 152.082 847.795 148.376 866.877 145.875C866.949 145.798 867.02 145.72 867.092 145.642C857.268 139.76 847.157 134.302 836.801 129.267C838.759 126.658 840.718 124.05 842.676 121.441C860.585 130.148 877.78 140.085 894.059 151.253C892.353 152.878 890.648 154.504 888.942 156.13C869.858 157.525 851.473 160.15 833.946 163.85C833.878 163.929 833.81 164.01 833.742 164.09C843.683 169.576 853.33 175.522 862.634 181.926C860.188 184.25 857.742 186.575 855.294 188.9C840.502 178.718 824.816 169.735 808.445 161.952C809.699 160.244 810.953 158.537 812.208 156.83Z" fill="white"></path>
<path d="M909.876 203.509C903.191 197.3 896.247 191.38 889.07 185.749C885.738 188.535 882.406 191.322 879.075 194.109C886.776 200.151 894.198 206.54 901.306 213.275C898.466 215.248 895.627 217.221 892.787 219.193C882.106 209.073 870.694 199.759 858.668 191.253C871.957 178.959 885.244 166.663 898.532 154.368C912.236 164.062 925.264 174.645 937.491 186.119C934.662 188.103 931.834 190.086 929.006 192.07C921.492 185.019 913.668 178.315 905.563 171.956C902.647 174.394 899.732 176.832 896.817 179.27C904.213 185.073 911.367 191.173 918.256 197.571C915.462 199.551 912.669 201.53 909.876 203.509Z" fill="white"></path>
<path d="M942.282 191.727C947.738 196.034 954.265 202.169 960.456 209.192C970.733 220.892 975.076 230.014 975.87 238.145C976.775 246.936 972.972 254.135 963.514 258.132C953.241 262.477 943.358 261.13 935.076 257.551C926.083 253.559 917.251 245.796 908.157 235.74C902.706 229.724 898.985 225.447 896.545 222.474C911.791 212.226 927.037 201.976 942.282 191.727ZM915.554 228.918C916.271 230.065 917.765 231.714 919.098 233.227C928.637 244.178 940.059 249.175 952.542 243.202C963.403 238.157 963.416 227.362 953.173 215.575C950.523 212.543 948.548 210.754 947.297 209.751C936.716 216.141 926.135 222.53 915.554 228.918Z" fill="white"></path>
<path d="M270.136 488.529C297.123 515.516 310.616 547.548 310.616 584.625C310.616 621.702 297.123 653.734 270.136 680.721C243.149 707.473 211.117 720.849 174.04 720.849H39.224V448.049H174.04C211.117 448.049 243.149 461.542 270.136 488.529ZM253.944 664.529C276.237 642.236 287.384 615.601 287.384 584.625C287.384 553.649 276.12 527.014 253.592 504.721C231.299 482.193 204.781 470.929 174.04 470.929H62.104V697.969H174.04C205.016 697.969 231.651 686.822 253.944 664.529ZM249.368 509.297C270.488 530.417 281.048 555.526 281.048 584.625C281.048 613.724 270.488 638.833 249.368 659.953C228.483 681.073 203.373 691.633 174.04 691.633H68.44V477.617H174.04C203.139 477.617 228.248 488.177 249.368 509.297ZM258.168 584.625C258.168 562.097 249.72 542.502 232.824 525.841C216.163 508.945 196.568 500.497 174.04 500.497H91.672V668.401H174.04C196.803 668.401 216.515 660.188 233.176 643.761C249.837 627.1 258.168 607.388 258.168 584.625Z" fill="white"></path>
<path d="M270.136 488.529L269.075 489.59L270.136 488.529ZM270.136 680.721L271.192 681.786L271.197 681.782L270.136 680.721ZM39.224 720.849H37.724V722.349H39.224V720.849ZM39.224 448.049V446.549H37.724V448.049H39.224ZM253.944 664.529L252.883 663.468L252.883 663.468L253.944 664.529ZM253.592 504.721L252.526 505.776L252.531 505.782L252.537 505.787L253.592 504.721ZM62.104 470.929V469.429H60.604V470.929H62.104ZM62.104 697.969H60.604V699.469H62.104V697.969ZM249.368 509.297L248.307 510.358L248.307 510.358L249.368 509.297ZM249.368 659.953L248.307 658.892L248.301 658.898L249.368 659.953ZM68.44 691.633H66.94V693.133H68.44V691.633ZM68.44 477.617V476.117H66.94V477.617H68.44ZM232.824 525.841L231.756 526.894L231.763 526.902L231.771 526.909L232.824 525.841ZM91.672 500.497V498.997H90.172V500.497H91.672ZM91.672 668.401H90.172V669.901H91.672V668.401ZM233.176 643.761L234.229 644.829L234.237 644.822L233.176 643.761ZM269.075 489.59C295.79 516.304 309.116 547.958 309.116 584.625H312.116C312.116 547.137 298.455 514.727 271.197 487.468L269.075 489.59ZM309.116 584.625C309.116 621.292 295.79 652.946 269.075 679.66L271.197 681.782C298.455 654.523 312.116 622.113 312.116 584.625H309.116ZM269.08 679.656C242.366 706.137 210.711 719.349 174.04 719.349V722.349C211.524 722.349 243.932 708.809 271.192 681.786L269.08 679.656ZM174.04 719.349H39.224V722.349H174.04V719.349ZM40.724 720.849V448.049H37.724V720.849H40.724ZM39.224 449.549H174.04V446.549H39.224V449.549ZM174.04 449.549C210.707 449.549 242.361 462.875 269.075 489.59L271.197 487.468C243.938 460.21 211.528 446.549 174.04 446.549V449.549ZM255.005 665.59C277.574 643.021 288.884 616.007 288.884 584.625H285.884C285.884 615.195 274.901 641.451 252.883 663.468L255.005 665.59ZM288.884 584.625C288.884 553.238 277.452 526.223 254.647 503.655L252.537 505.787C274.788 527.806 285.884 554.06 285.884 584.625H288.884ZM254.658 503.666C232.093 480.863 205.196 469.429 174.04 469.429V472.429C204.367 472.429 230.504 483.523 252.526 505.776L254.658 503.666ZM174.04 469.429H62.104V472.429H174.04V469.429ZM60.604 470.929V697.969H63.604V470.929H60.604ZM62.104 699.469H174.04V696.469H62.104V699.469ZM174.04 699.469C205.422 699.469 232.436 688.159 255.005 665.59L252.883 663.468C230.866 685.486 204.61 696.469 174.04 696.469V699.469ZM248.307 510.358C269.154 531.205 279.548 555.936 279.548 584.625H282.548C282.548 555.117 271.822 529.629 250.429 508.236L248.307 510.358ZM279.548 584.625C279.548 613.314 269.154 638.045 248.307 658.892L250.429 661.014C271.822 639.621 282.548 614.133 282.548 584.625H279.548ZM248.301 658.898C227.694 679.738 202.967 690.133 174.04 690.133V693.133C203.78 693.133 229.271 682.409 250.435 661.008L248.301 658.898ZM174.04 690.133H68.44V693.133H174.04V690.133ZM69.94 691.633V477.617H66.94V691.633H69.94ZM68.44 479.117H174.04V476.117H68.44V479.117ZM174.04 479.117C202.729 479.117 227.46 489.511 248.307 510.358L250.429 508.236C229.036 486.843 203.548 476.117 174.04 476.117V479.117ZM259.668 584.625C259.668 561.672 251.042 541.7 233.877 524.773L231.771 526.909C248.398 543.305 256.668 562.522 256.668 584.625H259.668ZM233.892 524.788C216.966 507.623 196.993 498.997 174.04 498.997V501.997C196.143 501.997 215.36 510.267 231.756 526.894L233.892 524.788ZM174.04 498.997H91.672V501.997H174.04V498.997ZM90.172 500.497V668.401H93.172V500.497H90.172ZM91.672 669.901H174.04V666.901H91.672V669.901ZM174.04 669.901C197.209 669.901 217.296 661.524 234.229 644.829L232.123 642.693C215.733 658.852 196.396 666.901 174.04 666.901V669.901ZM234.237 644.822C251.168 627.89 259.668 607.801 259.668 584.625H256.668C256.668 606.975 248.506 626.309 232.115 642.7L234.237 644.822Z" fill="black"></path>
<path d="M349.925 814.462C338.631 801.675 318.78 801.625 301.474 812.551C284.695 823.146 278.366 838.538 289.772 851.453C300.504 863.604 318.454 865.747 338.618 853.015C354.043 843.276 361.893 828.013 349.925 814.462ZM340.596 819.956C346.946 827.145 340.067 836.741 329.458 843.439C317.795 850.803 305.338 853.02 299.157 846.022C293.032 839.088 299.047 829.443 310.409 822.27C321.018 815.571 334.078 812.577 340.596 819.956Z" fill="white"></path>
<path d="M395.556 858.049L365.392 884.745C356.505 892.611 349.48 893.196 344.048 888.808C338.888 884.639 339.252 878.455 348.009 870.704L378.173 844.008L368.123 835.891L338.803 861.841C324.143 874.816 324.116 886.104 335.863 895.593C347.677 905.136 361.754 904.976 376.349 892.059L405.605 866.166L395.556 858.049Z" fill="white"></path>
<path d="M406.142 866.574L399.212 874.878L413.713 883.53L379.007 925.114L390.362 931.889L425.069 890.306L439.647 899.004L446.577 890.7L406.142 866.574Z" fill="white"></path>
<path d="M488.671 910.614C487.355 908.965 483.587 905.794 476.666 902.762C459.657 895.311 439.357 898.579 427.736 917.543C417.886 933.617 421.776 949.361 441.037 957.798C447.624 960.684 453.441 961.891 456.464 961.963L459.854 952.807C456.791 952.628 452.317 951.472 448.481 949.792C436.891 944.715 433.488 934.908 441.005 922.641C449.041 909.528 461.304 907.121 471.893 911.76C476.312 913.695 479.129 916.003 481.069 918.015L488.671 910.614Z" fill="white"></path>
<path d="M516.717 916.223C498.816 911.16 482.472 920.687 475.62 938.006C468.978 954.797 474.155 970.494 492.234 975.607C509.244 980.418 525.436 973.527 533.42 953.347C539.526 937.911 535.686 921.587 516.717 916.223ZM512.756 925.233C522.819 928.079 523.637 939.278 519.437 949.895C514.82 961.566 506.08 969.393 496.283 966.622C486.576 963.877 485.016 953.054 489.514 941.684C493.714 931.067 502.425 922.311 512.756 925.233Z" fill="white"></path>
<path d="M592.965 931.068L581.178 952.862C577.584 959.817 574.256 966.884 571.483 973.455L571.204 973.422C570.746 966.317 569.85 959 568.712 951.414L564.683 927.784L547.658 925.807L532.995 985.736L545.554 987.194L550.731 964.073C552.41 956.654 554.332 947.741 555.758 940.132L556.037 940.165C556.51 947.753 557.414 956.193 558.629 963.307L562.627 988.295L573.046 989.505L585.765 966.057C589.283 959.573 593.191 951.852 596.413 944.853L596.692 944.885C595.603 951.01 594.484 960.818 593.565 968.806L591.047 992.477L604.165 994L609.897 933.035L592.965 931.068Z" fill="white"></path>
<path d="M633.121 983.296L632.512 966.312L656.071 965.708L655.727 956.105L632.167 956.709L631.637 941.948L656.605 941.307L656.252 931.466L617.392 932.463L619.582 993.493L659.944 992.458L659.59 982.617L633.121 983.296Z" fill="white"></path>
<path d="M692.225 968.391L690.915 960.368L665.426 963.344L666.737 971.367L692.225 968.391Z" fill="white"></path>
<path d="M708.395 986.64C712.054 986.221 717.346 985.432 723.785 983.971C735.939 981.214 744.889 976.635 749.705 970.363C753.767 965.085 756.6 956.55 752.585 943.897C749.203 933.237 742.991 926.837 734.91 923.738C727.815 920.99 719.267 920.71 707.658 923.343C700.856 924.886 694.653 926.787 689.998 928.665L708.395 986.64ZM705.91 933.769C707.289 933.21 709.302 932.506 712.113 931.869C724.539 929.05 734.341 933.896 738.576 947.239C743.491 962.73 737.083 971.336 724.27 974.16C722.456 974.572 720.46 975.025 719.027 975.103L705.91 933.769Z" fill="white"></path>
<path d="M775.064 970.321L787.679 965.582L775.783 942.943L780.074 941.331C786.081 939.075 789.923 940.325 795.415 946.863C800.505 953.031 804.69 957.28 806.473 958.522L819.518 953.621C817.125 952.001 811.9 945.97 806.543 940.076C802.024 934.997 797.467 932.191 792.032 932.408L791.917 932.19C797.029 927.838 799.547 920.897 795.963 914.076C788.108 899.129 770.83 904.577 762.506 907.704C756.07 910.122 750.158 912.951 746.124 915.248L775.064 970.321ZM762.667 917.983C763.544 917.306 765.441 916.419 768.273 915.355C772.908 913.614 779.982 912.607 783.757 919.791C786.541 925.087 784.032 930.287 776.824 932.995L771.589 934.962L762.667 917.983Z" fill="white"></path>
<path d="M842.044 942.119L805.625 889.394L793.624 895.32L830.043 948.045L842.044 942.119Z" fill="white"></path>
<path d="M856.381 892.563C859.63 899.429 863.18 906.502 867.069 913.163L866.843 913.306C860.415 908.148 853.516 903.387 846.673 898.69L821.027 881.189L808.836 888.883L868.815 927.22L881.533 919.194L855.944 859.151L843.979 866.702L856.381 892.563Z" fill="white"></path>
<path d="M908.139 886.626L893.987 874.563L910.722 860.528L902.72 853.707L885.985 867.742L873.685 857.257L891.42 842.383L883.219 835.393L855.617 858.542L906.472 901.892L935.141 877.848L926.941 870.858L908.139 886.626Z" fill="white"></path>
<path d="M910.586 805.529L927.976 816.493C937.386 822.426 945.817 827.345 953.7 831.423L953.587 831.55C945.825 829.727 936.334 828.002 928.236 826.957L895.654 822.461L886.673 832.645L944.565 869.143L952.087 860.614L934.32 849.413C924.007 842.911 915.708 837.976 908.219 833.849L908.443 833.594C916.563 835.544 926.241 837.189 934.49 838.328L967.692 842.919L976 833.498L918.108 797L910.586 805.529Z" fill="white"></path>
</svg>
