<svg width="1075" height="1076" viewBox="0 0 1075 1076" fill="none" xmlns="http://www.w3.org/2000/svg">
<ellipse cx="537.5" cy="538.26" rx="537.5" ry="537.26" fill="black"></ellipse>
<path d="M1006.04 287.812C1005.49 286.757 1004.9 285.703 1004.36 284.638L1004.11 284.166C914.191 115.336 737.258 0.519043 533.709 0.519043C330.161 0.519043 153.258 115.336 63.3368 284.166C62.685 285.371 62.0733 286.607 61.4114 287.812C58.2526 293.859 55.1941 300.015 52.2458 306.201H1015.16C1012.25 300.015 1009.2 293.858 1006.04 287.812Z" fill="black"></path>
<path d="M52.2458 769.355C55.1941 775.542 58.2526 781.698 61.4114 787.745C150.721 958.574 328.707 1075.04 533.709 1075.04C738.712 1075.04 916.728 958.574 1006.04 787.745C1009.2 781.698 1012.25 775.543 1015.16 769.355H52.2458Z" fill="black"></path>
<path d="M533.719 1041.56C257.868 1041.56 33.4482 815.563 33.4482 537.765C33.4482 259.968 257.869 33.9637 533.719 33.9637C809.569 33.9637 1033.99 259.967 1033.99 537.765C1033.99 815.563 809.569 1041.56 533.719 1041.56ZM533.719 55.8143C269.899 55.8143 55.2641 272.018 55.2641 537.765C55.2641 803.514 269.899 1019.71 533.719 1019.71C797.539 1019.71 1012.17 803.513 1012.17 537.765C1012.17 272.018 797.539 55.8143 533.719 55.8143Z" fill="white"></path>
<path d="M978.731 305.863H95.2659C97.969 299.685 100.771 293.542 103.673 287.508C104.274 286.308 104.841 285.072 105.442 283.873H968.59L968.824 284.345L978.731 305.863Z" fill="white"></path>
<path fill-rule="evenodd" clip-rule="evenodd" d="M95.2659 769.656H970.709C968.064 775.712 965.288 781.733 962.411 787.648H103.596L95.2659 769.656Z" fill="white"></path>
<path fill-rule="evenodd" clip-rule="evenodd" d="M341.05 558.427V685.797H373.771V594.742L374.714 594.209H464.354V558.437H342.337L341.05 558.427Z" fill="white"></path>
<path fill-rule="evenodd" clip-rule="evenodd" d="M525.499 508.282V637.112L585.426 637.174L586.27 637.216C639.272 636.831 682.113 591.289 682.113 535.174C682.113 479.144 639.408 433.651 586.534 433.13L586.013 433.37L341.058 433.403L341.05 544.014L341.423 544.034L464.206 544.053L464.117 508.28L373.798 508.247L373.77 507.549V468.609L374.588 468.59L586.269 468.601C620.75 469.039 648.566 498.731 648.566 535.298C648.566 571.666 621.025 601.242 586.791 601.973L585.492 601.994H562.154L559.33 602.067V508.282H525.499Z" fill="white"></path>
<path fill-rule="evenodd" clip-rule="evenodd" d="M869.64 386.524H831.666L979.657 651.224L1000.79 614.071L869.64 386.524Z" fill="white"></path>
<path fill-rule="evenodd" clip-rule="evenodd" d="M892.772 602.73H780.778V637.013H953.29L828.126 417.253L676.378 685.519H722.182L828.126 488.3L892.772 602.73Z" fill="white"></path>
<path fill-rule="evenodd" clip-rule="evenodd" d="M780.779 685.519L957.017 685.445L957.282 684.623L976.235 650.927L780.779 650.872V685.519Z" fill="white"></path>
<path fill-rule="evenodd" clip-rule="evenodd" d="M699.079 615.987L710.499 595.51L828.243 386.228H790.272L721.611 505.302C709.269 436.195 652.167 385.488 583.377 384.828H582.07L292.828 384.849L292.817 685.499H325.53L325.539 419.404L582.07 419.412L583.112 419.382C642.879 419.977 691.173 471.406 691.173 534.742C691.173 598.181 642.743 649.663 582.848 650.11L582.07 650.081H508.139L508.148 649.801V507.973H474.317L474.178 649.8V685.165H582.071L583.377 685.155C631.708 684.694 673.753 655.368 699.079 615.987Z" fill="white"></path>
<path d="M184.515 248.626C187.583 242.532 192.343 234.944 198.115 227.463C207.738 215.04 216.32 208.522 225.126 205.009C234.617 201.201 244.06 201.549 252.272 207.112C261.186 213.163 263.677 220.862 262.928 228.271C262 236.357 256.653 245.768 248.416 256.732C243.49 263.305 239.836 268.003 237.24 271.171C219.665 263.656 202.09 256.141 184.515 248.626ZM237.751 253.822C238.812 252.811 240.163 251.01 241.406 249.398C250.452 237.825 251.55 227.616 239.956 220.49C230.014 214.275 217.927 218.085 208.219 230.478C205.724 233.683 204.387 235.914 203.693 237.274C215.045 242.79 226.398 248.306 237.751 253.822Z" fill="white"></path>
<path d="M294.628 178.548C287.209 183.923 280.013 189.587 273.064 195.542C276.548 198.223 280.033 200.904 283.518 203.585C290.974 197.195 298.726 191.153 306.743 185.458C309.218 187.745 311.693 190.033 314.168 192.321C302.12 200.878 290.689 210.247 279.991 220.426C264.619 209.759 249.246 199.092 233.875 188.425C246.067 176.824 259.066 166.117 272.749 156.305C275.237 158.583 277.725 160.861 280.213 163.14C271.805 169.169 263.662 175.546 255.815 182.271C258.864 184.617 261.913 186.963 264.962 189.309C272.122 183.173 279.537 177.335 287.182 171.797C289.664 174.047 292.146 176.297 294.628 178.548Z" fill="white"></path>
<path d="M361.638 162.594C359.65 164.752 354.494 168.551 347.073 172.633C326.282 184.19 307.917 183.829 296.303 173.269C282.452 160.824 291.108 141.943 313.347 129.873C321.857 125.244 329.252 123.014 332.86 122.46C333.597 125.53 334.367 128.59 335.171 131.639C331.263 132.458 326.098 134.031 320.441 137.093C307.68 143.996 302.336 154.262 310.743 162.817C318.335 170.568 330.149 170.752 342.825 163.864C347.143 161.519 351.521 158.428 353.862 156.254C356.475 158.353 359.067 160.467 361.638 162.594Z" fill="white"></path>
<path d="M395.506 127.057C386.662 130.053 377.941 133.339 369.369 136.915C371.593 140.363 373.816 143.812 376.039 147.26C385.238 143.424 394.614 139.934 404.136 136.792C405.574 139.598 407.012 142.404 408.45 145.21C394.14 149.931 380.171 155.463 366.658 161.806C356.427 147.662 346.196 133.518 335.964 119.373C351.363 112.144 367.265 105.81 383.547 100.369C385 103.17 386.453 105.971 387.906 108.771C377.901 112.114 368.044 115.805 358.364 119.843C360.309 122.861 362.255 125.878 364.2 128.896C373.033 125.211 382.019 121.826 391.133 118.739C392.591 121.512 394.048 124.285 395.506 127.057Z" fill="white"></path>
<path d="M413.255 143.659C405.787 128.438 398.32 113.217 390.853 97.9966C397.866 95.7829 404.946 93.733 412.082 91.8464C420.039 96.054 427.721 100.445 435.116 105.003C441.476 108.935 447.893 113.925 452.815 118.657C452.924 118.635 453.033 118.614 453.143 118.593C450.125 112.515 447.768 106.159 445.554 99.0242C444.112 94.3857 442.671 89.7472 441.23 85.1087C446.948 83.9724 452.693 82.9372 458.459 82.0034C462.522 98.0292 466.585 114.055 470.649 130.082C465.054 130.988 459.483 132.006 453.944 133.137C447.008 128.042 439.754 123.108 432.193 118.354C425.909 114.4 418.514 109.672 412.368 105.29C412.262 105.344 412.157 105.399 412.051 105.454C415.152 111.45 418.171 117.932 421.416 125.505C423.413 130.164 425.408 134.823 427.405 139.482C422.656 140.788 417.939 142.18 413.255 143.659Z" fill="white"></path>
<path d="M485.623 87.7689C478.314 88.5671 471.029 89.53 463.778 90.6577C463.036 87.6094 462.294 84.5611 461.552 81.5128C482.915 78.1911 504.567 76.2561 526.267 75.7074C526.39 78.8112 526.513 81.9151 526.637 85.0184C519.15 85.208 511.669 85.5672 504.204 86.0958C505.672 99.2902 507.14 112.484 508.607 125.678C503.183 126.062 497.768 126.55 492.367 127.14C490.119 114.016 487.871 100.892 485.623 87.7689Z" fill="white"></path>
<path d="M529.43 76.2923C535.556 75.5884 544.754 75.1039 554.947 75.4247C567.53 75.8259 576.239 77.602 581.807 80.847C586.456 83.5884 588.58 87.2683 587.866 91.7406C586.84 97.942 579.094 101.487 572.271 102.552C572.262 102.625 572.255 102.697 572.246 102.77C577.516 104.537 580.038 108.074 581.273 112.729C582.819 118.442 584.039 125.026 585.092 127.048C579.584 126.458 574.061 125.974 568.528 125.597C567.502 124.139 566.218 120.039 564.535 113.887C563.083 107.684 559.874 105.805 552.798 105.512C551.048 105.46 549.298 105.419 547.547 105.387C547.364 111.814 547.181 118.241 546.998 124.669C541.626 124.571 536.253 124.574 530.882 124.677C530.398 108.549 529.914 92.4206 529.43 76.2923ZM547.775 97.3842C550.12 97.4268 552.465 97.4867 554.809 97.5638C563.689 97.8649 569.224 95.4957 569.675 91.2048C570.143 86.7185 565.23 84.0955 556.63 83.7124C552.095 83.5558 549.51 83.732 548.159 83.8508C548.032 88.3615 547.903 92.8726 547.775 97.3842Z" fill="white"></path>
<path d="M607.604 117.238C604.849 121.087 602.169 124.959 599.564 128.851C594.018 128.063 588.451 127.385 582.868 126.816C592.739 111.338 603.881 96.1784 616.261 81.4364C624.511 82.7106 632.719 84.1912 640.87 85.8791C644.267 103.474 646.313 121.027 647.027 138.438C641.446 136.962 635.824 135.605 630.168 134.365C629.76 129.924 629.267 125.477 628.689 121.025C621.703 119.592 614.671 118.329 607.604 117.238ZM628.806 112.49C628.289 108.812 627.714 105.13 627.082 101.447C626.525 98.3514 626.124 94.5441 625.719 91.4887C625.638 91.4743 625.558 91.4599 625.478 91.4456C623.483 94.072 621.309 97.4914 619.287 100.049C616.827 103.177 614.417 106.321 612.059 109.482C617.665 110.38 623.249 111.382 628.806 112.49Z" fill="white"></path>
<path d="M670.308 92.9463C676.423 94.6217 682.495 96.4179 688.518 98.3347C682.425 110.651 676.332 122.967 670.239 135.284C679.498 138.231 688.624 141.504 697.589 145.102C695.863 147.882 694.137 150.663 692.411 153.443C678.788 147.975 664.779 143.285 650.496 139.371C657.099 123.896 663.704 108.421 670.308 92.9463Z" fill="white"></path>
<path d="M740.786 118.648C730.632 132.829 720.479 147.009 710.326 161.19C705.508 158.952 700.632 156.817 695.704 154.783C704.99 140.222 714.276 125.662 723.562 111.101C729.366 113.496 735.11 116.011 740.786 118.648Z" fill="white"></path>
<path d="M717.209 157.509C734.569 152.741 752.896 149.018 772.032 146.507C772.103 146.429 772.175 146.351 772.247 146.273C762.396 140.365 752.256 134.883 741.871 129.826C743.835 127.206 745.799 124.587 747.763 121.966C765.722 130.711 782.965 140.691 799.289 151.908C797.579 153.54 795.869 155.173 794.159 156.806C775.021 158.207 756.584 160.844 739.008 164.559C738.94 164.639 738.872 164.72 738.803 164.8C748.772 170.31 758.447 176.282 767.777 182.714C765.323 185.048 762.87 187.383 760.416 189.718C745.583 179.492 729.853 170.47 713.436 162.653C714.694 160.938 715.951 159.224 717.209 157.509Z" fill="white"></path>
<path d="M815.151 204.391C808.447 198.155 801.484 192.21 794.287 186.554C790.945 189.352 787.604 192.151 784.263 194.95C791.987 201.019 799.429 207.435 806.557 214.199C803.709 216.181 800.862 218.162 798.014 220.144C787.303 209.979 775.859 200.625 763.8 192.082C777.126 179.734 790.45 167.385 803.775 155.037C817.518 164.772 830.582 175.401 842.843 186.925C840.007 188.918 837.171 190.91 834.334 192.902C826.799 185.821 818.954 179.087 810.826 172.701C807.902 175.15 804.979 177.598 802.055 180.047C809.472 185.875 816.647 192.001 823.555 198.427C820.753 200.415 817.952 202.403 815.151 204.391Z" fill="white"></path>
<path d="M847.648 192.558C853.119 196.884 859.664 203.045 865.872 210.098C876.179 221.85 880.534 231.011 881.33 239.177C882.237 248.007 878.423 255.237 868.939 259.251C858.637 263.615 848.726 262.262 840.422 258.668C831.404 254.659 822.547 246.861 813.427 236.763C807.961 230.72 804.23 226.424 801.782 223.439C817.071 213.146 832.36 202.852 847.648 192.558ZM820.845 229.911C821.564 231.062 823.062 232.719 824.399 234.238C833.965 245.237 845.419 250.255 857.937 244.256C868.828 239.189 868.841 228.347 858.569 216.51C855.911 213.464 853.931 211.667 852.676 210.661C842.066 217.077 831.455 223.494 820.845 229.911Z" fill="white"></path>
<path d="M252.383 480.535C271.933 500.085 281.708 523.29 281.708 550.15C281.708 577.01 271.933 600.215 252.383 619.765C232.833 639.145 209.628 648.835 182.768 648.835H85.1033V451.21H182.768C209.628 451.21 232.833 460.985 252.383 480.535ZM240.653 608.035C256.803 591.885 264.878 572.59 264.878 550.15C264.878 527.71 256.718 508.415 240.398 492.265C224.248 475.945 205.038 467.785 182.768 467.785H101.678V632.26H182.768C205.208 632.26 224.503 624.185 240.653 608.035ZM237.338 495.58C252.638 510.88 260.288 529.07 260.288 550.15C260.288 571.23 252.638 589.42 237.338 604.72C222.208 620.02 204.018 627.67 182.768 627.67H106.268V472.63H182.768C203.848 472.63 222.038 480.28 237.338 495.58ZM243.713 550.15C243.713 533.83 237.593 519.635 225.353 507.565C213.283 495.325 199.088 489.205 182.768 489.205H123.098V610.84H182.768C199.258 610.84 213.538 604.89 225.608 592.99C237.678 580.92 243.713 566.64 243.713 550.15Z" fill="white"></path>
<path d="M252.383 619.765L253.439 620.83L253.444 620.825L252.383 619.765ZM85.1033 648.835H83.6033V650.335H85.1033V648.835ZM85.1033 451.21V449.71H83.6033V451.21H85.1033ZM240.653 608.035L239.593 606.974L239.593 606.974L240.653 608.035ZM240.398 492.265L239.332 493.32L239.338 493.325L239.343 493.331L240.398 492.265ZM101.678 467.785V466.285H100.178V467.785H101.678ZM101.678 632.26H100.178V633.76H101.678V632.26ZM237.338 495.58L236.278 496.64L236.278 496.64L237.338 495.58ZM237.338 604.72L236.278 603.659L236.272 603.665L237.338 604.72ZM106.268 627.67H104.768V629.17H106.268V627.67ZM106.268 472.63V471.13H104.768V472.63H106.268ZM225.353 507.565L224.285 508.618L224.293 508.625L224.3 508.633L225.353 507.565ZM123.098 489.205V487.705H121.598V489.205H123.098ZM123.098 610.84H121.598V612.34H123.098V610.84ZM225.608 592.99L226.661 594.058L226.669 594.05L225.608 592.99ZM251.323 481.595C270.601 500.873 280.208 523.7 280.208 550.15H283.208C283.208 522.879 273.266 499.296 253.444 479.474L251.323 481.595ZM280.208 550.15C280.208 576.599 270.601 599.426 251.323 618.704L253.444 620.825C273.266 601.003 283.208 577.42 283.208 550.15H280.208ZM251.327 618.699C232.05 637.809 209.222 647.335 182.768 647.335V650.335C210.035 650.335 233.616 640.481 253.439 620.83L251.327 618.699ZM182.768 647.335H85.1033V650.335H182.768V647.335ZM86.6033 648.835V451.21H83.6033V648.835H86.6033ZM85.1033 452.71H182.768V449.71H85.1033V452.71ZM182.768 452.71C209.218 452.71 232.045 462.317 251.323 481.595L253.444 479.474C233.622 459.652 210.039 449.71 182.768 449.71V452.71ZM241.714 609.095C258.14 592.67 266.378 572.995 266.378 550.15H263.378C263.378 572.184 255.467 591.1 239.593 606.974L241.714 609.095ZM266.378 550.15C266.378 527.299 258.051 507.623 241.453 491.199L239.343 493.331C255.386 509.206 263.378 528.121 263.378 550.15H266.378ZM241.464 491.21C225.043 474.615 205.453 466.285 182.768 466.285V469.285C204.624 469.285 223.454 477.275 239.332 493.32L241.464 491.21ZM182.768 466.285H101.678V469.285H182.768V466.285ZM100.178 467.785V632.26H103.178V467.785H100.178ZM101.678 633.76H182.768V630.76H101.678V633.76ZM182.768 633.76C205.614 633.76 225.288 625.521 241.714 609.095L239.593 606.974C223.718 622.848 204.803 630.76 182.768 630.76V633.76ZM236.278 496.64C251.305 511.667 258.788 529.479 258.788 550.15H261.788C261.788 528.66 253.972 510.092 238.399 494.519L236.278 496.64ZM258.788 550.15C258.788 570.82 251.305 588.632 236.278 603.659L238.399 605.78C253.972 590.207 261.788 571.639 261.788 550.15H258.788ZM236.272 603.665C221.419 618.684 203.612 626.17 182.768 626.17V629.17C204.425 629.17 222.997 621.355 238.405 605.774L236.272 603.665ZM182.768 626.17H106.268V629.17H182.768V626.17ZM107.768 627.67V472.63H104.768V627.67H107.768ZM106.268 474.13H182.768V471.13H106.268V474.13ZM182.768 474.13C203.439 474.13 221.251 481.613 236.278 496.64L238.399 494.519C222.826 478.946 204.258 471.13 182.768 471.13V474.13ZM245.213 550.15C245.213 533.405 238.915 518.832 226.406 506.497L224.3 508.633C236.271 520.438 242.213 534.254 242.213 550.15H245.213ZM226.421 506.511C214.086 494.003 199.513 487.705 182.768 487.705V490.705C198.664 490.705 212.48 496.647 224.285 508.618L226.421 506.511ZM182.768 487.705H123.098V490.705H182.768V487.705ZM121.598 489.205V610.84H124.598V489.205H121.598ZM123.098 612.34H182.768V609.34H123.098V612.34ZM182.768 612.34C199.665 612.34 214.319 606.226 226.661 594.058L224.555 591.922C212.757 603.553 198.852 609.34 182.768 609.34V612.34ZM226.669 594.05C239.009 581.71 245.213 567.053 245.213 550.15H242.213C242.213 566.227 236.347 580.129 224.548 591.929L226.669 594.05Z" fill="black"></path>
<path d="M253.633 817.999C242.308 805.156 222.4 805.105 205.046 816.079C188.22 826.72 181.873 842.179 193.311 855.15C204.073 867.353 222.073 869.506 242.295 856.719C257.762 846.937 265.635 831.608 253.633 817.999ZM244.278 823.517C250.645 830.737 243.747 840.374 233.108 847.101C221.413 854.497 208.921 856.724 202.723 849.696C196.581 842.731 202.613 833.045 214.006 825.84C224.645 819.112 237.742 816.105 244.278 823.517Z" fill="white"></path>
<path d="M299.391 861.775L269.143 888.587C260.231 896.486 253.187 897.074 247.74 892.667C242.565 888.481 242.93 882.269 251.712 874.485L281.96 847.673L271.882 839.52L242.48 865.583C227.779 878.614 227.751 889.952 239.531 899.481C251.379 909.066 265.495 908.906 280.131 895.932L309.469 869.927L299.391 861.775Z" fill="white"></path>
<path d="M310.007 870.337L303.058 878.677L317.599 887.367L282.796 929.131L294.184 935.936L328.987 894.171L343.606 902.907L350.555 894.567L310.007 870.337Z" fill="white"></path>
<path d="M392.767 914.568C391.447 912.912 387.669 909.727 380.729 906.682C363.672 899.198 343.315 902.481 331.661 921.527C321.784 937.671 325.685 953.483 345 961.957C351.605 964.855 357.439 966.068 360.47 966.14L363.87 956.944C360.798 956.764 356.311 955.604 352.465 953.916C340.843 948.817 337.43 938.967 344.968 926.647C353.026 913.478 365.323 911.06 375.942 915.719C380.374 917.663 383.198 919.98 385.144 922.001L392.767 914.568Z" fill="white"></path>
<path d="M420.891 920.201C402.941 915.117 386.55 924.685 379.68 942.079C373.019 958.943 378.211 974.709 396.34 979.844C413.397 984.675 429.635 977.755 437.641 957.487C443.765 941.984 439.913 925.589 420.891 920.201ZM416.92 929.251C427.011 932.109 427.831 943.357 423.619 954.02C418.989 965.742 410.225 973.602 400.401 970.819C390.666 968.062 389.101 957.192 393.612 945.773C397.824 935.109 406.56 926.316 416.92 929.251Z" fill="white"></path>
<path d="M497.353 935.111L485.534 956.999C481.929 963.985 478.592 971.083 475.811 977.682L475.531 977.649C475.072 970.513 474.173 963.164 473.032 955.545L468.992 931.813L451.919 929.828L437.215 990.016L449.809 991.481L455.001 968.259C456.685 960.808 458.612 951.856 460.041 944.214L460.321 944.247C460.796 951.869 461.703 960.345 462.921 967.49L466.93 992.587L477.379 993.802L490.133 970.252C493.661 963.74 497.58 955.985 500.811 948.956L501.091 948.988C499.998 955.14 498.876 964.99 497.955 973.013L495.43 996.787L508.585 998.316L514.332 937.086L497.353 935.111Z" fill="white"></path>
<path d="M537.621 987.565L537.01 970.508L560.636 969.901L560.29 960.257L536.665 960.863L536.134 946.038L561.171 945.395L560.817 935.511L521.849 936.512L524.045 997.807L564.519 996.767L564.165 986.884L537.621 987.565Z" fill="white"></path>
<path d="M596.891 972.596L595.577 964.539L570.017 967.527L571.331 975.585L596.891 972.596Z" fill="white"></path>
<path d="M613.106 990.924C616.776 990.504 622.082 989.711 628.54 988.244C640.727 985.475 649.703 980.876 654.532 974.577C658.605 969.276 661.447 960.704 657.42 947.996C654.028 937.29 647.799 930.861 639.695 927.749C632.581 924.989 624.009 924.708 612.367 927.353C605.546 928.902 599.325 930.811 594.658 932.697L613.106 990.924ZM610.615 937.824C611.997 937.262 614.015 936.556 616.835 935.915C629.295 933.084 639.125 937.951 643.371 951.353C648.301 966.911 641.874 975.554 629.025 978.391C627.206 978.804 625.205 979.259 623.768 979.337L610.615 937.824Z" fill="white"></path>
<path d="M679.962 974.534L692.612 969.775L680.683 947.038L684.986 945.419C691.01 943.152 694.863 944.408 700.369 950.975C705.474 957.169 709.671 961.437 711.459 962.684L724.54 957.762C722.14 956.135 716.901 950.078 711.528 944.158C706.997 939.057 702.427 936.239 696.977 936.457L696.862 936.238C701.988 931.866 704.513 924.895 700.919 918.045C693.042 903.033 675.716 908.505 667.368 911.645C660.914 914.074 654.986 916.915 650.941 919.222L679.962 974.534ZM667.53 921.969C668.409 921.289 670.312 920.398 673.152 919.33C677.799 917.581 684.894 916.57 688.679 923.785C691.47 929.104 688.955 934.327 681.726 937.046L676.477 939.021L667.53 921.969Z" fill="white"></path>
<path d="M747.129 946.21L710.609 893.256L698.574 899.208L735.094 952.162L747.129 946.21Z" fill="white"></path>
<path d="M761.506 896.438C764.765 903.334 768.324 910.438 772.224 917.128L771.998 917.272C765.551 912.092 758.633 907.31 751.771 902.592L726.053 885.015L713.828 892.743L773.975 931.247L786.729 923.185L761.068 862.881L749.07 870.466L761.506 896.438Z" fill="white"></path>
<path d="M813.41 890.476L799.218 878.36L815.999 864.265L807.975 857.414L791.194 871.51L778.859 860.979L796.643 846.041L788.42 839.02L760.74 862.27L811.738 905.808L840.487 881.66L832.264 874.64L813.41 890.476Z" fill="white"></path>
<path d="M815.863 809.027L833.302 820.038C842.738 825.997 851.192 830.937 859.097 835.033L858.985 835.161C851.2 833.329 841.683 831.597 833.562 830.548L800.889 826.032L791.883 836.26L849.937 872.917L857.48 864.351L839.664 853.101C829.321 846.571 820.999 841.614 813.489 837.469L813.714 837.214C821.857 839.172 831.562 840.824 839.834 841.968L873.129 846.579L881.46 837.117L823.406 800.46L815.863 809.027Z" fill="white"></path>
</svg>
