<svg width="2025" height="276" viewBox="0 0 2025 276" fill="none" xmlns="http://www.w3.org/2000/svg">
<rect width="2025" height="276" rx="138" fill="white"/>
<path d="M189.599 108.818C189.538 108.701 189.474 108.585 189.414 108.467L189.387 108.414C179.468 89.7163 159.951 77.0003 137.498 77.0003C115.046 77.0003 95.5322 89.7163 85.6133 108.414C85.5414 108.548 85.474 108.685 85.401 108.818C85.0525 109.488 84.7152 110.17 84.3899 110.855H190.606C190.285 110.17 189.947 109.488 189.599 108.818Z" fill="black"/>
<path d="M84.3899 162.149C84.7152 162.835 85.0525 163.516 85.401 164.186C95.2523 183.106 114.885 196.004 137.498 196.004C160.111 196.004 179.748 183.106 189.599 164.186C189.947 163.516 190.285 162.835 190.606 162.149H84.3899Z" fill="black"/>
<path d="M226.47 110.855C226.418 110.669 226.366 110.488 226.314 110.302C226.174 109.802 226.029 109.306 225.877 108.818C225.841 108.705 225.805 108.588 225.768 108.475C220.001 89.8942 208.277 73.2168 192.755 61.5123C176.7 49.4007 157.592 43 137.498 43C117.408 43 98.3001 49.4007 82.2407 61.5124C66.7188 73.2168 54.9952 89.8942 49.2275 108.471C49.1914 108.588 49.1554 108.701 49.1232 108.818C48.9709 109.314 48.8224 109.81 48.686 110.294C48.6338 110.48 48.5777 110.669 48.5295 110.855C46.1872 119.147 45 127.774 45 136.502C45 145.23 46.1872 153.865 48.5295 162.149C48.5777 162.335 48.6297 162.516 48.6819 162.698C48.8223 163.194 48.9706 163.694 49.1231 164.186C49.1552 164.303 49.1913 164.416 49.2274 164.529C54.995 183.11 66.7187 199.787 82.2406 211.492C98.3 223.599 117.408 230 137.498 230C157.588 230 176.696 223.599 192.755 211.492C208.277 199.787 220.001 183.11 225.768 164.533C225.804 164.416 225.84 164.303 225.873 164.186C226.029 163.698 226.173 163.202 226.31 162.714C226.366 162.524 226.418 162.339 226.466 162.149C228.812 153.857 230 145.234 230 136.502C230 127.766 228.809 119.139 226.47 110.855ZM221.942 163.327C221.854 163.613 221.762 163.9 221.669 164.186C209.789 201.178 176.078 225.967 137.498 225.967C98.9217 225.967 65.2107 201.183 53.3265 164.186C53.2343 163.9 53.142 163.613 53.0538 163.323C52.9293 162.932 52.8131 162.544 52.6968 162.149C52.6446 161.964 52.5885 161.778 52.5363 161.589C50.198 153.486 49.0108 145.044 49.0108 136.502C49.0108 127.96 50.1979 119.518 52.5403 111.403C52.5925 111.222 52.6446 111.036 52.7008 110.855C52.8131 110.463 52.9293 110.072 53.0536 109.677C53.1418 109.391 53.2341 109.104 53.3264 108.818C65.2105 71.8253 98.9216 47.0332 137.498 47.0332C176.074 47.0332 209.789 71.8213 221.669 108.818C221.762 109.104 221.854 109.391 221.942 109.681C222.066 110.068 222.183 110.459 222.295 110.855C222.351 111.04 222.407 111.23 222.459 111.419C224.802 119.514 225.989 127.955 225.989 136.502C225.989 145.048 224.802 153.49 222.455 161.597C222.403 161.782 222.351 161.968 222.295 162.149C222.183 162.544 222.066 162.936 221.942 163.327Z" fill="black"/>
<path d="M137.499 223.789C89.882 223.789 51.1421 184.631 51.1421 136.501C51.1421 88.3699 89.882 49.2129 137.499 49.2129C185.117 49.2129 223.857 88.3701 223.857 136.501C223.857 184.631 185.117 223.789 137.499 223.789ZM137.499 52.4394C91.6513 52.4394 54.3508 90.1491 54.3508 136.501C54.3508 182.852 91.6513 220.562 137.499 220.562C183.348 220.562 220.648 182.852 220.648 136.501C220.648 90.1491 183.348 52.4394 137.499 52.4394Z" fill="black"/>
<path d="M137.499 192.297C107.071 192.297 82.3165 167.267 82.3165 136.501C82.3165 105.734 107.071 80.7043 137.499 80.7043C167.927 80.7043 192.682 105.734 192.682 136.501C192.682 167.267 167.927 192.297 137.499 192.297ZM137.499 83.1242C108.398 83.1242 84.7229 107.069 84.7229 136.501C84.7229 165.933 108.398 189.877 137.499 189.877C166.6 189.877 190.276 165.932 190.276 136.501C190.276 107.069 166.6 83.1242 137.499 83.1242Z" fill="white"/>
<path d="M205.015 142.629C207.673 142.629 209.828 140.462 209.828 137.789C209.828 135.117 207.673 132.95 205.015 132.95C202.358 132.95 200.203 135.117 200.203 137.789C200.203 140.462 202.358 142.629 205.015 142.629Z" fill="#FEFEFE"/>
<path fill-rule="evenodd" clip-rule="evenodd" d="M230 136.502C230 136.936 229.997 137.373 229.99 137.807C229.954 140.594 229.794 143.368 229.516 146.123C229.428 146.99 229.327 147.853 229.217 148.715C228.628 153.264 227.71 157.754 226.466 162.149H48.5297C46.1869 153.865 45 145.23 45 136.502C45 127.774 46.1869 119.147 48.5297 110.855H226.47C227.71 115.248 228.627 119.738 229.216 124.288C229.327 125.15 229.427 126.015 229.514 126.881C229.794 129.635 229.954 132.409 229.99 135.197C229.997 135.632 230 136.067 230 136.502Z" fill="black"/>
<path d="M137.703 90.9995L135.888 94.6988L131.828 95.292L134.766 98.1715L134.072 102.238L137.703 100.318L141.335 102.238L140.641 98.1715L143.579 95.292L139.519 94.6988L137.703 90.9995Z" fill="white"/>
<path d="M117.613 93.8991L116.276 96.6238L113.286 97.0607L115.449 99.1817L114.939 102.176L117.613 100.763L120.288 102.176L119.777 99.1817L121.941 97.0607L118.951 96.6238L117.613 93.8991Z" fill="white"/>
<path d="M157.387 93.8991L156.049 96.6238L153.059 97.0607L155.223 99.1817L154.712 102.176L157.387 100.763L160.061 102.176L159.551 99.1817L161.714 97.0607L158.724 96.6238L157.387 93.8991Z" fill="white"/>
<path d="M137.703 169.647L135.888 173.346L131.828 173.94L134.766 176.819L134.072 180.885L137.703 178.965L141.335 180.885L140.641 176.819L143.579 173.94L139.519 173.346L137.703 169.647Z" fill="white"/>
<path d="M117.613 170.53L116.276 173.255L113.286 173.692L115.449 175.813L114.939 178.807L117.613 177.394L120.288 178.807L119.777 175.813L121.941 173.692L118.951 173.255L117.613 170.53Z" fill="white"/>
<path d="M157.387 170.53L156.049 173.255L153.059 173.692L155.223 175.813L154.712 178.807L157.387 177.394L160.061 178.807L159.551 175.813L161.714 173.692L158.724 173.255L157.387 170.53Z" fill="white"/>
<path d="M190.605 110.855H84.3905C84.7155 110.169 85.0523 109.487 85.4013 108.818C85.4735 108.685 85.5417 108.548 85.6139 108.415H189.386L189.414 108.467L190.605 110.855Z" fill="white"/>
<path fill-rule="evenodd" clip-rule="evenodd" d="M84.3905 162.149H190.606C190.285 162.835 189.948 163.516 189.599 164.186H85.4012L84.3905 162.149Z" fill="white"/>
<path fill-rule="evenodd" clip-rule="evenodd" d="M110.622 140.764V157.154H115.065V145.437L115.193 145.368H127.365V140.765H110.797L110.622 140.764Z" fill="white"/>
<path fill-rule="evenodd" clip-rule="evenodd" d="M135.667 134.311V150.889L143.804 150.897L143.919 150.902C151.115 150.853 156.932 144.992 156.932 137.772C156.932 130.562 151.134 124.708 143.954 124.641L143.884 124.672L110.623 124.676L110.622 138.909L110.673 138.912L127.345 138.914L127.333 134.311L115.069 134.307L115.065 134.217V129.206L115.176 129.204L143.918 129.205C148.6 129.262 152.377 133.082 152.377 137.788C152.377 142.467 148.638 146.273 143.989 146.367L143.813 146.37H140.644L140.261 146.379V134.311H135.667Z" fill="white"/>
<path fill-rule="evenodd" clip-rule="evenodd" d="M182.395 118.644H177.239L197.333 152.705L200.203 147.924L182.395 118.644Z" fill="white"/>
<path fill-rule="evenodd" clip-rule="evenodd" d="M185.536 146.465H170.329V150.876H193.753L176.758 122.598L156.154 157.118H162.373L176.758 131.74L185.536 146.465Z" fill="white"/>
<path fill-rule="evenodd" clip-rule="evenodd" d="M170.329 157.118L194.259 157.108L194.295 157.002L196.868 152.667L170.329 152.66V157.118Z" fill="white"/>
<path fill-rule="evenodd" clip-rule="evenodd" d="M159.236 148.171L160.787 145.536L176.774 118.606H171.618L162.295 133.928C160.619 125.035 152.866 118.51 143.526 118.425L104.075 118.428L104.073 157.115H108.515L108.516 122.875L143.348 122.876L143.49 122.872C151.605 122.948 158.162 129.566 158.162 137.716C158.162 145.879 151.587 152.504 143.454 152.561L143.348 152.558H133.31L133.311 152.522V134.272H128.718L128.699 152.522V157.072H143.348L143.526 157.071C150.088 157.012 155.797 153.238 159.236 148.171Z" fill="white"/>
<path d="M229.905 132.246H204.592V129.635H229.753L229.905 132.246Z" fill="white"/>
<path d="M229.914 140.562L229.769 143.153H204.592V140.562H229.914Z" fill="white"/>
<path d="M70.4082 132.246H45.0476L45.1991 129.635H70.4082V132.246Z" fill="white"/>
<path d="M70.4082 140.562V143.153H45.1836L45.0387 140.562H70.4082Z" fill="white"/>
<path d="M226.47 110.855C226.418 110.669 226.366 110.488 226.314 110.302C226.174 109.802 226.029 109.306 225.877 108.818C225.841 108.705 225.805 108.588 225.768 108.475C220.001 89.8942 208.277 73.2168 192.755 61.5123C176.7 49.4007 157.592 43 137.498 43C117.408 43 98.3001 49.4007 82.2407 61.5124C66.7188 73.2168 54.9952 89.8942 49.2275 108.471C49.1914 108.588 49.1554 108.701 49.1232 108.818C48.9709 109.314 48.8224 109.81 48.686 110.294C48.6338 110.48 48.5777 110.669 48.5295 110.855C46.1872 119.147 45 127.774 45 136.502C45 145.23 46.1872 153.865 48.5295 162.149C48.5777 162.335 48.6297 162.516 48.6819 162.698C48.8223 163.194 48.9706 163.694 49.1231 164.186C49.1552 164.303 49.1913 164.416 49.2274 164.529C54.995 183.11 66.7187 199.787 82.2406 211.492C98.3 223.599 117.408 230 137.498 230C157.588 230 176.696 223.599 192.755 211.492C208.277 199.787 220.001 183.11 225.768 164.533C225.804 164.416 225.84 164.303 225.873 164.186C226.029 163.698 226.173 163.202 226.31 162.714C226.366 162.524 226.418 162.339 226.466 162.149C228.812 153.857 230 145.234 230 136.502C230 127.766 228.809 119.139 226.47 110.855ZM221.942 163.327C221.854 163.613 221.762 163.9 221.669 164.186C209.789 201.178 176.078 225.967 137.498 225.967C98.9217 225.967 65.2107 201.183 53.3265 164.186C53.2343 163.9 53.142 163.613 53.0538 163.323C52.9293 162.932 52.8131 162.544 52.6968 162.149C52.6446 161.964 52.5885 161.778 52.5363 161.589C50.198 153.486 49.0108 145.044 49.0108 136.502C49.0108 127.96 50.1979 119.518 52.5403 111.403C52.5925 111.222 52.6446 111.036 52.7008 110.855C52.8131 110.463 52.9293 110.072 53.0536 109.677C53.1418 109.391 53.2341 109.104 53.3264 108.818C65.2105 71.8253 98.9216 47.0332 137.498 47.0332C176.074 47.0332 209.789 71.8213 221.669 108.818C221.762 109.104 221.854 109.391 221.942 109.681C222.066 110.068 222.183 110.459 222.295 110.855C222.351 111.04 222.407 111.23 222.459 111.419C224.802 119.514 225.989 127.955 225.989 136.502C225.989 145.048 224.802 153.49 222.455 161.597C222.403 161.782 222.351 161.968 222.295 162.149C222.183 162.544 222.066 162.936 221.942 163.327Z" fill="black"/>
<path d="M71.7373 99.069C72.3097 97.6534 73.1977 95.8909 74.2746 94.1529C76.0696 91.2672 77.6708 89.753 79.3136 88.9371C81.0842 88.0525 82.8459 88.1334 84.3779 89.4256C86.0408 90.8312 86.5055 92.6197 86.3659 94.3407C86.1927 96.219 85.1952 98.4052 83.6586 100.952C82.7395 102.479 82.0579 103.57 81.5736 104.306C78.2947 102.56 75.016 100.815 71.7373 99.069ZM81.6688 100.276C81.8668 100.041 82.1188 99.6228 82.3508 99.2484C84.0383 96.5599 84.243 94.1885 82.0802 92.5332C80.2254 91.0896 77.9705 91.9745 76.1594 94.8533C75.694 95.5978 75.4445 96.1161 75.3151 96.432C77.4329 97.7134 79.5509 98.9948 81.6688 100.276Z" fill="black"/>
<path d="M92.2797 82.7902C90.8955 84.0388 89.5531 85.3547 88.2568 86.7379C88.9068 87.3607 89.5569 87.9835 90.207 88.6062C91.5979 87.1218 93.0442 85.7183 94.5399 84.3954C95.0016 84.9268 95.4633 85.4582 95.925 85.9896C93.6774 87.9775 91.5448 90.1538 89.549 92.5185C86.6812 90.0405 83.8134 87.5626 80.9457 85.0846C83.2202 82.3898 85.6453 79.9026 88.1981 77.6233C88.6622 78.1525 89.1264 78.6818 89.5905 79.211C88.0219 80.6116 86.5027 82.093 85.0389 83.6552C85.6077 84.2001 86.1765 84.745 86.7453 85.2899C88.081 83.8646 89.4644 82.5086 90.8907 81.222C91.3537 81.7447 91.8167 82.2674 92.2797 82.7902Z" fill="black"/>
<path d="M104.781 79.0842C104.41 79.5855 103.448 80.4681 102.064 81.4162C98.1848 84.1009 94.7589 84.0171 92.5921 81.5639C90.0082 78.6732 91.6229 74.2872 95.7718 71.4833C97.3594 70.408 98.7389 69.8901 99.4121 69.7613C99.5495 70.4744 99.6933 71.1853 99.8433 71.8936C99.1142 72.0838 98.1505 72.4492 97.0952 73.1604C94.7146 74.7639 93.7175 77.1489 95.2859 79.136C96.7024 80.9365 98.9064 80.9794 101.271 79.3793C102.077 78.8346 102.893 78.1165 103.33 77.6116C103.818 78.0991 104.301 78.5901 104.781 79.0842Z" fill="black"/>
<path d="M111.099 70.8292C109.449 71.5251 107.822 72.2884 106.223 73.119C106.638 73.9201 107.053 74.7212 107.468 75.5223C109.183 74.631 110.933 73.8204 112.709 73.0906C112.977 73.7424 113.246 74.3941 113.514 75.0459C110.844 76.1427 108.238 77.4277 105.717 78.9012C103.809 75.6155 101.9 72.33 99.9912 69.0443C102.864 67.365 105.831 65.8935 108.868 64.6297C109.139 65.2803 109.41 65.9309 109.681 66.5815C107.815 67.358 105.976 68.2154 104.17 69.1534C104.533 69.8544 104.896 70.5554 105.259 71.2564C106.907 70.4004 108.583 69.6139 110.283 68.8969C110.555 69.541 110.827 70.1852 111.099 70.8292Z" fill="black"/>
<path d="M114.41 74.6856C113.017 71.1499 111.624 67.6142 110.231 64.0786C111.539 63.5643 112.86 63.0882 114.191 62.6499C115.676 63.6273 117.109 64.6474 118.489 65.7061C119.675 66.6195 120.872 67.7786 121.79 68.8779C121.811 68.8729 121.831 68.8679 121.852 68.863C121.289 67.451 120.849 65.9747 120.436 64.3173C120.167 63.2398 119.898 62.1623 119.629 61.0848C120.696 60.8208 121.768 60.5803 122.843 60.3634C123.601 64.0861 124.36 67.8089 125.118 71.5318C124.074 71.7422 123.035 71.9788 122.001 72.2414C120.707 71.0579 119.354 69.9119 117.943 68.8075C116.771 67.889 115.392 66.7907 114.245 65.7727C114.225 65.7854 114.206 65.7982 114.186 65.8109C114.764 67.2037 115.327 68.7095 115.933 70.4687C116.305 71.5509 116.678 72.6332 117.05 73.7154C116.164 74.0189 115.284 74.3423 114.41 74.6856Z" fill="black"/>
<path d="M127.911 61.7026C126.547 61.8881 125.188 62.1118 123.836 62.3737C123.697 61.6656 123.559 60.9575 123.42 60.2494C127.406 59.4778 131.445 59.0283 135.493 58.9008C135.516 59.6218 135.539 60.3428 135.562 61.0637C134.166 61.1078 132.77 61.1912 131.378 61.314C131.651 64.379 131.925 67.4439 132.199 70.5088C131.187 70.5981 130.177 70.7113 129.169 70.8484C128.75 67.7998 128.33 64.7512 127.911 61.7026Z" fill="black"/>
<path d="M136.084 59.0368C137.226 58.8732 138.942 58.7607 140.844 58.8352C143.191 58.9284 144.816 59.341 145.855 60.0948C146.722 60.7316 147.118 61.5864 146.985 62.6253C146.794 64.0659 145.349 64.8893 144.076 65.1368C144.074 65.1536 144.073 65.1705 144.071 65.1873C145.054 65.5978 145.525 66.4195 145.755 67.5008C146.044 68.8278 146.271 70.3573 146.468 70.8271C145.44 70.69 144.41 70.5775 143.378 70.49C143.186 70.1514 142.947 69.1988 142.633 67.7698C142.362 66.329 141.763 65.8923 140.443 65.8243C140.117 65.8123 139.79 65.8027 139.463 65.7953C139.429 67.2884 139.395 68.7813 139.361 70.2744C138.359 70.2517 137.356 70.2524 136.354 70.2763C136.264 66.5299 136.174 62.7833 136.084 59.0368ZM139.506 63.9363C139.943 63.9462 140.381 63.9601 140.818 63.978C142.475 64.048 143.507 63.4976 143.592 62.5008C143.679 61.4587 142.762 60.8494 141.158 60.7604C140.312 60.724 139.83 60.765 139.578 60.7925C139.554 61.8404 139.53 62.8883 139.506 63.9363Z" fill="black"/>
<path d="M150.667 68.5482C150.153 69.4424 149.653 70.3418 149.168 71.246C148.133 71.0629 147.094 70.9053 146.053 70.7732C147.894 67.1777 149.973 63.6562 152.283 60.2317C153.822 60.5277 155.353 60.8716 156.874 61.2637C157.507 65.3508 157.889 69.4285 158.022 73.4729C156.981 73.1301 155.932 72.8147 154.877 72.5268C154.801 71.4952 154.709 70.462 154.601 69.4279C153.298 69.095 151.986 68.8017 150.667 68.5482ZM154.623 67.4453C154.526 66.5908 154.419 65.7357 154.301 64.8801C154.197 64.161 154.122 63.2766 154.047 62.5668C154.032 62.5635 154.017 62.5601 154.002 62.5568C153.63 63.1669 153.224 63.9612 152.847 64.5553C152.388 65.2819 151.938 66.0123 151.499 66.7466C152.544 66.9551 153.586 67.1881 154.623 67.4453Z" fill="black"/>
<path d="M162.365 62.9054C163.506 63.2946 164.639 63.7118 165.763 64.1571C164.626 67.0181 163.489 69.8791 162.353 72.7402C164.08 73.4248 165.782 74.1851 167.455 75.021C167.133 75.6668 166.811 76.3127 166.489 76.9586C163.947 75.6884 161.334 74.5988 158.669 73.6897C159.901 70.0949 161.133 66.5001 162.365 62.9054Z" fill="black"/>
<path d="M175.513 68.8758C173.619 72.1699 171.725 75.464 169.831 78.7582C168.932 78.2383 168.023 77.7422 167.103 77.2699C168.836 73.8874 170.568 70.5051 172.3 67.1226C173.383 67.6789 174.455 68.2633 175.513 68.8758Z" fill="black"/>
<path d="M171.115 77.903C174.354 76.7954 177.773 75.9307 181.343 75.3472C181.356 75.3291 181.369 75.311 181.383 75.2929C179.545 73.9206 177.653 72.6471 175.716 71.4724C176.082 70.8638 176.449 70.2553 176.815 69.6466C180.165 71.678 183.382 73.9963 186.428 76.6018C186.109 76.9811 185.79 77.3604 185.471 77.7397C181.9 78.0652 178.461 78.6776 175.182 79.5408C175.169 79.5594 175.157 79.5781 175.144 79.5967C177.003 80.8767 178.808 82.2639 180.549 83.758C180.091 84.3003 179.634 84.8427 179.176 85.385C176.408 83.0096 173.474 80.9138 170.411 79.098C170.646 78.6997 170.88 78.3013 171.115 77.903Z" fill="black"/>
<path d="M189.387 88.7934C188.136 87.3449 186.837 85.9638 185.494 84.65C184.871 85.3001 184.248 85.9502 183.625 86.6004C185.065 88.0101 186.454 89.5006 187.784 91.0719C187.252 91.5322 186.721 91.9924 186.19 92.4527C184.192 90.0915 182.057 87.9187 179.807 85.9342C182.293 83.0657 184.779 80.1972 187.265 77.3287C189.828 79.5902 192.266 82.0593 194.553 84.7362C194.024 85.1991 193.495 85.6619 192.966 86.1247C191.56 84.4797 190.096 82.9155 188.58 81.432C188.035 82.0008 187.489 82.5696 186.944 83.1385C188.327 84.4922 189.666 85.9154 190.955 87.408C190.432 87.87 189.909 88.3317 189.387 88.7934Z" fill="black"/>
<path d="M195.449 86.0448C196.47 87.0496 197.691 88.4808 198.849 90.1193C200.772 92.849 201.584 94.9772 201.733 96.8742C201.902 98.9253 201.191 100.605 199.421 101.537C197.5 102.551 195.651 102.237 194.101 101.402C192.419 100.47 190.767 98.6591 189.065 96.3132C188.046 94.9096 187.349 93.9117 186.893 93.2182C189.745 90.8272 192.597 88.4359 195.449 86.0448ZM190.449 94.7216C190.583 94.989 190.863 95.3739 191.112 95.7268C192.897 98.2818 195.034 99.4475 197.369 98.054C199.401 96.877 199.403 94.3585 197.487 91.6086C196.991 90.9011 196.622 90.4837 196.387 90.2499C194.408 91.7405 192.429 93.2311 190.449 94.7216Z" fill="black"/>
<path d="M97.7783 131.283C100.763 134.284 102.256 137.847 102.256 141.971C102.256 146.096 100.763 149.659 97.7783 152.66C94.7932 155.636 91.25 157.124 87.1487 157.124H72.236V126.78H87.1487C91.25 126.78 94.7932 128.281 97.7783 131.283ZM95.9872 150.859C98.4532 148.38 99.6862 145.417 99.6862 141.971C99.6862 138.526 98.4402 135.563 95.9483 133.084C93.4823 130.578 90.5491 129.325 87.1487 129.325H74.7669V154.579H87.1487C90.5751 154.579 93.5213 153.339 95.9872 150.859ZM95.4811 133.593C97.8173 135.942 98.9854 138.735 98.9854 141.971C98.9854 145.208 97.8173 148.001 95.4811 150.35C93.1708 152.7 90.3934 153.874 87.1487 153.874H75.4678V130.069H87.1487C90.3674 130.069 93.1449 131.243 95.4811 133.593ZM96.4545 141.971C96.4545 139.466 95.52 137.286 93.6511 135.433C91.8081 133.553 89.6406 132.614 87.1487 132.614H78.0376V151.29H87.1487C89.6666 151.29 91.847 150.376 93.69 148.549C95.533 146.696 96.4545 144.503 96.4545 141.971Z" fill="white"/>
<path d="M87.0872 175.36C89.2723 178.302 87.839 181.616 85.0228 183.731C81.3412 186.496 78.064 186.03 76.1045 183.392C74.022 180.588 75.1776 177.245 78.2411 174.945C81.4007 172.572 85.0252 172.583 87.0872 175.36ZM85.384 176.553C84.1939 174.95 81.8094 175.6 79.8724 177.055C77.798 178.613 76.6999 180.707 77.8181 182.213C78.9465 183.732 81.221 183.251 83.3503 181.652C85.2873 180.197 86.5432 178.114 85.384 176.553Z" fill="black"/>
<path d="M95.4183 184.824L97.2531 186.587L91.9117 192.209C89.2469 195.014 86.6768 195.049 84.5197 192.976C82.375 190.916 82.3799 188.465 85.0565 185.648L90.4098 180.013L92.2446 181.775L86.7374 187.572C85.1385 189.255 85.072 190.598 86.0142 191.503C87.006 192.456 88.2885 192.329 89.9111 190.621L95.4183 184.824Z" fill="black"/>
<path d="M97.3512 186.675L104.734 191.914L103.468 193.717L100.807 191.828L94.4702 200.858L92.3969 199.387L98.7335 190.357L96.0858 188.478L97.3512 186.675Z" fill="black"/>
<path d="M112.419 196.238L111.031 197.845C110.677 197.408 110.163 196.907 109.356 196.487C107.422 195.48 105.183 196.003 103.716 198.85C102.344 201.513 102.965 203.643 105.081 204.746C105.782 205.11 106.599 205.361 107.158 205.4L106.539 207.388C105.987 207.373 104.925 207.111 103.722 206.484C100.206 204.652 99.4953 201.233 101.294 197.743C103.415 193.625 107.122 192.915 110.227 194.533C111.491 195.192 112.179 195.88 112.419 196.238Z" fill="black"/>
<path d="M117.54 197.456C121.003 198.621 121.704 202.166 120.589 205.517C119.132 209.899 116.175 211.396 113.07 210.351C109.769 209.241 108.824 205.832 110.036 202.186C111.287 198.426 114.271 196.357 117.54 197.456ZM116.816 199.413C114.93 198.778 113.34 200.679 112.573 202.985C111.752 205.454 112.037 207.804 113.809 208.4C115.598 209.002 117.193 207.302 118.036 204.768C118.803 202.462 118.654 200.031 116.816 199.413Z" fill="black"/>
<path d="M131.461 200.68L134.552 201.107L133.506 214.345L131.111 214.014L131.57 208.874C131.738 207.14 131.942 205.01 132.141 203.68L132.09 203.673C131.502 205.193 130.789 206.869 130.146 208.277L127.824 213.369L125.922 213.106L125.192 207.68C124.97 206.135 124.805 204.303 124.719 202.655L124.668 202.648C124.407 204.3 124.057 206.236 123.75 207.846L122.805 212.867L120.512 212.55L123.189 199.537L126.297 199.967L127.033 205.098C127.241 206.745 127.404 208.334 127.488 209.877L127.539 209.884C128.045 208.457 128.653 206.922 129.309 205.412L131.461 200.68Z" fill="black"/>
<path d="M138.792 212.021L143.625 211.873L143.69 214.01L136.321 214.235L135.921 200.983L143.016 200.766L143.08 202.903L138.522 203.042L138.618 206.248L142.92 206.116L142.983 208.201L138.681 208.333L138.792 212.021Z" fill="black"/>
<path d="M149.584 208.784L144.93 209.43L144.691 207.688L149.344 207.042L149.584 208.784Z" fill="black"/>
<path d="M152.536 212.747L149.177 200.158C150.027 199.75 151.159 199.337 152.401 199.002C154.521 198.43 156.082 198.491 157.377 199.088C158.852 199.761 159.986 201.151 160.604 203.465C161.337 206.213 160.82 208.066 160.078 209.212C159.199 210.574 157.565 211.569 155.346 212.167C154.17 212.484 153.204 212.656 152.536 212.747ZM152.082 201.266L154.477 210.242C154.739 210.225 155.103 210.126 155.434 210.037C157.774 209.424 158.944 207.555 158.046 204.191C157.273 201.294 155.483 200.241 153.215 200.854C152.701 200.992 152.334 201.145 152.082 201.266Z" fill="black"/>
<path d="M164.708 209.203L159.424 197.245C160.161 196.746 161.24 196.131 162.415 195.606C163.935 194.927 167.09 193.744 168.524 196.99C169.178 198.471 168.718 199.978 167.785 200.923L167.806 200.971C168.798 200.924 169.63 201.533 170.455 202.636C171.434 203.916 172.387 205.225 172.824 205.577L170.443 206.641C170.117 206.371 169.353 205.449 168.424 204.11C167.421 202.69 166.72 202.418 165.623 202.908L164.839 203.258L167.011 208.174L164.708 209.203ZM162.445 197.838L164.074 201.525L165.029 201.098C166.346 200.51 166.804 199.381 166.295 198.231C165.606 196.671 164.314 196.89 163.468 197.268C162.951 197.499 162.605 197.691 162.445 197.838Z" fill="black"/>
<path d="M176.937 203.079L174.746 204.366L168.097 192.917L170.288 191.631L176.937 203.079Z" fill="black"/>
<path d="M179.555 192.319L177.291 186.703L179.475 185.063L184.147 198.101L181.825 199.844L170.874 191.52L173.1 189.849L177.782 193.649C179.032 194.669 180.291 195.703 181.465 196.823L181.506 196.792C180.796 195.345 180.148 193.81 179.555 192.319Z" fill="black"/>
<path d="M189.005 191.03L192.437 187.606L193.935 189.123L188.7 194.344L179.415 184.931L184.455 179.905L185.952 181.422L182.714 184.652L184.96 186.929L188.015 183.881L189.476 185.362L186.421 188.41L189.005 191.03Z" fill="black"/>
<path d="M189.451 173.42L190.825 171.568L201.395 179.493L199.878 181.539L193.816 180.542C192.31 180.294 190.543 179.937 189.06 179.514L189.019 179.569C190.387 180.465 191.902 181.537 193.785 182.949L197.029 185.381L195.655 187.233L185.085 179.308L186.725 177.096L192.674 178.073C194.152 178.3 195.885 178.674 197.303 179.07L197.323 179.043C195.884 178.157 194.345 177.089 192.626 175.801L189.451 173.42Z" fill="black"/>
<path d="M305.576 68.336H301.416V56.56H262.888V68.336H258.728V52.4H305.576V68.336ZM300.264 68.336H296.04V61.936H286.952V92.464H293.48V96.688H282.728V57.776H300.264V68.336ZM281.576 96.688H270.888V92.464H277.352V61.936H268.264V68.336H264.104V57.776H281.576V96.688ZM293.48 102H270.888V97.84H293.48V102ZM356.081 102H341.425V97.84H351.857V56.56H341.425V52.4H356.081V102ZM350.705 76.592H314.417V57.776H323.697V61.936H318.577V72.432H346.545V61.936H341.425V57.776H350.705V76.592ZM350.705 96.688H341.425V92.464H346.545V81.968H318.577V92.464H323.697V96.688H314.417V77.808H350.705V96.688ZM323.697 102H309.041V52.4H323.697V56.56H313.201V97.84H323.697V102ZM403.189 68.016H399.029V61.936H369.077V72.432H378.933V65.584H383.093V76.592H364.917V57.776H403.189V68.016ZM388.469 88.816H384.245V65.584H388.469V88.816ZM408.565 102H359.541V52.4H408.565V68.016H404.405V56.56H363.765V97.84H404.405V86.448H408.565V102ZM403.189 96.688H364.917V77.808H383.093V88.816H378.933V81.968H369.077V92.464H399.029V86.448H403.189V96.688ZM344.424 145.52C354.237 155.333 359.144 166.981 359.144 180.464C359.144 193.947 354.237 205.595 344.424 215.408C334.611 225.136 322.963 230 309.48 230H260.456V130.8H309.48C322.963 130.8 334.611 135.707 344.424 145.52ZM338.536 209.52C346.643 201.413 350.696 191.728 350.696 180.464C350.696 169.2 346.6 159.515 338.408 151.408C330.301 143.216 320.659 139.12 309.48 139.12H268.776V221.68H309.48C320.744 221.68 330.429 217.627 338.536 209.52ZM336.872 153.072C344.552 160.752 348.392 169.883 348.392 180.464C348.392 191.045 344.552 200.176 336.872 207.856C329.277 215.536 320.147 219.376 309.48 219.376H271.08V141.552H309.48C320.061 141.552 329.192 145.392 336.872 153.072ZM340.072 180.464C340.072 172.272 337 165.147 330.856 159.088C324.797 152.944 317.672 149.872 309.48 149.872H279.528V210.928H309.48C317.757 210.928 324.925 207.941 330.984 201.968C337.043 195.909 340.072 188.741 340.072 180.464ZM453.377 162.032H445.057V149.872H385.153V170.864H404.865V157.168H413.185V179.184H376.833V141.552H453.377V162.032ZM423.937 203.632H415.489V157.168H423.937V203.632ZM464.129 230H366.081V130.8H464.129V162.032H455.809V139.12H374.529V221.68H455.809V198.896H464.129V230ZM453.377 219.376H376.833V181.616H413.185V203.632H404.865V189.936H385.153V210.928H445.057V198.896H453.377V219.376ZM569.129 230H520.745C507.092 230 495.401 225.136 485.673 215.408C475.945 205.68 471.081 194.032 471.081 180.464C471.081 166.896 475.945 155.248 485.673 145.52C495.486 135.707 507.177 130.8 520.745 130.8H569.129V164.464H560.809V139.12H520.745C509.481 139.12 499.796 143.216 491.689 151.408C483.582 159.515 479.529 169.2 479.529 180.464C479.529 191.813 483.54 201.541 491.561 209.648C499.668 217.669 509.396 221.68 520.745 221.68H560.809V196.336H569.129V230ZM558.377 219.376H520.745C510.078 219.376 500.905 215.579 493.225 207.984C485.63 200.304 481.833 191.131 481.833 180.464C481.833 169.797 485.673 160.667 493.353 153.072C501.033 145.392 510.164 141.552 520.745 141.552H558.377V164.464H550.057V149.872H520.745C512.468 149.872 505.3 152.901 499.241 158.96C493.182 165.019 490.153 172.187 490.153 180.464C490.153 188.741 493.14 195.909 499.113 201.968C505.172 207.941 512.382 210.928 520.745 210.928H550.057V196.336H558.377V219.376ZM663.377 162.032H655.057V149.872H595.153V170.864H614.865V157.168H623.185V179.184H586.833V141.552H663.377V162.032ZM633.937 203.632H625.489V157.168H633.937V203.632ZM674.129 230H576.081V130.8H674.129V162.032H665.809V139.12H584.529V221.68H665.809V198.896H674.129V230ZM663.377 219.376H586.833V181.616H623.185V203.632H614.865V189.936H595.153V210.928H655.057V198.896H663.377V219.376ZM773.497 230H747.385L700.153 155.248V210.928H709.369V219.376H691.833V141.552H701.433L751.865 221.68H765.177V139.12H745.209V130.8H773.497V230ZM762.745 219.376H753.273L702.713 139.12H689.401V221.68H709.369V230H681.081V130.8H707.321L754.425 205.552V149.872H745.209V141.552H762.745V219.376ZM874.152 162.672H865.832V139.12H788.776V162.672H780.456V130.8H874.152V162.672ZM863.528 162.672H855.08V149.872H836.904V210.928H849.96V219.376H828.456V141.552H863.528V162.672ZM826.152 219.376H804.776V210.928H817.704V149.872H799.528V162.672H791.208V141.552H826.152V219.376ZM849.96 230H804.776V221.68H849.96V230ZM967.481 141.552C967.054 151.877 963.044 160.752 955.449 168.176C947.854 175.6 938.894 179.312 928.569 179.312H891.833V141.552H967.481ZM978.233 230H944.953V221.68H969.913V220.528C969.913 211.227 966.926 202.779 960.953 195.184C954.98 187.504 947.47 182.597 938.425 180.464C947.47 178.245 954.98 173.339 960.953 165.744C966.926 158.149 969.913 149.701 969.913 140.4V139.12H889.401V221.68H909.625V230H881.081V130.8H978.233V140.4C978.233 148.336 976.398 155.845 972.729 162.928C969.145 170.011 964.153 175.856 957.753 180.464C964.068 185.072 969.06 190.917 972.729 198C976.398 204.997 978.233 212.507 978.233 220.528V230ZM967.481 219.376H944.953V210.928H957.625C955.406 204.784 951.652 199.749 946.361 195.824C941.07 191.899 935.14 189.936 928.569 189.936H900.281V210.928H909.625V219.376H891.705V181.616H928.569C938.894 181.616 947.854 185.328 955.449 192.752C963.044 200.091 967.054 208.965 967.481 219.376ZM957.625 149.872H900.281V170.864H928.569C935.14 170.864 941.07 168.901 946.361 164.976C951.652 161.051 955.406 156.016 957.625 149.872ZM1090.42 179.184H1065.33L1048.18 139.12H1033.59L1016.31 179.184H991.222V170.864H1010.81L1028.09 130.8H1053.69L1070.84 170.864H1090.42V179.184ZM1062.77 179.184H1018.87L1035.13 141.552H1046.65L1062.77 179.184ZM1096.31 230H1056.37V221.68H1083.64L1066.36 181.616H1090.42V189.936H1079.03L1096.31 230ZM1079.93 219.376H1056.37V210.928H1067.25L1058.29 189.936H1023.35L1014.26 210.928H1025.14V219.376H1001.59L1017.85 181.616H1063.8L1079.93 219.376ZM1025.14 230H985.206L1002.49 189.936H991.222V181.616H1015.29L998.006 221.68H1025.14V230ZM1050.1 170.864L1041.14 149.872H1040.63L1031.54 170.864H1050.1ZM1184.1 230H1103.21V130.8H1135.08V139.12H1111.53V221.68H1175.78V198.896H1184.1V230ZM1173.35 219.376H1113.96V141.552H1135.08V149.872H1122.28V210.928H1165.03V198.896H1173.35V219.376ZM1237.42 139.12H1190.96V130.8H1237.42V139.12ZM1237.42 219.376H1215.66V141.552H1237.42V149.872H1223.98V210.928H1237.42V219.376ZM1213.36 219.376H1190.96V210.928H1204.4V149.872H1190.96V141.552H1213.36V219.376ZM1237.42 230H1190.96V221.68H1237.42V230ZM1351.08 130.8L1286.19 210.928H1328.17V197.36H1336.49V219.376L1267.88 219.248L1332.78 139.12H1256.49V163.568H1248.17V130.8H1351.08ZM1347.24 230H1244.33L1309.23 149.872H1267.24V163.568H1258.92V141.552H1327.53L1262.64 221.68H1338.92V197.36H1347.24V230ZM1445.25 162.032H1436.93V149.872H1377.03V170.864H1396.74V157.168H1405.06V179.184H1368.71V141.552H1445.25V162.032ZM1415.81 203.632H1407.36V157.168H1415.81V203.632ZM1456 230H1357.96V130.8H1456V162.032H1447.68V139.12H1366.4V221.68H1447.68V198.896H1456V230ZM1445.25 219.376H1368.71V181.616H1405.06V203.632H1396.74V189.936H1377.03V210.928H1436.93V198.896H1445.25V219.376ZM1546.92 145.52C1556.74 155.333 1561.64 166.981 1561.64 180.464C1561.64 193.947 1556.74 205.595 1546.92 215.408C1537.11 225.136 1525.46 230 1511.98 230H1462.96V130.8H1511.98C1525.46 130.8 1537.11 135.707 1546.92 145.52ZM1541.04 209.52C1549.14 201.413 1553.2 191.728 1553.2 180.464C1553.2 169.2 1549.1 159.515 1540.91 151.408C1532.8 143.216 1523.16 139.12 1511.98 139.12H1471.28V221.68H1511.98C1523.24 221.68 1532.93 217.627 1541.04 209.52ZM1539.37 153.072C1547.05 160.752 1550.89 169.883 1550.89 180.464C1550.89 191.045 1547.05 200.176 1539.37 207.856C1531.78 215.536 1522.65 219.376 1511.98 219.376H1473.58V141.552H1511.98C1522.56 141.552 1531.69 145.392 1539.37 153.072ZM1542.57 180.464C1542.57 172.272 1539.5 165.147 1533.36 159.088C1527.3 152.944 1520.17 149.872 1511.98 149.872H1482.03V210.928H1511.98C1520.26 210.928 1527.43 207.941 1533.48 201.968C1539.54 195.909 1542.57 188.741 1542.57 180.464ZM1684.25 162.032H1675.93V149.872H1616.03V170.864H1635.74V157.168H1644.06V179.184H1607.71V141.552H1684.25V162.032ZM1654.81 203.632H1646.36V157.168H1654.81V203.632ZM1695 162.032H1686.68V139.12H1605.4V221.68H1623.07V230H1596.96V130.8H1695V162.032ZM1644.06 203.632H1635.74V189.936H1616.03V210.928H1623.07V219.376H1607.71V181.616H1644.06V203.632ZM1785.92 145.52C1795.74 155.333 1800.64 166.981 1800.64 180.464C1800.64 193.947 1795.74 205.595 1785.92 215.408C1776.11 225.136 1764.46 230 1750.98 230H1701.96V130.8H1750.98C1764.46 130.8 1776.11 135.707 1785.92 145.52ZM1780.04 209.52C1788.14 201.413 1792.2 191.728 1792.2 180.464C1792.2 169.2 1788.1 159.515 1779.91 151.408C1771.8 143.216 1762.16 139.12 1750.98 139.12H1710.28V221.68H1750.98C1762.24 221.68 1771.93 217.627 1780.04 209.52ZM1778.37 153.072C1786.05 160.752 1789.89 169.883 1789.89 180.464C1789.89 191.045 1786.05 200.176 1778.37 207.856C1770.78 215.536 1761.65 219.376 1750.98 219.376H1712.58V141.552H1750.98C1761.56 141.552 1770.69 145.392 1778.37 153.072ZM1781.57 180.464C1781.57 172.272 1778.5 165.147 1772.36 159.088C1766.3 152.944 1759.17 149.872 1750.98 149.872H1721.03V210.928H1750.98C1759.26 210.928 1766.43 207.941 1772.48 201.968C1778.54 195.909 1781.57 188.741 1781.57 180.464ZM1912.8 179.184H1887.71L1870.56 139.12H1855.97L1838.69 179.184H1813.6V170.864H1833.18L1850.46 130.8H1876.06L1893.21 170.864H1912.8V179.184ZM1885.15 179.184H1841.25L1857.5 141.552H1869.02L1885.15 179.184ZM1918.69 230H1878.75V221.68H1906.01L1888.73 181.616H1912.8V189.936H1901.41L1918.69 230ZM1902.3 219.376H1878.75V210.928H1889.63L1880.67 189.936H1845.73L1836.64 210.928H1847.52V219.376H1823.97L1840.22 181.616H1886.17L1902.3 219.376ZM1847.52 230H1807.58L1824.86 189.936H1813.6V181.616H1837.66L1820.38 221.68H1847.52V230ZM1872.48 170.864L1863.52 149.872H1863.01L1853.92 170.864H1872.48Z" fill="black"/>
</svg>
