<svg width="1666" height="198" viewBox="0 0 1666 198" fill="none" xmlns="http://www.w3.org/2000/svg">
<path d="M48.576 25.336H44.416V13.56H5.888V25.336H1.728V9.4H48.576V25.336ZM43.264 25.336H39.04V18.936H29.952V49.464H36.48V53.688H25.728V14.776H43.264V25.336ZM24.576 53.688H13.888V49.464H20.352V18.936H11.264V25.336H7.104V14.776H24.576V53.688ZM36.48 59H13.888V54.84H36.48V59ZM99.0805 59H84.4245V54.84H94.8565V13.56H84.4245V9.4H99.0805V59ZM93.7045 33.592H57.4165V14.776H66.6965V18.936H61.5765V29.432H89.5445V18.936H84.4245V14.776H93.7045V33.592ZM93.7045 53.688H84.4245V49.464H89.5445V38.968H61.5765V49.464H66.6965V53.688H57.4165V34.808H93.7045V53.688ZM66.6965 59H52.0405V9.4H66.6965V13.56H56.2005V54.84H66.6965V59ZM146.189 25.016H142.029V18.936H112.077V29.432H121.933V22.584H126.093V33.592H107.917V14.776H146.189V25.016ZM131.469 45.816H127.245V22.584H131.469V45.816ZM151.565 59H102.541V9.4H151.565V25.016H147.405V13.56H106.765V54.84H147.405V43.448H151.565V59ZM146.189 53.688H107.917V34.808H126.093V45.816H121.933V38.968H112.077V49.464H142.029V43.448H146.189V53.688ZM87.424 102.52C97.2373 112.333 102.144 123.981 102.144 137.464C102.144 150.947 97.2373 162.595 87.424 172.408C77.6107 182.136 65.9627 187 52.48 187H3.456V87.8H52.48C65.9627 87.8 77.6107 92.7067 87.424 102.52ZM81.536 166.52C89.6427 158.413 93.696 148.728 93.696 137.464C93.696 126.2 89.6 116.515 81.408 108.408C73.3013 100.216 63.6587 96.12 52.48 96.12H11.776V178.68H52.48C63.744 178.68 73.4293 174.627 81.536 166.52ZM79.872 110.072C87.552 117.752 91.392 126.883 91.392 137.464C91.392 148.045 87.552 157.176 79.872 164.856C72.2773 172.536 63.1467 176.376 52.48 176.376H14.08V98.552H52.48C63.0613 98.552 72.192 102.392 79.872 110.072ZM83.072 137.464C83.072 129.272 80 122.147 73.856 116.088C67.7973 109.944 60.672 106.872 52.48 106.872H22.528V167.928H52.48C60.7573 167.928 67.9253 164.941 73.984 158.968C80.0427 152.909 83.072 145.741 83.072 137.464ZM196.377 119.032H188.057V106.872H128.153V127.864H147.865V114.168H156.185V136.184H119.833V98.552H196.377V119.032ZM166.937 160.632H158.489V114.168H166.937V160.632ZM207.129 187H109.081V87.8H207.129V119.032H198.809V96.12H117.529V178.68H198.809V155.896H207.129V187ZM196.377 176.376H119.833V138.616H156.185V160.632H147.865V146.936H128.153V167.928H188.057V155.896H196.377V176.376ZM312.129 187H263.745C250.092 187 238.401 182.136 228.673 172.408C218.945 162.68 214.081 151.032 214.081 137.464C214.081 123.896 218.945 112.248 228.673 102.52C238.486 92.7067 250.177 87.8 263.745 87.8H312.129V121.464H303.809V96.12H263.745C252.481 96.12 242.796 100.216 234.689 108.408C226.582 116.515 222.529 126.2 222.529 137.464C222.529 148.813 226.54 158.541 234.561 166.648C242.668 174.669 252.396 178.68 263.745 178.68H303.809V153.336H312.129V187ZM301.377 176.376H263.745C253.078 176.376 243.905 172.579 236.225 164.984C228.63 157.304 224.833 148.131 224.833 137.464C224.833 126.797 228.673 117.667 236.353 110.072C244.033 102.392 253.164 98.552 263.745 98.552H301.377V121.464H293.057V106.872H263.745C255.468 106.872 248.3 109.901 242.241 115.96C236.182 122.019 233.153 129.187 233.153 137.464C233.153 145.741 236.14 152.909 242.113 158.968C248.172 164.941 255.382 167.928 263.745 167.928H293.057V153.336H301.377V176.376ZM406.377 119.032H398.057V106.872H338.153V127.864H357.865V114.168H366.185V136.184H329.833V98.552H406.377V119.032ZM376.937 160.632H368.489V114.168H376.937V160.632ZM417.129 187H319.081V87.8H417.129V119.032H408.809V96.12H327.529V178.68H408.809V155.896H417.129V187ZM406.377 176.376H329.833V138.616H366.185V160.632H357.865V146.936H338.153V167.928H398.057V155.896H406.377V176.376ZM516.497 187H490.385L443.153 112.248V167.928H452.369V176.376H434.833V98.552H444.433L494.865 178.68H508.177V96.12H488.209V87.8H516.497V187ZM505.745 176.376H496.273L445.713 96.12H432.401V178.68H452.369V187H424.081V87.8H450.321L497.425 162.552V106.872H488.209V98.552H505.745V176.376ZM617.152 119.672H608.832V96.12H531.776V119.672H523.456V87.8H617.152V119.672ZM606.528 119.672H598.08V106.872H579.904V167.928H592.96V176.376H571.456V98.552H606.528V119.672ZM569.152 176.376H547.776V167.928H560.704V106.872H542.528V119.672H534.208V98.552H569.152V176.376ZM592.96 187H547.776V178.68H592.96V187ZM710.481 98.552C710.054 108.877 706.044 117.752 698.449 125.176C690.854 132.6 681.894 136.312 671.569 136.312H634.833V98.552H710.481ZM721.233 187H687.953V178.68H712.913V177.528C712.913 168.227 709.926 159.779 703.953 152.184C697.98 144.504 690.47 139.597 681.425 137.464C690.47 135.245 697.98 130.339 703.953 122.744C709.926 115.149 712.913 106.701 712.913 97.4V96.12H632.401V178.68H652.625V187H624.081V87.8H721.233V97.4C721.233 105.336 719.398 112.845 715.729 119.928C712.145 127.011 707.153 132.856 700.753 137.464C707.068 142.072 712.06 147.917 715.729 155C719.398 161.997 721.233 169.507 721.233 177.528V187ZM710.481 176.376H687.953V167.928H700.625C698.406 161.784 694.652 156.749 689.361 152.824C684.07 148.899 678.14 146.936 671.569 146.936H643.281V167.928H652.625V176.376H634.705V138.616H671.569C681.894 138.616 690.854 142.328 698.449 149.752C706.044 157.091 710.054 165.965 710.481 176.376ZM700.625 106.872H643.281V127.864H671.569C678.14 127.864 684.07 125.901 689.361 121.976C694.652 118.051 698.406 113.016 700.625 106.872ZM833.422 136.184H808.334L791.182 96.12H776.59L759.31 136.184H734.222V127.864H753.806L771.086 87.8H796.686L813.838 127.864H833.422V136.184ZM805.774 136.184H761.87L778.126 98.552H789.646L805.774 136.184ZM839.31 187H799.374V178.68H826.638L809.358 138.616H833.422V146.936H822.03L839.31 187ZM822.926 176.376H799.374V167.928H810.254L801.294 146.936H766.35L757.262 167.928H768.142V176.376H744.59L760.846 138.616H806.798L822.926 176.376ZM768.142 187H728.206L745.486 146.936H734.222V138.616H758.286L741.006 178.68H768.142V187ZM793.102 127.864L784.142 106.872H783.63L774.542 127.864H793.102ZM927.102 187H846.206V87.8H878.078V96.12H854.526V178.68H918.782V155.896H927.102V187ZM916.35 176.376H856.958V98.552H878.078V106.872H865.278V167.928H908.03V155.896H916.35V176.376ZM980.42 96.12H933.956V87.8H980.42V96.12ZM980.42 176.376H958.66V98.552H980.42V106.872H966.98V167.928H980.42V176.376ZM956.356 176.376H933.956V167.928H947.396V106.872H933.956V98.552H956.356V176.376ZM980.42 187H933.956V178.68H980.42V187ZM1094.08 87.8L1029.19 167.928H1071.17V154.36H1079.49V176.376L1010.88 176.248L1075.78 96.12H999.491V120.568H991.171V87.8H1094.08ZM1090.24 187H987.331L1052.23 106.872H1010.24V120.568H1001.92V98.552H1070.53L1005.64 178.68H1081.92V154.36H1090.24V187ZM1188.25 119.032H1179.93V106.872H1120.03V127.864H1139.74V114.168H1148.06V136.184H1111.71V98.552H1188.25V119.032ZM1158.81 160.632H1150.36V114.168H1158.81V160.632ZM1199 187H1100.96V87.8H1199V119.032H1190.68V96.12H1109.4V178.68H1190.68V155.896H1199V187ZM1188.25 176.376H1111.71V138.616H1148.06V160.632H1139.74V146.936H1120.03V167.928H1179.93V155.896H1188.25V176.376ZM1289.92 102.52C1299.74 112.333 1304.64 123.981 1304.64 137.464C1304.64 150.947 1299.74 162.595 1289.92 172.408C1280.11 182.136 1268.46 187 1254.98 187H1205.96V87.8H1254.98C1268.46 87.8 1280.11 92.7067 1289.92 102.52ZM1284.04 166.52C1292.14 158.413 1296.2 148.728 1296.2 137.464C1296.2 126.2 1292.1 116.515 1283.91 108.408C1275.8 100.216 1266.16 96.12 1254.98 96.12H1214.28V178.68H1254.98C1266.24 178.68 1275.93 174.627 1284.04 166.52ZM1282.37 110.072C1290.05 117.752 1293.89 126.883 1293.89 137.464C1293.89 148.045 1290.05 157.176 1282.37 164.856C1274.78 172.536 1265.65 176.376 1254.98 176.376H1216.58V98.552H1254.98C1265.56 98.552 1274.69 102.392 1282.37 110.072ZM1285.57 137.464C1285.57 129.272 1282.5 122.147 1276.36 116.088C1270.3 109.944 1263.17 106.872 1254.98 106.872H1225.03V167.928H1254.98C1263.26 167.928 1270.43 164.941 1276.48 158.968C1282.54 152.909 1285.57 145.741 1285.57 137.464ZM1427.25 119.032H1418.93V106.872H1359.03V127.864H1378.74V114.168H1387.06V136.184H1350.71V98.552H1427.25V119.032ZM1397.81 160.632H1389.36V114.168H1397.81V160.632ZM1438 119.032H1429.68V96.12H1348.4V178.68H1366.07V187H1339.96V87.8H1438V119.032ZM1387.06 160.632H1378.74V146.936H1359.03V167.928H1366.07V176.376H1350.71V138.616H1387.06V160.632ZM1528.92 102.52C1538.74 112.333 1543.64 123.981 1543.64 137.464C1543.64 150.947 1538.74 162.595 1528.92 172.408C1519.11 182.136 1507.46 187 1493.98 187H1444.96V87.8H1493.98C1507.46 87.8 1519.11 92.7067 1528.92 102.52ZM1523.04 166.52C1531.14 158.413 1535.2 148.728 1535.2 137.464C1535.2 126.2 1531.1 116.515 1522.91 108.408C1514.8 100.216 1505.16 96.12 1493.98 96.12H1453.28V178.68H1493.98C1505.24 178.68 1514.93 174.627 1523.04 166.52ZM1521.37 110.072C1529.05 117.752 1532.89 126.883 1532.89 137.464C1532.89 148.045 1529.05 157.176 1521.37 164.856C1513.78 172.536 1504.65 176.376 1493.98 176.376H1455.58V98.552H1493.98C1504.56 98.552 1513.69 102.392 1521.37 110.072ZM1524.57 137.464C1524.57 129.272 1521.5 122.147 1515.36 116.088C1509.3 109.944 1502.17 106.872 1493.98 106.872H1464.03V167.928H1493.98C1502.26 167.928 1509.43 164.941 1515.48 158.968C1521.54 152.909 1524.57 145.741 1524.57 137.464ZM1655.8 136.184H1630.71L1613.56 96.12H1598.97L1581.69 136.184H1556.6V127.864H1576.18L1593.46 87.8H1619.06L1636.21 127.864H1655.8V136.184ZM1628.15 136.184H1584.25L1600.5 98.552H1612.02L1628.15 136.184ZM1661.69 187H1621.75V178.68H1649.01L1631.73 138.616H1655.8V146.936H1644.41L1661.69 187ZM1645.3 176.376H1621.75V167.928H1632.63L1623.67 146.936H1588.73L1579.64 167.928H1590.52V176.376H1566.97L1583.22 138.616H1629.17L1645.3 176.376ZM1590.52 187H1550.58L1567.86 146.936H1556.6V138.616H1580.66L1563.38 178.68H1590.52V187ZM1615.48 127.864L1606.52 106.872H1606.01L1596.92 127.864H1615.48Z" fill="white"/>
</svg>
