<svg width="2000" height="2000" viewBox="0 0 2000 2000" fill="none" xmlns="http://www.w3.org/2000/svg">
<rect width="2000" height="2000" rx="1000" fill="white"/>
<path d="M1517.09 716.864C1516.48 715.673 1515.83 714.483 1515.22 713.281L1514.94 712.748C1414.3 522.165 1216.29 392.554 988.482 392.554C760.679 392.554 562.696 522.165 462.06 712.748C461.33 714.109 460.646 715.503 459.905 716.864C456.37 723.69 452.947 730.639 449.647 737.623H1527.31C1524.05 730.639 1520.63 723.689 1517.09 716.864Z" fill="black"/>
<path d="M449.647 1260.45C452.947 1267.44 456.37 1274.39 459.905 1281.21C559.856 1474.05 759.052 1605.52 988.482 1605.52C1217.91 1605.52 1417.14 1474.05 1517.09 1281.21C1520.63 1274.39 1524.05 1267.44 1527.31 1260.45H449.647Z" fill="black"/>
<path d="M1891.19 737.622C1890.66 735.731 1890.13 733.88 1889.6 731.989C1888.18 726.892 1886.71 721.835 1885.17 716.862C1884.8 715.71 1884.43 714.518 1884.07 713.367C1825.55 523.977 1706.6 353.991 1549.12 234.69C1386.22 111.241 1192.35 46 988.479 46C784.644 46 590.779 111.241 427.841 234.691C270.356 353.991 151.409 523.977 92.8905 713.326C92.5246 714.519 92.1587 715.67 91.8321 716.863C90.2867 721.918 88.7806 726.975 87.3968 731.909C86.8671 733.8 86.2981 735.732 85.8088 737.623C62.0442 822.144 49.9987 910.076 49.9987 999.037C49.9987 1088 62.0442 1176.01 85.8088 1260.45C86.2981 1262.34 86.8256 1264.19 87.3553 1266.04C88.7795 1271.1 90.2845 1276.2 91.831 1281.21C92.1576 1282.4 92.5235 1283.55 92.8893 1284.71C151.408 1474.1 270.355 1644.08 427.84 1763.38C590.778 1886.79 784.643 1952.03 988.478 1952.03C1192.31 1952.03 1386.18 1886.79 1549.11 1763.38C1706.6 1644.08 1825.55 1474.1 1884.07 1284.75C1884.43 1283.55 1884.8 1282.4 1885.12 1281.21C1886.71 1276.24 1888.18 1271.18 1889.56 1266.21C1890.13 1264.27 1890.66 1262.38 1891.15 1260.45C1914.95 1175.93 1927 1088.04 1927 999.038C1927 909.993 1914.91 822.06 1891.19 737.622ZM1845.24 1272.45C1844.35 1275.37 1843.41 1278.29 1842.48 1281.21C1721.94 1658.26 1379.91 1910.92 988.478 1910.92C597.086 1910.92 255.055 1658.31 134.479 1281.21C133.543 1278.29 132.607 1275.37 131.712 1272.41C130.449 1268.43 129.27 1264.48 128.09 1260.45C127.56 1258.56 126.991 1256.67 126.462 1254.74C102.737 1172.15 90.6919 1086.11 90.6919 999.035C90.6919 911.966 102.736 825.925 126.502 743.212C127.032 741.362 127.56 739.471 128.13 737.622C129.27 733.634 130.449 729.647 131.711 725.617C132.605 722.699 133.541 719.78 134.478 716.862C255.054 339.807 597.085 87.1087 988.477 87.1087C1379.87 87.1087 1721.94 339.767 1842.48 716.862C1843.41 719.78 1844.35 722.699 1845.24 725.658C1846.5 729.605 1847.69 733.593 1848.82 737.622C1849.39 739.513 1849.96 741.445 1850.49 743.377C1874.26 825.883 1886.3 911.925 1886.3 999.035C1886.3 1086.15 1874.26 1172.19 1850.45 1254.82C1849.92 1256.71 1849.39 1258.6 1848.82 1260.45C1847.69 1264.48 1846.51 1268.47 1845.24 1272.45Z" fill="black"/>
<path d="M988.494 1888.72C505.369 1888.72 112.316 1489.6 112.316 999.023C112.316 508.442 505.369 109.326 988.494 109.326C1471.62 109.326 1864.67 508.443 1864.67 999.023C1864.67 1489.6 1471.62 1888.72 988.494 1888.72ZM988.494 142.213C523.32 142.213 144.872 526.576 144.872 999.023C144.872 1471.47 523.32 1855.83 988.494 1855.83C1453.67 1855.83 1832.11 1471.47 1832.11 999.023C1832.11 526.576 1453.67 142.213 988.494 142.213Z" fill="black"/>
<path d="M988.494 1567.74C679.771 1567.74 428.61 1312.61 428.61 999.023C428.61 685.433 679.772 430.308 988.494 430.308C1297.21 430.308 1548.37 685.432 1548.37 999.023C1548.37 1312.61 1297.21 1567.74 988.494 1567.74ZM988.494 454.974C693.236 454.974 453.025 699.035 453.025 999.023C453.025 1299.01 693.236 1543.07 988.494 1543.07C1283.75 1543.07 1523.96 1299.01 1523.96 999.023C1523.96 699.035 1283.75 454.974 988.494 454.974Z" fill="white"/>
<path d="M1673.51 1061.48C1700.47 1061.48 1722.33 1039.4 1722.33 1012.16C1722.33 984.917 1700.47 962.833 1673.51 962.833C1646.54 962.833 1624.68 984.917 1624.68 1012.16C1624.68 1039.4 1646.54 1061.48 1673.51 1061.48Z" fill="#FEFEFE"/>
<path fill-rule="evenodd" clip-rule="evenodd" d="M1927 999.032C1927 1003.47 1926.97 1007.91 1926.9 1012.34C1926.53 1040.74 1924.91 1069.02 1922.08 1097.1C1921.2 1105.93 1920.18 1114.73 1919.05 1123.52C1913.08 1169.89 1903.77 1215.65 1891.14 1260.45H85.811C62.0409 1176.01 49.9987 1088 49.9987 999.032C49.9987 910.078 62.0409 822.144 85.811 737.623H1891.19C1903.77 782.406 1913.07 828.164 1919.04 874.546C1920.18 883.333 1921.19 892.142 1922.07 900.974C1924.91 929.046 1926.53 957.321 1926.9 985.733C1926.97 990.166 1927 994.599 1927 999.032Z" fill="black"/>
<path d="M990.562 535.243L972.141 572.95L930.95 578.996L960.756 608.346L953.72 649.79L990.562 630.222L1027.4 649.79L1020.37 608.346L1050.17 578.996L1008.98 572.95L990.562 535.243Z" fill="white"/>
<path d="M786.729 564.798L773.162 592.571L742.823 597.024L764.776 618.642L759.593 649.166L786.729 634.755L813.865 649.166L808.682 618.642L830.636 597.024L800.297 592.571L786.729 564.798Z" fill="white"/>
<path d="M1190.27 564.798L1176.7 592.571L1146.36 597.024L1168.32 618.642L1163.13 649.166L1190.27 634.755L1217.41 649.166L1212.22 618.642L1234.18 597.024L1203.84 592.571L1190.27 564.798Z" fill="white"/>
<path d="M990.562 1336.87L972.141 1374.58L930.95 1380.63L960.756 1409.98L953.72 1451.42L990.562 1431.85L1027.4 1451.42L1020.37 1409.98L1050.17 1380.63L1008.98 1374.58L990.562 1336.87Z" fill="white"/>
<path d="M786.729 1345.87L773.162 1373.65L742.823 1378.1L764.776 1399.72L759.593 1430.24L786.729 1415.83L813.865 1430.24L808.682 1399.72L830.636 1378.1L800.297 1373.65L786.729 1345.87Z" fill="white"/>
<path d="M1190.27 1345.87L1176.7 1373.65L1146.36 1378.1L1168.32 1399.72L1163.13 1430.24L1190.27 1415.83L1217.41 1430.24L1212.22 1399.72L1234.18 1378.1L1203.84 1373.65L1190.27 1345.87Z" fill="white"/>
<path d="M1527.3 737.622H449.653C452.95 730.633 456.368 723.686 459.908 716.862C460.641 715.505 461.333 714.107 462.065 712.751H1514.93L1515.22 713.285L1527.3 737.622Z" fill="white"/>
<path fill-rule="evenodd" clip-rule="evenodd" d="M449.653 1260.45H1527.31C1524.05 1267.44 1520.63 1274.39 1517.09 1281.21H459.907L449.653 1260.45Z" fill="white"/>
<path d="M1926.04 955.655H1669.21V929.046H1924.5L1926.04 955.655Z" fill="white"/>
<path d="M1926.12 1040.41L1924.65 1066.83H1669.21V1040.41H1926.12Z" fill="white"/>
<path d="M307.789 955.655H50.4813L52.0189 929.046H307.789V955.655Z" fill="white"/>
<path d="M307.789 1040.41V1066.83H51.8617L50.3915 1040.41H307.789Z" fill="white"/>
<path d="M1891.19 737.622C1890.66 735.731 1890.13 733.88 1889.6 731.989C1888.18 726.892 1886.71 721.835 1885.17 716.862C1884.8 715.71 1884.43 714.518 1884.07 713.367C1825.55 523.977 1706.6 353.991 1549.12 234.69C1386.22 111.241 1192.35 46 988.479 46C784.644 46 590.779 111.241 427.841 234.691C270.356 353.991 151.409 523.977 92.8905 713.326C92.5246 714.519 92.1587 715.67 91.8321 716.863C90.2867 721.918 88.7806 726.975 87.3968 731.909C86.8671 733.8 86.2981 735.732 85.8088 737.623C62.0442 822.144 49.9987 910.076 49.9987 999.037C49.9987 1088 62.0442 1176.01 85.8088 1260.45C86.2981 1262.34 86.8256 1264.19 87.3553 1266.04C88.7795 1271.1 90.2845 1276.2 91.831 1281.21C92.1576 1282.4 92.5235 1283.55 92.8893 1284.71C151.408 1474.1 270.355 1644.08 427.84 1763.38C590.778 1886.79 784.643 1952.03 988.478 1952.03C1192.31 1952.03 1386.18 1886.79 1549.11 1763.38C1706.6 1644.08 1825.55 1474.1 1884.07 1284.75C1884.43 1283.55 1884.8 1282.4 1885.12 1281.21C1886.71 1276.24 1888.18 1271.18 1889.56 1266.21C1890.13 1264.27 1890.66 1262.38 1891.15 1260.45C1914.95 1175.93 1927 1088.04 1927 999.038C1927 909.993 1914.91 822.06 1891.19 737.622ZM1845.24 1272.45C1844.35 1275.37 1843.41 1278.29 1842.48 1281.21C1721.94 1658.26 1379.91 1910.92 988.478 1910.92C597.086 1910.92 255.055 1658.31 134.479 1281.21C133.543 1278.29 132.607 1275.37 131.712 1272.41C130.449 1268.43 129.27 1264.48 128.09 1260.45C127.56 1258.56 126.991 1256.67 126.462 1254.74C102.737 1172.15 90.6919 1086.11 90.6919 999.035C90.6919 911.966 102.736 825.925 126.502 743.212C127.032 741.362 127.56 739.471 128.13 737.622C129.27 733.634 130.449 729.647 131.711 725.617C132.605 722.699 133.541 719.78 134.478 716.862C255.054 339.807 597.085 87.1087 988.477 87.1087C1379.87 87.1087 1721.94 339.767 1842.48 716.862C1843.41 719.78 1844.35 722.699 1845.24 725.658C1846.5 729.605 1847.69 733.593 1848.82 737.622C1849.39 739.513 1849.96 741.445 1850.49 743.377C1874.26 825.883 1886.3 911.925 1886.3 999.035C1886.3 1086.15 1874.26 1172.19 1850.45 1254.82C1849.92 1256.71 1849.39 1258.6 1848.82 1260.45C1847.69 1264.48 1846.51 1268.47 1845.24 1272.45Z" fill="black"/>
<path fill-rule="evenodd" clip-rule="evenodd" d="M456.187 1042.37V1209.43H501.264V1090L502.562 1089.3H626.054V1042.38H457.96L456.187 1042.37Z" fill="white"/>
<path fill-rule="evenodd" clip-rule="evenodd" d="M710.288 976.603V1145.57L792.845 1145.65L794.007 1145.71C867.024 1145.2 926.044 1085.47 926.044 1011.87C926.044 938.386 867.212 878.719 794.372 878.036L793.653 878.351L456.197 878.394L456.186 1023.47L456.7 1023.49L625.848 1023.52L625.726 976.601L501.301 976.558L501.262 975.642V924.569L502.389 924.543L794.006 924.558C841.508 925.133 879.828 964.076 879.828 1012.04C879.828 1059.74 841.887 1098.53 794.725 1099.49L792.936 1099.51H760.785L756.894 1099.61V976.603H710.288Z" fill="white"/>
<path fill-rule="evenodd" clip-rule="evenodd" d="M1184.39 816.908H1132.07L1335.95 1164.08L1365.07 1115.35L1184.39 816.908Z" fill="white"/>
<path fill-rule="evenodd" clip-rule="evenodd" d="M1216.25 1100.48H1061.97V1145.44H1299.62L1127.2 857.212L918.144 1209.06H981.244L1127.2 950.395L1216.25 1100.48Z" fill="white"/>
<path fill-rule="evenodd" clip-rule="evenodd" d="M1061.97 1209.06L1304.76 1208.97L1305.12 1207.89L1331.23 1163.69L1061.97 1163.62V1209.06Z" fill="white"/>
<path fill-rule="evenodd" clip-rule="evenodd" d="M949.416 1117.87L965.149 1091.01L1127.36 816.519H1075.05L980.457 972.694C963.454 882.055 884.789 815.549 790.022 814.684H788.222L389.754 814.711L389.739 1209.04H434.806L434.818 860.033L788.222 860.043L789.657 860.004C871.994 860.784 938.525 928.237 938.525 1011.31C938.525 1094.51 871.806 1162.03 789.293 1162.62L788.222 1162.58H686.372L686.385 1162.22V976.198H639.778L639.587 1162.21V1208.6H788.223L790.023 1208.59C856.604 1207.98 914.527 1169.52 949.416 1117.87Z" fill="white"/>
<path d="M1624.26 842.582H1362.77V809.015H1624.26V842.582ZM1624.26 1166.37H1501.8V852.393H1624.26V885.96H1548.62V1132.29H1624.26V1166.37ZM1488.83 1166.37H1362.77V1132.29H1438.41V885.96H1362.77V852.393H1488.83V1166.37ZM1624.26 1209.23H1362.77V1175.66H1624.26V1209.23Z" fill="white"/>
<mask id="path-29-outside-1_527_192" maskUnits="userSpaceOnUse" x="1525.19" y="507.082" width="161.274" height="148.291" fill="black">
<rect fill="white" x="1525.19" y="507.082" width="161.274" height="148.291"/>
<path d="M1615.77 583.543L1637.41 616.074L1585.05 648.947C1578.95 644.539 1568.73 635.038 1561.25 623.807C1551.2 608.704 1547.5 594.743 1550.31 581.079C1553.17 567.204 1563.69 553.648 1579.7 543.596C1613.82 522.175 1646.92 533.056 1665.9 561.584C1672.6 571.653 1676.34 581.198 1677.16 587.457L1658.49 593.507C1657.58 587.67 1655.38 581.002 1649.54 572.224C1637.77 554.538 1617.81 548.034 1593.4 563.358C1570.05 578.023 1566.4 597.702 1577.3 614.096C1580.4 618.744 1583.37 621.817 1585.28 623.001L1609.95 607.512L1600.41 593.183L1615.77 583.543Z"/>
</mask>
<path d="M1615.77 583.543L1637.41 616.074L1585.05 648.947C1578.95 644.539 1568.73 635.038 1561.25 623.807C1551.2 608.704 1547.5 594.743 1550.31 581.079C1553.17 567.204 1563.69 553.648 1579.7 543.596C1613.82 522.175 1646.92 533.056 1665.9 561.584C1672.6 571.653 1676.34 581.198 1677.16 587.457L1658.49 593.507C1657.58 587.67 1655.38 581.002 1649.54 572.224C1637.77 554.538 1617.81 548.034 1593.4 563.358C1570.05 578.023 1566.4 597.702 1577.3 614.096C1580.4 618.744 1583.37 621.817 1585.28 623.001L1609.95 607.512L1600.41 593.183L1615.77 583.543Z" fill="black"/>
<path d="M1615.77 583.543L1617.46 582.48L1616.35 580.814L1614.66 581.878L1615.77 583.543ZM1637.41 616.074L1638.52 617.74L1640.21 616.676L1639.1 615.011L1637.41 616.074ZM1585.05 648.947L1583.86 650.53L1584.99 651.348L1586.16 650.613L1585.05 648.947ZM1550.31 581.079L1548.33 580.668L1548.33 580.668L1550.31 581.079ZM1677.16 587.457L1677.82 589.333L1679.38 588.828L1679.17 587.23L1677.16 587.457ZM1658.49 593.507L1656.49 593.781L1656.85 596.126L1659.15 595.383L1658.49 593.507ZM1585.28 623.001L1584.2 624.664L1585.3 625.347L1586.38 624.667L1585.28 623.001ZM1609.95 607.512L1611.05 609.177L1612.75 608.114L1611.64 606.449L1609.95 607.512ZM1600.41 593.183L1599.3 591.517L1597.61 592.58L1598.72 594.246L1600.41 593.183ZM1614.07 584.606L1635.72 617.137L1639.1 615.011L1617.46 582.48L1614.07 584.606ZM1636.3 614.408L1583.94 647.282L1586.16 650.613L1638.52 617.74L1636.3 614.408ZM1586.24 647.364C1580.32 643.082 1570.27 633.752 1562.95 622.744L1559.56 624.87C1567.18 636.324 1577.59 645.995 1583.86 650.53L1586.24 647.364ZM1562.95 622.744C1553.09 607.931 1549.62 594.499 1552.3 581.49L1548.33 580.668C1545.38 594.987 1549.32 609.476 1559.56 624.87L1562.95 622.744ZM1552.3 581.491C1555.02 568.272 1565.11 555.115 1580.81 545.262L1578.59 541.931C1562.26 552.18 1551.32 566.136 1548.33 580.668L1552.3 581.491ZM1580.81 545.262C1597.47 534.798 1613.72 532.318 1628.01 535.777C1642.33 539.242 1654.94 548.728 1664.21 562.648L1667.59 560.521C1657.87 545.912 1644.45 535.694 1628.94 531.941C1613.41 528.183 1596.04 530.973 1578.59 541.931L1580.81 545.262ZM1664.21 562.648C1670.8 572.565 1674.39 581.822 1675.15 587.684L1679.17 587.23C1678.3 580.573 1674.39 570.742 1667.59 560.521L1664.21 562.648ZM1676.5 585.581L1657.83 591.631L1659.15 595.383L1677.82 589.333L1676.5 585.581ZM1660.49 593.232C1659.54 587.094 1657.22 580.159 1651.23 571.161L1647.84 573.287C1653.54 581.844 1655.63 588.246 1656.49 593.781L1660.49 593.232ZM1651.23 571.161C1645.12 561.979 1636.76 555.531 1626.6 553.477C1616.44 551.424 1604.81 553.834 1592.3 561.692L1594.51 565.024C1606.41 557.557 1616.96 555.558 1625.82 557.347C1634.68 559.136 1642.19 564.783 1647.84 573.287L1651.23 571.161ZM1592.3 561.692C1580.33 569.208 1573.19 578.149 1570.55 587.537C1567.91 596.953 1569.88 606.551 1575.61 615.159L1579 613.033C1573.82 605.247 1572.16 596.809 1574.46 588.621C1576.76 580.404 1583.12 572.174 1594.51 565.024L1592.3 561.692ZM1575.61 615.159C1578.76 619.887 1581.93 623.248 1584.2 624.664L1586.35 621.338C1584.82 620.386 1582.04 617.601 1579 613.033L1575.61 615.159ZM1586.38 624.667L1611.05 609.177L1608.84 605.846L1584.17 621.335L1586.38 624.667ZM1611.64 606.449L1602.11 592.12L1598.72 594.246L1608.25 608.575L1611.64 606.449ZM1601.52 594.848L1616.87 585.209L1614.66 581.878L1599.3 591.517L1601.52 594.848Z" fill="black" mask="url(#path-29-outside-1_527_192)"/>
<mask id="path-31-outside-2_527_192" maskUnits="userSpaceOnUse" x="1432.52" y="395.707" width="154.917" height="150.495" fill="black">
<rect fill="white" x="1432.52" y="395.707" width="154.917" height="150.495"/>
<path d="M1568.81 445.938L1583.58 460.547L1497.57 543.008L1481.25 526.873L1498.63 474.784C1502.94 461.843 1508.61 446.75 1514.47 434.254L1514.03 433.818C1504.07 444.659 1492.32 456.567 1477 471.258L1450.6 496.564L1435.83 481.955L1521.84 399.494L1539.48 416.938L1522.44 468.056C1518.35 480.783 1512.58 495.55 1507.05 507.509L1507.27 507.727C1517.24 496.237 1528.99 484.113 1542.97 470.709L1568.81 445.938Z"/>
</mask>
<path d="M1568.81 445.938L1583.58 460.547L1497.57 543.008L1481.25 526.873L1498.63 474.784C1502.94 461.843 1508.61 446.75 1514.47 434.254L1514.03 433.818C1504.07 444.659 1492.32 456.567 1477 471.258L1450.6 496.564L1435.83 481.955L1521.84 399.494L1539.48 416.938L1522.44 468.056C1518.35 480.783 1512.58 495.55 1507.05 507.509L1507.27 507.727C1517.24 496.237 1528.99 484.113 1542.97 470.709L1568.81 445.938Z" fill="black"/>
<path d="M1568.81 445.938L1570.25 444.555L1568.83 443.148L1567.38 444.532L1568.81 445.938ZM1583.58 460.547L1585 461.954L1586.45 460.571L1585.02 459.164L1583.58 460.547ZM1497.57 543.008L1496.13 544.392L1497.55 545.798L1498.99 544.415L1497.57 543.008ZM1481.25 526.873L1479.32 526.261L1478.94 527.401L1479.81 528.256L1481.25 526.873ZM1498.63 474.784L1500.55 475.396L1500.55 475.396L1498.63 474.784ZM1514.47 434.254L1516.32 435.076L1516.9 433.84L1515.92 432.87L1514.47 434.254ZM1514.03 433.818L1515.48 432.434L1513.96 430.936L1512.52 432.501L1514.03 433.818ZM1450.6 496.564L1449.16 497.948L1450.58 499.354L1452.02 497.971L1450.6 496.564ZM1435.83 481.955L1434.41 480.548L1432.96 481.932L1434.38 483.339L1435.83 481.955ZM1521.84 399.494L1523.28 398.111L1521.86 396.704L1520.42 398.088L1521.84 399.494ZM1539.48 416.938L1541.41 417.549L1541.79 416.409L1540.92 415.554L1539.48 416.938ZM1522.44 468.056L1520.52 467.445L1520.51 467.455L1520.51 467.465L1522.44 468.056ZM1507.05 507.509L1505.2 506.697L1504.63 507.929L1505.61 508.892L1507.05 507.509ZM1507.27 507.727L1505.83 509.11L1507.39 510.652L1508.82 509.001L1507.27 507.727ZM1567.36 447.322L1582.14 461.931L1585.02 459.164L1570.25 444.555L1567.36 447.322ZM1582.16 459.141L1496.15 541.601L1498.99 544.415L1585 461.954L1582.16 459.141ZM1499.01 541.624L1482.7 525.489L1479.81 528.256L1496.13 544.392L1499.01 541.624ZM1483.18 527.484L1500.55 475.396L1496.7 474.173L1479.32 526.261L1483.18 527.484ZM1500.55 475.396C1504.86 462.495 1510.49 447.479 1516.32 435.076L1512.63 433.432C1506.72 446.021 1501.03 461.191 1496.7 474.173L1500.55 475.396ZM1515.92 432.87L1515.48 432.434L1512.59 435.201L1513.03 435.638L1515.92 432.87ZM1512.52 432.501C1502.59 443.303 1490.88 455.18 1475.57 469.851L1478.42 472.664C1493.76 457.954 1505.54 446.015 1515.54 435.135L1512.52 432.501ZM1475.57 469.851L1449.18 495.157L1452.02 497.971L1478.42 472.664L1475.57 469.851ZM1452.04 495.18L1437.27 480.571L1434.38 483.339L1449.16 497.948L1452.04 495.18ZM1437.25 483.362L1523.26 400.901L1520.42 398.088L1434.41 480.548L1437.25 483.362ZM1520.39 400.878L1538.04 418.322L1540.92 415.554L1523.28 398.111L1520.39 400.878ZM1537.55 416.327L1520.52 467.445L1524.37 468.667L1541.41 417.549L1537.55 416.327ZM1520.51 467.465C1516.44 480.116 1510.7 494.81 1505.2 506.697L1508.9 508.32C1514.46 496.291 1520.26 481.449 1524.38 468.647L1520.51 467.465ZM1505.61 508.892L1505.83 509.11L1508.71 506.343L1508.49 506.125L1505.61 508.892ZM1508.82 509.001C1518.73 497.571 1530.44 485.492 1544.39 472.115L1541.55 469.302C1527.54 482.734 1515.74 494.903 1505.72 506.452L1508.82 509.001ZM1544.39 472.115L1570.23 447.345L1567.38 444.532L1541.55 469.302L1544.39 472.115Z" fill="black" mask="url(#path-31-outside-2_527_192)"/>
<mask id="path-33-outside-3_527_192" maskUnits="userSpaceOnUse" x="1380.45" y="348.263" width="98.2342" height="114.76" fill="black">
<rect fill="white" x="1380.45" y="348.263" width="98.2342" height="114.76"/>
<path d="M1402.3 460L1383.79 446.438L1456.5 352.036L1475.01 365.598L1402.3 460Z"/>
</mask>
<path d="M1402.3 460L1383.79 446.438L1456.5 352.036L1475.01 365.598L1402.3 460Z" fill="black"/>
<path d="M1402.3 460L1401.08 461.584L1402.7 462.766L1403.92 461.182L1402.3 460ZM1383.79 446.438L1382.18 445.256L1380.96 446.84L1382.57 448.022L1383.79 446.438ZM1456.5 352.036L1457.72 350.452L1456.11 349.27L1454.89 350.854L1456.5 352.036ZM1475.01 365.598L1476.63 366.78L1477.85 365.196L1476.23 364.014L1475.01 365.598ZM1403.52 458.416L1385.01 444.854L1382.57 448.022L1401.08 461.584L1403.52 458.416ZM1385.41 447.621L1458.12 353.219L1454.89 350.854L1382.18 445.256L1385.41 447.621ZM1455.28 353.62L1473.79 367.182L1476.23 364.014L1457.72 350.452L1455.28 353.62ZM1473.4 364.415L1400.69 458.817L1403.92 461.182L1476.63 366.78L1473.4 364.415Z" fill="black" mask="url(#path-33-outside-3_527_192)"/>
<mask id="path-35-outside-4_527_192" maskUnits="userSpaceOnUse" x="1270.74" y="276.423" width="137.157" height="148.847" fill="black">
<rect fill="white" x="1270.74" y="276.423" width="137.157" height="148.847"/>
<path d="M1332.83 279.823L1404.48 319.085L1394.61 336.287L1368.77 322.132L1319.32 408.275L1299.2 397.249L1348.65 311.106L1322.95 297.025L1332.83 279.823Z"/>
</mask>
<path d="M1332.83 279.823L1404.48 319.085L1394.61 336.287L1368.77 322.132L1319.32 408.275L1299.2 397.249L1348.65 311.106L1322.95 297.025L1332.83 279.823Z" fill="black"/>
<path d="M1332.83 279.823L1333.82 278.089L1332.07 277.128L1331.07 278.862L1332.83 279.823ZM1404.48 319.085L1406.24 320.047L1407.23 318.313L1405.48 317.351L1404.48 319.085ZM1394.61 336.287L1393.61 338.021L1395.37 338.982L1396.36 337.248L1394.61 336.287ZM1368.77 322.132L1369.77 320.398L1368.02 319.437L1367.02 321.171L1368.77 322.132ZM1319.32 408.275L1318.33 410.009L1320.08 410.971L1321.08 409.237L1319.32 408.275ZM1299.2 397.249L1297.45 396.288L1296.45 398.022L1298.21 398.983L1299.2 397.249ZM1348.65 311.106L1350.41 312.067L1351.4 310.333L1349.65 309.372L1348.65 311.106ZM1322.95 297.025L1321.2 296.064L1320.2 297.798L1321.96 298.759L1322.95 297.025ZM1331.83 281.557L1403.49 320.819L1405.48 317.351L1333.82 278.089L1331.83 281.557ZM1402.73 318.124L1392.85 335.326L1396.36 337.248L1406.24 320.047L1402.73 318.124ZM1395.6 334.553L1369.77 320.398L1367.78 323.866L1393.61 338.021L1395.6 334.553ZM1367.02 321.171L1317.57 407.314L1321.08 409.237L1370.53 323.093L1367.02 321.171ZM1320.32 406.541L1300.2 395.515L1298.21 398.983L1318.33 410.009L1320.32 406.541ZM1300.95 398.211L1350.41 312.067L1346.9 310.145L1297.45 396.288L1300.95 398.211ZM1349.65 309.372L1323.95 295.291L1321.96 298.759L1347.66 312.84L1349.65 309.372ZM1324.71 297.987L1334.58 280.785L1331.07 278.862L1321.2 296.064L1324.71 297.987Z" fill="black" mask="url(#path-35-outside-4_527_192)"/>
<mask id="path-37-outside-5_527_192" maskUnits="userSpaceOnUse" x="1138.93" y="223.357" width="136.972" height="149.154" fill="black">
<rect fill="white" x="1138.93" y="223.357" width="136.972" height="149.154"/>
<path d="M1212.98 237.471L1240.37 246.465L1233.55 369.649L1210.72 362.154L1212.78 329.721L1182.44 319.76L1164.47 346.97L1142.37 339.717L1212.98 237.471ZM1206.72 280.759L1191.14 304.348L1215.29 312.278L1217.28 284.387C1217.91 276.767 1219.1 267.045 1219.98 259.668L1219.54 259.523C1215.66 266.079 1210.59 274.691 1206.72 280.759Z"/>
</mask>
<path d="M1212.98 237.471L1240.37 246.465L1233.55 369.649L1210.72 362.154L1212.78 329.721L1182.44 319.76L1164.47 346.97L1142.37 339.717L1212.98 237.471ZM1206.72 280.759L1191.14 304.348L1215.29 312.278L1217.28 284.387C1217.91 276.767 1219.1 267.045 1219.98 259.668L1219.54 259.523C1215.66 266.079 1210.59 274.691 1206.72 280.759Z" fill="black"/>
<path d="M1212.98 237.471L1213.62 235.579L1212.19 235.107L1211.32 236.355L1212.98 237.471ZM1240.37 246.465L1242.38 246.556L1242.46 245.046L1241.02 244.572L1240.37 246.465ZM1233.55 369.649L1232.9 371.541L1235.41 372.363L1235.55 369.74L1233.55 369.649ZM1210.72 362.154L1208.71 362.046L1208.62 363.569L1210.07 364.046L1210.72 362.154ZM1212.78 329.721L1214.78 329.828L1214.88 328.305L1213.42 327.828L1212.78 329.721ZM1182.44 319.76L1183.08 317.867L1181.61 317.385L1180.76 318.678L1182.44 319.76ZM1164.47 346.97L1163.82 348.863L1165.29 349.345L1166.14 348.052L1164.47 346.97ZM1142.37 339.717L1140.72 338.601L1139.21 340.784L1141.73 341.61L1142.37 339.717ZM1206.72 280.759L1208.4 281.841L1208.4 281.828L1208.41 281.815L1206.72 280.759ZM1191.14 304.348L1189.46 303.266L1188.03 305.433L1190.49 306.241L1191.14 304.348ZM1215.29 312.278L1214.64 314.171L1217.11 314.98L1217.29 312.401L1215.29 312.278ZM1217.28 284.387L1215.27 284.241L1215.27 284.253L1215.27 284.265L1217.28 284.387ZM1219.98 259.668L1221.97 259.884L1222.16 258.281L1220.62 257.776L1219.98 259.668ZM1219.54 259.523L1220.18 257.63L1218.64 257.123L1217.81 258.526L1219.54 259.523ZM1212.33 239.364L1239.73 248.357L1241.02 244.572L1213.62 235.579L1212.33 239.364ZM1238.37 246.374L1231.54 369.557L1235.55 369.74L1242.38 246.556L1238.37 246.374ZM1234.19 367.756L1211.36 360.261L1210.07 364.046L1232.9 371.541L1234.19 367.756ZM1212.72 362.261L1214.78 329.828L1210.77 329.613L1208.71 362.046L1212.72 362.261ZM1213.42 327.828L1183.08 317.867L1181.79 321.652L1212.13 331.613L1213.42 327.828ZM1180.76 318.678L1162.79 345.889L1166.14 348.052L1184.11 320.841L1180.76 318.678ZM1165.11 345.078L1143.02 337.825L1141.73 341.61L1163.82 348.863L1165.11 345.078ZM1144.03 340.834L1214.63 238.587L1211.32 236.355L1140.72 338.601L1144.03 340.834ZM1205.05 279.677L1189.46 303.266L1192.81 305.43L1208.4 281.841L1205.05 279.677ZM1190.49 306.241L1214.64 314.171L1215.94 310.386L1191.78 302.456L1190.49 306.241ZM1217.29 312.401L1219.28 284.51L1215.27 284.265L1213.29 312.156L1217.29 312.401ZM1219.28 284.534C1219.91 276.957 1221.09 267.278 1221.97 259.884L1217.99 259.452C1217.11 266.811 1215.91 276.577 1215.27 284.241L1219.28 284.534ZM1220.62 257.776L1220.18 257.63L1218.89 261.415L1219.33 261.56L1220.62 257.776ZM1217.81 258.526C1213.92 265.097 1208.88 273.672 1205.03 279.704L1208.41 281.815C1212.31 275.71 1217.4 267.062 1221.27 260.52L1217.81 258.526Z" fill="black" mask="url(#path-37-outside-5_527_192)"/>
<mask id="path-39-outside-6_527_192" maskUnits="userSpaceOnUse" x="1020.82" y="202.954" width="102.223" height="134.931" fill="black">
<rect fill="white" x="1020.82" y="202.954" width="102.223" height="134.931"/>
<path d="M1023.68 325.28L1038.66 208.596C1046.68 208.207 1057.89 208.536 1069.42 209.999C1084.34 211.892 1114.24 217.561 1110.18 249.23C1108.32 263.681 1097.73 273.118 1086.11 276.018L1086.05 276.479C1093.94 280.761 1097.53 289.341 1098.76 301.683C1100.34 316.102 1101.6 330.636 1103.34 335.387L1079.96 332.421C1078.71 328.824 1077.11 318.154 1076.17 303.505C1075.05 287.895 1070.9 282.524 1060.13 281.159L1052.44 280.183L1046.29 328.148L1023.68 325.28ZM1059.23 227.299L1054.61 263.272L1063.99 264.463C1076.91 266.101 1085.72 259.564 1087.16 248.341C1089.11 233.121 1078.11 228.756 1069.81 227.703C1064.73 227.059 1061.16 226.918 1059.23 227.299Z"/>
</mask>
<path d="M1023.68 325.28L1038.66 208.596C1046.68 208.207 1057.89 208.536 1069.42 209.999C1084.34 211.892 1114.24 217.561 1110.18 249.23C1108.32 263.681 1097.73 273.118 1086.11 276.018L1086.05 276.479C1093.94 280.761 1097.53 289.341 1098.76 301.683C1100.34 316.102 1101.6 330.636 1103.34 335.387L1079.96 332.421C1078.71 328.824 1077.11 318.154 1076.17 303.505C1075.05 287.895 1070.9 282.524 1060.13 281.159L1052.44 280.183L1046.29 328.148L1023.68 325.28ZM1059.23 227.299L1054.61 263.272L1063.99 264.463C1076.91 266.101 1085.72 259.564 1087.16 248.341C1089.11 233.121 1078.11 228.756 1069.81 227.703C1064.73 227.059 1061.16 226.918 1059.23 227.299Z" fill="black"/>
<path d="M1023.68 325.28L1021.7 325.028L1021.44 327.012L1023.43 327.264L1023.68 325.28ZM1038.66 208.596L1038.57 206.599L1036.89 206.68L1036.68 208.344L1038.66 208.596ZM1086.11 276.018L1085.63 274.078L1084.3 274.409L1084.13 275.766L1086.11 276.018ZM1086.05 276.479L1084.07 276.227L1083.89 277.584L1085.09 278.237L1086.05 276.479ZM1098.76 301.683L1096.76 301.884L1096.77 301.894L1096.77 301.904L1098.76 301.683ZM1103.34 335.387L1103.08 337.371L1106.34 337.784L1105.22 334.699L1103.34 335.387ZM1079.96 332.421L1078.08 333.083L1078.48 334.249L1079.71 334.405L1079.96 332.421ZM1076.17 303.505L1078.17 303.375L1078.17 303.367L1078.17 303.359L1076.17 303.505ZM1052.44 280.183L1052.7 278.2L1050.71 277.948L1050.46 279.931L1052.44 280.183ZM1046.29 328.148L1046.03 330.132L1048.02 330.384L1048.27 328.4L1046.29 328.148ZM1059.23 227.299L1058.85 225.337L1057.43 225.617L1057.25 227.047L1059.23 227.299ZM1054.61 263.272L1052.63 263.021L1052.38 265.004L1054.36 265.256L1054.61 263.272ZM1025.67 325.532L1040.64 208.848L1036.68 208.344L1021.7 325.028L1025.67 325.532ZM1038.75 210.593C1046.65 210.21 1057.74 210.533 1069.17 211.983L1069.68 208.016C1058.03 206.538 1046.71 206.204 1038.57 206.599L1038.75 210.593ZM1069.17 211.983C1076.61 212.927 1087.42 214.782 1095.84 220.136C1100.02 222.791 1103.56 226.272 1105.82 230.89C1108.09 235.5 1109.17 241.387 1108.19 248.978L1112.16 249.482C1113.22 241.238 1112.08 234.541 1109.42 229.122C1106.76 223.71 1102.65 219.718 1097.99 216.76C1088.75 210.89 1077.15 208.964 1069.68 208.016L1069.17 211.983ZM1108.19 248.978C1106.46 262.499 1096.57 271.349 1085.63 274.078L1086.59 277.958C1098.9 274.887 1110.19 264.864 1112.16 249.482L1108.19 248.978ZM1084.13 275.766L1084.07 276.227L1088.03 276.731L1088.09 276.27L1084.13 275.766ZM1085.09 278.237C1092.09 282.032 1095.56 289.737 1096.76 301.884L1100.75 301.482C1099.5 288.944 1095.79 279.49 1087.01 274.721L1085.09 278.237ZM1096.77 301.904C1097.56 309.077 1098.27 316.363 1099.01 322.404C1099.73 328.362 1100.5 333.438 1101.46 336.075L1105.22 334.699C1104.44 332.585 1103.72 328.019 1102.98 321.917C1102.25 315.899 1101.54 308.708 1100.74 301.462L1096.77 301.904ZM1103.59 333.403L1080.22 330.438L1079.71 334.405L1103.08 337.371L1103.59 333.403ZM1081.85 331.759C1081.3 330.171 1080.6 326.784 1079.93 321.835C1079.26 316.942 1078.63 310.661 1078.17 303.375L1074.18 303.635C1074.65 310.998 1075.28 317.376 1075.97 322.38C1076.64 327.328 1077.37 331.075 1078.08 333.083L1081.85 331.759ZM1078.17 303.359C1077.6 295.481 1076.26 289.753 1073.39 285.812C1070.42 281.735 1066.07 279.896 1060.39 279.175L1059.88 283.142C1064.96 283.787 1068.07 285.316 1070.15 288.169C1072.33 291.157 1073.62 295.919 1074.18 303.651L1078.17 303.359ZM1060.39 279.175L1052.7 278.2L1052.19 282.167L1059.88 283.142L1060.39 279.175ZM1050.46 279.931L1044.3 327.897L1048.27 328.4L1054.43 280.435L1050.46 279.931ZM1046.54 326.165L1023.94 323.297L1023.43 327.264L1046.03 330.132L1046.54 326.165ZM1057.25 227.047L1052.63 263.021L1056.6 263.524L1061.22 227.55L1057.25 227.047ZM1054.36 265.256L1063.74 266.446L1064.25 262.479L1054.87 261.289L1054.36 265.256ZM1063.74 266.446C1070.58 267.314 1076.54 266.039 1081.04 262.856C1085.55 259.659 1088.36 254.686 1089.15 248.593L1085.18 248.089C1084.52 253.218 1082.21 257.126 1078.73 259.594C1075.23 262.075 1070.33 263.25 1064.25 262.479L1063.74 266.446ZM1089.15 248.593C1090.2 240.409 1087.76 234.826 1083.65 231.209C1079.68 227.701 1074.38 226.268 1070.06 225.719L1069.55 229.687C1073.53 230.192 1077.9 231.467 1081.01 234.21C1083.99 236.844 1086.08 241.053 1085.18 248.089L1089.15 248.593ZM1070.06 225.719C1065.01 225.079 1061.13 224.885 1058.85 225.337L1059.62 229.26C1061.18 228.951 1064.45 229.039 1069.55 229.687L1070.06 225.719Z" fill="black" mask="url(#path-39-outside-6_527_192)"/>
<mask id="path-41-outside-7_527_192" maskUnits="userSpaceOnUse" x="897.051" y="204.476" width="79.0377" height="127.357" fill="black">
<rect fill="white" x="897.051" y="204.476" width="79.0377" height="127.357"/>
<path d="M928.494 309.386L972.147 307.231L973.252 326.421L906.689 329.707L899.834 210.697L963.919 207.533L965.025 226.723L923.849 228.756L925.507 257.541L964.361 255.623L965.44 274.349L926.586 276.267L928.494 309.386Z"/>
</mask>
<path d="M928.494 309.386L972.147 307.231L973.252 326.421L906.689 329.707L899.834 210.697L963.919 207.533L965.025 226.723L923.849 228.756L925.507 257.541L964.361 255.623L965.44 274.349L926.586 276.267L928.494 309.386Z" fill="black"/>
<path d="M928.494 309.386L926.497 309.484L926.612 311.481L928.609 311.383L928.494 309.386ZM972.147 307.231L974.144 307.132L974.029 305.135L972.031 305.234L972.147 307.231ZM973.252 326.421L973.367 328.418L975.364 328.319L975.249 326.322L973.252 326.421ZM906.689 329.707L904.692 329.806L904.807 331.802L906.804 331.704L906.689 329.707ZM899.834 210.697L899.719 208.7L897.721 208.799L897.836 210.796L899.834 210.697ZM963.919 207.533L965.917 207.435L965.802 205.438L963.804 205.536L963.919 207.533ZM965.025 226.723L965.14 228.72L967.137 228.622L967.022 226.625L965.025 226.723ZM923.849 228.756L923.734 226.759L921.737 226.858L921.852 228.855L923.849 228.756ZM925.507 257.541L923.51 257.64L923.625 259.637L925.622 259.538L925.507 257.541ZM964.361 255.623L966.359 255.525L966.244 253.528L964.246 253.626L964.361 255.623ZM965.44 274.349L965.555 276.346L967.552 276.247L967.437 274.25L965.44 274.349ZM926.586 276.267L926.471 274.27L924.474 274.369L924.589 276.366L926.586 276.267ZM928.609 311.383L972.262 309.227L972.031 305.234L928.379 307.389L928.609 311.383ZM970.149 307.329L971.255 326.519L975.249 326.322L974.144 307.132L970.149 307.329ZM973.137 324.424L906.574 327.71L906.804 331.704L973.367 328.418L973.137 324.424ZM908.687 329.608L901.831 210.599L897.836 210.796L904.692 329.806L908.687 329.608ZM899.949 212.694L964.035 209.53L963.804 205.536L899.719 208.7L899.949 212.694ZM961.922 207.632L963.028 226.822L967.022 226.625L965.917 207.435L961.922 207.632ZM964.91 224.727L923.734 226.759L923.964 230.753L965.14 228.72L964.91 224.727ZM921.852 228.855L923.51 257.64L927.505 257.443L925.846 228.658L921.852 228.855ZM925.622 259.538L964.476 257.62L964.246 253.626L925.392 255.545L925.622 259.538ZM962.364 255.722L963.443 274.448L967.437 274.25L966.359 255.525L962.364 255.722ZM965.325 272.352L926.471 274.27L926.701 278.264L965.555 276.346L965.325 272.352ZM924.589 276.366L926.497 309.484L930.491 309.287L928.583 276.169L924.589 276.366Z" fill="black" mask="url(#path-41-outside-7_527_192)"/>
<mask id="path-43-outside-8_527_192" maskUnits="userSpaceOnUse" x="761.197" y="219.431" width="98.0777" height="135.969" fill="black">
<rect fill="white" x="761.197" y="219.431" width="98.0777" height="135.969"/>
<path d="M809.961 329.085L851.573 319.885L856.067 338.735L792.061 352.887L764.41 236.918L786.805 231.966L809.961 329.085Z"/>
</mask>
<path d="M809.961 329.085L851.573 319.885L856.067 338.735L792.061 352.887L764.41 236.918L786.805 231.966L809.961 329.085Z" fill="black"/>
<path d="M809.961 329.085L808.009 329.517L808.473 331.463L810.425 331.031L809.961 329.085ZM851.573 319.885L853.525 319.453L853.061 317.507L851.109 317.939L851.573 319.885ZM856.067 338.735L856.531 340.681L858.484 340.25L858.02 338.304L856.067 338.735ZM792.061 352.887L790.109 353.319L790.573 355.265L792.525 354.833L792.061 352.887ZM764.41 236.918L763.946 234.972L761.994 235.404L762.458 237.349L764.41 236.918ZM786.805 231.966L788.757 231.535L788.293 229.589L786.341 230.02L786.805 231.966ZM810.425 331.031L852.037 321.831L851.109 317.939L809.497 327.139L810.425 331.031ZM849.62 320.316L854.115 339.167L858.02 338.304L853.525 319.453L849.62 320.316ZM855.603 336.79L791.598 350.941L792.525 354.833L856.531 340.681L855.603 336.79ZM794.014 352.455L766.363 236.486L762.458 237.349L790.109 353.319L794.014 352.455ZM764.874 238.864L787.269 233.912L786.341 230.02L763.946 234.972L764.874 238.864ZM784.852 232.398L808.009 329.517L811.914 328.653L788.757 231.535L784.852 232.398Z" fill="black" mask="url(#path-43-outside-8_527_192)"/>
<mask id="path-45-outside-9_527_192" maskUnits="userSpaceOnUse" x="632.119" y="256.543" width="116.056" height="140.929" fill="black">
<rect fill="white" x="632.119" y="256.543" width="116.056" height="140.929"/>
<path d="M696.731 368.361L737.2 351.878L744.856 369.513L683.147 394.648L635.667 285.279L695.079 261.08L702.735 278.715L664.562 294.264L676.047 320.717L712.067 306.045L719.538 323.254L683.518 337.926L696.731 368.361Z"/>
</mask>
<path d="M696.731 368.361L737.2 351.878L744.856 369.513L683.147 394.648L635.667 285.279L695.079 261.08L702.735 278.715L664.562 294.264L676.047 320.717L712.067 306.045L719.538 323.254L683.518 337.926L696.731 368.361Z" fill="black"/>
<path d="M696.731 368.361L694.879 369.115L695.675 370.951L697.527 370.196L696.731 368.361ZM737.2 351.878L739.051 351.123L738.255 349.288L736.403 350.043L737.2 351.878ZM744.856 369.513L745.653 371.348L747.504 370.594L746.708 368.759L744.856 369.513ZM683.147 394.648L681.296 395.402L682.092 397.237L683.944 396.483L683.147 394.648ZM635.667 285.279L634.87 283.444L633.019 284.198L633.815 286.033L635.667 285.279ZM695.079 261.08L696.931 260.326L696.134 258.49L694.283 259.245L695.079 261.08ZM702.735 278.715L703.532 280.55L705.384 279.796L704.587 277.961L702.735 278.715ZM664.562 294.264L663.766 292.428L661.914 293.183L662.711 295.018L664.562 294.264ZM676.047 320.717L674.195 321.471L674.992 323.306L676.843 322.552L676.047 320.717ZM712.067 306.045L713.919 305.291L713.122 303.456L711.27 304.21L712.067 306.045ZM719.538 323.254L720.335 325.089L722.186 324.335L721.39 322.5L719.538 323.254ZM683.518 337.926L682.721 336.091L680.869 336.845L681.666 338.68L683.518 337.926ZM697.527 370.196L737.996 353.713L736.403 350.043L695.934 366.526L697.527 370.196ZM735.348 352.632L743.004 370.267L746.708 368.759L739.051 351.123L735.348 352.632ZM744.059 367.678L682.351 392.812L683.944 396.483L745.653 371.348L744.059 367.678ZM684.999 393.893L637.519 284.525L633.815 286.033L681.296 395.402L684.999 393.893ZM636.464 287.114L695.876 262.915L694.283 259.245L634.87 283.444L636.464 287.114ZM693.228 261.834L700.884 279.47L704.587 277.961L696.931 260.326L693.228 261.834ZM701.939 276.88L663.766 292.428L665.359 296.099L703.532 280.55L701.939 276.88ZM662.711 295.018L674.195 321.471L677.898 319.963L666.414 293.509L662.711 295.018ZM676.843 322.552L712.864 307.88L711.27 304.21L675.25 318.882L676.843 322.552ZM710.215 306.8L717.686 324.008L721.39 322.5L713.919 305.291L710.215 306.8ZM718.741 321.419L682.721 336.091L684.314 339.761L720.335 325.089L718.741 321.419ZM681.666 338.68L694.879 369.115L698.582 367.607L685.369 337.171L681.666 338.68Z" fill="black" mask="url(#path-45-outside-9_527_192)"/>
<mask id="path-47-outside-10_527_192" maskUnits="userSpaceOnUse" x="498.196" y="314.823" width="145.996" height="153.095" fill="black">
<rect fill="white" x="498.196" y="314.823" width="145.996" height="153.095"/>
<path d="M574.321 322.004L580.905 339.854C575.855 340.67 569.583 342.445 562.648 346.844C546.03 357.383 540.207 377.044 556.293 400.98C571.342 423.373 591.031 427.956 609.219 416.421C615.238 412.604 620.871 407.379 623.673 403.217L636.712 416.788C634.128 420.997 627.313 428.072 616.976 434.628C586.749 453.798 556.422 444.215 536.703 414.873C513.439 380.254 524.314 348.396 551.008 331.467C561.868 324.579 570.404 322.285 574.321 322.004Z"/>
</mask>
<path d="M574.321 322.004L580.905 339.854C575.855 340.67 569.583 342.445 562.648 346.844C546.03 357.383 540.207 377.044 556.293 400.98C571.342 423.373 591.031 427.956 609.219 416.421C615.238 412.604 620.871 407.379 623.673 403.217L636.712 416.788C634.128 420.997 627.313 428.072 616.976 434.628C586.749 453.798 556.422 444.215 536.703 414.873C513.439 380.254 524.314 348.396 551.008 331.467C561.868 324.579 570.404 322.285 574.321 322.004Z" fill="black"/>
<path d="M574.321 322.004L576.224 321.353L575.697 319.922L574.15 320.033L574.321 322.004ZM580.905 339.854L581.257 341.803L583.626 341.42L582.808 339.203L580.905 339.854ZM623.673 403.217L625.141 401.874L623.378 400.038L621.977 402.119L623.673 403.217ZM636.712 416.788L638.451 417.818L639.235 416.542L638.181 415.445L636.712 416.788ZM572.418 322.655L579.001 340.505L582.808 339.203L576.224 321.353L572.418 322.655ZM580.552 337.904C575.283 338.756 568.739 340.612 561.532 345.183L563.764 348.504C570.427 344.279 576.427 342.584 581.257 341.803L580.552 337.904ZM561.532 345.183C552.827 350.703 546.834 358.7 545.208 368.552C543.585 378.388 546.362 389.785 554.605 402.051L557.982 399.91C550.139 388.239 547.783 377.837 549.205 369.224C550.623 360.626 555.85 353.523 563.764 348.504L561.532 345.183ZM554.605 402.051C562.308 413.514 571.357 420.652 581.049 423.325C590.784 426.009 600.846 424.099 610.335 418.082L608.103 414.76C599.403 420.278 590.527 421.844 582.108 419.523C573.647 417.189 565.327 410.839 557.982 399.91L554.605 402.051ZM610.335 418.082C616.516 414.162 622.376 408.76 625.368 404.314L621.977 402.119C619.367 405.998 613.96 411.046 608.103 414.76L610.335 418.082ZM622.204 404.56L635.243 418.131L638.181 415.445L625.141 401.874L622.204 404.56ZM634.973 415.758C632.594 419.634 626.036 426.513 615.86 432.967L618.091 436.289C628.589 429.631 635.663 422.36 638.451 417.818L634.973 415.758ZM615.86 432.967C601.15 442.296 586.597 444.534 573.409 441.036C560.183 437.528 548.05 428.173 538.392 413.802L535.015 415.944C545.075 430.914 557.965 441.022 572.389 444.849C586.851 448.685 602.574 446.13 618.091 436.289L615.86 432.967ZM538.392 413.802C527.008 396.862 524.084 380.779 527.101 366.969C530.121 353.141 539.15 341.355 552.124 333.127L549.892 329.806C536.171 338.507 526.416 351.115 523.142 366.103C519.863 381.11 523.134 398.265 535.015 415.944L538.392 413.802ZM552.124 333.127C562.794 326.36 571.008 324.225 574.492 323.975L574.15 320.033C569.801 320.346 560.943 322.797 549.892 329.806L552.124 333.127Z" fill="black" mask="url(#path-47-outside-10_527_192)"/>
<mask id="path-49-outside-11_527_192" maskUnits="userSpaceOnUse" x="386.951" y="401.936" width="154.249" height="151.171" fill="black">
<rect fill="white" x="386.951" y="401.936" width="154.249" height="151.171"/>
<path d="M454.169 408.804L463.977 425.105C459.169 426.852 453.339 429.768 447.348 435.386C432.994 448.845 430.952 469.246 451.235 489.748C470.209 508.928 490.41 509.747 506.121 495.015C511.32 490.14 515.877 483.955 517.851 479.342L533.201 490.234C531.45 494.85 526.078 503.075 517.148 511.448C491.039 535.93 459.45 532.19 434.587 507.057C405.254 477.406 409.977 444.08 433.035 422.459C442.417 413.662 450.374 409.813 454.169 408.804Z"/>
</mask>
<path d="M454.169 408.804L463.977 425.105C459.169 426.852 453.339 429.768 447.348 435.386C432.994 448.845 430.952 469.246 451.235 489.748C470.209 508.928 490.41 509.747 506.121 495.015C511.32 490.14 515.877 483.955 517.851 479.342L533.201 490.234C531.45 494.85 526.078 503.075 517.148 511.448C491.039 535.93 459.45 532.19 434.587 507.057C405.254 477.406 409.977 444.08 433.035 422.459C442.417 413.662 450.374 409.813 454.169 408.804Z" fill="black"/>
<path d="M454.169 408.804L455.917 407.809L455.131 406.502L453.632 406.901L454.169 408.804ZM463.977 425.105L464.688 426.954L466.943 426.135L465.725 424.11L463.977 425.105ZM517.851 479.342L519.042 477.748L516.966 476.275L515.98 478.581L517.851 479.342ZM533.201 490.234L535.102 490.92L535.633 489.52L534.393 488.64L533.201 490.234ZM452.421 409.799L462.229 426.1L465.725 424.11L455.917 407.809L452.421 409.799ZM463.266 423.256C458.248 425.079 452.167 428.126 445.941 433.963L448.755 436.808C454.511 431.411 460.089 428.625 464.688 426.954L463.266 423.256ZM445.941 433.963C438.422 441.014 434.03 449.989 434.276 459.97C434.522 469.935 439.382 480.609 449.776 491.116L452.693 488.381C442.804 478.384 438.544 468.608 438.328 459.882C438.113 451.172 441.92 443.217 448.755 436.808L445.941 433.963ZM449.776 491.116C459.489 500.934 469.715 506.252 479.737 507.065C489.803 507.881 499.332 504.123 507.528 496.437L504.714 493.593C497.199 500.639 488.772 503.838 480.066 503.132C471.316 502.423 461.954 497.742 452.693 488.381L449.776 491.116ZM507.528 496.437C512.867 491.431 517.614 485.03 519.722 480.103L515.98 478.581C514.141 482.879 509.773 488.849 504.714 493.593L507.528 496.437ZM516.659 480.936L532.009 491.828L534.393 488.64L519.042 477.748L516.659 480.936ZM531.3 489.547C529.687 493.799 524.532 501.783 515.741 510.025L518.555 512.87C527.623 504.367 533.212 495.902 535.102 490.92L531.3 489.547ZM515.741 510.025C503.035 521.939 489.156 526.859 475.545 525.89C461.894 524.918 448.223 517.999 436.046 505.69L433.129 508.425C445.814 521.248 460.369 528.765 475.256 529.826C490.182 530.889 505.151 525.438 518.555 512.87L515.741 510.025ZM436.046 505.69C421.692 491.18 415.81 475.93 416.19 461.802C416.571 447.654 423.236 434.389 434.442 423.881L431.628 421.037C419.776 432.15 412.551 446.358 412.139 461.692C411.726 477.045 418.149 493.283 433.129 508.425L436.046 505.69ZM434.442 423.881C443.659 415.239 451.33 411.605 454.706 410.708L453.632 406.901C449.418 408.021 441.174 412.086 431.628 421.037L434.442 423.881Z" fill="black" mask="url(#path-49-outside-11_527_192)"/>
<mask id="path-51-outside-12_527_192" maskUnits="userSpaceOnUse" x="289.792" y="511.415" width="161.829" height="152.7" fill="black">
<rect fill="white" x="289.792" y="511.415" width="161.829" height="152.7"/>
<path d="M313.441 566.104L330.18 542.642L448.161 582.514L434.211 602.065L403.225 591.319L384.686 617.303L405.953 641.673L392.454 660.594L313.441 566.104ZM353.777 583.763L372.211 604.898L386.97 584.211L360.385 574.768C353.149 572.1 344.027 568.339 337.099 565.506L336.829 565.884C342.085 571.327 348.995 578.455 353.777 583.763Z"/>
</mask>
<path d="M313.441 566.104L330.18 542.642L448.161 582.514L434.211 602.065L403.225 591.319L384.686 617.303L405.953 641.673L392.454 660.594L313.441 566.104ZM353.777 583.763L372.211 604.898L386.97 584.211L360.385 574.768C353.149 572.1 344.027 568.339 337.099 565.506L336.829 565.884C342.085 571.327 348.995 578.455 353.777 583.763Z" fill="black"/>
<path d="M313.441 566.104L311.786 564.98L310.909 566.211L311.873 567.364L313.441 566.104ZM330.18 542.642L330.853 540.772L329.406 540.283L328.525 541.518L330.18 542.642ZM448.161 582.514L449.815 583.638L451.346 581.493L448.833 580.643L448.161 582.514ZM434.211 602.065L433.523 603.93L434.978 604.435L435.866 603.189L434.211 602.065ZM403.225 591.319L403.913 589.454L402.459 588.949L401.57 590.195L403.225 591.319ZM384.686 617.303L383.031 616.179L382.134 617.437L383.145 618.594L384.686 617.303ZM405.953 641.673L407.608 642.797L408.505 641.54L407.495 640.382L405.953 641.673ZM392.454 660.594L390.886 661.853L392.573 663.871L394.109 661.718L392.454 660.594ZM353.777 583.763L355.319 582.473L355.309 582.461L355.298 582.449L353.777 583.763ZM372.211 604.898L370.669 606.188L372.362 608.129L373.866 606.022L372.211 604.898ZM386.97 584.211L388.625 585.335L390.131 583.224L387.673 582.351L386.97 584.211ZM360.385 574.768L359.66 576.62L359.671 576.624L359.683 576.628L360.385 574.768ZM337.099 565.506L337.89 563.68L336.384 563.064L335.444 564.382L337.099 565.506ZM336.829 565.884L335.174 564.76L334.229 566.084L335.354 567.248L336.829 565.884ZM315.096 567.228L331.835 543.766L328.525 541.518L311.786 564.98L315.096 567.228ZM329.508 544.513L447.488 584.384L448.833 580.643L330.853 540.772L329.508 544.513ZM446.506 581.39L432.557 600.941L435.866 603.189L449.815 583.638L446.506 581.39ZM434.899 600.2L403.913 589.454L402.537 593.184L433.523 603.93L434.899 600.2ZM401.57 590.195L383.031 616.179L386.341 618.427L404.88 592.443L401.57 590.195ZM383.145 618.594L404.412 642.964L407.495 640.382L386.228 616.013L383.145 618.594ZM404.298 640.549L390.799 659.47L394.109 661.718L407.608 642.797L404.298 640.549ZM394.023 659.335L315.01 564.845L311.873 567.364L390.886 661.853L394.023 659.335ZM352.235 585.053L370.669 606.188L373.753 603.607L355.319 582.473L352.235 585.053ZM373.866 606.022L388.625 585.335L385.315 583.087L370.556 603.774L373.866 606.022ZM387.673 582.351L361.087 572.908L359.683 576.628L386.268 586.071L387.673 582.351ZM361.11 572.916C353.916 570.264 344.834 566.52 337.89 563.68L336.307 567.332C343.219 570.158 352.382 573.936 359.66 576.62L361.11 572.916ZM335.444 564.382L335.174 564.76L338.484 567.008L338.753 566.63L335.444 564.382ZM335.354 567.248C340.622 572.703 347.503 579.801 352.256 585.077L355.298 582.449C350.488 577.109 343.548 569.951 338.303 564.52L335.354 567.248Z" fill="black" mask="url(#path-51-outside-12_527_192)"/>
<mask id="path-53-outside-13_527_192" maskUnits="userSpaceOnUse" x="1436.71" y="1411.78" width="152.937" height="169.071" fill="black">
<rect fill="white" x="1436.71" y="1411.78" width="152.937" height="169.071"/>
<path d="M1498.75 1467.42L1486.51 1437.43L1503.17 1418.44L1527.38 1496.27L1560.89 1532.42L1545.76 1549.66L1512.78 1514.08L1442.44 1487.64L1459.31 1468.42L1487 1481.05C1495.04 1484.74 1501.94 1488.1 1509.37 1492.03L1509.57 1491.79C1505.73 1484.25 1502.4 1476.35 1498.75 1467.42Z"/>
</mask>
<path d="M1498.75 1467.42L1486.51 1437.43L1503.17 1418.44L1527.38 1496.27L1560.89 1532.42L1545.76 1549.66L1512.78 1514.08L1442.44 1487.64L1459.31 1468.42L1487 1481.05C1495.04 1484.74 1501.94 1488.1 1509.37 1492.03L1509.57 1491.79C1505.73 1484.25 1502.4 1476.35 1498.75 1467.42Z" fill="black"/>
<path d="M1498.75 1467.42L1496.16 1468.71L1496.16 1468.72L1498.75 1467.42ZM1486.51 1437.43L1484.47 1435.23L1483.12 1436.77L1483.92 1438.72L1486.51 1437.43ZM1503.17 1418.44L1505.86 1417.42L1504.35 1412.57L1501.13 1416.24L1503.17 1418.44ZM1527.38 1496.27L1524.7 1497.29L1524.92 1498L1525.41 1498.53L1527.38 1496.27ZM1560.89 1532.42L1562.93 1534.62L1564.91 1532.37L1562.87 1530.16L1560.89 1532.42ZM1545.76 1549.66L1543.78 1551.92L1545.82 1554.12L1547.8 1551.86L1545.76 1549.66ZM1512.78 1514.08L1514.76 1511.83L1514.3 1511.33L1513.69 1511.1L1512.78 1514.08ZM1442.44 1487.64L1440.4 1485.44L1437.26 1489.02L1441.54 1490.62L1442.44 1487.64ZM1459.31 1468.42L1460.39 1465.51L1458.61 1464.7L1457.27 1466.22L1459.31 1468.42ZM1487 1481.05L1488.08 1478.14L1488.07 1478.14L1487 1481.05ZM1509.37 1492.03L1508.15 1494.87L1509.99 1495.84L1511.4 1494.23L1509.37 1492.03ZM1509.57 1491.79L1511.61 1493.99L1513.09 1492.31L1512.04 1490.25L1509.57 1491.79ZM1501.34 1466.13L1489.1 1436.14L1483.92 1438.72L1496.16 1468.71L1501.34 1466.13ZM1488.55 1439.63L1505.21 1420.64L1501.13 1416.24L1484.47 1435.23L1488.55 1439.63ZM1500.49 1419.46L1524.7 1497.29L1530.07 1495.25L1505.86 1417.42L1500.49 1419.46ZM1525.41 1498.53L1558.91 1534.67L1562.87 1530.16L1529.36 1494.02L1525.41 1498.53ZM1558.85 1530.22L1543.72 1547.46L1547.8 1551.86L1562.93 1534.62L1558.85 1530.22ZM1547.74 1547.41L1514.76 1511.83L1510.8 1516.34L1543.78 1551.92L1547.74 1547.41ZM1513.69 1511.1L1443.35 1484.66L1441.54 1490.62L1511.87 1517.06L1513.69 1511.1ZM1444.48 1489.84L1461.35 1470.62L1457.27 1466.22L1440.4 1485.44L1444.48 1489.84ZM1458.24 1471.33L1485.92 1483.96L1488.07 1478.14L1460.39 1465.51L1458.24 1471.33ZM1485.92 1483.96C1493.93 1487.63 1500.78 1490.97 1508.15 1494.87L1510.58 1489.18C1503.1 1485.23 1496.16 1481.85 1488.08 1478.14L1485.92 1483.96ZM1511.4 1494.23L1511.61 1493.99L1507.53 1489.59L1507.33 1489.83L1511.4 1494.23ZM1512.04 1490.25C1508.27 1482.84 1504.99 1475.05 1501.34 1466.13L1496.16 1468.72C1499.82 1477.65 1503.19 1485.66 1507.1 1493.34L1512.04 1490.25Z" fill="black" mask="url(#path-53-outside-13_527_192)"/>
<mask id="path-55-outside-14_527_192" maskUnits="userSpaceOnUse" x="1321.81" y="1517.16" width="136.74" height="161.674" fill="black">
<rect fill="white" x="1321.81" y="1517.16" width="136.74" height="161.674"/>
<path d="M1388.08 1674.12L1327.99 1572.97C1333.66 1567.11 1342.12 1559.6 1351.51 1552.74C1363.65 1543.88 1389.13 1527.56 1405.44 1555.01C1412.88 1567.53 1410.83 1582.21 1404.04 1592.53L1404.28 1592.93C1412.7 1590.79 1420.57 1594.98 1429 1603.72C1438.96 1613.84 1448.74 1624.27 1452.92 1626.76L1433.89 1640.66C1430.77 1638.73 1423.09 1631.54 1413.47 1620.79C1403.13 1609.43 1396.8 1608.13 1388.03 1614.53L1381.78 1619.1L1406.48 1660.68L1388.08 1674.12ZM1354.54 1573.26L1373.07 1604.44L1380.7 1598.87C1391.22 1591.19 1393.72 1580 1387.94 1570.27C1380.11 1557.08 1369.34 1561.31 1362.58 1566.25C1358.45 1569.26 1355.73 1571.63 1354.54 1573.26Z"/>
</mask>
<path d="M1388.08 1674.12L1327.99 1572.97C1333.66 1567.11 1342.12 1559.6 1351.51 1552.74C1363.65 1543.88 1389.13 1527.56 1405.44 1555.01C1412.88 1567.53 1410.83 1582.21 1404.04 1592.53L1404.28 1592.93C1412.7 1590.79 1420.57 1594.98 1429 1603.72C1438.96 1613.84 1448.74 1624.27 1452.92 1626.76L1433.89 1640.66C1430.77 1638.73 1423.09 1631.54 1413.47 1620.79C1403.13 1609.43 1396.8 1608.13 1388.03 1614.53L1381.78 1619.1L1406.48 1660.68L1388.08 1674.12ZM1354.54 1573.26L1373.07 1604.44L1380.7 1598.87C1391.22 1591.19 1393.72 1580 1387.94 1570.27C1380.11 1557.08 1369.34 1561.31 1362.58 1566.25C1358.45 1569.26 1355.73 1571.63 1354.54 1573.26Z" fill="black"/>
<path d="M1388.08 1674.12L1385.65 1675.89L1387.19 1678.47L1389.61 1676.7L1388.08 1674.12ZM1327.99 1572.97L1326.06 1570.74L1324.28 1572.58L1325.56 1574.74L1327.99 1572.97ZM1404.04 1592.53L1401.73 1590.76L1400.57 1592.53L1401.62 1594.3L1404.04 1592.53ZM1404.28 1592.93L1401.85 1594.7L1402.9 1596.46L1404.83 1595.97L1404.28 1592.93ZM1429 1603.72L1426.98 1606.03L1426.99 1606.04L1427 1606.05L1429 1603.72ZM1452.92 1626.76L1454.45 1629.34L1458.43 1626.44L1454.36 1624.01L1452.92 1626.76ZM1433.89 1640.66L1432.41 1643.4L1433.92 1644.33L1435.42 1643.24L1433.89 1640.66ZM1413.47 1620.79L1415.56 1618.57L1415.55 1618.56L1415.54 1618.55L1413.47 1620.79ZM1381.78 1619.1L1380.24 1616.52L1377.82 1618.29L1379.35 1620.87L1381.78 1619.1ZM1406.48 1660.68L1408.01 1663.26L1410.43 1661.49L1408.9 1658.91L1406.48 1660.68ZM1354.54 1573.26L1352.32 1571.37L1351.02 1573.17L1352.12 1575.03L1354.54 1573.26ZM1373.07 1604.44L1370.64 1606.21L1372.18 1608.79L1374.6 1607.02L1373.07 1604.44ZM1390.5 1672.35L1330.41 1571.21L1325.56 1574.74L1385.65 1675.89L1390.5 1672.35ZM1329.92 1575.21C1335.46 1569.48 1343.78 1562.08 1353.04 1555.32L1349.97 1550.16C1340.45 1557.12 1331.86 1564.75 1326.06 1570.74L1329.92 1575.21ZM1353.04 1555.32C1359.09 1550.9 1368.02 1544.98 1377.27 1543.34C1381.83 1542.54 1386.37 1542.79 1390.66 1544.72C1394.95 1546.65 1399.19 1550.34 1403.02 1556.78L1407.86 1553.24C1403.53 1545.95 1398.48 1541.39 1393.02 1538.93C1387.57 1536.48 1381.92 1536.22 1376.55 1537.17C1365.94 1539.05 1356.07 1545.71 1349.97 1550.16L1353.04 1555.32ZM1403.02 1556.78C1409.74 1568.09 1407.93 1581.36 1401.73 1590.76L1406.34 1594.29C1413.74 1583.07 1416.02 1566.98 1407.86 1553.24L1403.02 1556.78ZM1401.62 1594.3L1401.85 1594.7L1406.7 1591.16L1406.46 1590.76L1401.62 1594.3ZM1404.83 1595.97C1411.81 1594.2 1418.75 1597.49 1426.98 1606.03L1431.01 1601.42C1422.38 1592.46 1413.58 1587.38 1403.73 1589.88L1404.83 1595.97ZM1427 1606.05C1431.94 1611.07 1436.93 1616.26 1441.15 1620.45C1445.29 1624.56 1449.04 1628.07 1451.47 1629.52L1454.36 1624.01C1452.62 1622.97 1449.39 1620.01 1445.1 1615.75C1440.9 1611.58 1436.01 1606.5 1430.99 1601.4L1427 1606.05ZM1451.38 1624.19L1432.36 1638.08L1435.42 1643.24L1454.45 1629.34L1451.38 1624.19ZM1435.37 1637.92C1434.08 1637.13 1431.57 1635.04 1428.06 1631.66C1424.61 1628.33 1420.33 1623.9 1415.56 1618.57L1411.39 1623.02C1416.23 1628.44 1420.6 1632.97 1424.18 1636.41C1427.69 1639.8 1430.58 1642.26 1432.41 1643.4L1435.37 1637.92ZM1415.54 1618.55C1410.3 1612.79 1405.66 1609.08 1400.87 1607.94C1395.85 1606.75 1391.25 1608.49 1386.5 1611.95L1389.57 1617.11C1393.58 1614.18 1396.53 1613.36 1399.45 1614.06C1402.6 1614.81 1406.3 1617.44 1411.4 1623.04L1415.54 1618.55ZM1386.5 1611.95L1380.24 1616.52L1383.31 1621.68L1389.57 1617.11L1386.5 1611.95ZM1379.35 1620.87L1404.05 1662.45L1408.9 1658.91L1384.2 1617.33L1379.35 1620.87ZM1404.94 1658.1L1386.54 1671.54L1389.61 1676.7L1408.01 1663.26L1404.94 1658.1ZM1352.12 1575.03L1370.64 1606.21L1375.49 1602.67L1356.97 1571.49L1352.12 1575.03ZM1374.6 1607.02L1382.24 1601.45L1379.17 1596.29L1371.54 1601.87L1374.6 1607.02ZM1382.24 1601.45C1387.96 1597.27 1391.76 1591.94 1393.2 1586.04C1394.65 1580.11 1393.63 1573.99 1390.37 1568.5L1385.52 1572.04C1388.04 1576.28 1388.65 1580.62 1387.67 1584.64C1386.67 1588.68 1383.96 1592.79 1379.17 1596.29L1382.24 1601.45ZM1390.37 1568.5C1386 1561.16 1380.53 1558.3 1374.95 1558.33C1369.6 1558.36 1364.64 1561.05 1361.05 1563.67L1364.11 1568.83C1367.28 1566.51 1371.08 1564.61 1374.77 1564.59C1378.22 1564.57 1382.04 1566.19 1385.52 1572.04L1390.37 1568.5ZM1361.05 1563.67C1356.95 1566.66 1353.84 1569.29 1352.32 1571.37L1356.76 1575.15C1357.61 1573.98 1359.95 1571.87 1364.11 1568.83L1361.05 1563.67Z" fill="black" mask="url(#path-55-outside-14_527_192)"/>
<mask id="path-57-outside-15_527_192" maskUnits="userSpaceOnUse" x="1198.04" y="1597.54" width="110.619" height="148.613" fill="black">
<rect fill="white" x="1198.04" y="1597.54" width="110.619" height="148.613"/>
<path d="M1257.77 1714.43L1297.67 1696.59L1304.24 1714.65L1243.39 1741.86L1202.65 1629.84L1261.24 1603.65L1267.81 1621.71L1230.17 1638.54L1240.02 1665.63L1275.54 1649.75L1281.95 1667.38L1246.43 1683.26L1257.77 1714.43Z"/>
</mask>
<path d="M1257.77 1714.43L1297.67 1696.59L1304.24 1714.65L1243.39 1741.86L1202.65 1629.84L1261.24 1603.65L1267.81 1621.71L1230.17 1638.54L1240.02 1665.63L1275.54 1649.75L1281.95 1667.38L1246.43 1683.26L1257.77 1714.43Z" fill="black"/>
<path d="M1257.77 1714.43L1255.03 1715.66L1256.05 1718.47L1258.79 1717.25L1257.77 1714.43ZM1297.67 1696.59L1300.41 1695.37L1299.38 1692.55L1296.64 1693.77L1297.67 1696.59ZM1304.24 1714.65L1305.26 1717.47L1308 1716.25L1306.98 1713.43L1304.24 1714.65ZM1243.39 1741.86L1240.65 1743.08L1241.68 1745.9L1244.42 1744.68L1243.39 1741.86ZM1202.65 1629.84L1201.63 1627.02L1198.89 1628.24L1199.92 1631.06L1202.65 1629.84ZM1261.24 1603.65L1263.98 1602.43L1262.95 1599.61L1260.21 1600.83L1261.24 1603.65ZM1267.81 1621.71L1268.83 1624.53L1271.57 1623.31L1270.54 1620.49L1267.81 1621.71ZM1230.17 1638.54L1229.14 1635.72L1226.4 1636.94L1227.43 1639.76L1230.17 1638.54ZM1240.02 1665.63L1237.28 1666.86L1238.31 1669.68L1241.04 1668.45L1240.02 1665.63ZM1275.54 1649.75L1278.28 1648.53L1277.25 1645.71L1274.51 1646.94L1275.54 1649.75ZM1281.95 1667.38L1282.97 1670.2L1285.71 1668.98L1284.69 1666.16L1281.95 1667.38ZM1246.43 1683.26L1245.4 1680.44L1242.66 1681.66L1243.69 1684.48L1246.43 1683.26ZM1258.79 1717.25L1298.69 1699.41L1296.64 1693.77L1256.74 1711.61L1258.79 1717.25ZM1294.93 1697.82L1301.5 1715.88L1306.98 1713.43L1300.41 1695.37L1294.93 1697.82ZM1303.21 1711.84L1242.37 1739.04L1244.42 1744.68L1305.26 1717.47L1303.21 1711.84ZM1246.13 1740.63L1205.39 1628.61L1199.92 1631.06L1240.65 1743.08L1246.13 1740.63ZM1203.68 1632.66L1262.26 1606.47L1260.21 1600.83L1201.63 1627.02L1203.68 1632.66ZM1258.5 1604.87L1265.07 1622.94L1270.54 1620.49L1263.98 1602.43L1258.5 1604.87ZM1266.78 1618.89L1229.14 1635.72L1231.19 1641.36L1268.83 1624.53L1266.78 1618.89ZM1227.43 1639.76L1237.28 1666.86L1242.76 1664.41L1232.9 1637.31L1227.43 1639.76ZM1241.04 1668.45L1276.56 1652.57L1274.51 1646.94L1238.99 1662.81L1241.04 1668.45ZM1272.8 1650.98L1279.21 1668.6L1284.69 1666.16L1278.28 1648.53L1272.8 1650.98ZM1280.92 1664.56L1245.4 1680.44L1247.45 1686.08L1282.97 1670.2L1280.92 1664.56ZM1243.69 1684.48L1255.03 1715.66L1260.5 1713.21L1249.17 1682.03L1243.69 1684.48Z" fill="black" mask="url(#path-57-outside-15_527_192)"/>
<mask id="path-59-outside-16_527_192" maskUnits="userSpaceOnUse" x="1033.94" y="1643.76" width="123.902" height="144.861" fill="black">
<rect fill="white" x="1033.94" y="1643.76" width="123.902" height="144.861"/>
<path d="M1104.51 1707.88L1109.73 1653.18L1133.91 1648.42L1117.14 1773.12L1091.44 1778.17L1038.7 1667.14L1063.34 1662.29L1084.89 1711.73C1090.62 1724.97 1096.37 1738.37 1101.08 1752.12L1101.53 1752.03C1101.87 1737.44 1103.07 1722.37 1104.51 1707.88Z"/>
</mask>
<path d="M1104.51 1707.88L1109.73 1653.18L1133.91 1648.42L1117.14 1773.12L1091.44 1778.17L1038.7 1667.14L1063.34 1662.29L1084.89 1711.73C1090.62 1724.97 1096.37 1738.37 1101.08 1752.12L1101.53 1752.03C1101.87 1737.44 1103.07 1722.37 1104.51 1707.88Z" fill="black"/>
<path d="M1104.51 1707.88L1107.48 1708.08L1107.48 1708.07L1104.51 1707.88ZM1109.73 1653.18L1109.26 1650.21L1106.98 1650.66L1106.76 1652.99L1109.73 1653.18ZM1133.91 1648.42L1136.87 1648.73L1137.41 1644.68L1133.44 1645.46L1133.91 1648.42ZM1117.14 1773.12L1117.61 1776.08L1119.8 1775.65L1120.09 1773.43L1117.14 1773.12ZM1091.44 1778.17L1088.74 1779.55L1089.7 1781.57L1091.91 1781.13L1091.44 1778.17ZM1038.7 1667.14L1038.23 1664.17L1034.31 1664.94L1036.01 1668.52L1038.7 1667.14ZM1063.34 1662.29L1066.08 1661L1065.15 1658.88L1062.87 1659.33L1063.34 1662.29ZM1084.89 1711.73L1087.63 1710.45L1087.63 1710.44L1084.89 1711.73ZM1101.08 1752.12L1098.26 1753.19L1099.07 1755.57L1101.55 1755.08L1101.08 1752.12ZM1101.53 1752.03L1102.01 1755L1104.46 1754.51L1104.51 1752L1101.53 1752.03ZM1107.48 1708.07L1112.7 1653.37L1106.76 1652.99L1101.55 1707.69L1107.48 1708.07ZM1110.2 1656.14L1134.39 1651.39L1133.44 1645.46L1109.26 1650.21L1110.2 1656.14ZM1130.96 1648.12L1114.19 1772.81L1120.09 1773.43L1136.87 1648.73L1130.96 1648.12ZM1116.67 1770.16L1090.96 1775.21L1091.91 1781.13L1117.61 1776.08L1116.67 1770.16ZM1094.13 1776.79L1041.4 1665.76L1036.01 1668.52L1088.74 1779.55L1094.13 1776.79ZM1039.18 1670.1L1063.82 1665.26L1062.87 1659.33L1038.23 1664.17L1039.18 1670.1ZM1060.61 1663.59L1082.16 1713.03L1087.63 1710.44L1066.08 1661L1060.61 1663.59ZM1082.16 1713.02C1087.89 1726.27 1093.59 1739.56 1098.26 1753.19L1103.9 1751.05C1099.15 1737.17 1093.35 1723.68 1087.63 1710.45L1082.16 1713.02ZM1101.55 1755.08L1102.01 1755L1101.06 1749.07L1100.6 1749.16L1101.55 1755.08ZM1104.51 1752C1104.85 1737.52 1106.04 1722.54 1107.48 1708.08L1101.55 1707.67C1100.1 1722.2 1098.89 1737.36 1098.55 1752.06L1104.51 1752Z" fill="black" mask="url(#path-59-outside-16_527_192)"/>
<mask id="path-61-outside-17_527_192" maskUnits="userSpaceOnUse" x="875.084" y="1655.17" width="112.676" height="135.774" fill="black">
<rect fill="white" x="875.084" y="1655.17" width="112.676" height="135.774"/>
<path d="M935.238 1662.13C968.203 1663.95 983.031 1693.02 981.604 1724.76C979.738 1766.26 957.736 1786.31 928.176 1784.68C896.759 1782.94 880.145 1755.63 881.698 1721.1C883.299 1685.49 904.131 1660.41 935.238 1662.13ZM933.777 1680.83C915.824 1679.84 906.689 1700.13 905.707 1721.96C904.656 1745.35 912.923 1765.05 929.792 1765.98C946.817 1766.93 956.494 1748.37 957.574 1724.37C958.555 1702.53 951.265 1681.8 933.777 1680.83Z"/>
</mask>
<path d="M935.238 1662.13C968.203 1663.95 983.031 1693.02 981.604 1724.76C979.738 1766.26 957.736 1786.31 928.176 1784.68C896.759 1782.94 880.145 1755.63 881.698 1721.1C883.299 1685.49 904.131 1660.41 935.238 1662.13ZM933.777 1680.83C915.824 1679.84 906.689 1700.13 905.707 1721.96C904.656 1745.35 912.923 1765.05 929.792 1765.98C946.817 1766.93 956.494 1748.37 957.574 1724.37C958.555 1702.53 951.265 1681.8 933.777 1680.83Z" fill="black"/>
<path d="M935.103 1665.12C950.613 1665.98 961.698 1673.19 968.83 1683.87C976.031 1694.67 979.301 1709.19 978.608 1724.6L984.599 1724.93C985.333 1708.6 981.904 1692.71 973.806 1680.58C965.639 1668.34 952.827 1660.09 935.373 1659.13L935.103 1665.12ZM978.608 1724.6C977.697 1744.87 971.886 1759.49 963.085 1768.82C954.331 1778.1 942.332 1782.46 928.311 1781.68L928.041 1787.67C943.581 1788.53 957.362 1783.68 967.465 1772.97C977.521 1762.31 983.645 1746.16 984.599 1724.93L978.608 1724.6ZM928.311 1781.68C913.537 1780.86 902.385 1774.09 895.03 1763.49C887.615 1752.81 883.938 1738.06 884.693 1721.27L878.702 1720.94C877.904 1738.68 881.758 1754.84 890.117 1766.88C898.534 1779.01 911.398 1786.75 928.041 1787.67L928.311 1781.68ZM884.693 1721.27C885.47 1703.99 890.903 1689.51 899.657 1679.62C908.361 1669.78 920.472 1664.32 935.103 1665.12L935.373 1659.13C918.897 1658.22 905.038 1664.44 895.149 1675.61C885.31 1686.73 879.526 1702.61 878.702 1720.94L884.693 1721.27ZM933.911 1677.83C923.531 1677.26 915.85 1682.94 910.809 1691.26C905.818 1699.5 903.216 1710.57 902.711 1721.8L908.702 1722.13C909.179 1711.52 911.636 1701.53 915.946 1694.41C920.207 1687.38 926.069 1683.41 933.642 1683.83L933.911 1677.83ZM902.711 1721.8C902.171 1733.82 904.006 1745.16 908.359 1753.73C912.752 1762.38 919.868 1768.44 929.658 1768.98L929.927 1762.99C922.848 1762.6 917.395 1758.33 913.7 1751.05C909.965 1743.7 908.192 1733.49 908.702 1722.13L902.711 1721.8ZM929.658 1768.98C939.518 1769.53 947.111 1764.33 952.212 1756.13C957.255 1748.03 960.016 1736.84 960.569 1724.53L954.578 1724.2C954.052 1735.9 951.435 1745.98 947.113 1752.92C942.849 1759.77 937.091 1763.38 929.927 1762.99L929.658 1768.98ZM960.569 1724.53C961.074 1713.3 959.472 1702.12 955.298 1693.49C951.083 1684.77 944.061 1678.39 933.911 1677.83L933.642 1683.83C940.98 1684.23 946.348 1688.7 949.905 1696.06C953.502 1703.5 955.055 1713.6 954.578 1724.2L960.569 1724.53Z" fill="black" mask="url(#path-61-outside-17_527_192)"/>
<mask id="path-63-outside-18_527_192" maskUnits="userSpaceOnUse" x="708.059" y="1615.91" width="117.933" height="151.616" fill="black">
<rect fill="white" x="708.059" y="1615.91" width="117.933" height="151.616"/>
<path d="M820.171 1648.43L811.423 1665.19C807.453 1661.89 801.964 1658.29 794.101 1655.91C775.259 1650.21 756.904 1658.72 750.013 1686.71C743.567 1712.9 753.325 1730.9 773.947 1737.14C780.771 1739.2 788.374 1740.05 793.307 1739.44L792.014 1758.29C787.193 1759.09 777.439 1758.57 765.718 1755.02C731.448 1744.65 718.275 1715.28 726.721 1680.96C736.687 1640.47 767.391 1627.77 797.656 1636.93C809.97 1640.65 817.351 1645.64 820.171 1648.43Z"/>
</mask>
<path d="M820.171 1648.43L811.423 1665.19C807.453 1661.89 801.964 1658.29 794.101 1655.91C775.259 1650.21 756.904 1658.72 750.013 1686.71C743.567 1712.9 753.325 1730.9 773.947 1737.14C780.771 1739.2 788.374 1740.05 793.307 1739.44L792.014 1758.29C787.193 1759.09 777.439 1758.57 765.718 1755.02C731.448 1744.65 718.275 1715.28 726.721 1680.96C736.687 1640.47 767.391 1627.77 797.656 1636.93C809.97 1640.65 817.351 1645.64 820.171 1648.43Z" fill="black"/>
<path d="M820.171 1648.43L822.793 1649.96L823.845 1647.94L822.175 1646.29L820.171 1648.43ZM811.423 1665.19L809.623 1667.52L812.415 1669.84L814.045 1666.72L811.423 1665.19ZM793.307 1739.44L796.259 1739.78L796.521 1735.96L792.823 1736.42L793.307 1739.44ZM792.014 1758.29L792.616 1761.29L794.809 1760.92L794.966 1758.64L792.014 1758.29ZM817.548 1646.9L808.8 1663.66L814.045 1666.72L822.793 1649.96L817.548 1646.9ZM813.222 1662.86C808.994 1659.34 803.144 1655.51 794.818 1652.99L793.384 1658.82C800.784 1661.06 805.913 1664.43 809.623 1667.52L813.222 1662.86ZM794.818 1652.99C784.724 1649.94 774.549 1650.65 765.947 1656.06C757.366 1661.47 750.716 1671.33 747.142 1685.85L752.885 1687.58C756.201 1674.11 762.175 1665.71 769.204 1661.29C776.213 1656.87 784.636 1656.17 793.384 1658.82L794.818 1652.99ZM747.142 1685.85C743.803 1699.41 744.561 1711.26 749.201 1720.68C753.87 1730.16 762.248 1736.73 773.23 1740.05L774.664 1734.22C765.024 1731.31 758.212 1725.75 754.459 1718.13C750.675 1710.45 749.777 1700.21 752.885 1687.58L747.142 1685.85ZM773.23 1740.05C780.33 1742.2 788.355 1743.13 793.79 1742.45L792.823 1736.42C788.394 1736.96 781.213 1736.2 774.664 1734.22L773.23 1740.05ZM790.354 1739.09L789.061 1757.94L794.966 1758.64L796.259 1739.78L790.354 1739.09ZM791.411 1755.29C787.162 1756 777.883 1755.57 766.436 1752.11L765.001 1757.93C776.995 1761.56 787.223 1762.19 792.616 1761.29L791.411 1755.29ZM766.436 1752.11C749.987 1747.13 738.886 1737.71 732.816 1725.67C726.719 1713.58 725.499 1698.46 729.593 1681.83L723.85 1680.09C719.497 1697.78 720.641 1714.5 727.586 1728.27C734.558 1742.1 747.179 1752.54 765.001 1757.93L766.436 1752.11ZM729.593 1681.83C734.416 1662.23 744.166 1649.66 756.079 1643.01C768.017 1636.35 782.442 1635.46 796.939 1639.84L798.373 1634.02C782.605 1629.24 766.546 1630.12 753.074 1637.64C739.578 1645.18 728.992 1659.2 723.85 1680.09L729.593 1681.83ZM796.939 1639.84C808.929 1643.47 815.814 1648.24 818.166 1650.57L822.175 1646.29C818.889 1643.03 811.011 1637.84 798.373 1634.02L796.939 1639.84Z" fill="black" mask="url(#path-63-outside-18_527_192)"/>
<mask id="path-65-outside-19_527_192" maskUnits="userSpaceOnUse" x="575.32" y="1557.57" width="123.421" height="156.697" fill="black">
<rect fill="white" x="575.32" y="1557.57" width="123.421" height="156.697"/>
<path d="M583.244 1668.33L594.984 1652.91C598.919 1659.28 606.434 1666.72 614.872 1671.32C626.031 1677.41 634.333 1675.07 637.916 1667C641.372 1659.2 638.411 1651.78 629.169 1640.23C616.526 1624.54 611.253 1609 617.538 1594.83C625.457 1576.98 645.025 1570.58 667.615 1582.9C677.55 1588.31 684.102 1594.88 687.87 1600.1L676.046 1614.94C673.252 1610.95 668.05 1604.78 659.477 1600.1C648.862 1594.31 641.46 1597.67 638.757 1603.76C635.301 1611.55 638.901 1617.91 648.99 1630.98C662.272 1647.9 665.294 1662.04 658.946 1676.35C650.525 1695.34 630.621 1701.73 606.262 1688.45C595.919 1682.81 586.761 1674.12 583.244 1668.33Z"/>
</mask>
<path d="M583.244 1668.33L594.984 1652.91C598.919 1659.28 606.434 1666.72 614.872 1671.32C626.031 1677.41 634.333 1675.07 637.916 1667C641.372 1659.2 638.411 1651.78 629.169 1640.23C616.526 1624.54 611.253 1609 617.538 1594.83C625.457 1576.98 645.025 1570.58 667.615 1582.9C677.55 1588.31 684.102 1594.88 687.87 1600.1L676.046 1614.94C673.252 1610.95 668.05 1604.78 659.477 1600.1C648.862 1594.31 641.46 1597.67 638.757 1603.76C635.301 1611.55 638.901 1617.91 648.99 1630.98C662.272 1647.9 665.294 1662.04 658.946 1676.35C650.525 1695.34 630.621 1701.73 606.262 1688.45C595.919 1682.81 586.761 1674.12 583.244 1668.33Z" fill="black"/>
<path d="M583.244 1668.33L580.957 1666.31L579.667 1668L580.833 1669.92L583.244 1668.33ZM594.984 1652.91L597.382 1651.3L595.143 1647.68L592.696 1650.89L594.984 1652.91ZM629.169 1640.23L631.336 1638.29L631.329 1638.28L629.169 1640.23ZM687.87 1600.1L690.119 1602.17L691.598 1600.31L690.136 1598.29L687.87 1600.1ZM676.046 1614.94L673.754 1616.72L675.991 1619.91L678.296 1617.01L676.046 1614.94ZM648.99 1630.98L646.788 1632.88L646.796 1632.89L646.804 1632.9L648.99 1630.98ZM585.532 1670.35L597.272 1654.94L592.696 1650.89L580.957 1666.31L585.532 1670.35ZM592.586 1654.53C596.832 1661.4 604.766 1669.22 613.655 1674.07L616.088 1668.58C608.103 1664.23 601.006 1657.16 597.382 1651.3L592.586 1654.53ZM613.655 1674.07C619.617 1677.32 625.178 1678.52 629.936 1677.51C634.789 1676.48 638.426 1673.22 640.55 1668.43L635.282 1665.56C633.823 1668.85 631.518 1670.8 628.533 1671.43C625.455 1672.09 621.285 1671.41 616.088 1668.58L613.655 1674.07ZM640.55 1668.43C642.608 1663.79 642.751 1659.13 641.024 1654.09C639.365 1649.25 636.012 1644.14 631.336 1638.29L627.003 1642.17C631.568 1647.88 634.317 1652.25 635.585 1655.96C636.785 1659.46 636.679 1662.41 635.282 1665.56L640.55 1668.43ZM631.329 1638.28C618.974 1622.95 614.618 1608.79 620.172 1596.26L614.904 1593.39C607.888 1609.21 614.078 1626.13 627.01 1642.18L631.329 1638.28ZM620.172 1596.26C623.796 1588.09 630.026 1582.63 637.9 1580.56C645.803 1578.48 655.612 1579.76 666.399 1585.64L668.832 1580.15C657.029 1573.72 645.759 1572.04 636.25 1574.54C626.712 1577.05 619.199 1583.71 614.904 1593.39L620.172 1596.26ZM666.399 1585.64C675.927 1590.83 682.119 1597.08 685.604 1601.91L690.136 1598.29C686.085 1592.67 679.172 1585.79 668.832 1580.15L666.399 1585.64ZM685.62 1598.03L673.797 1612.87L678.296 1617.01L690.119 1602.17L685.62 1598.03ZM678.339 1613.17C675.354 1608.91 669.81 1602.33 660.693 1597.36L658.26 1602.84C666.29 1607.22 671.15 1613 673.754 1616.72L678.339 1613.17ZM660.693 1597.36C654.922 1594.21 649.696 1593.38 645.358 1594.46C640.998 1595.55 637.816 1598.51 636.123 1602.32L641.391 1605.2C642.401 1602.92 644.271 1601.16 646.942 1600.49C649.634 1599.82 653.417 1600.2 658.26 1602.84L660.693 1597.36ZM636.123 1602.32C634.025 1607.05 634.093 1611.53 636.147 1616.52C638.074 1621.2 641.779 1626.39 646.788 1632.88L651.192 1629.08C646.111 1622.5 642.972 1617.98 641.441 1614.27C640.037 1610.86 640.033 1608.26 641.391 1605.2L636.123 1602.32ZM646.804 1632.9C653.265 1641.13 657.029 1648.43 658.505 1655.2C659.964 1661.89 659.244 1668.31 656.313 1674.92L661.58 1677.79C664.996 1670.09 665.939 1662.28 664.153 1654.09C662.385 1645.98 657.997 1637.75 651.176 1629.06L646.804 1632.9ZM656.313 1674.92C652.425 1683.68 645.976 1689.4 637.776 1691.49C629.53 1693.59 619.191 1692.09 607.478 1685.7L605.045 1691.19C617.692 1698.08 629.484 1700.03 639.386 1697.51C649.332 1694.98 657.046 1688.01 661.58 1677.79L656.313 1674.92ZM607.478 1685.7C597.472 1680.25 588.796 1671.91 585.656 1666.74L580.833 1669.92C584.726 1676.33 594.367 1685.37 605.045 1691.19L607.478 1685.7Z" fill="black" mask="url(#path-65-outside-19_527_192)"/>
<mask id="path-67-outside-20_527_192" maskUnits="userSpaceOnUse" x="503.13" y="1515.42" width="89.6947" height="125.529" fill="black">
<rect fill="white" x="503.13" y="1515.42" width="89.6947" height="125.529"/>
<path d="M525.933 1636.32L507.593 1622.54L569.754 1520.84L588.095 1534.62L525.933 1636.32Z"/>
</mask>
<path d="M525.933 1636.32L507.593 1622.54L569.754 1520.84L588.095 1534.62L525.933 1636.32Z" fill="black"/>
<path d="M525.933 1636.32L524.369 1638.88L526.767 1640.68L528.332 1638.12L525.933 1636.32ZM507.593 1622.54L505.195 1620.74L503.63 1623.3L506.029 1625.1L507.593 1622.54ZM569.754 1520.84L571.319 1518.28L568.92 1516.48L567.356 1519.04L569.754 1520.84ZM588.095 1534.62L590.493 1536.42L592.058 1533.86L589.659 1532.06L588.095 1534.62ZM527.498 1633.76L509.158 1619.98L506.029 1625.1L524.369 1638.88L527.498 1633.76ZM509.992 1624.35L572.153 1522.64L567.356 1519.04L505.195 1620.74L509.992 1624.35ZM568.19 1523.4L586.53 1537.18L589.659 1532.06L571.319 1518.28L568.19 1523.4ZM585.696 1532.82L523.535 1634.52L528.332 1638.12L590.493 1536.42L585.696 1532.82Z" fill="black" mask="url(#path-67-outside-20_527_192)"/>
<mask id="path-69-outside-21_527_192" maskUnits="userSpaceOnUse" x="369.968" y="1403.39" width="152.106" height="169.75" fill="black">
<rect fill="white" x="369.968" y="1403.39" width="152.106" height="169.75"/>
<path d="M376.021 1499.8L452.29 1410.84C459.06 1415.74 467.133 1422.9 475.135 1431.33C488.791 1445.73 495.35 1458.69 496.831 1472.12C498.566 1487.39 493.57 1503.4 479.547 1519.76C462.901 1539.17 447.134 1544.06 435.493 1543.66C421.669 1543.21 407.125 1534.82 392.829 1519.76C385.254 1511.77 379.677 1504.78 376.021 1499.8ZM457.279 1439.84L402.902 1503.27C404.2 1505.31 406.547 1507.78 408.681 1510.03C423.623 1526 442.429 1526.34 462.808 1502.57C480.362 1482.09 479.969 1462.41 465.353 1447.01C462.045 1443.52 459.289 1441.29 457.279 1439.84Z"/>
</mask>
<path d="M376.021 1499.8L452.29 1410.84C459.06 1415.74 467.133 1422.9 475.135 1431.33C488.791 1445.73 495.35 1458.69 496.831 1472.12C498.566 1487.39 493.57 1503.4 479.547 1519.76C462.901 1539.17 447.134 1544.06 435.493 1543.66C421.669 1543.21 407.125 1534.82 392.829 1519.76C385.254 1511.77 379.677 1504.78 376.021 1499.8ZM457.279 1439.84L402.902 1503.27C404.2 1505.31 406.547 1507.78 408.681 1510.03C423.623 1526 442.429 1526.34 462.808 1502.57C480.362 1482.09 479.969 1462.41 465.353 1447.01C462.045 1443.52 459.289 1441.29 457.279 1439.84Z" fill="black"/>
<path d="M376.021 1499.8L373.956 1497.63L372.237 1499.63L373.821 1501.79L376.021 1499.8ZM452.29 1410.84L453.833 1408.21L451.849 1406.77L450.225 1408.67L452.29 1410.84ZM496.831 1472.12L494.01 1472.48L494.011 1472.5L496.831 1472.12ZM435.493 1543.66L435.565 1540.52L435.563 1540.52L435.493 1543.66ZM457.279 1439.84L458.818 1437.2L456.835 1435.78L455.214 1437.67L457.279 1439.84ZM402.902 1503.27L400.837 1501.09L399.237 1502.96L400.583 1505.08L402.902 1503.27ZM408.681 1510.03L410.648 1507.77L410.641 1507.76L410.634 1507.76L408.681 1510.03ZM378.086 1501.98L454.355 1413.02L450.225 1408.67L373.956 1497.63L378.086 1501.98ZM450.746 1413.48C457.34 1418.25 465.278 1425.28 473.182 1433.61L477.088 1429.06C468.989 1420.52 460.779 1413.23 453.833 1408.21L450.746 1413.48ZM473.182 1433.61C486.553 1447.7 492.636 1460.03 494.01 1472.48L499.652 1471.75C498.063 1457.34 491.03 1443.75 477.088 1429.06L473.182 1433.61ZM494.011 1472.5C495.614 1486.6 491.083 1501.72 477.482 1517.58L481.612 1521.93C496.056 1505.09 501.518 1488.18 499.65 1471.74L494.011 1472.5ZM477.482 1517.58C461.331 1536.42 446.319 1540.88 435.565 1540.52L435.42 1546.81C447.95 1547.24 464.47 1541.93 481.612 1521.93L477.482 1517.58ZM435.563 1540.52C422.718 1540.09 408.813 1532.27 394.782 1517.48L390.876 1522.04C405.438 1537.38 420.62 1546.32 435.423 1546.81L435.563 1540.52ZM394.782 1517.48C387.303 1509.6 381.808 1502.7 378.22 1497.82L373.821 1501.79C377.547 1506.85 383.205 1513.95 390.876 1522.04L394.782 1517.48ZM455.214 1437.67L400.837 1501.09L404.967 1505.45L459.344 1442.02L455.214 1437.67ZM400.583 1505.08C402.081 1507.43 404.678 1510.15 406.728 1512.31L410.634 1507.76C408.416 1505.42 406.319 1503.19 405.222 1501.46L400.583 1505.08ZM406.714 1512.29C414.623 1520.75 423.837 1525.33 433.97 1524.34C444.021 1523.36 454.414 1516.94 464.873 1504.74L460.743 1500.39C450.824 1511.96 441.624 1517.26 433.441 1518.06C425.342 1518.86 417.682 1515.29 410.648 1507.77L406.714 1512.29ZM464.873 1504.74C473.942 1494.16 478.687 1483.43 478.985 1473C479.285 1462.5 475.06 1452.9 467.305 1444.73L463.4 1449.29C470.263 1456.52 473.541 1464.46 473.304 1472.77C473.064 1481.15 469.228 1490.49 460.743 1500.39L464.873 1504.74ZM467.305 1444.73C463.86 1441.1 460.963 1438.75 458.818 1437.2L455.741 1442.48C457.615 1443.83 460.231 1445.95 463.4 1449.29L467.305 1444.73Z" fill="black" mask="url(#path-69-outside-21_527_192)"/>
</svg>
