<svg xmlns="http://www.w3.org/2000/svg" xmlns:xlink="http://www.w3.org/1999/xlink" id="Layer_1" width="512.669" height="723.311" x="0" y="0" enable-background="new 84.412 -21.31 512.669 723.311" version="1.1" viewBox="84.412 -21.31 512.669 723.311" xml:space="preserve"><g><g><rect width="400.965" height="42.207" x="105.517" y="385.448" fill="#8CA5B4"/></g></g><g><g><rect width="21.104" height="84.414" x="337.655" y="585.93" fill="#A4BFCE"/></g></g><g><g><path fill="#8CA5B4" d="M422.069,702h-84.414c-5.827,0-10.555-4.725-10.555-10.553v-21.104c0-5.828,4.728-10.553,10.555-10.553 h24.806c4.536,0,9.043,0.732,13.347,2.166l49.6,16.533c4.31,1.436,7.215,5.467,7.215,10.008v2.949 C432.621,697.276,427.896,702,422.069,702z"/></g></g><g><g><rect width="21.104" height="84.414" x="253.241" y="585.93" fill="#A4BFCE"/></g></g><g><g><circle cx="263.793" cy="554.276" r="42.207" fill="#8CA5B4"/></g></g><g><g><circle cx="348.207" cy="554.276" r="42.207" fill="#8CA5B4"/></g></g><g><g><rect width="21.104" height="147.725" x="105.517" y="427.655" fill="#A4BFCE"/></g></g><g><g><circle cx="116.069" cy="406.552" r="31.655" fill="#B7D3E2"/></g></g><g><g><circle cx="116.069" cy="406.552" r="10.552" fill="#A4BFCE"/></g></g><g><g><polygon fill="#8CA5B4" points="126.621 512.069 105.517 522.622 105.517 501.518 126.621 490.965"/></g></g><g><g><polygon fill="#8CA5B4" points="126.621 469.862 105.517 480.415 105.517 459.311 126.621 448.758"/></g></g><g><g><path fill="#8CA5B4" d="M137.172,607.034c-5.833,0-10.552-4.719-10.552-10.551v-31.656c0-5.82-4.729-10.551-10.552-10.551 c-5.822,0-10.552,4.729-10.552,10.551v31.656c0,5.832-4.719,10.551-10.552,10.551s-10.552-4.719-10.552-10.551v-31.656 c0-17.455,14.2-31.654,31.655-31.654s31.655,14.199,31.655,31.654v31.656C147.724,602.315,143.005,607.034,137.172,607.034z"/></g></g><g><g><circle cx="495.931" cy="406.552" r="31.655" fill="#B7D3E2"/></g></g><g><g><circle cx="495.931" cy="406.552" r="10.552" fill="#A4BFCE"/></g></g><g><g><path fill="#A4BFCE" d="M390.414,575.379H221.586c-17.483,0-31.655-14.172-31.655-31.654V406.551h232.138v137.174 C422.069,561.208,407.896,575.379,390.414,575.379z"/></g></g><g><g><g><path fill="#B7D3E2" d="M422.069,406.551H189.931c-29.137,0-52.759-23.621-52.759-52.758V206.069 c0-29.137,23.622-52.758,52.759-52.758h232.138c29.137,0,52.758,23.621,52.758,52.758v147.724 C474.827,382.93,451.206,406.551,422.069,406.551z"/></g></g><g><g><path fill="#B7D3E2" d="M306,353.793c-62.791,0-120.964-14.735-168.828-39.785v39.785c0,29.137,23.622,52.758,52.759,52.758 h232.138c29.137,0,52.758-23.621,52.758-52.758v-39.785C426.964,339.058,368.791,353.793,306,353.793z"/></g></g><g><g><path fill="#7891A0" d="M237.414,301.035L237.414,301.035c-8.741,0-15.827-7.087-15.827-15.828v-21.104 c0-8.741,7.086-15.828,15.827-15.828l0,0c8.741,0,15.828,7.087,15.828,15.828v21.104 C253.241,293.948,246.155,301.035,237.414,301.035z"/></g></g><g><g><path fill="#7891A0" d="M374.586,301.035L374.586,301.035c-8.74,0-15.827-7.087-15.827-15.828v-21.104 c0-8.741,7.087-15.828,15.827-15.828l0,0c8.741,0,15.828,7.087,15.828,15.828v21.104 C390.414,293.948,383.327,301.035,374.586,301.035z"/></g></g><g><g><path fill="#8CA5B4" d="M298.26,333.982c14.318-5.504,30.396-3.283,46.097,4.966l-3.568-9.281 c-15.699-8.25-31.777-10.471-46.096-4.967c-14.316,5.504-24.768,17.925-30.898,34.565l3.568,9.28 C273.491,351.906,283.942,339.486,298.26,333.982z"/></g></g><g><g><path fill="#A4BFCE" d="M242.689,174.414L242.689,174.414c-5.827,0-10.552-4.725-10.552-10.552v-42.207 c0-5.827,4.725-10.552,10.552-10.552l0,0c5.827,0,10.552,4.725,10.552,10.552v42.207 C253.241,169.689,248.517,174.414,242.689,174.414z"/></g></g><g><g><circle cx="242.689" cy="111.104" r="21.104" fill="#B7D3E2"/></g></g><g><g><path fill="#A4BFCE" d="M232.138,111.104c0-9.822,6.742-18.004,15.828-20.357c-1.696-0.44-3.443-0.747-5.277-0.747 c-11.654,0-21.103,9.448-21.103,21.104c0,11.654,9.449,21.104,21.103,21.104c1.833,0,3.58-0.308,5.276-0.747 C238.879,129.107,232.138,120.926,232.138,111.104z"/></g></g><g><g><path fill="#A4BFCE" d="M369.311,174.414L369.311,174.414c-5.824,0-10.552-4.725-10.552-10.552v-42.207 c0-5.827,4.728-10.552,10.552-10.552l0,0c5.827,0,10.555,4.725,10.555,10.552v42.207 C379.862,169.689,375.138,174.414,369.311,174.414z"/></g></g><g><g><circle cx="369.311" cy="111.104" r="21.104" fill="#B7D3E2"/></g></g><g><g><path fill="#A4BFCE" d="M358.759,111.104c0-9.822,6.741-18.004,15.827-20.357c-1.696-0.44-3.442-0.747-5.275-0.747 c-11.651,0-21.104,9.448-21.104,21.104c0,11.654,9.449,21.104,21.104,21.104c1.833,0,3.579-0.308,5.275-0.747 C365.5,129.107,358.759,120.926,358.759,111.104z"/></g></g></g><g><g><circle cx="306" cy="490.966" r="52.759" fill="#3467B4"/></g></g><g><g><circle cx="306" cy="490.966" r="31.655" fill="#FFC855"/></g></g><g><g><path fill="#FFB44B" d="M295.448,490.965c0-13.764,8.837-25.354,21.104-29.717c-3.313-1.178-6.832-1.938-10.552-1.938 c-17.483,0-31.655,14.174-31.655,31.654c0,17.482,14.172,31.656,31.655,31.656c3.72,0,7.236-0.76,10.552-1.939 C304.285,516.321,295.448,504.729,295.448,490.965z"/></g></g><g><g><circle cx="316.552" cy="480.414" r="10.552" fill="#FFF0BE"/></g></g><g><g><path fill="#8CA5B4" d="M390.414,512.069L390.414,512.069c-5.827,0-10.552-4.727-10.552-10.555v-21.104 c0-5.826,4.725-10.551,10.552-10.551l0,0c5.827,0,10.552,4.725,10.552,10.551v21.104 C400.966,507.344,396.241,512.069,390.414,512.069z"/></g></g><g><g><path fill="#00D2BE" d="M390.414,490.965L390.414,490.965c-5.827,0-10.552-4.725-10.552-10.551l0,0 c0-5.828,4.725-10.553,10.552-10.553l0,0c5.827,0,10.552,4.725,10.552,10.553l0,0 C400.966,486.241,396.241,490.965,390.414,490.965z"/></g></g><g><g><path fill="#8CA5B4" d="M221.586,512.069L221.586,512.069c-5.828,0-10.552-4.727-10.552-10.555v-21.104 c0-5.826,4.724-10.551,10.552-10.551l0,0c5.827,0,10.551,4.725,10.551,10.551v21.104 C232.138,507.344,227.414,512.069,221.586,512.069z"/></g></g><g><g><path fill="#E15050" d="M221.586,490.965L221.586,490.965c-5.828,0-10.552-4.725-10.552-10.551l0,0 c0-5.828,4.724-10.553,10.552-10.553l0,0c5.827,0,10.551,4.725,10.551,10.553l0,0 C232.138,486.241,227.414,490.965,221.586,490.965z"/></g></g><g><g><path fill="#8CA5B4" d="M189.931,702h84.414c5.827,0,10.553-4.725,10.553-10.553v-21.104c0-5.828-4.726-10.553-10.553-10.553 h-24.806c-4.536,0-9.043,0.732-13.347,2.166l-49.597,16.533c-4.309,1.436-7.214,5.467-7.214,10.008v2.949 C179.379,697.276,184.104,702,189.931,702z"/></g></g><g><g><polygon fill="#3467B4" points="362.689 530.54 316.726 492.831 306.452 511.262 352.41 548.971"/></g></g><g><g><path fill="#FFF" d="M286.485,251.892c1.004,34.776-23.627,63.866-55.01,64.969c-31.381,1.12-57.632-26.177-58.634-60.951 c-1.002-34.776,23.624-63.864,55.008-64.977C259.231,189.82,285.489,217.113,286.485,251.892z"/><path fill="#221E1D" d="M266.597,252.593c0.654,22.604-15.354,41.513-35.757,42.233c-20.398,0.721-37.46-17.011-38.11-39.618 c-0.654-22.609,15.355-41.521,35.753-42.237C248.881,212.248,265.942,229.986,266.597,252.593z"/></g><path fill="#FFF" d="M250.886,249.997c0.14,5.215-3.547,9.582-8.257,9.749c-4.706,0.164-8.645-3.931-8.794-9.146 c-0.148-5.223,3.544-9.581,8.25-9.749C246.79,240.688,250.729,244.782,250.886,249.997z"/></g><g><g><path fill="#FFF" d="M439.893,250.602c1.033,35.84-24.352,65.819-56.692,66.957c-32.34,1.154-59.396-26.978-60.426-62.815 c-1.035-35.84,24.345-65.818,56.688-66.965C411.805,186.632,438.865,214.76,439.893,250.602z"/><path fill="#221E1D" d="M419.396,251.325c0.674,23.294-15.825,42.782-36.853,43.524c-21.021,0.743-38.604-17.531-39.277-40.829 c-0.672-23.301,15.826-42.791,36.851-43.529C401.138,209.746,418.722,228.027,419.396,251.325z"/></g><path fill="#FFF" d="M403.204,248.65c0.144,5.375-3.656,9.874-8.511,10.047c-4.852,0.169-8.909-4.051-9.063-9.425 c-0.153-5.383,3.652-9.874,8.502-10.046C398.981,239.055,403.042,243.276,403.204,248.65z"/></g><g><g><g><rect width="21.107" height="147.739" x="404.359" y="323.972" fill="#A4BFCE" transform="matrix(-0.0886 0.9961 -0.9961 -0.0886 847.9506 19.8092)"/></g></g><g><g><polygon fill="#8CA5B4" points="405.349 386.433 392.968 406.518 413.987 408.391 426.372 388.306"/></g></g><g><g><polygon fill="#8CA5B4" points="447.39 390.178 435.009 410.264 456.028 412.135 468.411 392.051"/></g></g><g><g><path fill="#8CA5B4" d="M307.95,409.538c0.519-5.811,5.637-10.092,11.446-9.576l31.531,2.811 c5.797,0.518,10.932-3.771,11.446-9.57c0.516-5.799-3.774-10.932-9.573-11.447l-31.529-2.811 c-5.811-0.518-10.093-5.638-9.574-11.445c0.519-5.81,5.637-10.092,11.447-9.574l31.529,2.809 c17.387,1.548,30.271,16.955,28.723,34.343c-1.551,17.385-16.953,30.27-34.341,28.721l-31.529-2.811 C311.715,420.465,307.435,415.348,307.95,409.538z"/></g></g></g><path fill="#FFF" d="M490.354-0.671c3.872-6.29,9.816-11.42,17.83-15.389c8.015-3.97,17.2-5.687,27.558-5.156	c10.355,0.534,20.7,3.98,31.028,10.341c9.602,5.911,16.985,12.903,22.156,20.97c5.169,8.069,7.878,16.382,8.135,24.941	c0.254,8.559-1.818,16.413-6.223,23.563c-3.466,5.628-7.646,9.859-12.539,12.689c-4.896,2.831-9.863,4.817-14.902,5.96	c-5.041,1.142-13.877,2.849-26.507,5.117c-3.515,0.666-6.433,1.359-8.746,2.079c-2.315,0.722-4.204,1.522-5.659,2.406	c-1.457,0.883-2.767,1.858-3.924,2.926c-1.16,1.065-3.104,3-5.828,5.795c-5.498,6.113-11.562,7.128-18.181,3.052	c-3.442-2.121-5.648-5.03-6.61-8.728c-0.967-3.699-0.08-7.767,2.649-12.203c3.426-5.562,7.251-9.851,11.48-12.862	c4.229-3.013,8.717-5.182,13.459-6.506c4.741-1.327,10.836-2.619,18.278-3.881c6.521-1.1,11.308-2.01,14.356-2.736	c3.05-0.725,5.931-1.848,8.65-3.372c2.718-1.522,4.913-3.64,6.586-6.355c3.261-5.297,4.042-10.98,2.346-17.047	c-1.699-6.068-5.66-11.02-11.883-14.851c-7.285-4.485-13.779-5.951-19.485-4.396s-11.952,5.176-18.738,10.858	c-6.86,6.097-13.436,7.207-19.723,3.334c-3.711-2.283-6.035-5.517-6.973-9.703C488.01,5.991,488.478,2.375,490.354-0.671z M471.794,138.032c-4.039-2.486-6.761-5.965-8.162-10.435c-1.403-4.471-0.657-9.057,2.239-13.758	c2.567-4.173,6.184-6.785,10.852-7.838c4.666-1.053,9.119-0.275,13.357,2.334c4.172,2.57,6.803,6.154,7.898,10.755	c1.093,4.6,0.356,8.985-2.212,13.158c-2.854,4.635-6.589,7.359-11.198,8.173C479.959,141.232,475.7,140.438,471.794,138.032z"/></svg>