<svg xmlns="http://www.w3.org/2000/svg" xmlns:xlink="http://www.w3.org/1999/xlink" id="Layer_1" width="792" height="792" x="0" y="0" enable-background="new -90 0 792 792" version="1.1" viewBox="-90 0 792 792" xml:space="preserve"><path fill="#EC4B53" d="M458.751,620.305c4.302,2.064,123.818,58.198,182.8-39.653c60.064-99.654,15.879-95.86,14.925-104.007	c-0.958-8.149,87.463-100.764-20.386-170.383c0,0-131.045-298.962-468.235-152.895c0,0-103.754-15.019-154.263,98.29	c0,0-125.594,46.418-73.719,195.213c51.875,148.796,176.105,81.911,176.105,81.911c17.049,92.73,124.714,115.427,202.039,75.078	c0,0,25.939,28.666,57.337,17.744c1.098-4.313,9.676-1.106,4.012-15.73c7.928-11.692,25.922-17.921,58.133-3.099	c1.693,1.396,4.692,3.775,4.229,3.491L458.751,620.305z"/><path fill="#FF5B61" d="M23.583,255.122c-1.468,2.441-82.555,22.785-88.27,102.958C-73.48,481.42,13.367,568.687,117.82,515.422	c21.802,87.659,140.73,120.692,205.34,68.995c0,0,16.934,42.247,56.204,21.455l1.915,2.095c9.438-0.131,34.399,15.405,56.216-5.193	c1.512,1.247,4.062,3.271,4.267,3.492c3.085,0.336,7.465-1.014,9.676,0.256c133.399,76.572,219.989-55.228,205.356-107.969	c-2.048-7.374-5.603-8.686-11.785-12.386c0,0-2.366-9.341,6.548-19.867c37.85-44.688,57.251-114.146-21.631-152.782	c-79.895-176.925-274.832-253.38-467.702-150.592C49.06,156.207,24.856,253,23.583,255.122L23.583,255.122z"/><path fill="#EC4B53" d="M228.53,189.734c-3.843,1.043-7.813-1.225-8.858-5.068c-1.044-3.843,1.223-7.813,5.067-8.855	c0.17-0.048,56.515-15.865,69.548,30.049c8.075-4.424,20.378-8.409,34.563-3.638c-1.801-15.652,2.718-37.292,37.326-46.188	c3.859-0.986,7.787,1.347,8.772,5.208c0.986,3.859-1.347,7.788-5.208,8.773c-39.613,10.186-22.923,43.57-22.875,43.66l-0.024,0.014	c1.176,2.421,0.938,5.41-0.855,7.657c-2.479,3.111-7.021,3.619-10.128,1.133c-17.864-14.291-33.424-5.417-39.153-1.081	c-0.211,26.872-36.476,32.926-36.582,32.941v-0.002c-2.151,0.355-4.432-0.256-6.139-1.864	c-41.604-39.151-87.633,10.589-87.769,10.725l-0.004-0.004c-2.253,2.402-5.949,3.014-8.911,1.28	c-41.22-24.16-5.681-96.153,2.631-111.698c5.031,0.17,7.926,0.588,7.926,0.588c2.242-0.973,4.44-1.85,6.666-2.783	c0.831,1.993,0.763,4.332-0.383,6.347c-0.114,0.208-39.311,68.313-13.841,91.903c14.081-12.754,58.207-46.173,100.706-9.479	c6.98-1.803,22.634-7.322,21.103-20.308l-0.03-0.334C277.413,176.023,228.668,189.695,228.53,189.734L228.53,189.734z M661.801,481.506L661.801,481.506c-2.819-1.861-5.116-3.074-5.328-4.864c-0.167-1.415,2.358-5.377,6.085-11.314	c-4.678-22.293-22.611-21.62-32.376-19.461c-3.927-8.897-10.371-28.953-2.545-52.761c0.115-0.282,0.212-0.568,0.294-0.858	c10.137-28.829,57.119-17.116,57.253-17.081c1.109,0.267,2.222,0.259,3.262,0.03c-0.87-4.946-2.23-9.94-4.15-14.953	c-12.729-2.289-50.398-6.574-66.125,19.003c-6.134-3.624-15.216-6.949-25.015-3.512c-9.493-37.296-44.324-23.603-44.432-23.562	c-3.736,1.385-5.638,5.547-4.245,9.282c1.388,3.734,5.549,5.635,9.281,4.246c0.062-0.022,20.374-8.035,25.866,15.981	c-12.646,3.512-38.114,13.948-41.748,41.524c-0.521,3.952,2.267,7.58,6.224,8.095c3.953,0.512,7.576-2.275,8.095-6.227	c3.24-24.606,33.271-30.154,36.447-30.673c1.557-0.182,2.94-0.843,4.019-1.824c7.56-6.511,15.64-2.745,19.97,0.268	c-5.458,19.915-2.732,37.495,0.9,49.396c-35.179-8.323-55.718,16.113-58.453,19.63c-0.285,0.337-0.547,0.703-0.771,1.096	c-20.218,35.385-61.193,21.672-74.103,16.218c-1.261-57.954-66.951-46.012-67.145-45.978c-3.935,0.688-6.573,4.441-5.887,8.377	c0.689,3.938,4.439,6.574,8.376,5.886c0.144-0.021,46.967-8.522,50.067,29.788c-56.034,7.212-65.945,57.402-65.975,57.55	c-0.797,3.908,1.728,7.725,5.63,8.518c3.908,0.798,7.724-1.723,8.52-5.631c0.025-0.121,8.389-42.523,57.78-46.534	c10.9,5.032,66.998,27.858,95.071-20.628c2.277-2.91,21.82-26.082,56.473-9.632c1.839,0.961,4.057,1.107,6.057,0.292l0.006,0.015	c0.055-0.017,19.774-8.273,20.075,15.515c0.05,3.983,3.318,7.178,7.304,7.129C658.642,483.836,660.505,482.931,661.801,481.506	L661.801,481.506z M638.68,307.988L638.68,307.988c-0.388,0.302-0.819,0.573-1.282,0.798c-16.389,8.05-25.101,26.991-25.124,27.044	c-1.719,3.611-6.04,5.146-9.653,3.424c-3.606-1.718-5.141-6.04-3.423-9.648c0.027-0.068,10.72-23.345,31.764-33.734	c3.449,6.544,5.129,10.384,5.129,10.384C636.979,306.828,637.819,307.411,638.68,307.988L638.68,307.988z M18.36,241.635	L18.36,241.635c-1.638,3.226-3.229,6.562-4.769,10.016c0,0-2.49,0.924-6.628,2.92c0.158,0.354,0.35,0.706,0.569,1.043	c2.188,3.346,6.672,4.282,10.02,2.098c1.348-0.885,3.421-1.793,6.03-2.591c7.134-2.183,17.484-3.355,27.942-1.138	c10.106,2.139,20.281,7.563,27.482,18.572c1.351,2.068,2.598,4.322,3.733,6.775c-13.466,2.98-36.637,12.246-40.067,40.857	c-0.468,3.97,2.368,7.569,6.338,8.037c3.969,0.466,7.57-2.372,8.037-6.34c3.034-25.291,29.104-28.945,34.765-29.446	c25.114,7.927,26.752,30.534,26.762,30.595c0.342,3.971,3.843,6.911,7.81,6.567c3.97-0.343,6.907-3.84,6.567-7.811	c-0.01-0.093-2.276-30.905-34.608-42.383c-2.003-5.628-4.448-10.531-7.219-14.776c-9.627-14.718-23.167-21.958-36.598-24.8	c-13.081-2.774-26.116-1.278-35.128,1.477L18.36,241.635L18.36,241.635z M-33.556,498.877L-33.556,498.877	c3.686,4.932,7.49,9.374,11.396,13.349c1.564-1.282,2.584-3.208,2.647-5.391c0.622-21.379,5.316-38.368,15.023-49.935	c7.086-8.455,17.097-14.161,30.421-16.739c1.011,17.971,7.329,29.853,15.873,36.665c0.137,0.125,0.282,0.243,0.432,0.361	c5.102,3.921,10.922,6.047,16.884,6.606c5.809,0.539,11.73-0.427,17.221-2.688c11.345-4.677,20.975-14.929,23.988-28.776	c0.845-3.904-1.64-7.76-5.548-8.603c-3.903-0.843-7.759,1.644-8.602,5.547c-1.935,8.913-8.09,15.491-15.329,18.473	c-3.374,1.394-6.964,1.997-10.425,1.671c-3.306-0.309-6.53-1.488-9.357-3.659c-0.116-0.095-0.242-0.181-0.36-0.266	c-5.638-4.532-9.791-13.135-10.403-26.845l0.094-0.003c17.168-0.484,22.753-4.704,22.521-12.743	c-0.128-4.51-2.812-8.443-6.197-13.398c-7.032-10.294-18.47-27.035,1.244-50.792c2.55-3.079,2.122-7.643-0.961-10.186	c-3.077-2.553-7.642-2.122-10.188,0.962c-26.659,32.126-11.413,54.44-2.032,68.172c2.066,3.02,3.701,5.414,3.707,5.636	c0.041,1.548-2.167-2.263-8.491-2.082c-25.268,0.722-43.425,8.92-55.581,23.407C-26.248,460.336-31.962,477.678-33.556,498.877	L-33.556,498.877z M109.43,531.84L109.43,531.84c4.189-1.791,6.548-3.063,6.548-3.063c0.444,2.402,0.961,4.753,1.525,7.064	l0.316-0.077c3.859-1.014,6.164-4.97,5.149-8.829c-3.538-13.36-1.479-40.436,12.563-65.23c9.664-17.058,25.061-32.858,48.308-42.004	c2.193-0.686,3.828-2.333,4.59-4.337c1.965-4.124,18.037-36.173,40.834-30.814c5.531,2.132,47.175,17.092,63.342-8.062	c16.467,1.769,65.94,2.684,73.613-48.857c20.818-2.656,88.137-16.368,93.519-82.853c14.788,1.803,44.583,0.981,62.819-29.791	c2.03-3.439,0.889-7.875-2.549-9.904c-3.438-2.031-7.874-0.889-9.908,2.55c-15.604,26.34-42.283,24.135-51.764,22.375	c-19.547-51.257-64.836-24.342-64.971-24.263c-3.452,1.983-4.642,6.395-2.661,9.847c1.983,3.455,6.397,4.645,9.851,2.66	c0.089-0.053,31.74-18.884,45.026,19.042c-0.759,60.536-60.967,73.347-80.352,75.906c-17.503-63.848-70.29-29.452-70.444-29.354	c-3.375,2.125-4.389,6.587-2.265,9.96c2.125,3.375,6.588,4.389,9.964,2.266c0.106-0.069,38.355-25.008,49.891,25.428	c-4.719,49.755-58.646,40.727-62.246,40.067c-3.32-0.717-6.79,0.996-8.171,4.238c-8.465,19.922-43.875,6.677-47.605,5.222	c-0.399-0.181-0.817-0.33-1.258-0.438c-1.849-0.462-3.652-0.771-5.422-0.951c-10.891-41.642,13.72-41.426,13.791-41.426	c3.986-0.048,7.18-3.321,7.134-7.307c-0.049-3.984-3.318-7.173-7.302-7.126c-0.128,0-42.27-0.186-28.124,57.389	c-19.407,6.185-32.201,27.354-36.487,35.444c-26.501,6.241-31.109-11.536-31.124-11.588l-0.018,0.003	c-0.835-3.147-3.74-5.432-7.142-5.354c-18.131,0.49-18.145-19.065-18.145-19.117c-0.061-3.984-3.344-7.164-7.328-7.104	c-3.986,0.064-7.166,3.347-7.106,7.331c0,0.089,0.003,30.618,27.872,33.164c2.673,5.214,8.292,12.975,19.056,16.588	c-13.01,9.708-22.729,21.581-29.785,34.036c-16.056,28.347-18.199,60.104-13.98,76.039C109.1,531.045,109.252,531.453,109.43,531.84	L109.43,531.84z M311.533,607.053L311.533,607.053c-1.324-2.696-0.868-6.041,1.363-8.288c4.771-4.77,9.035-21.192,8.007-38.707	c-0.377-6.438-1.529-12.922-3.703-18.873c-2.085-5.709-5.12-10.938-9.331-15.146l-0.012-0.014l-0.016,0.014	c-7.247-7.25-18.293-11.715-34.498-10.859c-0.292,0.033-0.587,0.055-0.894,0.055c-0.394,0-0.781-0.035-1.157-0.095	c-3.292-0.363-32.162-2.938-30.265,19.854c0.327,3.984-2.639,7.485-6.625,7.812c-3.983,0.326-7.479-2.635-7.805-6.62	c-2.618-31.399,24.557-35.657,38.607-35.782V474.71c-43.724,2.223-30.148-49.079-30.113-49.235c0.985-3.861,4.912-6.19,8.773-5.207	c3.862,0.983,6.192,4.911,5.208,8.773c-0.026,0.101-9.52,36.031,22.131,30.414c1.271-0.221,2.528-0.095,3.664,0.31	c4.778,1.342,53.159,13.794,72.276-27.336c-17.838-13.005-38.336,0.194-38.418,0.247c-3.378,2.125-7.84,1.11-9.966-2.266	c-2.121-3.374-1.107-7.836,2.266-9.961c0.167-0.105,58.682-37.76,79.841,42.946c1,3.857-1.319,7.799-5.181,8.802	c-3.859,0.998-7.802-1.321-8.801-5.182c-2.563-9.765-5.773-17.293-9.372-23.052c-20.33,36.369-59.86,34.59-77.824,31.596v25.092	c17.144,0.496,29.591,6.342,38.392,15.141l-0.018,0.015c5.82,5.821,9.948,12.863,12.718,20.451c2.68,7.348,4.09,15.212,4.548,22.951	c1.25,21.26-5.089,42.412-12.036,49.582c-3.383-2.837-5.279-4.934-5.279-4.934C315.881,604.973,313.712,606.029,311.533,607.053	L311.533,607.053z M391.714,396.835L391.714,396.835c-3.013,2.609-7.578,2.281-10.189-0.739c-2.607-3.017-2.28-7.578,0.739-10.187	c0.094-0.081,20.945-18.508,45.025-16.374c-2.104-11.613-0.693-23.694,3.905-34.502c5.502-12.925,15.555-24.079,29.595-30.496	c2.412-1.102,4.947-2.065,7.605-2.873c17.596-5.355,28.865-0.586,35.961,6.329c3.916-14.652,12.729-32.99,32.538-43.111	c37.77-19.289,64.782,15.684,64.863,15.785c2.454,3.141,1.893,7.682-1.248,10.133c-3.14,2.451-7.676,1.892-10.131-1.25	c-0.055-0.073-19.827-25.656-46.915-11.817c-21.376,10.916-26.33,34.848-27.471,46.086c19.618,6.843,12.708,43.841,12.688,43.957	c-0.687,3.938-4.439,6.574-8.375,5.885c-3.939-0.687-6.575-4.434-5.888-8.376c0.01-0.081,5.197-28.483-5.753-28.105	c-3.552,0.113-6.582-2.364-7.292-5.722l-0.014,0.008c-0.012-0.068-4.654-23.329-28.78-15.992c-2.006,0.612-3.944,1.348-5.793,2.193	c-10.56,4.829-18.132,13.248-22.292,23.025c-4.181,9.829-4.924,20.994-1.801,31.254c0.242,0.809,0.514,1.615,0.817,2.419	c9.764,5.185,19.43,14.939,27.901,31.696c1.797,3.56,0.364,7.906-3.2,9.702c-3.561,1.799-7.907,0.367-9.704-3.199	C432.375,360.888,391.828,396.734,391.714,396.835z M502.057,565.98L502.057,565.98c-1.94,3.481-6.334,4.735-9.823,2.801	c-3.48-1.939-4.735-6.336-2.799-9.822c0.081-0.144,26.715-49.118,64.226-28.081c7.438-7.911,23.898-21.586,47.97-20.473	c37.627,1.747,33.079,32.904,33.066,32.991c-0.515,3.952-4.142,6.742-8.094,6.225c-3.949-0.517-6.737-4.141-6.224-8.093	c0.008-0.044,2.328-15.684-19.372-16.689c-18.275-0.847-30.767,9.439-36.466,15.463c24.021,31.48-11.299,63.909-11.408,64.006	c-2.905,2.733-7.479,2.593-10.212-0.312c-2.737-2.907-2.598-7.485,0.312-10.219c0.079-0.074,27.987-25.734,7.097-47.893	C523.42,526.763,502.116,565.866,502.057,565.98L502.057,565.98z"/><path fill="#F5A209" d="M379.365,605.873c4.703,10.391-2.914,11.415-4.012,15.73c7.065,6.673,37.695,23.16,60.031,42.278	c27.097,23.192,22.96,32.434,40.981,33.508c9.161,0.544,28.384-3.49,26.817-16.464c-2.811-23.235-44.56-60.682-44.56-60.682	s0.04,0.019,0.127,0.062l-17.023-14.039C421.534,620.555,400.574,616.247,379.365,605.873z"/><path fill="#FBB429" d="M379.365,605.873c12.08,13.174,73.942,64.157,86.494,78.464c12.551,14.304,35.55,0.269,29.582-15.896	c-5.969-16.173-53.714-62.174-53.714-62.174c0.464,0.284-2.536-2.095-4.229-3.489C410.468,618.03,392.633,606.321,379.365,605.873	L379.365,605.873z"/></svg>