<svg xmlns="http://www.w3.org/2000/svg" xmlns:xlink="http://www.w3.org/1999/xlink" id="Capa_1" x="0" y="0" enable-background="new 0 0 58 58" version="1.1" viewBox="0 0 58 58" xml:space="preserve"><path fill="#C7CAC7" stroke="#C7CAC7" stroke-miterlimit="10" stroke-width="2" d="M42,32H15V13.601C15,6.652,21.056,1,28.5,1	S42,6.652,42,13.601V32z M19,28h19V13.601C38,8.858,33.738,5,28.5,5S19,8.858,19,13.601V28z"/><rect width="42" height="32" x="8" y="26" fill="#7383BF"/><rect width="21" height="32" x="29" y="26" fill="#6879AF"/><polygon fill="#EBBA16" points="42.586 57 49 50.586 49 47 43.414 47 33.414 57"/><polygon fill="#4F5970" points="9 47 9 54.586 16.586 47"/><polygon fill="#424A60" points="30.586 57 40.586 47 31.414 47 21.414 57"/><path fill="#EACC18" d="M28.586,47h-9.172l-9.707,9.707C9.512,56.902,9.256,57,9,57h9.586L28.586,47z"/><polygon fill="#424A60" points="49 57 49 53.414 45.414 57"/><polygon fill="#4F5970" points="29 49.414 21.414 57 29 57"/></svg>