<?xml version="1.0" encoding="utf-8"?>
<!-- Generator: Adobe Illustrator 16.0.0, SVG Export Plug-In . SVG Version: 6.00 Build 0)  -->
<!DOCTYPE svg PUBLIC "-//W3C//DTD SVG 1.1//EN" "http://www.w3.org/Graphics/SVG/1.1/DTD/svg11.dtd">
<svg version="1.1" id="Layer_1" xmlns="http://www.w3.org/2000/svg" xmlns:xlink="http://www.w3.org/1999/xlink" x="0px" y="0px"
	 width="612px" height="612px" viewBox="0 0 612 612" enable-background="new 0 0 612 612" xml:space="preserve">
<g>
	<path fill="#25B7D3" d="M604.813,306.467c0-165.339-134.024-299.352-299.347-299.352C140.138,7.115,6.114,141.127,6.114,306.467
		c0,165.317,134.023,299.341,299.352,299.341C470.788,605.808,604.813,471.784,604.813,306.467L604.813,306.467z M604.813,306.467"
		/>
	<path fill="#FFFFFF" d="M172.897,216.58c0-16.791,5.386-33.802,16.173-51.035c10.776-17.234,26.514-31.511,47.194-42.823
		c20.682-11.313,44.809-16.968,72.377-16.968c25.628,0,48.253,4.731,67.874,14.186c19.621,9.458,34.774,22.313,45.475,38.575
		c10.694,16.269,16.037,33.938,16.037,53.028c0,15.024-3.045,28.199-9.144,39.505c-6.098,11.313-13.352,21.082-21.741,29.294
		c-8.401,8.22-23.468,22.053-45.208,41.499c-6.011,5.479-10.83,10.298-14.447,14.453c-3.624,4.153-6.323,7.953-8.09,11.394
		c-1.768,3.448-3.141,6.895-4.107,10.348c-0.978,3.439-2.434,9.498-4.378,18.156c-3.356,18.384-13.875,27.575-31.551,27.575
		c-9.191,0-16.927-3.005-23.197-9.015c-6.273-6.01-9.415-14.936-9.415-26.777c0-14.849,2.297-27.711,6.894-38.575
		c4.596-10.877,10.694-20.423,18.294-28.636c7.6-8.219,17.852-17.988,30.757-29.301c11.313-9.897,19.49-17.363,24.527-22.399
		c5.037-5.038,9.279-10.648,12.727-16.84c3.447-6.188,5.167-12.897,5.167-20.151c0-14.141-5.255-26.072-15.773-35.792
		c-10.517-9.717-24.085-14.583-40.7-14.583c-19.443,0-33.761,4.908-42.952,14.718c-9.192,9.81-16.969,24.257-23.333,43.347
		c-6.009,19.979-17.411,29.96-34.203,29.96c-9.897,0-18.252-3.488-25.052-10.47C176.297,232.271,172.897,224.71,172.897,216.58
		L172.897,216.58z M302.284,507.172c-10.787,0-20.197-3.495-28.239-10.478c-8.042-6.976-12.066-16.744-12.066-29.293
		c0-11.136,3.889-20.506,11.666-28.104c7.777-7.6,17.323-11.401,28.636-11.401c11.135,0,20.503,3.802,28.103,11.401
		c7.602,7.599,11.401,16.969,11.401,28.104c0,12.374-3.978,22.093-11.932,29.164C321.898,503.636,312.707,507.172,302.284,507.172
		L302.284,507.172z M302.284,507.172"/>
</g>
</svg>
