<?xml version="1.0" encoding="utf-8"?>
<!-- Generator: Adobe Illustrator 16.0.0, SVG Export Plug-In . SVG Version: 6.00 Build 0)  -->
<!DOCTYPE svg PUBLIC "-//W3C//DTD SVG 1.1//EN" "http://www.w3.org/Graphics/SVG/1.1/DTD/svg11.dtd">
<svg version="1.1" id="Capa_1" xmlns="http://www.w3.org/2000/svg" xmlns:xlink="http://www.w3.org/1999/xlink" x="0px" y="0px"
	 width="600px" height="600px" viewBox="96 96 600 600" enable-background="new 96 96 600 600" xml:space="preserve">
<g>
	<g>
		<path fill="#EFC9B3" d="M396.004,587.71c0,73.701,84.682,107.629,93.591,43.098c3.959-28.648,30.285-14.31,43.153-41.059
			c6.973-14.496,3.267-26.243,17.305-33.44c25.888-13.29,44.297-51.108,42.491-80.909c-0.974-16.153,26.131-42.667,34.807-56.153
			c15.984-24.877,15.984-59.355,0-84.232c-8.666-13.487-12.831-40-11.849-56.155c1.807-29.799-13.861-61.583-39.748-74.872l0,0
			c-14.038-7.206-25.41-4.221-32.383-18.719c-12.868-26.738-24.914-29.94-53.768-28.077c-15.639,1.01-22.621-27.862-46.795-27.862
			c-0.131,0-0.188-0.215-0.318-0.215c-25.035,0-46.479,13.524-46.479,28.077V587.71H396.004L396.004,587.71z"/>
		<path fill="#CF8C6D" d="M456.838,674.318c-1.03,0-2.05-0.037-3.07-0.104c-32.42-2.227-67.132-37.529-67.132-86.514V157.183
			c0-20.291,25.569-37.437,55.836-37.437l4.727,0.468c14.685,1.694,23.959,11.596,30.894,19.018
			c4.034,4.305,7.946,9.163,10.885,8.61c31.354-2.031,47.872,2.312,62.81,33.356c2.836,5.886,5.933,6.785,13.431,8.947
			c4.352,1.253,9.294,2.676,14.797,5.502c28.489,14.629,46.917,49.07,44.82,83.764c-0.898,14.862,3.145,39.262,10.389,50.521
			c17.848,27.778,17.848,66.581,0,94.358c-2.76,4.286-6.803,9.273-11.484,15.059c-8.348,10.313-22.33,27.562-21.853,35.461
			c2.125,34.965-19.213,75.257-47.563,89.811c-5.101,2.62-5.963,5.269-7.89,13.288c-1.067,4.437-2.396,9.949-5.25,15.883
			c-7.703,16.014-19.785,20.6-28.611,23.97c-8.76,3.321-12.382,4.707-13.711,14.31C494.546,663.341,474.873,674.318,456.838,674.318
			z M438.41,138.605c-19.402,1.282-33.047,11.521-33.047,18.578V587.7c0,41.488,29.388,66.45,49.697,67.845
			c13.719,0.684,22.816-8.292,25.259-26.018c2.846-20.591,15.995-25.598,25.598-29.247c7.778-2.958,13.927-5.297,18.391-14.592
			c1.984-4.127,2.967-8.216,3.922-12.167c2.134-8.844,4.558-18.887,17.539-25.54c21.592-11.081,39.074-44.736,37.426-72.019
			c-0.917-15.161,13.375-32.813,25.99-48.386c4.155-5.129,8.077-9.968,10.276-13.401c14.03-21.816,14.03-52.29,0-74.105
			c-9.761-15.181-14.441-43.333-13.317-61.789c1.637-27.076-12.944-54.816-34.686-65.981c-3.885-1.993-7.73-3.098-11.437-4.174
			c-8.741-2.527-18.644-5.382-25.101-18.813c-10.811-22.452-18.617-24.445-44.737-22.798c-11.399,0.543-19.083-7.366-25.766-14.507
			c-7.758-8.301-13.084-13.337-21.629-13.337L438.41,138.605z"/>
	</g>
	<g>
		<path fill="#EFC9B3" d="M396.004,587.71c0,73.701-84.681,107.629-93.59,43.098c-3.959-28.648-30.286-14.31-43.155-41.059
			c-6.973-14.496-3.267-26.243-17.305-33.44c-25.887-13.29-44.296-51.108-42.49-80.909c0.974-16.153-26.131-42.667-34.806-56.153
			c-15.985-24.877-15.985-59.355,0-84.232c8.667-13.487,12.832-40,11.849-56.155c-1.807-29.799,13.86-61.583,39.748-74.872l0,0
			c14.039-7.206,25.41-4.221,32.383-18.719c12.869-26.738,24.914-29.94,53.768-28.077c15.639,1.01,22.621-24.174,46.794-27.862
			c0.122-0.019,0.207-0.14,0.318-0.215c13.562-9.19,46.479,13.524,46.479,28.077V587.71H396.004L396.004,587.71z"/>
		<path fill="#CF8C6D" d="M335.16,674.318c-18.034,0-37.708-10.978-42.022-42.237c-1.329-9.604-4.951-10.988-13.711-14.31
			c-8.816-3.351-20.899-7.955-28.601-23.971c-2.855-5.933-4.184-11.455-5.26-15.882c-1.937-8.012-2.789-10.668-7.889-13.288
			c-28.339-14.555-49.678-54.836-47.563-89.811c0.478-7.899-13.505-25.157-21.853-35.461c-4.68-5.783-8.723-10.772-11.483-15.06
			c-17.849-27.777-17.849-66.581,0-94.358c7.243-11.259,11.287-35.667,10.389-50.52c-2.105-34.694,16.331-69.146,44.82-83.764
			c5.494-2.827,10.435-4.25,14.796-5.503c7.497-2.162,10.595-3.06,13.421-8.947c14.947-31.025,31.446-35.368,62.809-33.356
			c3.117,0.375,6.533-3.061,11.989-8.461c6.907-6.832,16.248-16.088,30.83-18.961c8.301-4.548,19.887-3.417,32.26,3.145
			c13.582,7.207,27.281,20.393,27.281,33.627v430.517c0,48.984-34.711,84.288-67.132,86.516
			C337.21,674.281,336.19,674.318,335.16,674.318z M290.265,166.073c-17.24,0-24.175,4.502-33.197,23.249
			c-6.448,13.431-16.36,16.285-25.101,18.812c-3.707,1.077-7.553,2.18-11.437,4.174c-21.732,11.156-36.322,38.906-34.684,65.981
			c1.123,18.456-3.557,46.599-13.318,61.79c-14.029,21.815-14.029,52.289,0,74.105c2.199,3.426,6.121,8.273,10.276,13.402
			c12.616,15.572,26.907,33.225,25.991,48.386c-1.647,27.281,15.835,60.947,37.426,72.019c12.98,6.663,15.405,16.696,17.539,25.541
			c0.955,3.949,1.938,8.029,3.932,12.167c4.464,9.284,10.613,11.623,18.39,14.591c9.602,3.649,22.761,8.657,25.597,29.246
			c2.443,17.735,11.437,26.73,25.26,26.019c20.31-1.395,49.697-26.356,49.697-67.844V157.192c0-2.789-6.579-11.39-17.333-17.09
			c-7.366-3.903-12.401-4.192-14.197-3.415l-1.46,1.347l-3.079,0.571c-9.658,1.469-15.854,7.608-22.415,14.095
			c-6.907,6.841-14.731,14.572-26.364,13.841C297.49,166.242,293.672,166.073,290.265,166.073z"/>
	</g>
	<path fill="#CF8C6D" d="M536.39,578.351c-5.166,0-9.359-4.185-9.359-9.359c0-25.803-20.991-46.796-46.794-46.796
		c-5.167,0-9.359-4.183-9.359-9.358c0-5.175,4.192-9.359,9.359-9.359c36.125,0,65.513,29.397,65.513,65.514
		C545.749,574.157,541.556,578.351,536.39,578.351z"/>
	<path fill="#CF8C6D" d="M255.618,578.351c-5.167,0-9.36-4.185-9.36-9.359c0-36.116,29.388-65.514,65.514-65.514
		c5.167,0,9.359,4.184,9.359,9.359s-4.193,9.358-9.359,9.358c-25.803,0-46.795,20.993-46.795,46.796
		C264.977,574.157,260.784,578.351,255.618,578.351z"/>
	<path fill="#CF8C6D" d="M508.313,241.424c-5.167,0-9.359-4.184-9.359-9.359c0-25.804,20.992-46.796,46.795-46.796
		c5.167,0,9.358,4.184,9.358,9.359s-4.191,9.359-9.358,9.359c-15.479,0-28.076,12.598-28.076,28.078
		C517.672,237.231,513.479,241.424,508.313,241.424z"/>
	<path fill="#CF8C6D" d="M293.053,250.783c-5.166,0-9.359-4.183-9.359-9.359c0-20.646-16.79-37.437-37.436-37.437
		c-5.167,0-9.359-4.184-9.359-9.359c0-5.175,4.192-9.359,9.359-9.359c30.968,0,56.154,25.186,56.154,56.154
		C302.413,246.59,298.221,250.783,293.053,250.783z"/>
	<path fill="#CF8C6D" d="M592.544,475.4c-5.166,0-9.359-4.184-9.359-9.358c0-30.97-25.184-56.153-56.154-56.153
		c-41.282,0-74.872-33.591-74.872-74.874c0-5.175,4.193-9.359,9.36-9.359c5.166,0,9.358,4.184,9.358,9.359
		c0,30.968,25.185,56.154,56.153,56.154c41.284,0,74.873,33.589,74.873,74.873C601.903,471.208,597.71,475.4,592.544,475.4z"/>
	<g>
		<path fill="#F7E1D5" d="M396.004,232.065c-41.283,0-74.873,33.59-74.873,74.872c0,30.97-25.185,56.155-56.154,56.155
			c-5.167,0-9.359,4.184-9.359,9.36c0,5.175,4.193,9.359,9.359,9.359c41.283,0,74.873-33.591,74.873-74.873
			c0-30.968,25.185-56.154,56.154-56.154c5.168,0,9.359-4.183,9.359-9.359S401.17,232.065,396.004,232.065z"/>
		<path fill="#F7E1D5" d="M363.593,378.403c-3.659-3.659-9.574-3.659-13.234,0c-12.812,12.803-19.869,29.836-19.869,47.929
			c0,15.151,5.007,29.509,14.132,41.311c-9.125,11.802-14.132,26.168-14.132,41.312c0,18.1,7.056,35.123,19.869,47.927
			c1.825,1.825,4.222,2.742,6.618,2.742c2.396,0,4.792-0.917,6.617-2.742c3.659-3.659,3.659-9.574,0-13.234
			c-9.275-9.274-14.385-21.6-14.385-34.693c0-13.095,5.11-25.42,14.385-34.695c3.659-3.658,3.659-9.573,0-13.233
			c-9.275-9.275-14.385-21.602-14.385-34.695c0-13.093,5.11-25.418,14.385-34.694C367.243,387.986,367.243,382.063,363.593,378.403z
			"/>
		<path fill="#F7E1D5" d="M454.264,409.69c-3.658-3.658-9.573-3.658-13.233,0c-3.659,3.659-3.659,9.574,0,13.234
			c17.39,17.399,17.39,45.71,0,63.108c-11.97,11.971-18.569,27.88-18.569,44.783c0,16.902,6.6,32.813,18.569,44.783
			c1.825,1.824,4.222,2.742,6.616,2.742c2.396,0,4.792-0.918,6.617-2.742c3.659-3.659,3.659-9.574,0-13.234
			c-8.433-8.432-13.084-19.646-13.084-31.549c0-11.906,4.65-23.118,13.084-31.551C478.953,474.577,478.953,434.39,454.264,409.69z"
			/>
		<path fill="#F7E1D5" d="M562.736,320.686c-24.176,4.239-47.414-11.998-51.673-36.23c-2.93-16.668-12.167-31.203-26.01-40.908
			c-13.841-9.705-30.66-13.439-47.327-10.52c-5.092,0.899-8.5,5.747-7.6,10.838c0.896,5.092,5.737,8.441,10.836,7.609
			c11.774-2.115,23.595,0.571,33.347,7.394c9.754,6.841,16.258,17.081,18.325,28.826c5.4,30.708,32.194,52.401,62.369,52.401
			c3.621,0,7.291-0.318,10.978-0.964c5.093-0.898,8.498-5.747,7.6-10.838C572.685,323.204,567.864,319.806,562.736,320.686z"/>
		<path fill="#F7E1D5" d="M245.042,331.019c15.396,0,29.903-9.473,35.537-24.736c1.787-4.857-0.683-10.239-5.532-12.026
			c-4.839-1.778-10.239,0.692-12.026,5.54c-3.659,9.902-14.685,14.975-24.558,11.314c-19.56-7.187-41.367,2.836-48.592,22.396
			c-1.787,4.857,0.693,10.239,5.541,12.026c1.067,0.393,2.162,0.58,3.238,0.58c3.809,0,7.385-2.339,8.779-6.111
			c3.65-9.893,14.637-14.993,24.558-11.315C236.292,330.26,240.699,331.019,245.042,331.019z"/>
		<path fill="#F7E1D5" d="M274.851,474.249c-9.883-3.641-14.965-14.655-11.325-24.539v-0.01
			c7.226-19.569-2.826-41.365-22.396-48.601c-4.83-1.77-10.239,0.691-12.026,5.539c-1.787,4.858,0.683,10.239,5.531,12.027
			c9.892,3.65,14.974,14.666,11.325,24.549c0,0.009,0,0.019,0,0.019c-7.206,19.552,2.836,41.35,22.396,48.583
			c1.066,0.394,2.162,0.581,3.247,0.581c3.81,0,7.385-2.339,8.779-6.112C282.179,481.428,279.698,476.056,274.851,474.249z"/>
	</g>
</g>
</svg>
