<?xml version="1.0" encoding="utf-8"?>
<!-- Generator: Adobe Illustrator 16.0.0, SVG Export Plug-In . SVG Version: 6.00 Build 0)  -->
<!DOCTYPE svg PUBLIC "-//W3C//DTD SVG 1.1//EN" "http://www.w3.org/Graphics/SVG/1.1/DTD/svg11.dtd">
<svg version="1.1" id="Layer_1" xmlns="http://www.w3.org/2000/svg" xmlns:xlink="http://www.w3.org/1999/xlink" x="0px" y="0px"
	 width="600px" height="600px" viewBox="96 96 600 600" enable-background="new 96 96 600 600" xml:space="preserve">
<circle fill="#FFB133" cx="395.995" cy="296.408" r="133.365"/>
<path fill="#F49C00" d="M529.358,296.407c0,73.653-59.713,133.347-133.365,133.347S262.628,370.06,262.628,296.407
	c0-73.67,59.713-107.883,133.365-107.883S529.358,222.737,529.358,296.407z"/>
<g>
	<path fill="#F28A00" d="M529.358,296.407c0,73.653-59.713,133.347-133.365,133.347S262.628,370.06,262.628,296.407"/>
	<path fill="#F28A00" d="M500.462,196.908c-0.937-0.927-1.517-2.211-1.517-3.64c0-7.75,3.032-15.055,8.518-20.54
		c5.484-5.485,12.79-8.517,20.558-8.517c2.818,0.019,5.119,2.301,5.119,5.119c0,2.855-2.301,5.137-5.119,5.137
		c-5.031,0-9.757,1.954-13.29,5.503c-3.549,3.55-5.521,8.258-5.521,13.29c0,2.836-2.284,5.137-5.119,5.137
		C502.673,198.406,501.38,197.826,500.462,196.908z"/>
	<path fill="#F28A00" d="M291.528,395.907c0.927,0.937,1.516,2.21,1.516,3.623c0,7.75-3.032,15.082-8.5,20.539
		c-5.503,5.504-12.808,8.518-20.559,8.518c-2.855,0-5.155-2.281-5.155-5.137c0-2.801,2.301-5.119,5.155-5.119
		c5.013,0,9.74-1.953,13.29-5.502c3.523-3.533,5.484-8.26,5.484-13.289c0-2.838,2.301-5.121,5.138-5.121
		C289.316,394.418,290.609,394.989,291.528,395.907z"/>
	<path fill="#F28A00" d="M399.499,152.188c-1.301,0-2.631-0.508-3.62-1.516c-5.503-5.484-8.517-12.79-8.517-20.54
		c0-7.769,3.014-15.083,8.517-20.558c2.007-2.006,5.245-2.006,7.241,0c1.99,2.006,1.99,5.245,0,7.243
		c-3.531,3.567-5.502,8.295-5.502,13.306c0,5.011,1.971,9.722,5.502,13.291c1.99,2.006,1.99,5.245,0,7.242
		C402.131,151.69,400.819,152.188,399.499,152.188z"/>
	<path fill="#F28A00" d="M392.472,440.627c1.32,0,2.631,0.508,3.639,1.498c5.484,5.484,8.5,12.789,8.5,20.557
		s-3.014,15.055-8.5,20.541c-2.007,2.023-5.245,2.023-7.242,0c-2.023-1.99-2.023-5.246,0-7.234
		c3.533-3.568,5.484-8.295,5.484-13.307s-1.953-9.756-5.484-13.307c-2.023-2.006-2.023-5.244,0-7.242
		C389.858,441.135,391.169,440.627,392.472,440.627z"/>
	<path fill="#F28A00" d="M540.213,299.895c0-1.293,0.509-2.595,1.497-3.604c5.485-5.484,12.808-8.517,20.541-8.517
		c7.786,0,15.082,3.032,20.558,8.517c2.006,2.007,2.024,5.263,0,7.243c-1.989,2.006-5.228,2.006-7.243,0
		c-3.55-3.55-8.277-5.484-13.307-5.484c-5.004,0-9.74,1.936-13.271,5.484c-2.007,2.006-5.263,2.006-7.261,0
		C540.722,302.544,540.231,301.232,540.213,299.895z"/>
	<path fill="#F28A00" d="M251.739,292.911c0,1.302-0.49,2.632-1.481,3.622c-5.468,5.503-12.771,8.517-20.541,8.517
		c-7.769,0-15.063-3.014-20.558-8.517c-2.006-2.024-2.006-5.262,0-7.242c2.006-2.024,5.245-2.024,7.243,0
		c3.567,3.532,8.277,5.503,13.306,5.503c5.004,0,9.74-1.971,13.271-5.503c2.007-2.024,5.262-2.024,7.261,0
		C251.25,290.28,251.739,291.6,251.739,292.911z"/>
	<path fill="#F28A00" d="M495.493,400.857c0.928-0.928,2.195-1.48,3.604-1.48c7.768-0.02,15.081,3.012,20.575,8.48
		c5.485,5.521,8.501,12.826,8.501,20.576c0,2.801-2.301,5.119-5.119,5.119c-2.837,0-5.118-2.283-5.118-5.119
		c0-5.031-1.972-9.738-5.522-13.307c-3.55-3.531-8.276-5.502-13.307-5.502c-2.817,0-5.119-2.283-5.119-5.119
		C493.995,403.086,494.576,401.803,495.493,400.857z"/>
	<path fill="#F28A00" d="M296.46,191.94c-0.909,0.927-2.195,1.498-3.604,1.498c-7.751,0.036-15.064-3.014-20.54-8.482
		c-5.503-5.503-8.535-12.791-8.535-20.576c0-2.836,2.301-5.119,5.155-5.119c2.8,0,5.119,2.282,5.119,5.119
		c0,5.031,1.972,9.74,5.503,13.325c3.55,3.531,8.259,5.484,13.291,5.467c2.836,0,5.136,2.319,5.136,5.119
		C297.993,189.728,297.396,191.022,296.46,191.94z"/>
	<path fill="#F28A00" d="M326.927,169.768c-1.132,0.642-2.524,0.856-3.916,0.508c-7.493-2.024-13.762-6.832-17.633-13.538
		c-3.888-6.725-4.932-14.564-2.907-22.057c0.714-2.756,3.532-4.372,6.287-3.64c2.739,0.731,4.353,3.55,3.622,6.27
		c-1.321,4.879-0.624,9.963,1.864,14.306c2.505,4.334,6.563,7.438,11.425,8.74c2.739,0.714,4.334,3.55,3.64,6.27
		C328.924,168.012,328.041,169.108,326.927,169.768z"/>
	<path fill="#F28A00" d="M465.063,423.064c1.132-0.66,2.524-0.893,3.907-0.508c7.474,1.99,13.762,6.813,17.632,13.52
		c3.889,6.744,4.933,14.584,2.927,22.074c-0.751,2.738-3.587,4.354-6.307,3.621c-2.72-0.75-4.353-3.549-3.621-6.287
		c1.303-4.861,0.606-9.926-1.882-14.271c-2.507-4.352-6.548-7.455-11.407-8.758c-2.738-0.713-4.371-3.531-3.639-6.27
		C463.047,424.813,463.931,423.715,465.063,423.064z"/>
	<path fill="#F28A00" d="M522.635,227.321c-0.642-1.115-0.875-2.506-0.509-3.888c2.006-7.493,6.832-13.761,13.539-17.65
		c6.742-3.887,14.547-4.914,22.057-2.889c2.739,0.75,4.353,3.531,3.639,6.27c-0.749,2.756-3.55,4.371-6.306,3.621
		c-4.842-1.293-9.908-0.623-14.236,1.882c-4.387,2.505-7.509,6.563-8.794,11.425c-0.713,2.756-3.531,4.371-6.27,3.621
		C524.382,229.364,523.313,228.472,522.635,227.321z"/>
	<path fill="#F28A00" d="M269.319,365.494c0.696,1.132,0.875,2.524,0.526,3.889c-2.006,7.492-6.833,13.78-13.504,17.649
		c-6.778,3.888-14.583,4.915-22.11,2.89c-2.739-0.713-4.353-3.531-3.586-6.27c0.713-2.737,3.505-4.371,6.27-3.621
		c4.843,1.303,9.909,0.643,14.27-1.882c4.334-2.506,7.438-6.547,8.74-11.407c0.731-2.738,3.532-4.371,6.288-3.639
		C267.598,363.478,268.66,364.361,269.319,365.494z"/>
	<path fill="#F28A00" d="M534.381,337.14c0.329-1.258,1.169-2.417,2.408-3.122c6.706-3.888,14.547-4.915,22.056-2.907
		c7.493,2.024,13.78,6.832,17.634,13.539c1.409,2.452,0.606,5.592-1.864,7.019c-2.453,1.427-5.574,0.571-7.001-1.882
		c-2.506-4.353-6.548-7.456-11.425-8.776c-4.843-1.294-9.908-0.642-14.271,1.9c-2.47,1.41-5.592,0.571-7.001-1.882
		C534.201,339.79,534.05,338.389,534.381,337.14z"/>
	<path fill="#F28A00" d="M257.574,255.684c-0.331,1.275-1.169,2.418-2.391,3.14c-6.707,3.906-14.582,4.915-22.021,2.908
		c-7.546-2.006-13.798-6.814-17.677-13.557c-1.427-2.452-0.571-5.593,1.882-7.001c2.452-1.41,5.574-0.588,7.019,1.882
		c2.506,4.334,6.529,7.456,11.425,8.758c4.826,1.302,9.892,0.642,14.236-1.899c2.452-1.41,5.592-0.571,7,1.899
		C257.75,253.036,257.913,254.427,257.574,255.684z"/>
</g>
<path id="SVGCleanerId_0" fill="#F28A00" d="M272.815,221.275c-0.642,1.132-1.74,2.006-3.122,2.391
	c-7.493,2.006-15.314,0.972-22.038-2.909c-6.725-3.879-11.533-10.159-13.54-17.649c-0.749-2.739,0.893-5.557,3.604-6.288
	c2.774-0.731,5.556,0.91,6.287,3.621c1.302,4.86,4.424,8.919,8.777,11.425c4.316,2.505,9.409,3.166,14.27,1.882
	c2.72-0.731,5.539,0.909,6.288,3.621C273.726,218.733,273.484,220.125,272.815,221.275z"/>
<path id="SVGCleanerId_1" fill="#F28A00" d="M519.119,371.559c0.66-1.116,1.758-2.042,3.14-2.372
	c7.493-2.052,15.332-0.99,22.021,2.889c6.761,3.888,11.567,10.159,13.567,17.65c0.748,2.738-0.893,5.575-3.64,6.27
	c-2.739,0.712-5.539-0.875-6.27-3.622c-1.32-4.86-4.442-8.9-8.776-11.425c-4.316-2.506-9.409-3.167-14.271-1.882
	c-2.72,0.75-5.521-0.875-6.271-3.604C518.246,374.083,518.469,372.691,519.119,371.559z"/>
<path id="SVGCleanerId_2" fill="#F28A00" d="M471.109,173.273c-1.114-0.643-2.007-1.74-2.354-3.122
	c-2.024-7.493-0.99-15.331,2.907-22.057c3.889-6.724,10.141-11.515,17.615-13.539c2.756-0.731,5.575,0.893,6.306,3.621
	c0.695,2.756-0.909,5.556-3.639,6.27c-4.843,1.293-8.9,4.424-11.407,8.758c-2.524,4.353-3.202,9.427-1.882,14.289
	c0.731,2.756-0.893,5.556-3.621,6.288C473.651,174.156,472.278,173.915,471.109,173.273z"/>
<path id="SVGCleanerId_3" fill="#F28A00" d="M320.844,419.568c1.133,0.643,2.007,1.756,2.372,3.123
	c2.043,7.49,0.99,15.348-2.889,22.02c-3.906,6.76-10.141,11.566-17.65,13.564c-2.756,0.732-5.556-0.873-6.287-3.637
	c-0.731-2.721,0.893-5.539,3.639-6.252c4.843-1.303,8.919-4.408,11.443-8.797c2.471-4.316,3.157-9.391,1.829-14.25
	c-0.714-2.74,0.893-5.521,3.657-6.289C318.319,418.695,319.693,418.926,320.844,419.568z"/>
<path id="SVGCleanerId_4" fill="#F28A00" d="M536.209,262.479c-0.347-1.258-0.206-2.667,0.508-3.888
	c3.872-6.706,10.159-11.532,17.651-13.566c7.509-1.971,15.331-0.937,22.057,2.926c2.434,1.427,3.308,4.566,1.863,7.019
	c-1.41,2.452-4.529,3.273-7.002,1.864c-4.333-2.524-9.39-3.157-14.25-1.882c-4.861,1.302-8.92,4.388-11.444,8.776
	c-1.41,2.435-4.53,3.274-7.001,1.864C537.359,264.897,536.539,263.728,536.209,262.479z"/>
<path id="SVGCleanerId_5" fill="#F28A00" d="M255.762,330.361c0.33,1.258,0.179,2.667-0.526,3.906
	c-3.871,6.725-10.159,11.551-17.614,13.521c-7.528,2.043-15.35,0.99-22.093-2.889c-2.452-1.426-3.292-4.53-1.847-7.001
	c1.392-2.452,4.53-3.308,7.001-1.882c4.316,2.523,9.374,3.184,14.27,1.863c4.825-1.275,8.901-4.371,11.372-8.739
	c1.427-2.435,4.584-3.292,7.019-1.882C254.612,327.954,255.396,329.105,255.762,330.361z"/>
<g>
	<path id="SVGCleanerId_0_1_" fill="#F28A00" d="M272.815,221.275c-0.642,1.132-1.74,2.006-3.122,2.391
		c-7.493,2.006-15.314,0.972-22.038-2.909c-6.725-3.879-11.533-10.159-13.54-17.649c-0.749-2.739,0.893-5.557,3.604-6.288
		c2.774-0.731,5.556,0.91,6.287,3.621c1.302,4.86,4.424,8.919,8.777,11.425c4.316,2.505,9.409,3.166,14.27,1.882
		c2.72-0.731,5.539,0.909,6.288,3.621C273.726,218.733,273.484,220.125,272.815,221.275z"/>
</g>
<g>
	<path id="SVGCleanerId_1_1_" fill="#F28A00" d="M519.119,371.559c0.66-1.116,1.758-2.042,3.14-2.372
		c7.493-2.052,15.332-0.99,22.021,2.889c6.761,3.888,11.567,10.159,13.567,17.65c0.748,2.738-0.893,5.575-3.64,6.27
		c-2.739,0.712-5.539-0.875-6.27-3.622c-1.32-4.86-4.442-8.9-8.776-11.425c-4.316-2.506-9.409-3.167-14.271-1.882
		c-2.72,0.75-5.521-0.875-6.271-3.604C518.246,374.083,518.469,372.691,519.119,371.559z"/>
</g>
<g>
	<path id="SVGCleanerId_2_1_" fill="#F28A00" d="M471.109,173.273c-1.114-0.643-2.007-1.74-2.354-3.122
		c-2.024-7.493-0.99-15.331,2.907-22.057c3.889-6.724,10.141-11.515,17.615-13.539c2.756-0.731,5.575,0.893,6.306,3.621
		c0.695,2.756-0.909,5.556-3.639,6.27c-4.843,1.293-8.9,4.424-11.407,8.758c-2.524,4.353-3.202,9.427-1.882,14.289
		c0.731,2.756-0.893,5.556-3.621,6.288C473.651,174.156,472.278,173.915,471.109,173.273z"/>
</g>
<g>
	<path id="SVGCleanerId_3_1_" fill="#F28A00" d="M320.844,419.568c1.133,0.643,2.007,1.756,2.372,3.123
		c2.043,7.49,0.99,15.348-2.889,22.02c-3.906,6.76-10.141,11.566-17.65,13.564c-2.756,0.732-5.556-0.873-6.287-3.637
		c-0.731-2.721,0.893-5.539,3.639-6.252c4.843-1.303,8.919-4.408,11.443-8.797c2.471-4.316,3.157-9.391,1.829-14.25
		c-0.714-2.74,0.893-5.521,3.657-6.289C318.319,418.695,319.693,418.926,320.844,419.568z"/>
</g>
<g>
	<path id="SVGCleanerId_4_1_" fill="#F28A00" d="M536.209,262.479c-0.347-1.258-0.206-2.667,0.508-3.888
		c3.872-6.706,10.159-11.532,17.651-13.566c7.509-1.971,15.331-0.937,22.057,2.926c2.434,1.427,3.308,4.566,1.863,7.019
		c-1.41,2.452-4.529,3.273-7.002,1.864c-4.333-2.524-9.39-3.157-14.25-1.882c-4.861,1.302-8.92,4.388-11.444,8.776
		c-1.41,2.435-4.53,3.274-7.001,1.864C537.359,264.897,536.539,263.728,536.209,262.479z"/>
</g>
<g>
	<path id="SVGCleanerId_5_1_" fill="#F28A00" d="M255.762,330.361c0.33,1.258,0.179,2.667-0.526,3.906
		c-3.871,6.725-10.159,11.551-17.614,13.521c-7.528,2.043-15.35,0.99-22.093-2.889c-2.452-1.426-3.292-4.53-1.847-7.001
		c1.392-2.452,4.53-3.308,7.001-1.882c4.316,2.523,9.374,3.184,14.27,1.863c4.825-1.275,8.901-4.371,11.372-8.739
		c1.427-2.435,4.584-3.292,7.019-1.882C254.612,327.954,255.396,329.105,255.762,330.361z"/>
</g>
<g>
	<path fill="#F28A00" d="M269.355,365.511c0.661,1.133,0.837,2.524,0.491,3.907c-2.006,7.493-6.833,13.761-13.539,17.633
		c-6.743,3.888-14.546,4.914-22.074,2.926c-2.739-0.75-4.353-3.568-3.603-6.288c0.732-2.773,3.522-4.353,6.253-3.639
		c4.879,1.302,9.944,0.624,14.306-1.883c4.334-2.506,7.438-6.547,8.74-11.425c0.731-2.72,3.55-4.316,6.288-3.64
		C267.598,363.478,268.695,364.361,269.355,365.511z"/>
	<path fill="#F28A00" d="M522.635,227.358c-0.642-1.132-0.893-2.542-0.473-3.906c1.972-7.509,6.796-13.761,13.485-17.633
		c6.743-3.889,14.565-4.914,22.074-2.908c2.739,0.731,4.353,3.55,3.621,6.288c-0.73,2.72-3.531,4.353-6.287,3.585
		c-4.879-1.258-9.908-0.589-14.252,1.9c-4.372,2.506-7.492,6.582-8.776,11.408c-0.695,2.737-3.531,4.353-6.27,3.657
		C524.382,229.382,523.313,228.472,522.635,227.358z"/>
	<path fill="#F28A00" d="M326.908,169.786c-1.115,0.642-2.506,0.874-3.888,0.49c-7.509-1.99-13.779-6.815-17.65-13.539
		c-3.889-6.742-4.932-14.546-2.926-22.057c0.767-2.72,3.55-4.334,6.306-3.639c2.738,0.784,4.353,3.568,3.621,6.306
		c-1.321,4.842-0.624,9.927,1.882,14.27c2.488,4.353,6.547,7.475,11.407,8.758c2.756,0.731,4.371,3.532,3.639,6.287
		C328.924,168.046,328.041,169.108,326.908,169.786z"/>
	<path fill="#F28A00" d="M465.063,423.084c1.132-0.662,2.524-0.877,3.907-0.51c7.491,1.988,13.779,6.795,17.632,13.52
		c3.889,6.744,4.933,14.564,2.891,22.057c-0.715,2.738-3.522,4.389-6.271,3.621c-2.72-0.713-4.353-3.521-3.621-6.252
		c1.32-4.861,0.66-9.945-1.863-14.314c-2.506-4.316-6.563-7.422-11.426-8.713c-2.719-0.752-4.369-3.523-3.62-6.307
		C463.047,424.83,463.948,423.752,465.063,423.084z"/>
	<path fill="#F28A00" d="M436.701,158.013c-1.294-0.313-2.417-1.15-3.104-2.372c-3.906-6.724-4.914-14.564-2.926-22.074
		c2.025-7.474,6.832-13.761,13.566-17.633c2.434-1.392,5.574-0.589,7.001,1.899c1.41,2.435,0.553,5.556-1.882,6.966
		c-4.372,2.524-7.475,6.564-8.776,11.425c-1.293,4.86-0.642,9.927,1.9,14.288c1.391,2.471,0.57,5.575-1.9,7.001
		C439.367,158.218,437.94,158.36,436.701,158.013z"/>
	<path fill="#F28A00" d="M355.289,434.828c1.258,0.348,2.391,1.186,3.139,2.391c3.871,6.742,4.879,14.584,2.872,22.041
		c-2.025,7.545-6.814,13.797-13.565,17.658c-2.435,1.428-5.556,0.59-6.965-1.883c-1.445-2.434-0.589-5.574,1.863-7.018
		c4.334-2.49,7.493-6.502,8.758-11.408c1.302-4.824,0.642-9.908-1.9-14.234c-1.392-2.453-0.552-5.611,1.9-7.02
		C352.604,434.65,354.013,434.498,355.289,434.828z"/>
	<path fill="#F28A00" d="M320.879,419.568c1.116,0.66,1.971,1.756,2.337,3.156c2.043,7.492,0.989,15.314-2.89,22.039
		c-3.906,6.725-10.141,11.516-17.633,13.539c-2.773,0.732-5.556-0.91-6.305-3.604c-0.731-2.773,0.909-5.572,3.621-6.287
		c4.879-1.301,8.938-4.422,11.425-8.775c2.506-4.334,3.185-9.41,1.865-14.27c-0.714-2.703,0.927-5.521,3.657-6.307
		C318.319,418.695,319.729,418.926,320.879,419.568z"/>
	<path fill="#F28A00" d="M471.128,173.291c-1.115-0.66-2.025-1.757-2.354-3.139c-2.043-7.493-0.973-15.331,2.854-22.021
		c3.906-6.725,10.177-11.551,17.65-13.558c2.756-0.749,5.575,0.893,6.271,3.621c0.73,2.738-0.875,5.556-3.604,6.253
		c-4.86,1.338-8.883,4.495-11.407,8.776c-2.524,4.353-3.166,9.445-1.882,14.27c0.767,2.72-0.893,5.539-3.621,6.324
		C473.67,174.156,472.278,173.915,471.128,173.291z"/>
	<path fill="#F28A00" d="M272.815,221.311c-0.624,1.097-1.74,1.989-3.104,2.355c-7.475,2.024-15.314,0.989-22.057-2.909
		c-6.725-3.888-11.533-10.141-13.54-17.633c-0.731-2.738,0.91-5.556,3.604-6.306c2.774-0.678,5.556,0.928,6.287,3.657
		c1.302,4.825,4.424,8.882,8.795,11.39c4.316,2.542,9.391,3.22,14.251,1.899c2.739-0.75,5.574,0.874,6.288,3.621
		C273.743,218.769,273.484,220.142,272.815,221.311z"/>
	<path fill="#F28A00" d="M519.156,371.577c0.623-1.116,1.721-2.007,3.121-2.354c7.476-2.052,15.314-1.026,22.003,2.871
		c6.761,3.889,11.566,10.142,13.567,17.65c0.748,2.737-0.893,5.557-3.64,6.252c-2.703,0.75-5.539-0.855-6.27-3.603
		c-1.294-4.879-4.371-8.919-8.74-11.461c-4.335-2.47-9.445-3.14-14.288-1.828c-2.702,0.714-5.521-0.855-6.27-3.639
		C518.264,374.101,518.505,372.709,519.156,371.577z"/>
	<path fill="#F28A00" d="M362.076,156.202c-1.274,0.366-2.72,0.206-3.887-0.49c-6.743-3.888-11.551-10.159-13.584-17.659
		c-1.989-7.493-0.973-15.332,2.926-22.057c1.445-2.417,4.548-3.292,7.001-1.864c2.471,1.409,3.273,4.548,1.882,7.001
		c-2.542,4.352-3.185,9.391-1.918,14.289c1.364,4.833,4.432,8.892,8.803,11.39c2.452,1.444,3.255,4.548,1.863,7.019
		C364.449,155.052,363.298,155.881,362.076,156.202z"/>
	<path fill="#F28A00" d="M429.931,436.641c1.258-0.33,2.686-0.18,3.916,0.525c6.705,3.889,11.532,10.193,13.503,17.615
		c2.052,7.545,0.99,15.367-2.89,22.092c-1.391,2.471-4.549,3.309-7,1.846c-2.436-1.373-3.31-4.512-1.9-7
		c2.56-4.316,3.22-9.373,1.9-14.252c-1.275-4.842-4.407-8.883-8.76-11.391c-2.418-1.426-3.273-4.584-1.883-7.018
		C427.522,437.826,428.69,437.006,429.931,436.641z"/>
</g>
<path fill="#09516D" d="M352.514,231.996c0,10.123-8.205,9.16-18.31,9.16c-10.105,0-18.293,0.954-18.293-9.16
	c0-10.106,8.188-18.294,18.293-18.294C344.311,213.702,352.514,221.89,352.514,231.996z"/>
<path fill="#082130" d="M352.514,231.996c0,10.123-8.205,9.16-18.31,9.16c-10.105,0-18.293,0.954-18.293-9.16
	c0-10.106,8.188-10.891,18.293-10.891C344.311,221.105,352.514,221.89,352.514,231.996z"/>
<path fill="#09516D" d="M476.076,231.996c0,10.123-8.204,9.16-18.31,9.16s-18.292,0.954-18.292-9.16
	c0-10.106,8.187-18.294,18.292-18.294S476.076,221.89,476.076,231.996z"/>
<path fill="#082130" d="M476.076,231.996c0,10.123-8.204,9.16-18.31,9.16s-18.292,0.954-18.292-9.16
	c0-10.106,8.187-10.891,18.292-10.891S476.076,221.89,476.076,231.996z"/>
<path fill="#AF3A6A" d="M403.835,261.553c0,4.334-3.523,7.839-7.842,7.839c-4.334,0-7.857-3.505-7.857-7.839
	c0-4.353,3.521-7.858,7.857-7.858C400.312,253.694,403.835,257.201,403.835,261.553z"/>
<path fill="#92A4A5" d="M561.084,489.404c0,91.178-73.93,134.311-165.091,134.311c-91.178,0-165.089-43.133-165.089-134.311
	s73.911-136.031,165.089-136.031C487.155,353.374,561.084,398.227,561.084,489.404z"/>
<path fill="#C7D2D3" d="M561.084,489.404c0,91.178-73.93,114.723-165.091,114.723c-91.178,0-165.089-23.555-165.089-114.723
	c0-91.17,73.911-165.089,165.089-165.089C487.155,324.315,561.084,398.227,561.084,489.404z"/>
<g>
	<path fill="#AEB9BA" d="M561.084,489.404c0,91.178-73.93,114.723-165.091,114.723c-91.178,0-165.089-23.555-165.089-114.723
		c0-91.17,73.911-136.031,165.089-136.031C487.155,353.374,561.084,398.227,561.084,489.404z"/>
	<path fill="#AEB9BA" d="M395.789,525.918c0,62.154-50.374,78.219-112.548,78.219c-62.155,0-112.529-16.063-112.529-78.219
		c0-62.158,50.374-112.539,112.521-112.539C345.407,413.379,395.789,463.762,395.789,525.918z"/>
	<path fill="#AEB9BA" d="M621.287,525.918c0,62.154-50.393,78.219-112.548,78.219c-62.174,0-112.548-16.063-112.548-78.219
		c0-62.158,50.374-112.539,112.548-112.539C570.886,413.379,621.287,463.762,621.287,525.918z"/>
</g>
<path fill="#09516D" d="M343.997,452.318c0,12.086-9.828,10.945-21.915,10.945c-12.085,0-21.878,1.148-21.878-10.945
	s9.793-21.896,21.878-21.896C334.169,430.422,343.997,440.225,343.997,452.318z"/>
<path fill="#082130" d="M343.997,452.318c0,12.086-9.828,10.945-21.915,10.945c-12.085,0-21.878,1.148-21.878-10.945
	s9.793-13.047,21.878-13.047C334.169,439.271,343.997,440.225,343.997,452.318z"/>
<path fill="#09516D" d="M491.784,452.318c0,12.086-9.813,10.945-21.896,10.945c-12.086,0-21.896,1.148-21.896-10.945
	s9.811-21.896,21.896-21.896C481.973,430.422,491.784,440.225,491.784,452.318z"/>
<path fill="#082130" d="M491.784,452.318c0,12.086-9.813,10.945-21.896,10.945c-12.086,0-21.896,1.148-21.896-10.945
	s9.811-13.047,21.896-13.047C481.973,439.271,491.784,440.225,491.784,452.318z"/>
<path fill="#AF3A6A" d="M435.78,479.629c0,9.963-17.818,18.061-39.787,18.061c-21.984,0-39.806-8.1-39.806-18.061
	c0-9.98,17.819,1.203,39.806,1.203C417.962,480.832,435.78,469.648,435.78,479.629z"/>
<path fill="#821647" d="M395.995,480.832c-17.768,0-32.787-7.279-37.907-4.824c4.968,7.402,19.942,12.834,37.907,12.834
	c17.963,0,32.936-5.432,37.887-12.834C428.762,473.555,413.743,480.832,395.995,480.832z"/>
<g>
	<path fill="#C7D2D3" d="M270.924,490.43c0,7.33-14.983-1.883-33.463-1.883c-18.499,0-33.5,9.213-33.5,1.883
		c0-7.332,15.001-13.254,33.5-13.254C255.94,477.176,270.924,483.098,270.924,490.43z"/>
	<path fill="#C7D2D3" d="M588.01,490.43c0,7.33-15.001-1.883-33.5-1.883c-18.461,0-33.463,9.213-33.463,1.883
		c0-7.332,15.002-13.254,33.463-13.254C573.018,477.176,588.01,483.098,588.01,490.43z"/>
	<path fill="#C7D2D3" d="M349.572,404.764c0,4.771-9.775-1.223-21.789-1.223c-12.04,0-21.806,5.994-21.806,1.223
		s9.775-8.642,21.806-8.642C339.797,396.122,349.572,399.99,349.572,404.764z"/>
	<path fill="#C7D2D3" d="M486.004,404.764c0,4.771-9.775-1.223-21.807-1.223c-12.023,0-21.789,5.994-21.789,1.223
		s9.775-8.642,21.789-8.642C476.229,396.122,486.004,399.99,486.004,404.764z"/>
</g>
<path fill="#5BA9C1" d="M266.911,667.871c0,6.082-4.932,11.023-11.023,11.023c-6.092,0-11.043-4.949-11.043-11.023
	c0-6.1,4.951-31.342,11.043-31.342C261.979,636.529,266.911,661.771,266.911,667.871z"/>
<path fill="#2D99B2" d="M255.888,636.529c6.101,0,11.023,25.242,11.023,31.342c0,6.082-4.932,11.023-11.023,11.023"/>
<path fill="#5BA9C1" d="M322.957,667.871c0,6.082-4.95,11.023-11.024,11.023c-6.101,0-11.024-4.949-11.024-11.023
	c0-6.1,4.932-31.342,11.024-31.342C318.007,636.529,322.957,661.771,322.957,667.871z"/>
<path fill="#2D99B2" d="M311.925,636.529c6.082,0,11.024,25.242,11.024,31.342c0,6.082-4.951,11.023-11.024,11.023"/>
<path fill="#5BA9C1" d="M378.995,667.871c0,6.082-4.932,11.023-11.023,11.023c-6.082,0-11.042-4.949-11.042-11.023
	c0-6.1,4.968-31.342,11.042-31.342C374.063,636.529,378.995,661.771,378.995,667.871z"/>
<path fill="#2D99B2" d="M367.961,636.529c6.101,0,11.024,25.242,11.024,31.342c0,6.082-4.932,11.023-11.024,11.023"/>
<path fill="#5BA9C1" d="M435.052,667.871c0,6.082-4.951,11.023-11.043,11.023s-11.006-4.949-11.006-11.023
	c0-6.1,4.914-31.342,11.006-31.342S435.052,661.771,435.052,667.871z"/>
<path fill="#2D99B2" d="M424.009,636.529c6.102,0,11.043,25.242,11.043,31.342c0,6.082-4.951,11.023-11.043,11.023"/>
<path fill="#5BA9C1" d="M491.07,667.871c0,6.082-4.932,11.023-11.005,11.023c-6.102,0-11.043-4.949-11.043-11.023
	c0-6.1,4.951-31.342,11.043-31.342C486.139,636.529,491.07,661.771,491.07,667.871z"/>
<path fill="#2D99B2" d="M480.063,636.529c6.083,0,11.006,25.242,11.006,31.342c0,6.082-4.933,11.023-11.006,11.023"/>
<path fill="#5BA9C1" d="M547.144,667.871c0,6.082-4.95,11.023-11.042,11.023s-11.024-4.949-11.024-11.023
	c0-6.1,4.933-31.342,11.024-31.342S547.144,661.771,547.144,667.871z"/>
<path fill="#2D99B2" d="M536.102,636.529c6.101,0,11.042,25.242,11.042,31.342c0,6.082-4.95,11.023-11.042,11.023"/>
</svg>
