<?xml version="1.0" encoding="utf-8"?>
<!-- Generator: Adobe Illustrator 16.0.0, SVG Export Plug-In . SVG Version: 6.00 Build 0)  -->
<!DOCTYPE svg PUBLIC "-//W3C//DTD SVG 1.1//EN" "http://www.w3.org/Graphics/SVG/1.1/DTD/svg11.dtd">
<svg version="1.1" id="Layer_1" xmlns="http://www.w3.org/2000/svg" xmlns:xlink="http://www.w3.org/1999/xlink" x="0px" y="0px"
	 width="600px" height="600px" viewBox="6 96 600 600" enable-background="new 6 96 600 600" xml:space="preserve">
<g transform="translate(1 1)">
	<path fill="#ECF4F7" d="M584.761,597.406v38.677c0,21.271-17.405,38.676-38.677,38.676h-9.67c-10.636,0-19.339-9.669-29.007-19.339
		c-9.669,9.669-18.371,19.339-29.009,19.339H459.06c-10.636,0-19.339-9.669-29.007-19.339c-9.669,9.669-18.37,19.339-29.008,19.339
		h-9.668c-21.273,0-38.677-17.404-38.677-38.676v-38.677c0-19.339,9.669-19.339,9.669-38.677h212.722
		C575.091,578.068,584.761,578.068,584.761,597.406z M584.761,287.992v77.354c0,19.339-9.67,19.339-9.67,38.677H362.367
		c0-19.339-9.668-19.339-9.668-38.677v-77.354c0-29.008,19.339-48.347,38.677-58.015l38.677-19.339v-38.677h19.339h38.677h19.339
		v38.677l38.677,19.339C565.422,239.645,584.761,258.984,584.761,287.992z"/>
	<path fill="#50DD8E" d="M362.367,558.729H575.09V404.022H362.367V558.729z M488.068,171.961h-38.677h-19.339h-9.669
		c-5.802,0-9.669-4.834-9.669-9.668v-38.677c0-4.835,3.867-9.669,9.669-9.669h96.691c5.802,0,9.67,4.835,9.67,9.669v38.676
		c0,4.835-3.868,9.669-9.67,9.669h-9.668L488.068,171.961L488.068,171.961z"/>
	<path fill="#FFE079" d="M77.126,282.19L77.126,282.19l4.835,5.801l19.337-19.339l14.504,14.504l0.966-0.967
		c3.867-18.371,2.901-42.545,2.901-42.545v-0.966c0-8.703-4.835-78.321-77.354-105.394c19.34,24.172,29.009,51.246,33.843,71.551
		c-4.834-20.305-14.503-47.379-33.842-71.552c0,0,3.867,29.974,3.867,61.882c0,15.47-0.966,31.908-3.867,44.478
		c0,0-3.868,16.438-12.57,33.842l-0.967,0.966l13.538,13.538l19.337-19.338L77.126,282.19L77.126,282.19z"/>
	<path fill="#FFD0A1" d="M333.36,268.653l19.339,19.339v77.354c0,19.339,9.668,19.339,9.668,38.677v154.707H23.946V268.653
		l5.802,5.801l13.537,13.538l19.337-19.339l14.504,14.504l4.835,4.834l19.337-19.339l14.504,14.504l4.834,4.834l19.339-19.339
		l9.669,9.669l9.669,9.669l19.338-19.338l19.339,19.339l19.339-19.339l19.338,19.339l19.339-19.339l19.338,19.339l19.338-19.339
		l19.339,19.339L333.36,268.653z M391.376,674.761H62.623c-21.272,0-38.676-17.405-38.676-38.677v-77.354h338.423
		c0,19.339-9.669,19.339-9.669,38.677v38.676C352.699,657.355,370.104,674.761,391.376,674.761z"/>
	<path fill="#FF7474" d="M159.314,287.992l-9.669-9.668l9.669-9.669V162.291c0-4.834,4.835-9.669,9.669-9.669h125.7v116.031
		l-19.339,19.339l-19.337-19.339l-19.339,19.339l-19.339-19.339l-19.339,19.339l-19.338-19.339L159.314,287.992z M333.36,162.291
		v106.362l-19.339,19.339l-19.338-19.339V152.622h29.008C329.493,152.622,333.36,157.458,333.36,162.291z"/>
</g>
<path fill="#51565F" d="M547.084,680.595h-9.67c-11.603,0-20.305-8.703-29.007-17.404c-8.703,8.701-17.404,17.404-29.009,17.404
	H460.06c-11.603,0-20.304-8.703-29.007-17.404c-8.702,8.701-17.403,17.404-29.008,17.404h-9.668
	c-24.173,0-43.512-19.339-43.512-43.511v-38.677c0-10.637,2.9-16.439,5.802-21.272c1.935-4.835,3.866-8.702,3.866-17.404V405.022
	c0-8.703-1.934-12.569-3.866-17.405c-2.901-4.835-5.802-10.636-5.802-21.272v-77.354c0-26.107,15.47-49.313,41.576-61.882
	l35.777-18.373v-35.776c0,2.901-1.935,4.835-4.837,4.835c-7.734,0-14.503-6.768-14.503-14.504v-38.677
	c0-7.736,6.769-14.504,14.503-14.504h96.692c7.736,0,14.504,6.768,14.504,14.504v38.676c0,7.736-6.768,14.504-14.504,14.504
	c-2.9,0-4.835-1.934-4.835-4.835c0-2.9,1.935-4.835,4.835-4.835c2.901,0,4.835-1.934,4.835-4.835v-38.675
	c0-2.901-1.934-4.835-4.835-4.835h-96.692c-2.899,0-4.834,1.934-4.834,4.835v38.676c0,2.901,1.935,4.835,4.834,4.835
	c2.902,0,4.837,1.934,4.837,4.834c0-2.9,1.933-4.834,4.834-4.834h14.505v-14.504c0-2.9,1.933-4.834,4.834-4.834
	c2.9,0,4.835,1.934,4.835,4.834v14.504h29.009v-14.504c0-2.9,1.934-4.834,4.834-4.834s4.835,1.934,4.835,4.834v14.504h14.504
	c2.9,0,4.834,1.935,4.834,4.834v35.776l35.776,18.372c26.106,12.569,41.577,35.775,41.577,61.882v77.354
	c0,10.637-2.9,16.438-5.802,21.272c-1.935,4.835-3.866,8.702-3.866,17.404v154.708c0,8.702,1.934,12.569,3.866,17.404
	c2.901,4.834,5.802,10.637,5.802,21.272v38.676C590.595,661.256,571.256,680.595,547.084,680.595z M508.406,651.587
	c0.966,0,2.899,0,3.866,0.966l1.936,1.935c8.701,8.703,15.47,15.472,23.205,15.472h9.669c18.372,0,33.843-15.472,33.843-33.843
	v-38.677c0-8.703-1.934-12.569-3.867-17.404c-1.935-3.868-4.835-8.703-4.835-16.438H402.045c-2.9,0-4.835-1.935-4.835-4.835
	s1.935-4.835,4.835-4.835h169.211V405.022c0-10.637,2.9-16.438,5.802-21.271c1.935-4.835,3.867-8.703,3.867-17.405v-77.354
	c0-31.908-25.14-48.347-35.775-54.148l-38.677-19.338c-1.935-0.967-2.899-2.901-2.899-3.868v-33.842h-67.686v33.842
	c0,1.935-0.967,3.868-2.899,3.868l-38.678,19.338c-10.638,5.801-35.777,21.272-35.777,54.148v77.354
	c0,8.703,1.935,12.57,3.868,17.405c1.934,3.867,4.835,8.702,4.835,16.438h169.211c2.9,0,4.835,1.935,4.835,4.835
	s-1.935,4.835-4.835,4.835H367.236v149.871c0,10.636-2.901,16.438-5.801,21.271c-1.936,4.836-3.869,8.702-3.869,17.405v38.676
	c0,18.372,15.472,33.843,33.843,33.843h9.67c7.734,0,14.503-6.769,23.206-15.47l1.935-1.936c1.934-1.934,4.834-1.934,6.769,0
	l1.933,1.936c8.703,8.701,15.471,15.47,23.207,15.47h19.339c7.735,0,14.503-6.769,23.205-15.47l1.935-1.936
	C505.505,651.587,507.439,651.587,508.406,651.587z M324.691,680.595H63.623c-24.172,0-43.511-19.339-43.511-43.511V269.653
	c0-1.934,0.967-3.867,2.901-4.834c1.934-0.967,3.867,0,4.835,0.967l15.47,15.471l15.47-15.47c1.934-1.935,4.834-1.935,6.768,0
	l15.472,15.47l15.47-15.47c1.935-1.935,4.835-1.935,6.768,0l15.471,15.47l15.47-15.47c1.935-1.935,4.835-1.935,6.769,0l15.471,15.47
	l15.47-15.47c1.934-1.935,4.835-1.935,6.768,0l15.47,15.47l15.47-15.47c1.934-1.935,4.835-1.935,6.768,0l15.47,15.47l15.47-15.47
	c1.935-1.935,4.835-1.935,6.768,0l15.471,15.47l15.47-15.47c1.935-1.935,4.835-1.935,6.769,0l19.339,19.338
	c1.934,1.935,1.934,4.835,0,6.768c-1.935,1.933-4.836,1.935-6.769,0l-15.471-15.47l-15.471,15.47c-1.934,1.935-4.834,1.935-6.768,0
	l-15.47-15.47l-15.47,15.47c-1.935,1.935-4.835,1.935-6.769,0l-15.47-15.47l-15.47,15.47c-1.935,1.935-4.835,1.935-6.768,0
	l-15.47-15.47l-15.471,15.47c-1.935,1.935-4.835,1.935-6.769,0l-15.47-15.47l-15.47,15.47c-1.934,1.935-4.834,1.935-6.768,0
	l-15.47-15.47l-15.47,15.47c-1.935,1.935-4.835,1.935-6.769,0l-15.47-15.47l-15.471,15.47c-1.934,1.935-4.835,1.935-6.768,0
	l-10.636-10.636v273.638h294.908c2.9,0,4.835,1.934,4.835,4.835c0,2.899-1.935,4.835-4.835,4.835H29.78v72.52
	c0,18.371,15.47,33.843,33.842,33.843h261.069c2.9,0,4.835,1.933,4.835,4.834C329.525,678.66,327.592,680.595,324.691,680.595z
	 M518.075,506.549h-96.692c-2.899,0-4.834-1.934-4.834-4.835s1.935-4.835,4.834-4.835h96.692c2.901,0,4.836,1.934,4.836,4.835
	C522.909,504.615,520.977,506.549,518.075,506.549z M498.736,467.871h-77.354c-2.899,0-4.834-1.934-4.834-4.834
	c0-2.902,1.935-4.836,4.834-4.836h77.354c2.901,0,4.837,1.934,4.837,4.836S501.638,467.871,498.736,467.871z M295.684,245.48
	c-2.9,0-4.835-1.935-4.835-4.835v-82.188H169.984c-2.9,0-4.834,1.935-4.834,4.835v77.353c0,2.901-1.935,4.835-4.835,4.835
	c-2.901,0-4.835-1.935-4.835-4.835v-77.354c0-7.735,6.768-14.503,14.504-14.503h154.708c7.735,0,14.503,6.768,14.503,14.503v67.685
	c0,2.9-1.934,4.835-4.834,4.835c-2.901,0-4.836-1.935-4.836-4.835v-67.685c0-2.9-1.934-4.834-4.834-4.834h-24.172v82.188
	C300.519,243.546,298.584,245.48,295.684,245.48z M44.284,245.48h-0.966c-2.901-0.967-3.868-2.9-3.868-5.801
	c8.702-33.843,0.967-92.825,0-102.494l-8.702-8.702c-1.935-1.934-1.935-4.835,0-6.768c1.934-1.933,4.834-1.934,6.768,0l8.702,8.703
	c78.32,29.974,79.287,109.262,79.287,110.229c0,2.901-1.935,4.835-4.835,4.835l0,0c-2.901,0-4.835-1.934-4.835-4.835
	c0-2.9-0.966-63.816-58.015-94.758c29.007,45.446,29.007,92.824,29.007,94.758c0,2.901-1.934,4.835-4.835,4.835l0,0
	c-2.9,0-4.835-1.934-4.835-4.835c0-0.967,0-45.446-27.073-87.989c1.934,23.206,4.835,62.85-1.935,88.958
	C48.152,243.546,46.218,245.48,44.284,245.48z"/>
</svg>
