<?xml version="1.0" encoding="utf-8"?>
<!-- Generator: Adobe Illustrator 16.0.0, SVG Export Plug-In . SVG Version: 6.00 Build 0)  -->
<!DOCTYPE svg PUBLIC "-//W3C//DTD SVG 1.1//EN" "http://www.w3.org/Graphics/SVG/1.1/DTD/svg11.dtd">
<svg version="1.1" id="Capa_1" xmlns="http://www.w3.org/2000/svg" xmlns:xlink="http://www.w3.org/1999/xlink" x="0px" y="0px"
	 width="600px" height="600px" viewBox="96 96 600 600" enable-background="new 96 96 600 600" xml:space="preserve">
<rect x="123.75" y="194.845" fill="#556080" width="544.5" height="356.742"/>
<rect x="583.759" y="232.396" fill="#61B872" width="37.552" height="37.552"/>
<path fill="#FBCE9D" d="M492.939,465.349c1.521-1.032,3.089-1.981,4.582-3.052c-2.715-2.394-5.718-4.496-9.051-6.158l-43.785-28.332
	c-6.507-3.249-18.776-2.112-18.776-9.389v-19.762c1.418-1.604,12.42-8.308,14.146-10.749c6.863-9.689,13.856-20.353,17.462-31.534
	c6.46-1.99,15.33-7.952,15.33-15.04v-21.085c0-1.831-0.958-3.586-2.328-5.22c-4.355-5.22-7.06-11.614-7.06-18.41v-9.641
	c0,0-1.483-56.328-65.715-56.328c-64.232,0-65.716,56.328-65.716,56.328v9.641c0,6.796-2.704,13.199-7.06,18.41
	c-1.362,1.633-2.329,3.389-2.329,5.22v21.085c0,5.558,7.041,10.439,11.406,13.266c5.266,22.935,35.533,39.439,35.533,39.439v19.264
	c0,7.022-17.255,13.49-23.424,16.86l-44.189,25.648c-3.211,1.756-6.083,3.942-8.684,6.384c1.53,1.108,3.164,2.103,4.732,3.165
	h194.921v-0.011H492.939z"/>
<rect x="170.69" y="457.707" fill="#EBBA16" width="46.939" height="46.939"/>
<polygon fill="#424A60" points="414.776,598.525 414.776,551.586 377.224,551.586 377.224,598.525 330.285,598.525 330.285,626.689 
	461.716,626.689 461.716,598.525 "/>
<rect x="255.181" y="457.707" fill="#D75A4A" width="366.129" height="46.939"/>
</svg>
