<?xml version="1.0" encoding="utf-8"?>
<!-- Generator: Adobe Illustrator 16.0.0, SVG Export Plug-In . SVG Version: 6.00 Build 0)  -->
<!DOCTYPE svg PUBLIC "-//W3C//DTD SVG 1.1//EN" "http://www.w3.org/Graphics/SVG/1.1/DTD/svg11.dtd">
<svg version="1.1" id="Capa_1" xmlns="http://www.w3.org/2000/svg" xmlns:xlink="http://www.w3.org/1999/xlink" x="0px" y="0px"
	 width="600px" height="600px" viewBox="6 96 600 600" enable-background="new 6 96 600 600" xml:space="preserve">
<g>
	<circle fill="#FBD971" cx="305.5" cy="395.5" r="286.5"/>
	<path fill="#F29C1F" d="M182.714,396.182c-60.137,0-100.534-34.571-100.534-86.045c0-45.362,36.917-82.28,82.293-82.28
		c37.423,0,67.874,30.438,67.874,67.873c0,31.146-25.335,56.495-56.495,56.495c-26.181,0-47.477-21.31-47.477-47.491
		c0-22.265,18.117-40.369,40.369-40.369c7.531,0,13.643,6.098,13.643,13.643c0,7.544-6.112,13.643-13.643,13.643
		c-7.217,0-13.084,5.88-13.084,13.083c0,11.132,9.059,20.206,20.192,20.206c16.099,0,29.209-13.098,29.209-29.21
		c0-22.388-18.2-40.587-40.588-40.587c-30.328,0-55.008,24.68-55.008,54.995c0,43.316,37.832,58.76,73.248,58.76
		c43.985,0,68.215-29.073,68.215-81.858c0-7.544,6.112-13.643,13.643-13.643s13.643,6.099,13.643,13.643
		C278.214,354.353,241.624,396.182,182.714,396.182z"/>
	<path fill="#F29C1F" d="M441.491,373.521c-37.422,0-67.873-30.438-67.873-67.873c0-31.147,25.336-56.496,56.496-56.496
		c26.18,0,47.477,21.311,47.477,47.478c0,22.265-18.117,40.383-40.369,40.383c-7.531,0-13.643-6.098-13.643-13.643
		c0-7.544,6.111-13.643,13.643-13.643c7.217,0,13.083-5.88,13.083-13.097c0-11.133-9.059-20.192-20.19-20.192
		c-16.1,0-29.209,13.098-29.209,29.21c0,22.388,18.199,40.588,40.586,40.588c30.329,0,55.009-24.681,55.009-54.995
		c0-43.33-37.831-58.773-73.249-58.773c-43.984,0-68.214,29.073-68.214,81.857c0,7.544-6.111,13.643-13.643,13.643
		s-13.644-6.099-13.644-13.643c0-67.328,36.591-109.143,95.5-109.143c60.139,0,100.534,34.584,100.534,86.045
		C523.785,336.604,486.869,373.521,441.491,373.521z"/>
	<path fill="#C03A2B" d="M290.998,566.172c-33.07-72.034,49.96-75.677,82.238-69.578c13.957,2.633,11.692,6.603,19.223,23.002
		c7.532,16.398,12.007,17.285,4.912,29.577C380.944,577.632,324.068,638.206,290.998,566.172z"/>
</g>
</svg>
