<?xml version="1.0" encoding="utf-8"?>
<!-- Generator: Adobe Illustrator 16.0.0, SVG Export Plug-In . SVG Version: 6.00 Build 0)  -->
<!DOCTYPE svg PUBLIC "-//W3C//DTD SVG 1.1//EN" "http://www.w3.org/Graphics/SVG/1.1/DTD/svg11.dtd">
<svg version="1.1" id="Capa_1" xmlns="http://www.w3.org/2000/svg" xmlns:xlink="http://www.w3.org/1999/xlink" x="0px" y="0px"
	 width="600px" height="600px" viewBox="6 96 600 600" enable-background="new 6 96 600 600" xml:space="preserve">
<g>
	<rect x="17" y="347.207" fill="#DD352E" width="580.5" height="340.293"/>
	<polygon fill="#FFFFFF" points="417.346,477.319 347.284,477.319 347.284,407.259 267.215,407.259 267.215,477.319 
		197.155,477.319 197.155,557.388 267.215,557.388 267.215,627.448 347.284,627.448 347.284,557.388 417.346,557.388 	"/>
	<rect x="17" y="217.095" fill="#B02721" width="580.5" height="130.112"/>
	<rect x="97.069" y="307.173" fill="#949493" width="80.069" height="40.034"/>
	<rect x="97.069" y="347.207" fill="#E7ECED" width="80.069" height="40.035"/>
	<rect x="437.362" y="307.173" fill="#949493" width="80.068" height="40.034"/>
	<rect x="437.362" y="347.207" fill="#E7ECED" width="80.068" height="40.035"/>
	<path fill="#3E465B" d="M207.164,129.379v87.715h30.025v-37.672c0-12.361,10.019-22.379,22.379-22.379h115.379
		c12.36,0,22.38,10.018,22.38,22.379v37.672h30.025v-87.715c0-12.361-10.019-22.379-22.38-22.379H229.543
		C217.182,107,207.164,117.019,207.164,129.379z"/>
</g>
</svg>
