<?xml version="1.0" encoding="utf-8"?>
<!-- Generator: Adobe Illustrator 16.0.0, SVG Export Plug-In . SVG Version: 6.00 Build 0)  -->
<!DOCTYPE svg PUBLIC "-//W3C//DTD SVG 1.1//EN" "http://www.w3.org/Graphics/SVG/1.1/DTD/svg11.dtd">
<svg version="1.1" id="Capa_1" xmlns="http://www.w3.org/2000/svg" xmlns:xlink="http://www.w3.org/1999/xlink" x="0px" y="0px"
	 width="600px" height="600px" viewBox="6 96 600 600" enable-background="new 6 96 600 600" xml:space="preserve">
<path fill="none" stroke="#556080" stroke-width="2" stroke-linecap="round" stroke-miterlimit="10" d="M213.508,281.903v-93.079
	c0-11.575,9.389-20.964,20.964-20.964h148.132c11.585,0,20.975,9.389,20.975,20.964v93.079"/>
<path fill="#A97C50" d="M565.045,633.536H52.042c-10.55,0-19.103-8.554-19.103-19.104V272.494c0-10.548,8.553-19.102,19.103-19.102
	h513.003c10.551,0,19.103,8.553,19.103,19.102v341.938C584.147,624.982,575.596,633.536,565.045,633.536z"/>
<path fill="#997046" d="M108.968,253.393H52.042c-10.55,0-19.103,8.553-19.103,19.102v341.938c0,10.55,8.553,19.104,19.103,19.104
	h56.926V253.393z"/>
<path fill="#997046" d="M565.045,253.393h-56.927v380.144h56.927c10.551,0,19.103-8.554,19.103-19.104V272.494
	C584.147,261.946,575.596,253.393,565.045,253.393z"/>
<rect x="99.465" y="253.393" fill="#D1A074" width="19.006" height="380.144"/>
<rect x="498.615" y="253.393" fill="#D1A074" width="19.007" height="380.144"/>
<rect x="80.458" y="224.881" fill="#C7CAC7" width="76.028" height="28.511"/>
<rect x="460.6" y="224.881" fill="#C7CAC7" width="76.03" height="28.511"/>
</svg>
