<svg xmlns="http://www.w3.org/2000/svg" xmlns:xlink="http://www.w3.org/1999/xlink" id="Layer_1" width="304.494" height="511.031" x="0" y="0" enable-background="new 151.202 190.969 304.494 511.031" version="1.1" viewBox="151.202 190.969 304.494 511.031" xml:space="preserve"><path fill="#FED8B2" d="M333.435,471.946V438.69h-59.976v33.256c0,2.653-2.151,4.805-4.805,4.805h-41.33v114.763h152.248V476.751	h-41.329C335.586,476.751,333.435,474.6,333.435,471.946z"/><path fill="#EABE96" d="M379.568,476.751H338.24c-2.654,0-4.806-2.151-4.806-4.805V438.69h-29.495v152.823h75.631V476.751H379.568z"/><circle cx="206.308" cy="369.005" r="23.968" fill="#FED8B2"/><circle cx="400.581" cy="369.005" r="23.968" fill="#EABE96"/><path fill="#F4E3C3" d="M306.146,468.824h-5.4c-49.959,0-90.458-40.499-90.458-90.458v-82.591c0-49.959,40.499-90.458,90.458-90.458	h5.4c49.959,0,90.459,40.5,90.459,90.458v82.591C396.604,428.326,356.104,468.824,306.146,468.824z"/><path fill="#FED8B2" d="M306.146,205.317h-2.206v263.507h2.206c49.959,0,90.459-40.499,90.459-90.458v-82.591	C396.604,245.817,356.104,205.317,306.146,205.317z"/><path fill="#B97850" d="M386.793,235.889c-17.765-25.306-47.148-41.863-80.416-41.863h-5.865c-54.241,0-98.212,43.971-98.212,98.212	v7.595v69.181h14.418v-40.571c-0.002,0-0.006,0-0.008,0c43.754-4.444,86.775-13.028,124.485-31.88	c13.569,15.582,29.24,29.498,46.538,40.785v31.665h16.856v-51.718v-25.058C404.589,271.263,397.996,251.841,386.793,235.889z"/><path fill="#935635" d="M386.793,235.889c-17.765-25.306-47.148-41.863-80.416-41.863h-2.438v117.538	c12.852-4.103,25.32-9.035,37.255-15.001c13.569,15.582,29.24,29.498,46.538,40.785v31.665h16.856v-51.718v-25.058	C404.589,271.263,397.996,251.841,386.793,235.889z"/><circle cx="259.534" cy="358.372" r="9.316" fill="#59595B"/><circle cx="347.356" cy="358.372" r="9.316" fill="#272525"/><path fill="#FD8469" d="M303.444,412.756c-16.786,0-30.437,12.516-30.437,27.898c0,2.608,2.306,4.722,5.151,4.722	c2.846,0,5.152-2.113,5.152-4.722c0-10.176,9.034-18.454,20.134-18.454c11.101,0,20.134,8.28,20.134,18.454	c0,2.608,2.307,4.722,5.152,4.722s5.15-2.113,5.15-4.722C333.879,425.27,320.225,412.756,303.444,412.756z"/><path fill="#FFF" d="M386.105,476.751h-31.909c0,28.029-22.723,50.748-50.748,50.748S252.7,504.776,252.7,476.751h-31.91	c-38.433,0-69.588,31.156-69.588,69.589v113.644c45.411,26.691,98.311,42.015,154.798,42.015	c54.382,0,105.439-14.204,149.694-39.077V546.34C455.694,507.908,424.537,476.751,386.105,476.751z"/><path fill="#E6F3FF" d="M386.105,476.751h-31.909c0,27.862-22.456,50.471-50.256,50.736v174.474c0.688,0.003,1.37,0.034,2.061,0.034	c54.382,0,105.439-14.204,149.694-39.077V546.34C455.694,507.908,424.537,476.751,386.105,476.751z"/><path fill="#CFDBE6" d="M306.002,588.664v113.334c5.813,0,11.583-0.199,17.313-0.553L374,589.237l-26.788-16.601L374,550.885	v-75.554h-33.999L306.002,588.664z"/><path fill="#E6F3FF" d="M272.002,475.331h-34v75.556l26.788,21.752l-26.788,16.601l50.685,112.208	C294.42,701.803,300.189,702,306,702V588.667L272.002,475.331z"/><rect width="206.06" height="100.969" x="200.91" y="190.969" fill="#FFF"/><rect width="103.029" height="100.969" x="303.939" y="190.969" fill="#D0D1D3"/><polygon fill="#FC6F58" points="334.511 231.264 314.131 231.264 314.131 210.885 293.75 210.885 293.75 231.264 273.371 231.264 273.371 251.644 293.75 251.644 293.75 272.022 314.131 272.022 314.131 251.644 334.511 251.644"/><polygon fill="#F1543F" points="314.131 231.264 314.131 210.885 303.939 210.885 303.939 272.022 314.131 272.022 314.131 251.644 334.511 251.644 334.511 231.264"/><circle cx="403.878" cy="643.271" r="23.697" fill="#4CDBC4"/><g><path fill="#26BEBE" d="M410.06,614.043V478.938c0-3.415-2.767-6.182-6.182-6.182s-6.183,2.767-6.183,6.182v135.105 c-13.518,2.855-23.696,14.871-23.696,29.228c0,16.476,13.404,29.88,29.879,29.88s29.879-13.404,29.879-29.88 C433.757,628.916,423.578,616.898,410.06,614.043z M403.878,660.786c-9.658,0-17.515-7.857-17.515-17.516 c0-9.657,7.856-17.515,17.515-17.515s17.515,7.857,17.515,17.515C421.394,652.929,413.536,660.786,403.878,660.786z"/><path fill="#26BEBE" d="M220.485,557.663v-78.21c0-3.415-2.767-6.183-6.182-6.183s-6.182,2.768-6.182,6.183v78.21 c-16.374,2.932-28.849,17.247-28.849,34.451v65.222c0,3.415,2.767,6.183,6.182,6.183h12.542c3.415,0,6.182-2.768,6.182-6.183 s-2.767-6.182-6.182-6.182h-6.361v-59.04c0-12.497,10.168-22.667,22.667-22.667c12.499,0,22.667,10.169,22.667,22.667v59.04h-8.871 c-3.415,0-6.182,2.767-6.182,6.182s2.767,6.183,6.182,6.183h15.053c3.415,0,6.182-2.768,6.182-6.183v-65.222 C249.333,574.91,236.858,560.595,220.485,557.663z"/></g></svg>