<?xml version="1.0" encoding="utf-8"?>
<!-- Generator: Adobe Illustrator 16.0.0, SVG Export Plug-In . SVG Version: 6.00 Build 0)  -->
<!DOCTYPE svg PUBLIC "-//W3C//DTD SVG 1.1//EN" "http://www.w3.org/Graphics/SVG/1.1/DTD/svg11.dtd">
<svg version="1.1" id="Layer_1" xmlns="http://www.w3.org/2000/svg" xmlns:xlink="http://www.w3.org/1999/xlink" x="0px" y="0px"
	 width="640px" height="480px" viewBox="0 0 640 480" enable-background="new 0 0 640 480" xml:space="preserve">
<g>
	<path d="M271.836,334.358c0-27.15,22.009-49.161,49.161-49.161c27.152,0,49.161,22.011,49.161,49.161"/>
	<path d="M325,317.103c0,1.743-1.586,3.156-3.5,3.156l0,0c-1.914,0-3.5-1.413-3.5-3.156V177.856c0-1.743,1.586-3.156,3.5-3.156l0,0
		c1.914,0,3.5,1.413,3.5,3.156V317.103z"/>
	<g>
		<g>
			<g>
				<path fill="#FF5722" d="M88.186,245.51l27.984,10.184c7.808-19.828,18.572-38.757,32.291-56.117l-22.81-19.143
					C109.655,200.527,97.167,222.489,88.186,245.51z"/>
				<path fill="#FF5722" d="M100.778,331c0.584-22,4.287-42.895,11.099-63.583l-27.984-10.262C75.904,281.13,71.592,307,70.997,331
					H100.778z"/>
				<path fill="#4CAF50" d="M520.491,179.98l-22.812,19.139c13.827,17.403,24.675,36.39,32.542,56.287l27.982-10.185
					C549.164,222.132,536.594,200.111,520.491,179.98z"/>
				<path fill="#8BC34A" d="M439.752,147.681c14.539,8.945,28.276,19.706,40.877,32.303c3.087,3.09,6.055,6.255,8.922,9.473
					l22.809-19.137c-3.428-3.874-6.977-7.678-10.683-11.384c-14.485-14.482-30.296-26.818-47.035-37.044L439.752,147.681z"/>
				<path fill="#4CAF50" d="M534.529,267.124C541.403,287.902,545.14,309,545.726,331h29.783c-0.6-24-4.941-50.071-12.997-74.136
					L534.529,267.124z"/>
				<path fill="#03A9F4" d="M217.005,141.748c65.826-35.791,145.883-35.914,211.809-0.373l14.892-25.793
					c-75.116-40.836-166.576-40.713-241.592,0.373L217.005,141.748z"/>
				<path fill="#F4DC31" d="M156.569,189.893c2.988-3.371,6.08-6.681,9.307-9.91c12.406-12.404,25.915-23.033,40.207-31.896
					l-14.888-25.79c-16.492,10.146-32.076,22.349-46.367,36.638c-3.845,3.847-7.522,7.794-11.067,11.82L156.569,189.893z"/>
			</g>
			<path fill="none" stroke="#000000" stroke-width="6" stroke-miterlimit="10" d="M323.249,75.007
				C179.663,75.007,63.258,189,63.258,335h519.987C583.245,189,466.843,75.007,323.249,75.007z"/>
		</g>
		<g>
			<path d="M325.438,140.868c0,3.121-0.455,5.454-1.367,6.999c-0.912,1.547-2.341,2.318-4.289,2.318
				c-1.89,0-3.298-0.741-4.229-2.223c-0.931-1.482-1.415-3.711-1.452-6.686v-3.633c0-3.092,0.455-5.398,1.372-6.919
				c0.916-1.521,2.34-2.281,4.28-2.281c1.909,0,3.32,0.723,4.237,2.165c0.916,1.445,1.396,3.63,1.447,6.556V140.868z
				 M322.863,137.19c0-2.237-0.247-3.887-0.741-4.948s-1.283-1.592-2.369-1.592c-1.056,0-1.831,0.521-2.325,1.563
				c-0.494,1.041-0.751,2.613-0.77,4.716v4.359c0,2.229,0.256,3.904,0.77,5.022c0.515,1.119,1.298,1.679,2.354,1.679
				c1.047,0,1.819-0.528,2.312-1.583c0.494-1.056,0.749-2.67,0.77-4.84V137.19z"/>
		</g>
		<g>
			<path d="M132.094,277.307h-6.002v-2.196h6.002V277.307z"/>
			<path d="M142.151,285.197h-2.585v-17.919l-4.447,1.99v-2.442l6.626-2.892h0.406V285.197z"/>
		</g>
		<g>
			<path d="M513.918,285.5h-2.585v-17.92l-4.447,1.989v-2.439l6.627-2.894h0.405V285.5z"/>
		</g>
		<path d="M641,397.897c0,4.015-7.411,8.103-17.375,8.103H17.466C7.502,406-1,401.912-1,397.897v-57.794
			C-1,336.089,7.502,333,17.466,333h606.159c9.964,0,17.375,3.089,17.375,7.104V397.897z"/>
	</g>
	<text transform="matrix(1 0 0 1 221.4082 381.7871)" fill="#FFFFFF" font-family="'RobotoCondensed-Regular'" font-size="31.5708">No Relationship</text>
</g>
</svg>
