<?xml version="1.0" encoding="utf-8"?>
<!-- Generator: Adobe Illustrator 16.0.0, SVG Export Plug-In . SVG Version: 6.00 Build 0)  -->
<!DOCTYPE svg PUBLIC "-//W3C//DTD SVG 1.1//EN" "http://www.w3.org/Graphics/SVG/1.1/DTD/svg11.dtd">
<svg version="1.1" id="Layer_1" xmlns="http://www.w3.org/2000/svg" xmlns:xlink="http://www.w3.org/1999/xlink" x="0px" y="0px"
	 width="640px" height="480px" viewBox="0 0 640 480" enable-background="new 0 0 640 480" xml:space="preserve">
<g>
	<path d="M272.085,333.873c0-27.01,21.895-48.906,48.907-48.906c27.011,0,48.907,21.896,48.907,48.906"/>
	<path d="M340.709,317.086c-1.731,0.104-3.228-1.354-3.341-3.255l0,0c-0.114-1.9,1.197-3.524,2.928-3.628l138.279-8.282
		c1.731-0.104,3.228,1.352,3.341,3.253l0,0c0.114,1.9-1.197,3.524-2.928,3.629L340.709,317.086z"/>
	<g>
		<g>
			<g>
				<path fill="#FF5722" d="M89.383,245.483l27.839,10.132c7.768-19.726,18.477-38.557,32.125-55.828l-22.692-19.043
					C110.741,200.733,98.317,222.582,89.383,245.483z"/>
				<path fill="#FF5722" d="M101.91,331c0.581-22,4.265-42.906,11.042-63.488L85.112,257.42C77.165,281.271,72.875,307,72.282,331
					H101.91z"/>
				<path fill="#4CAF50" d="M519.456,180.292l-22.693,19.041c13.755,17.312,24.547,36.201,32.373,55.996l27.838-10.132
					C547.98,222.227,535.476,200.319,519.456,180.292z"/>
				<path fill="#8BC34A" d="M439.134,148.16c14.464,8.899,28.131,19.604,40.666,32.136c3.07,3.074,6.023,6.222,8.875,9.424
					l22.691-19.039c-3.41-3.854-6.94-7.638-10.628-11.325c-14.41-14.407-30.139-26.68-46.792-36.853L439.134,148.16z"/>
				<path fill="#4CAF50" d="M533.422,267.221C540.26,287.891,543.978,309,544.56,331h29.63c-0.597-24-4.916-49.93-12.93-73.87
					L533.422,267.221z"/>
				<path fill="#03A9F4" d="M217.537,142.258c65.486-35.606,145.129-35.729,210.714-0.371l14.815-25.66
					c-74.729-40.625-165.716-40.503-240.345,0.371L217.537,142.258z"/>
				<path fill="#F4DC31" d="M157.413,190.154c2.973-3.354,6.049-6.646,9.259-9.858c12.341-12.34,25.781-22.914,40-31.732
					l-14.812-25.656c-16.407,10.094-31.91,22.234-46.127,36.449c-3.825,3.827-7.483,7.754-11.01,11.759L157.413,190.154z"/>
			</g>
			<path fill="none" stroke="#000000" stroke-width="6" stroke-miterlimit="10" d="M323.232,75.35
				C180.387,75.35,64.583,190,64.583,334h517.302C581.886,190,466.084,75.35,323.232,75.35z"/>
		</g>
		<g>
			<path d="M325.409,141.382c0,3.104-0.453,5.426-1.36,6.963c-0.907,1.539-2.328,2.306-4.266,2.306c-1.88,0-3.281-0.737-4.207-2.212
				c-0.926-1.475-1.407-3.692-1.444-6.651v-3.615c0-3.076,0.453-5.37,1.365-6.883c0.911-1.514,2.329-2.27,4.258-2.27
				c1.899,0,3.303,0.719,4.215,2.153c0.911,1.438,1.389,3.611,1.439,6.521V141.382z M322.849,137.724
				c0-2.226-0.246-3.867-0.737-4.922c-0.492-1.056-1.276-1.584-2.357-1.584c-1.051,0-1.822,0.519-2.313,1.556
				c-0.491,1.035-0.747,2.599-0.766,4.692v4.336c0,2.217,0.254,3.884,0.766,4.997c0.512,1.113,1.292,1.67,2.342,1.67
				c1.042,0,1.81-0.525,2.299-1.576c0.492-1.05,0.746-2.656,0.767-4.814V137.724z"/>
		</g>
		<g>
			<path d="M133.064,277.116h-5.971v-2.185h5.971V277.116z"/>
			<path d="M143.069,284.967h-2.572V267.14l-4.424,1.98v-2.43l6.593-2.877h0.404V284.967z"/>
		</g>
		<g>
			<path d="M512.917,285.268h-2.572v-17.828l-4.424,1.98v-2.428l6.592-2.879h0.404V285.268z"/>
		</g>
		<path d="M639,397.085c0,3.993-7.03,7.915-16.942,7.915H19.029C9.116,405,1,401.078,1,397.085v-57.496
			C1,335.596,9.116,333,19.029,333h603.029c9.912,0,16.942,2.596,16.942,6.589V397.085z"/>
	</g>
	<text transform="matrix(1 0 0 1 148.2417 382.7803)" fill="#FFFFFF" font-family="'RobotoCondensed-Regular'" font-size="31.4078">Strong Positive Relationship</text>
</g>
</svg>
