<?xml version="1.0" encoding="utf-8"?>
<!-- Generator: Adobe Illustrator 16.0.0, SVG Export Plug-In . SVG Version: 6.00 Build 0)  -->
<!DOCTYPE svg PUBLIC "-//W3C//DTD SVG 1.1//EN" "http://www.w3.org/Graphics/SVG/1.1/DTD/svg11.dtd">
<svg version="1.1" id="Layer_1" xmlns="http://www.w3.org/2000/svg" xmlns:xlink="http://www.w3.org/1999/xlink" x="0px" y="0px"
	 width="640px" height="480px" viewBox="0 0 640 480" enable-background="new 0 0 640 480" xml:space="preserve">
<g>
	<path d="M272.128,333.789c0-26.985,21.875-48.862,48.863-48.862c26.987,0,48.863,21.877,48.863,48.862"/>
	<path d="M341.021,315.72c-1.42,0.992-3.455,0.531-4.545-1.027l0,0c-1.088-1.56-0.819-3.628,0.599-4.621l113.469-79.249
		c1.419-0.991,3.454-0.532,4.545,1.029l0,0c1.088,1.559,0.82,3.628-0.601,4.619L341.021,315.72z"/>
	<g>
		<g>
			<g>
				<path fill="#FF5722" d="M89.591,245.479l27.814,10.122c7.761-19.708,18.459-38.522,32.095-55.777l-22.671-19.026
					C110.93,200.77,98.518,222.598,89.591,245.479z"/>
				<path fill="#FF5722" d="M102.107,331c0.58-22,4.26-42.908,11.032-63.473l-27.814-10.062C77.384,281.296,73.098,307,72.506,331
					H102.107z"/>
				<path fill="#4CAF50" d="M519.275,180.347l-22.673,19.023c13.743,17.297,24.524,36.169,32.345,55.945l27.812-10.122
					C547.774,222.243,535.281,200.355,519.275,180.347z"/>
				<path fill="#8BC34A" d="M439.025,148.243c14.452,8.891,28.105,19.586,40.63,32.107c3.067,3.071,6.018,6.217,8.867,9.416
					l22.671-19.021c-3.407-3.85-6.935-7.631-10.618-11.314c-14.397-14.395-30.112-26.656-46.75-36.82L439.025,148.243z"/>
				<path fill="#4CAF50" d="M533.229,267.236C540.062,287.891,543.775,309,544.357,331h29.602c-0.595-24-4.911-49.904-12.917-73.823
					L533.229,267.236z"/>
				<path fill="#03A9F4" d="M217.629,142.346c65.427-35.573,144.999-35.696,210.524-0.37l14.802-25.637
					c-74.661-40.589-165.566-40.466-240.127,0.37L217.629,142.346z"/>
				<path fill="#F4DC31" d="M157.56,190.2c2.97-3.35,6.043-6.64,9.25-9.85c12.331-12.329,25.758-22.893,39.963-31.703
					l-14.798-25.633c-16.392,10.085-31.881,22.214-46.085,36.417c-3.822,3.823-7.477,7.747-11,11.749L157.56,190.2z"/>
			</g>
			<path fill="none" stroke="#000000" stroke-width="6" stroke-miterlimit="10" d="M323.229,75.583
				C180.513,75.583,64.814,190,64.814,334h516.835C581.649,190,465.952,75.583,323.229,75.583z"/>
		</g>
		<g>
			<path d="M325.404,141.472c0,3.102-0.453,5.421-1.359,6.957c-0.906,1.538-2.326,2.304-4.262,2.304
				c-1.879,0-3.278-0.736-4.204-2.21c-0.925-1.473-1.406-3.688-1.443-6.646v-3.611c0-3.073,0.452-5.366,1.364-6.878
				c0.91-1.512,2.326-2.267,4.253-2.267c1.897,0,3.3,0.718,4.211,2.151c0.91,1.436,1.388,3.607,1.438,6.516V141.472z
				 M322.846,137.817c0-2.224-0.245-3.864-0.736-4.918c-0.491-1.055-1.275-1.583-2.355-1.583c-1.049,0-1.82,0.518-2.311,1.554
				c-0.491,1.035-0.747,2.597-0.765,4.688v4.333c0,2.215,0.254,3.88,0.765,4.992c0.511,1.111,1.29,1.668,2.34,1.668
				c1.041,0,1.808-0.525,2.297-1.575c0.491-1.049,0.746-2.654,0.766-4.81V137.817z"/>
		</g>
		<g>
			<path d="M133.233,277.083h-5.966V274.9h5.966V277.083z"/>
			<path d="M143.229,284.927h-2.57v-17.811l-4.42,1.978v-2.427l6.586-2.875h0.404V284.927z"/>
		</g>
		<g>
			<path d="M512.743,285.228h-2.57v-17.812l-4.42,1.979v-2.426l6.586-2.876h0.404V285.228z"/>
		</g>
		<path d="M639,396.943c0,3.989-7.312,8.057-17.216,8.057H19.3C9.397,405,1,400.933,1,396.943v-57.444C1,335.51,9.397,333,19.3,333
			h602.484c9.903,0,17.216,2.51,17.216,6.499V396.943z"/>
	</g>
	<text transform="matrix(1 0 0 1 118.666 380.9297)" fill="#FFFFFF" font-family="'RobotoCondensed-Regular'" font-size="31.3794">Moderately Positive Relationship</text>
</g>
</svg>
