<?xml version="1.0" encoding="utf-8"?>
<!-- Generator: Adobe Illustrator 16.0.0, SVG Export Plug-In . SVG Version: 6.00 Build 0)  -->
<!DOCTYPE svg PUBLIC "-//W3C//DTD SVG 1.1//EN" "http://www.w3.org/Graphics/SVG/1.1/DTD/svg11.dtd">
<svg version="1.1" id="Layer_1" xmlns="http://www.w3.org/2000/svg" xmlns:xlink="http://www.w3.org/1999/xlink" x="0px" y="0px"
	 width="640px" height="480px" viewBox="0 0 640 480" enable-background="new 0 0 640 480" xml:space="preserve">
<g>
	<path d="M272.127,333.791c0-26.986,21.876-48.863,48.864-48.863s48.864,21.877,48.864,48.863"/>
	<path d="M318.047,296.666c1.6,0.664,2.306,2.627,1.574,4.383l0,0c-0.73,1.757-2.621,2.643-4.218,1.979L187.606,249.88
		c-1.598-0.665-2.303-2.628-1.572-4.384l0,0c0.731-1.756,2.619-2.643,4.22-1.978L318.047,296.666z"/>
	<g>
		<g>
			<g>
				<path fill="#FF5722" d="M89.586,245.479l27.815,10.122c7.761-19.708,18.46-38.522,32.096-55.778l-22.671-19.027
					C110.926,200.769,98.513,222.598,89.586,245.479z"/>
				<path fill="#FF5722" d="M102.102,331c0.581-22,4.261-42.908,11.032-63.473l-27.815-10.063C77.378,281.295,73.093,307,72.501,331
					H102.102z"/>
				<path fill="#4CAF50" d="M519.279,180.346l-22.673,19.023c13.743,17.298,24.525,36.169,32.345,55.946l27.813-10.122
					C547.779,222.243,535.285,200.354,519.279,180.346z"/>
				<path fill="#8BC34A" d="M439.028,148.241c14.452,8.893,28.106,19.587,40.63,32.108c3.068,3.071,6.019,6.217,8.868,9.416
					l22.671-19.021c-3.407-3.85-6.935-7.631-10.618-11.315c-14.397-14.395-30.112-26.656-46.751-36.819L439.028,148.241z"/>
				<path fill="#4CAF50" d="M533.233,267.236C540.065,287.891,543.779,309,544.361,331h29.604c-0.596-24-4.911-49.905-12.918-73.825
					L533.233,267.236z"/>
				<path fill="#03A9F4" d="M217.627,142.344c65.428-35.572,145.002-35.697,210.529-0.37l14.801-25.637
					c-74.662-40.588-165.569-40.467-240.132,0.372L217.627,142.344z"/>
				<path fill="#F4DC31" d="M157.556,190.199c2.97-3.351,6.043-6.641,9.251-9.85c12.331-12.329,25.758-22.892,39.964-31.704
					l-14.798-25.632c-16.393,10.083-31.882,22.212-46.087,36.415c-3.821,3.823-7.477,7.748-11,11.749L157.556,190.199z"/>
			</g>
			<path fill="none" stroke="#000000" stroke-width="6" stroke-miterlimit="10" d="M323.229,75.578
				C180.51,75.578,64.809,190,64.809,334h516.846C581.655,190,465.955,75.578,323.229,75.578z"/>
		</g>
		<g>
			<path d="M325.404,141.471c0,3.102-0.452,5.419-1.359,6.955c-0.906,1.538-2.326,2.305-4.262,2.305
				c-1.879,0-3.278-0.735-4.204-2.21c-0.925-1.473-1.406-3.688-1.443-6.646v-3.611c0-3.073,0.452-5.364,1.364-6.877
				c0.91-1.511,2.326-2.268,4.254-2.268c1.897,0,3.3,0.718,4.211,2.153c0.91,1.435,1.388,3.606,1.438,6.516V141.471z
				 M322.846,137.815c0-2.224-0.245-3.864-0.736-4.918s-1.275-1.581-2.355-1.581c-1.049,0-1.82,0.518-2.311,1.553
				c-0.491,1.034-0.747,2.597-0.765,4.688v4.333c0,2.217,0.254,3.88,0.765,4.992s1.29,1.668,2.34,1.668
				c1.041,0,1.808-0.525,2.298-1.574c0.491-1.05,0.745-2.654,0.765-4.811V137.815z"/>
		</g>
		<g>
			<path d="M133.229,277.084h-5.966V274.9h5.966V277.084z"/>
			<path d="M143.226,284.928h-2.57v-17.812l-4.42,1.979v-2.427l6.587-2.875h0.404V284.928z"/>
		</g>
		<g>
			<path d="M512.747,285.229h-2.57v-17.812l-4.42,1.978v-2.425l6.586-2.876h0.404V285.229z"/>
		</g>
		<path d="M639,396.946c0,3.99-7.306,8.054-17.209,8.054H19.294C9.391,405,1,400.937,1,396.946v-57.445
			C1,335.512,9.391,333,19.294,333h602.497c9.903,0,17.209,2.512,17.209,6.501V396.946z"/>
	</g>
	<text transform="matrix(1 0 0 1 115.2153 380.9316)" fill="#FFFFFF" font-family="'RobotoCondensed-Regular'" font-size="31.3801">Moderately Negative Relationship</text>
</g>
</svg>
