<svg xmlns="http://www.w3.org/2000/svg" xmlns:xlink="http://www.w3.org/1999/xlink" id="Layer_1" x="0" y="0" enable-background="new 0 0 512.004 512.004" version="1.1" viewBox="0 0 512.004 512.004" xml:space="preserve"><path fill="#3E3B43" d="M324.24,360.638H171.314c-7.502,0-13.639-6.138-13.639-13.639V165.002	c0-7.502,6.138-13.639,13.639-13.639H324.24c7.502,0,13.639,6.138,13.639,13.639v181.997	C337.879,354.5,331.741,360.638,324.24,360.638z"/><g><rect width="100.817" height="151.367" x="197.365" fill="#2F2D30"/><rect width="100.817" height="151.366" x="197.365" y="360.638" fill="#2F2D30"/></g><path fill="#FF3F62" d="M294.653,220.094c0-16.197-13.131-29.328-29.328-29.328c-6.581,0-12.654,6.338-17.548,9.998	c-4.893-3.66-10.967-9.998-17.548-9.998c-16.197,0-29.328,13.131-29.328,29.328c0,15.547,46.876,49.407,46.876,49.407	S294.653,235.639,294.653,220.094z"/><path fill="#DFDFE2" d="M313.936,332.419h-40.569c-1.946,0-3.825-0.722-5.27-2.026l-20.378-18.382l-20.906,18.44	c-1.437,1.267-3.288,1.967-5.205,1.967h-34.973c-4.346,0-7.869-3.523-7.869-7.869c0-4.346,3.523-7.869,7.869-7.869h31.999	l23.939-21.115c3-2.644,7.506-2.621,10.475,0.059l23.344,21.056h37.544c4.346,0,7.869,3.523,7.869,7.869	C321.806,328.895,318.281,332.419,313.936,332.419z"/><path fill="#2F2D30" d="M337.879,190.766h20.645c2.021,0,3.674,2.382,3.674,5.293v29.745c0,2.911-1.654,5.293-3.674,5.293	h-20.645V190.766z"/><g><path fill="#3E3B43" d="M247.777,411.498c-4.346,0-7.869-3.523-7.869-7.869V388.71c0-4.346,3.523-7.869,7.869-7.869 c4.346,0,7.869,3.523,7.869,7.869v14.919C255.646,407.975,252.123,411.498,247.777,411.498z"/><path fill="#3E3B43" d="M247.777,451.905c-4.346,0-7.869-3.523-7.869-7.869v-14.919c0-4.346,3.523-7.869,7.869-7.869 c4.346,0,7.869,3.523,7.869,7.869v14.919C255.646,448.381,252.123,451.905,247.777,451.905z"/><path fill="#3E3B43" d="M247.777,492.836c-4.346,0-7.869-3.523-7.869-7.869v-14.919c0-4.346,3.523-7.869,7.869-7.869 c4.346,0,7.869,3.523,7.869,7.869v14.919C255.646,489.312,252.123,492.836,247.777,492.836z"/><path fill="#3E3B43" d="M247.777,51.626c-4.346,0-7.869-3.523-7.869-7.869V28.838c0-4.346,3.523-7.869,7.869-7.869 c4.346,0,7.869,3.523,7.869,7.869v14.919C255.646,48.103,252.123,51.626,247.777,51.626z"/><path fill="#3E3B43" d="M247.777,92.033c-4.346,0-7.869-3.523-7.869-7.869V69.244c0-4.346,3.523-7.869,7.869-7.869 c4.346,0,7.869,3.523,7.869,7.869v14.919C255.646,88.51,252.123,92.033,247.777,92.033z"/><path fill="#3E3B43" d="M247.777,132.964c-4.346,0-7.869-3.523-7.869-7.869v-14.919c0-4.346,3.523-7.869,7.869-7.869 c4.346,0,7.869,3.523,7.869,7.869v14.919C255.646,129.441,252.123,132.964,247.777,132.964z"/></g><g><polygon fill="#FFF" points="336.231 217.027 158.821 300.962 158.821 235.297 336.231 151.362" enable-background="new" opacity=".06"/><polygon fill="#FFF" points="336.231 276.089 158.821 360.024 158.821 325.835 336.231 241.9" enable-background="new" opacity=".06"/></g><path fill="#2F2D30" d="M324.24,368.507H171.314c-11.86,0-21.508-9.648-21.508-21.508V165.003	c0-11.86,9.648-21.508,21.508-21.508H324.24c11.86,0,21.508,9.648,21.508,21.508v181.995	C345.748,358.858,336.1,368.507,324.24,368.507z M171.314,159.232c-3.182,0-5.771,2.588-5.771,5.771v181.995	c0,3.182,2.588,5.771,5.771,5.771H324.24c3.182,0,5.771-2.588,5.771-5.771V165.003c0-3.182-2.588-5.771-5.771-5.771H171.314z"/><g><rect width="100.848" height="18.4" x="197.365" y="125.095" fill="#1D1D20"/><rect width="100.848" height="18.4" x="197.365" y="369.409" fill="#1D1D20"/><rect width="7.706" height="40.332" x="345.751" y="190.764" fill="#1D1D20"/></g></svg>