<svg xmlns="http://www.w3.org/2000/svg" xmlns:xlink="http://www.w3.org/1999/xlink" id="Layer_1" width="792" height="792" x="0" y="0" enable-background="new -90 0 792 792" version="1.1" viewBox="-90 0 792 792" xml:space="preserve"><g><g><path fill="#292627" d="M51.582,223.183c0-30.025,15.426-56.644,39.183-73.13c4.769-45.833,45.608-81.632,95.28-81.632 c1.533,0,3.051,0.038,4.57,0.105c12.032-12.238,27.604-21.323,45.171-25.79c8.141-2.073,16.536-3.105,24.924-3.105 c12.588,0,24.601,2.302,35.604,6.479c0.593-0.225,1.179-0.442,1.77-0.654c0.023-0.014,0.05-0.021,0.078-0.026 c0.596-0.213,1.2-0.42,1.802-0.628l0,0c9.995-3.344,20.753-5.171,31.959-5.171c7.884,0,15.541,0.905,22.874,2.608 c8.598-3.774,18.183-5.881,28.275-5.881c25.947,0,48.462,13.882,59.729,34.211c22.461,1.678,41.392,15.175,49.89,33.912 c23.188,5.206,41.442,25.513,41.442,49.662c0,2.321-0.169,4.598-0.48,6.829c8.669,8.409,14.932,19.219,17.623,31.027 c2.694,11.763,1.777,24.254-2.588,35.508c-2.407,6.204-5.838,12.005-10.066,17.149c-3.042,3.788-7.311,6.439-10.342,10.073 c-7.113,5.563-15.452,9.764-24.569,12.195c-0.128,30.621-26.383,55.399-58.761,55.399c-0.313,0-0.628,0-0.943-0.016 c-8.234,8.075-19.792,13.097-32.583,13.097c-14.82,0-27.979-6.742-36.238-17.153c-14.914,31.7-48.486,53.796-87.513,53.796 c-16.021,0-31.119-3.713-44.381-10.302c-12.799,19.544-35.658,32.55-61.736,32.55c-23.751,0-44.842-10.789-58.078-27.491 c-37.475-0.35-67.75-29.215-67.75-64.77c0-11.869,3.376-23,9.27-32.565C56.473,255.923,51.582,240.094,51.582,223.183z"/><path fill="#009FAE" d="M322.854,324.277c-2.624-6.195-6.37-11.74-11.133-16.508c-4.771-4.768-10.322-8.512-16.508-11.133 c-6.409-2.711-13.218-4.087-20.219-4.087H141.396c-21.395,0-38.807-17.403-38.807-38.8v-16.221H89.454v16.221 c0,7.006,1.368,13.81,4.09,20.222c2.612,6.187,6.358,11.74,11.125,16.521c4.765,4.758,10.319,8.498,16.502,11.12 c6.41,2.698,13.211,4.087,20.224,4.087h133.599c21.394,0,38.801,17.404,38.801,38.787v172.018h13.14V344.486 C326.936,337.485,325.563,330.682,322.854,324.277z"/><path fill="#94A33A" d="M301.507,220.277c-2.617-6.175-6.364-11.738-11.125-16.493c-4.773-4.781-10.328-8.516-16.504-11.141 c-6.418-2.708-13.216-4.084-20.227-4.084h-41.968v13.143h41.968c21.393,0,38.801,17.396,38.801,38.796v276.006h13.145V240.498 C305.597,233.491,304.215,226.686,301.507,220.277z"/><path fill="#F6921E" d="M402.198,137.446v183.683c0,21.4-17.399,38.8-38.798,38.8h-40.163c-7.011,0-13.813,1.377-20.227,4.076 c-6.179,2.62-11.737,6.367-16.506,11.137c-4.773,4.772-8.51,10.315-11.125,16.511c-2.713,6.4-4.084,13.203-4.084,20.224v104.627 h13.138V411.877c0-21.404,17.406-38.81,38.805-38.81H363.4c7.01,0,13.816-1.376,20.217-4.086 c6.186-2.625,11.74-6.361,16.507-11.122c4.772-4.775,8.513-10.327,11.129-16.502c2.712-6.417,4.09-13.225,4.09-20.228V137.446 H402.198z"/><path fill="#FDBC11" d="M169.218,207.538v96.256c0,21.396,17.407,38.796,38.8,38.796h3.452c7.009,0,13.813,1.383,20.215,4.092 c6.191,2.611,11.738,6.353,16.509,11.123c4.77,4.771,8.516,10.324,11.128,16.507c2.711,6.417,4.083,13.206,4.083,20.221v121.971 h-13.134V394.533c0-21.395-17.409-38.81-38.802-38.81l-3.452,0.016c-7.008,0-13.811-1.371-20.222-4.089 c-6.182-2.616-11.738-6.364-16.5-11.123c-4.77-4.772-8.518-10.327-11.129-16.508c-2.712-6.417-4.088-13.214-4.088-20.225v-96.256 H169.218z"/><path fill="#F16522" d="M474.811,211.74v40.405c0,21.4-17.409,38.806-38.799,38.806l-49.262-0.03 c-7.016,0-13.815,1.376-20.225,4.086c-6.183,2.618-11.737,6.354-16.51,11.13c-4.764,4.768-8.512,10.317-11.12,16.508 c-2.721,6.414-4.091,13.215-4.091,20.215v173.644h13.143V342.86c0-21.387,17.403-38.792,38.786-38.792l6.409,0.025h42.869 c7,0,13.808-1.382,20.215-4.094c6.188-2.616,11.74-6.361,16.512-11.117c4.766-4.788,8.512-10.333,11.127-16.519 c2.712-6.415,4.08-13.212,4.08-20.219V211.74H474.811z"/><path fill="#F6921E" d="M323.55,135.109c13.754-8.529,33.113-13.841,54.558-13.841c41.756,0,75.596,20.142,75.596,44.979 c0,23.731-30.9,43.172-70.076,44.856c-1.831,0.085-3.665,0.119-5.52,0.119c-4.719,0-9.329-0.256-13.802-0.744 c-0.434,2.082-0.658,4.232-0.658,6.438c0,6.662,2.081,12.835,5.633,17.908c-12.289-3.551-21.45-14.45-22.456-27.629 c-26.147-7.065-44.328-22.749-44.328-40.949C302.496,154.162,310.51,143.189,323.55,135.109z"/><g><path fill="#00ACB9" d="M298.764,111.817c-0.141-6.288-1.555-12.646-4.364-18.71c-0.173-0.373-0.347-0.734-0.52-1.096 c2.14-1.495,4.252-3.05,6.334-4.653c-1.841-3.504-4.07-6.807-6.633-9.824c-2.292,1.296-4.534,2.648-6.742,4.054 c-4.646-5.2-10.336-9.234-16.609-11.938c0.687-2.498,1.306-5.03,1.875-7.584c-3.695-1.469-7.546-2.571-11.485-3.238 c-0.922,2.462-1.786,4.914-2.573,7.398c-6.731-0.964-13.733-0.522-20.557,1.505c-1.09-2.347-2.257-4.662-3.476-6.948 c-3.807,1.225-7.47,2.865-10.936,4.861c0.863,2.448,1.796,4.867,2.787,7.267c-6.083,3.714-11.103,8.618-14.885,14.245 c-2.364-1.077-4.763-2.101-7.185-3.069c-2.143,3.37-3.928,6.957-5.296,10.696c2.26,1.296,4.548,2.537,6.861,3.73 c-2.196,6.476-3.016,13.409-2.272,20.324c-2.524,0.689-5.036,1.445-7.537,2.249c0.528,3.93,1.488,7.798,2.845,11.52 c2.584-0.458,5.164-0.978,7.712-1.556c0.34,0.851,0.705,1.7,1.096,2.532c2.579,5.567,6.118,10.394,10.327,14.368 c-1.5,2.141-2.962,4.309-4.365,6.518c2.954,2.657,6.199,4.993,9.654,6.949c1.705-1.997,3.357-4.037,4.95-6.106 c6.075,3.237,12.827,5.146,19.771,5.565c0.212,2.576,0.495,5.156,0.84,7.734c3.994,0.136,8.014-0.149,11.959-0.871 c0.018-2.605-0.019-5.214-0.134-7.794c3.584-0.747,7.136-1.907,10.593-3.514c2.967-1.381,5.73-3.017,8.269-4.874 c1.845,1.819,3.726,3.603,5.666,5.341c3.178-2.434,6.082-5.24,8.655-8.293c-1.662-1.991-3.38-3.94-5.141-5.844 c4.352-5.447,7.451-11.74,9.119-18.407c2.596,0.204,5.212,0.365,7.832,0.451c0.872-3.872,1.307-7.845,1.325-11.818 C303.942,112.535,301.356,112.141,298.764,111.817z M265.327,144.482c-17.562,8.154-38.393,0.523-46.547-17.031 c-8.148-17.549-0.524-38.385,17.031-46.539c17.553-8.15,38.389-0.527,46.544,17.027 C290.509,115.501,282.882,136.323,265.327,144.482z"/><path fill="#00ACB9" d="M244.573,99.542c-7.679,3.561-11.049,12.599-7.527,20.189c3.521,7.585,12.607,10.852,20.284,7.287 c7.684-3.571,11.048-12.617,7.526-20.201C261.332,99.231,252.252,95.973,244.573,99.542z"/></g><polygon fill="#F9A11B" points="123.966 324.93 119.126 320.097 112.626 336.106 106.127 352.105 122.138 345.617 138.137 339.116 133.298 334.268 144.245 323.321 134.914 313.994"/><path fill="#008EAE" d="M194.307,239.275c0,0-12.567,18.359-12.567,25.304c0,6.947,5.625,12.575,12.567,12.575 c6.948,0,12.581-5.628,12.581-12.575C206.888,257.635,194.307,239.275,194.307,239.275z"/><path fill="#FDBC11" d="M514.709,214.938c0.08-2.375-0.087-4.741-0.512-7.076c-1.556-0.002-3.112,0.027-4.665,0.103 c-0.845-4.143-2.593-7.925-4.989-11.155c1.088-1.104,2.156-2.236,3.202-3.391c-1.469-1.871-3.128-3.582-4.946-5.094 c-1.196,1-2.361,2.018-3.503,3.071c-3.202-2.523-6.944-4.367-11.003-5.335c0.137-1.547,0.221-3.102,0.276-4.653 c-2.315-0.495-4.686-0.741-7.06-0.727c-0.28,1.529-0.51,3.071-0.705,4.61c-0.551,0.012-1.104,0.055-1.653,0.097 c-3.657,0.323-7.107,1.335-10.206,2.882c-0.888-1.266-1.822-2.517-2.776-3.739c-2.097,1.105-4.077,2.459-5.88,3.989 c0.769,1.353,1.583,2.678,2.423,3.977c-3.059,2.743-5.514,6.12-7.163,9.91c-1.496-0.403-3.011-0.763-4.529-1.091 c-0.897,2.205-1.556,4.499-1.955,6.846c1.461,0.53,2.938,1.026,4.418,1.491c-0.305,2.138-0.384,4.355-0.179,6.602 c0.17,1.926,0.534,3.8,1.055,5.588c-1.402,0.659-2.788,1.347-4.164,2.092c0.724,2.25,1.707,4.432,2.904,6.476 c1.473-0.527,2.913-1.092,4.347-1.687c2.174,3.519,5.097,6.501,8.513,8.766c-0.652,1.411-1.266,2.836-1.86,4.274 c2.009,1.263,4.154,2.298,6.393,3.112c0.783-1.344,1.527-2.711,2.241-4.09c3.575,1.182,7.444,1.667,11.444,1.322 c0.241-0.026,0.47-0.055,0.709-0.076c0.412,1.491,0.854,2.984,1.334,4.464c2.347-0.326,4.661-0.912,6.896-1.733 c-0.266-1.523-0.572-3.054-0.913-4.562c3.876-1.551,7.31-3.91,10.109-6.868c1.276,0.893,2.569,1.739,3.896,2.567 c1.589-1.763,2.992-3.685,4.163-5.75c-1.192-0.997-2.404-1.979-3.638-2.914c1.915-3.565,3.086-7.551,3.349-11.763 C511.621,215.338,513.168,215.159,514.709,214.938z"/><path fill="#F6921E" d="M230.92,266.117c11.691,11.537,30.52,11.406,42.056-0.297c11.53-11.682,11.404-30.515-0.29-42.047 c-11.698-11.537-30.523-11.405-42.062,0.289C219.093,235.75,219.224,254.575,230.92,266.117z M234.937,263.011l3.932-3.524 l7.664-6.853c1.469,1.009,3.158,1.543,4.873,1.619l2.012,10.088l1.036,5.171C247.546,270.261,240.382,268.092,234.937,263.011z M269.398,262.296c-3.046,3.094-6.706,5.21-10.586,6.354l-1.042-5.176l-2.015-10.084c0.971-0.462,1.881-1.091,2.681-1.903 c0.593-0.596,1.081-1.248,1.477-1.951l9.901,2.801l5.079,1.424C273.715,256.867,271.884,259.783,269.398,262.296z M276.097,249.499l-5.082-1.432l-9.896-2.798c0.05-1.614-0.312-3.25-1.087-4.719l7.667-6.851l3.928-3.527 C275.838,235.82,277.334,242.862,276.097,249.499z M268.67,226.871l-3.94,3.522l-7.658,6.854c-1.469-1.007-3.16-1.542-4.873-1.622 l-2.017-10.079l-1.032-5.172C256.054,219.622,263.225,221.79,268.67,226.871z M234.201,227.588 c3.051-3.098,6.709-5.205,10.591-6.352l1.041,5.18l2.018,10.075c-0.978,0.468-1.887,1.096-2.69,1.904 c-0.585,0.604-1.079,1.262-1.469,1.95l-9.899-2.783l-5.082-1.44C229.888,233.02,231.724,230.104,234.201,227.588z M232.587,241.829l9.898,2.782c-0.053,1.628,0.309,3.255,1.089,4.72l-7.669,6.859l-3.93,3.522 c-4.214-5.646-5.708-12.688-4.474-19.321L232.587,241.829z"/><g><polygon fill="#F5881F" points="371.997 257.208 350.118 261.724 354.564 268.62 337.511 279.602 346.076 292.888 363.119 281.911 367.557 288.809 380.725 270.752 393.882 252.694"/><polygon fill="#F5881F" points="325.337 287.831 333.546 300.563 342.627 294.727 334.427 281.984"/></g><g><polygon fill="#A9D7B4" points="178.835 209.058 190.901 199.978 199.979 212.041 196.389 214.743 191.922 208.82 190.111 221.673 185.653 221.042 187.472 208.187 181.543 212.648"/><polygon fill="#A9D7B4" points="195.146 194.661 192.268 193.098 196.781 184.779 191.595 186.32 190.664 183.171 201.214 180.04 204.347 190.602 201.205 191.525 199.663 186.336"/></g><polygon fill="#F16522" points="469.447 105.18 456.661 105.18 456.661 92.398 447.764 92.398 447.764 105.18 434.981 105.18 434.981 114.079 447.764 114.079 447.764 126.864 456.661 126.864 456.661 114.079 469.447 114.079"/><polygon fill="#F5EA00" points="115.778 204.401 102.162 204.401 102.162 190.791 92.686 190.791 92.686 204.401 79.07 204.401 79.07 213.885 92.686 213.885 92.686 227.496 102.162 227.496 102.162 213.885 115.778 213.885"/><polygon fill="#8BC53F" points="405.144 78.613 412.323 69.703 384.565 61.778 356.801 53.841 370.468 79.268 384.127 104.708 391.308 95.789 411.457 112.021 425.293 94.851"/><polygon fill="#4D9FB4" points="322.646 82.536 330.368 87.741 314.776 110.858 317.383 112.617 332.979 89.5 340.706 94.714 341.471 83.85 342.227 72.983"/><path fill="#009FAE" d="M273.467,321.723c-5.889-5.877-15.43-5.877-21.316,0c-5.885,5.893-5.885,15.437,0,21.324 c5.886,5.884,15.427,5.884,21.316,0C279.353,337.16,279.353,327.616,273.467,321.723z M266.782,336.357 c-2.195,2.199-5.753,2.199-7.94,0c-2.194-2.204-2.194-5.747,0-7.945c2.187-2.193,5.746-2.193,7.94,0 C268.975,330.61,268.975,334.153,266.782,336.357z"/><polygon fill="#79AC36" points="161.38 379.066 164.908 368.405 196.828 378.969 198.023 375.368 166.104 364.797 169.636 354.128 156.776 356.779 143.92 359.449"/><polygon fill="#15ADB1" points="325.385 253.177 328.938 252.992 328.3 241.001 340.723 240.702 325.465 215.688 311.423 241.416 324.751 241.081"/><g><path fill="#BEE1CD" d="M173.519,148.923l-17.441-2.894l2.904-17.431c0.292-1.747-0.895-3.403-2.642-3.691 c-1.757-0.298-3.407,0.886-3.701,2.642l-2.9,17.427l-17.431-2.908c-1.747-0.285-3.409,0.896-3.693,2.639 c-0.293,1.759,0.894,3.413,2.635,3.702l17.44,2.905l-2.908,17.431c-0.288,1.747,0.893,3.403,2.649,3.696 c1.745,0.289,3.396-0.892,3.691-2.648l2.902-17.43l17.429,2.902c1.753,0.293,3.408-0.894,3.698-2.639 C176.445,150.876,175.265,149.22,173.519,148.923z"/><path fill="#94A33A" d="M190.068,148.637c2.173-0.349,4.342-0.752,6.511-1.207c-0.103-3.493-0.612-6.96-1.525-10.321 c-2.205,0.161-4.407,0.391-6.589,0.68c-1.206-4.016-3.083-7.836-5.607-11.305c1.558-1.55,3.077-3.157,4.557-4.8 c-2.129-2.767-4.6-5.278-7.311-7.462c-1.689,1.44-3.333,2.923-4.929,4.445c-3.469-2.639-7.248-4.576-11.172-5.856 c0.344-2.176,0.631-4.368,0.86-6.56c-3.35-0.991-6.814-1.573-10.303-1.738c-0.517,2.149-0.975,4.308-1.378,6.484 c-4.224-0.089-8.447,0.54-12.477,1.841c-0.993-1.963-2.047-3.897-3.156-5.827c-3.285,1.169-6.432,2.732-9.362,4.641 c0.848,2.044,1.741,4.075,2.693,6.056c-3.104,2.167-5.937,4.832-8.372,7.992c-0.215,0.279-0.43,0.561-0.627,0.849 c-1.958-1.01-3.959-1.962-5.976-2.859c-1.968,2.873-3.611,5.983-4.851,9.256c1.886,1.158,3.801,2.272,5.736,3.318 c-1.409,4.04-2.094,8.248-2.091,12.434c-2.175,0.344-4.347,0.755-6.504,1.214c0.092,3.479,0.603,6.955,1.517,10.326 c2.207-0.173,4.404-0.398,6.591-0.688c1.201,4.007,3.083,7.84,5.61,11.299c-1.565,1.556-3.082,3.162-4.558,4.804 c2.129,2.764,4.599,5.271,7.309,7.459c1.688-1.445,3.328-2.919,4.923-4.432c3.469,2.625,7.252,4.581,11.178,5.847 c-0.345,2.175-0.637,4.359-0.864,6.565c3.355,0.986,6.818,1.563,10.301,1.738c0.521-2.15,0.976-4.316,1.377-6.478 c4.229,0.08,8.45-0.54,12.475-1.854c1.001,1.962,2.05,3.904,3.163,5.83c3.281-1.172,6.436-2.724,9.358-4.645 c-0.837-2.049-1.743-4.066-2.692-6.06c3.114-2.159,5.94-4.827,8.367-7.984c0.221-0.286,0.427-0.565,0.641-0.849 c1.962,1.002,3.95,1.962,5.975,2.863c1.96-2.88,3.603-5.99,4.842-9.255c-1.882-1.165-3.794-2.266-5.736-3.331 C189.38,157.029,190.068,152.833,190.068,148.637z"/><g><path fill="#A9BF38" d="M148.547,171.732c12.735,2.125,24.784-6.488,26.898-19.224c2.121-12.739-6.487-24.787-19.226-26.902 c-12.736-2.116-24.779,6.488-26.898,19.223C127.196,157.569,135.808,169.612,148.547,171.732z M155.207,131.691 c9.383,1.556,15.717,10.431,14.153,19.806c-1.559,9.377-10.425,15.714-19.807,14.158c-9.378-1.559-15.709-10.433-14.156-19.806 C136.962,136.463,145.83,130.127,155.207,131.691z"/><path fill="#A9BF38" d="M150.949,157.267c4.75,0.786,9.245-2.421,10.03-7.168c0.788-4.747-2.419-9.239-7.165-10.027 c-4.747-0.783-9.235,2.417-10.03,7.167C142.997,151.986,146.201,156.472,150.949,157.267z"/></g></g><g><path fill="#BFB031" d="M495.69,123.668c-13.192-0.06-23.948,10.585-24.004,23.775c-0.059,13.202,10.589,23.949,23.779,24.009 c13.199,0.059,23.95-10.578,24.004-23.779C519.538,134.479,508.885,123.742,495.69,123.668z M495.501,165.149 c-9.716-0.041-17.56-7.953-17.517-17.668c0.045-9.712,7.962-17.561,17.682-17.515c9.713,0.05,17.552,7.964,17.502,17.677 C513.137,157.361,505.214,165.197,495.501,165.149z"/><path fill="#CFB52B" d="M495.619,138.66c-4.911-0.025-8.924,3.945-8.941,8.86c-0.032,4.921,3.943,8.919,8.864,8.945 c4.917,0.016,8.925-3.94,8.948-8.864C504.51,142.684,500.539,138.682,495.619,138.66z"/></g><path fill="#8BC53F" d="M141.778,259.67c0,6.741-5.463,12.192-12.2,12.192c-6.741,0-12.208-5.451-12.208-12.192 c0-6.743,5.467-12.203,12.208-12.203C136.314,247.467,141.778,252.927,141.778,259.67z"/><g><path fill="#FDBC11" d="M75.786,308.296c-1.959-1.372-3.112-3.1-3.442-5.172c-0.333-2.082,0.232-4.166,1.698-6.267 c1.603-2.292,3.51-3.675,5.723-4.13c2.213-0.441,4.378,0.058,6.511,1.545c2.032,1.422,3.199,3.141,3.498,5.154 c0.301,2.016-0.32,4.127-1.86,6.333c-1.577,2.265-3.475,3.629-5.664,4.07C80.049,310.284,77.891,309.768,75.786,308.296z M105.644,308.35l-37.168,15.039l-4.687-3.26l37.129-15.072L105.644,308.35z M83.801,297.567 c-1.878-1.296-3.713-0.646-5.531,1.945c-1.714,2.463-1.682,4.317,0.103,5.554c1.816,1.275,3.62,0.633,5.404-1.938 C85.515,300.634,85.526,298.776,83.801,297.567z M83.201,334.226c-1.964-1.369-3.113-3.081-3.436-5.158 c-0.34-2.079,0.23-4.174,1.698-6.277c1.592-2.292,3.505-3.659,5.719-4.123c2.215-0.458,4.377,0.06,6.503,1.551 c2.051,1.419,3.226,3.141,3.533,5.133c0.293,2.008-0.323,4.105-1.857,6.313c-1.585,2.263-3.479,3.621-5.683,4.089 C87.471,336.21,85.313,335.706,83.201,334.226z M91.156,323.473c-1.858-1.289-3.688-0.644-5.506,1.955 c-1.714,2.461-1.671,4.317,0.133,5.581c1.821,1.271,3.628,0.622,5.415-1.941c0.823-1.2,1.229-2.282,1.195-3.28 C92.364,324.8,91.951,324.026,91.156,323.473z"/></g><g><path fill="#94A33A" d="M449.338,267.507l2.616,3.977l-2.68,1.751l-2.532-3.858c-2.491,1.628-5.167,2.57-8.037,2.868 l-3.339-5.073c1.085,0.106,2.487-0.061,4.222-0.494c1.724-0.43,3.159-0.973,4.308-1.632l-4.393-6.662 c-3.552,0.82-6.264,0.952-8.124,0.4c-1.852-0.552-3.366-1.727-4.548-3.514c-1.257-1.913-1.653-3.995-1.186-6.226 c0.462-2.244,1.747-4.21,3.839-5.907l-2.246-3.407l2.679-1.755l2.191,3.337c2.653-1.582,4.854-2.428,6.597-2.55l3.244,4.951 c-2.389,0.07-4.731,0.708-7.02,1.886l4.564,6.938c3.316-0.795,5.958-0.951,7.928-0.475c1.972,0.475,3.543,1.592,4.7,3.356 c1.336,2.023,1.763,4.088,1.28,6.175C452.925,263.683,451.57,265.658,449.338,267.507z M436.12,253.238l-3.815-5.809 c-1.505,1.418-1.759,2.868-0.801,4.33C432.329,253.018,433.867,253.509,436.12,253.238z M442.868,257.667l3.655,5.548 c1.571-1.411,1.859-2.856,0.894-4.338C446.634,257.683,445.113,257.278,442.868,257.667z"/></g><g><path fill="#FDBC11" d="M402.26,185.503l-5.861-2.453l-4.36,10.4l-9.824-4.119l4.353-10.398l-21.312-8.935l2.868-6.854 l33.803-23.056l10.611,4.445l-12.919,30.846l5.873,2.455L402.26,185.503z M398.33,151.255l-0.204-0.09 c-0.659,0.684-1.809,1.7-3.443,3.047l-17.277,11.855l12.381,5.188l6.451-15.386C396.814,154.509,397.502,152.968,398.33,151.255z"/></g></g></g><g><g><rect width="400.966" height="42.207" x="737.639" y="596.021" fill="#8CA5B4"/></g></g><g><g><rect width="21.104" height="84.414" x="322.231" y="866.12" fill="#A4BFCE"/></g></g><g><g><path fill="#8CA5B4" d="M406.646,982.189h-84.414c-5.827,0-10.552-4.725-10.552-10.552v-21.104 c0-5.827,4.725-10.552,10.552-10.552h24.806c4.536,0,9.043,0.732,13.347,2.166l49.597,16.532c4.31,1.436,7.215,5.468,7.215,10.009 v2.948C417.197,977.465,412.473,982.189,406.646,982.189z"/></g></g><g><g><rect width="21.104" height="84.414" x="237.817" y="866.12" fill="#A4BFCE"/></g></g><g><g><circle cx="-468.807" cy="356.098" r="42.207" fill="#8CA5B4"/></g></g><g><g><circle cx="-384.393" cy="356.098" r="42.207" fill="#8CA5B4"/></g></g><g><g><rect width="21.104" height="147.724" x="-189.5" y="589.354" fill="#A4BFCE"/></g></g><g><g><circle cx="-178.948" cy="568.251" r="31.655" fill="#B7D3E2"/></g></g><g><g><circle cx="-178.948" cy="568.251" r="10.552" fill="#A4BFCE"/></g></g><g><g><polygon fill="#8CA5B4" points="-168.396 673.769 -189.5 684.32 -189.5 663.217 -168.396 652.665"/></g></g><g><g><polygon fill="#8CA5B4" points="-168.396 631.562 -189.5 642.113 -189.5 621.01 -168.396 610.458"/></g></g><g><g><path fill="#8CA5B4" d="M-157.845,768.733c-5.833,0-10.552-4.719-10.552-10.552v-31.655c0-5.821-4.729-10.552-10.552-10.552 c-5.822,0-10.552,4.73-10.552,10.552v31.655c0,5.833-4.719,10.552-10.552,10.552s-10.552-4.719-10.552-10.552v-31.655 c0-17.455,14.2-31.654,31.655-31.654s31.655,14.199,31.655,31.654v31.655C-147.293,764.015-152.012,768.733-157.845,768.733z"/></g></g><g><g><rect width="21.104" height="147.723" x="1146.666" y="442.045" fill="#A4BFCE" transform="matrix(0.9665 0.2568 -0.2568 0.9665 171.3056 -279.8886)"/></g></g><g><g><circle cx="1128.053" cy="617.125" r="31.655" fill="#B7D3E2"/></g></g><g><g><circle cx="1128.053" cy="617.125" r="10.552" fill="#A4BFCE"/></g></g><g><g><polygon fill="#8CA5B4" points="1093.127 508.417 1075.439 492.8 1070.021 513.196 1087.707 528.813"/></g></g><g><g><polygon fill="#8CA5B4" points="1159.288 549.21 1141.602 533.592 1136.183 553.987 1153.869 569.605"/></g></g><g><g><path fill="#8CA5B4" d="M1086.919,408.508c5.636,1.498,8.985,7.271,7.488,12.907l-8.129,30.594 c-1.495,5.627,1.861,11.413,7.488,12.908c5.626,1.494,11.413-1.861,12.907-7.488l8.13-30.594c1.497-5.637,7.27-8.986,12.907-7.488 c5.636,1.498,8.985,7.27,7.487,12.908l-8.128,30.594c-4.482,16.869-21.854,26.946-38.723,22.464 c-16.871-4.483-26.948-21.853-22.466-38.722l8.13-30.594C1075.509,410.359,1081.281,407.011,1086.919,408.508z"/></g></g><g><g><path fill="#A4BFCE" d="M-342.186,377.201h-168.828c-17.483,0-31.655-14.172-31.655-31.654V208.374h232.138v137.173 C-310.531,363.029-324.704,377.201-342.186,377.201z"/></g></g><g><g><path fill="#CDE6F5" d="M412.115,758.183H179.977c-29.137,0-52.759-23.622-52.759-52.759V557.699 c0-29.137,23.622-52.758,52.759-52.758h232.139c29.137,0,52.758,23.621,52.758,52.758v147.725 C464.873,734.561,441.252,758.183,412.115,758.183z"/></g></g><g><g><path fill="#B7D3E2" d="M296.045,705.424c-62.791,0-120.964-14.735-168.828-39.785v39.785c0,29.137,23.622,52.759,52.759,52.759 h232.139c29.137,0,52.758-23.622,52.758-52.759v-39.785C417.01,690.688,358.836,705.424,296.045,705.424z"/></g></g><g><g><path fill="#7891A0" d="M227.459,652.666L227.459,652.666c-8.741,0-15.827-7.088-15.827-15.828v-21.104 c0-8.74,7.086-15.828,15.827-15.828l0,0c8.741,0,15.828,7.088,15.828,15.828v21.104 C243.287,645.578,236.2,652.666,227.459,652.666z"/></g></g><g><g><path fill="#7891A0" d="M364.631,652.666L364.631,652.666c-8.74,0-15.826-7.088-15.826-15.828v-21.104 c0-8.74,7.086-15.828,15.826-15.828l0,0c8.742,0,15.828,7.088,15.828,15.828v21.104 C380.459,645.578,373.373,652.666,364.631,652.666z"/></g></g><g><g><path fill="#A4BFCE" d="M296.045,705.424c-62.791,0-120.964-14.735-168.828-39.785v18.682 c47.864,25.05,106.037,39.785,168.828,39.785S417.01,709.37,464.873,684.32v-18.682 C417.01,690.688,358.836,705.424,296.045,705.424z"/></g></g><g><g><path fill="#A4BFCE" d="M215.09,525.705L215.09,525.705c-5.78,0.738-11.065-3.35-11.804-9.13l-5.348-41.867 c-0.738-5.78,3.35-11.065,9.13-11.804l0,0c5.78-0.738,11.065,3.35,11.804,9.13l5.348,41.867 C224.958,519.682,220.87,524.967,215.09,525.705z"/></g></g><g><g><circle cx="207.068" cy="462.904" r="21.104" fill="#B7D3E2"/></g></g><g><g><path fill="#A4BFCE" d="M196.601,464.241c-1.245-9.743,4.406-18.713,13.121-22.198c-1.738-0.222-3.509-0.305-5.328-0.072 c-11.56,1.477-19.736,12.045-18.259,23.607c1.477,11.561,12.046,19.736,23.607,18.26c1.819-0.232,3.512-0.759,5.139-1.408 C205.57,481.246,197.846,473.984,196.601,464.241z"/></g></g><g><g><path fill="#A4BFCE" d="M381.013,525.57L381.013,525.57c-5.652-1.413-9.089-7.143-7.676-12.796l10.239-40.946 c1.414-5.653,7.144-9.091,12.795-7.677l0,0c5.654,1.413,9.092,7.143,7.678,12.796l-10.238,40.946 C392.396,523.547,386.667,526.984,381.013,525.57z"/></g></g><g><g><circle cx="396.372" cy="464.151" r="21.104" fill="#B7D3E2"/></g></g><g><g><path fill="#A4BFCE" d="M386.136,461.592c2.383-9.529,10.906-15.831,20.292-15.91c-1.538-0.838-3.157-1.559-4.937-2.004 c-11.307-2.827-22.765,4.046-25.593,15.354c-2.827,11.307,4.047,22.766,15.354,25.593c1.779,0.445,3.548,0.57,5.299,0.556 C388.308,480.692,383.753,471.12,386.136,461.592z"/></g></g><g><g><circle cx="-426.6" cy="292.788" r="52.759" fill="#3467B4"/></g></g><g><g><circle cx="-426.6" cy="292.788" r="31.655" fill="#FFC855"/></g></g><g><g><path fill="#FFB44B" d="M-437.152,292.788c0-13.764,8.837-25.356,21.104-29.717c-3.315-1.179-6.832-1.938-10.552-1.938 c-17.483,0-31.655,14.172-31.655,31.655c0,17.482,14.172,31.655,31.655,31.655c3.72,0,7.236-0.76,10.552-1.939 C-428.315,318.143-437.152,306.55-437.152,292.788z"/></g></g><g><g><circle cx="-416.048" cy="282.236" r="10.552" fill="#FFF0BE"/></g></g><g><g><path fill="#8CA5B4" d="M-400.769,591.776h-63.311c-11.656,0-21.104-9.448-21.104-21.104l0,0h105.518l0,0 C-379.665,582.328-389.113,591.776-400.769,591.776z"/></g></g><g><g><path fill="#8CA5B4" d="M-342.186,313.891L-342.186,313.891c-5.827,0-10.552-4.725-10.552-10.552v-21.104 c0-5.827,4.725-10.552,10.552-10.552l0,0c5.827,0,10.552,4.725,10.552,10.552v21.104 C-331.634,309.167-336.359,313.891-342.186,313.891z"/></g></g><g><g><path fill="#00D2BE" d="M-342.186,292.788L-342.186,292.788c-5.827,0-10.552-4.725-10.552-10.552l0,0 c0-5.827,4.725-10.552,10.552-10.552l0,0c5.827,0,10.552,4.725,10.552,10.552l0,0 C-331.634,288.063-336.359,292.788-342.186,292.788z"/></g></g><g><g><path fill="#8CA5B4" d="M-511.014,313.891L-511.014,313.891c-5.828,0-10.552-4.725-10.552-10.552v-21.104 c0-5.827,4.724-10.552,10.552-10.552l0,0c5.827,0,10.551,4.725,10.551,10.552v21.104 C-500.462,309.167-505.187,313.891-511.014,313.891z"/></g></g><g><g><path fill="#E15050" d="M-511.014,292.788L-511.014,292.788c-5.828,0-10.552-4.725-10.552-10.552l0,0 c0-5.827,4.724-10.552,10.552-10.552l0,0c5.827,0,10.551,4.725,10.551,10.552l0,0 C-500.462,288.063-505.187,292.788-511.014,292.788z"/></g></g><g><g><path fill="#8CA5B4" d="M174.507,982.189h84.414c5.827,0,10.552-4.725,10.552-10.552v-21.104c0-5.827-4.725-10.552-10.552-10.552 h-24.806c-4.536,0-9.043,0.732-13.347,2.166l-49.597,16.532c-4.309,1.436-7.214,5.468-7.214,10.009v2.948 C163.956,977.465,168.68,982.189,174.507,982.189z"/></g></g><g><g><polygon fill="#3467B4" points="-369.911 332.362 -415.875 294.652 -426.148 313.084 -380.19 350.793"/></g></g><g><rect width="37.578" height="32.605" x="803.893" y="282.784" fill="#9DECD3"/><rect width="37.578" height="7.071" x="803.893" y="289.462" fill="#7BDBBF"/><rect width="37.578" height="7.071" x="803.893" y="299.676" fill="#7BDBBF"/></g><path fill="#78D6BB" d="M956.35,288.443c1.035-4.524,1.589-9.261,1.589-14.143c0-31.678-23.173-57.356-51.758-57.356	c-28.586,0-51.76,25.679-51.76,57.356c0,4.882,0.555,9.618,1.59,14.143H956.35z"/><path fill="#9DECD3" d="M1076.82,207.51h32.614c3.916,0,7.091-3.518,7.091-7.856v-45.759c-6.615-3.401-13.98-5.312-21.752-5.312	c-9.088,0-17.621,2.604-25.045,7.16v43.911C1069.729,203.993,1072.904,207.51,1076.82,207.51z"/><g><g><polygon fill="#78D6BB" points="1067.47 109.508 1060.322 114.241 1043.499 78.548 1046.626 76.478"/><path fill="#B62260" d="M1048.764,71.608c1.601,2.969,0.728,6.812-1.952,8.586c-2.678,1.773-6.146,0.806-7.748-2.162 c-1.6-2.969-0.727-6.813,1.952-8.586S1047.163,68.64,1048.764,71.608z"/></g><g><polygon fill="#78D6BB" points="1132.903 109.508 1140.05 114.241 1156.873 78.548 1153.745 76.478"/><path fill="#B62260" d="M1151.608,71.608c-1.6,2.969-0.729,6.812,1.951,8.586c2.68,1.773,6.148,0.806,7.748-2.162 c1.6-2.969,0.728-6.813-1.951-8.586C1156.677,67.672,1153.208,68.64,1151.608,71.608z"/></g></g><g><g><path fill="#FFF" d="M262.709,606.44c0.964,33.433-22.716,61.399-52.888,62.461c-30.168,1.076-55.406-25.166-56.37-58.598 c-0.964-33.434,22.712-61.398,52.884-62.469C236.508,546.766,261.75,573.005,262.709,606.44z"/><path fill="#221E1D" d="M243.589,607.115c0.628,21.729-14.762,39.909-34.376,40.602c-19.61,0.693-36.014-16.354-36.639-38.088 c-0.629-21.736,14.762-39.917,34.373-40.606C226.557,568.327,242.96,585.381,243.589,607.115z"/></g><path fill="#FFF" d="M228.484,604.619c0.135,5.014-3.411,9.211-7.939,9.372c-4.524,0.158-8.311-3.778-8.454-8.792 c-0.143-5.021,3.407-9.211,7.931-9.372C224.547,595.669,228.333,599.605,228.484,604.619z"/></g><g><g><path fill="#FFF" d="M929.569,113.173c0.25,8.674-5.894,15.931-13.722,16.207c-7.828,0.278-14.375-6.529-14.625-15.203 c-0.25-8.675,5.893-15.931,13.721-16.208S929.319,104.5,929.569,113.173z"/><path fill="#221E1D" d="M924.607,113.35c0.164,5.638-3.83,10.354-8.917,10.534c-5.088,0.181-9.345-4.245-9.507-9.883 c-0.162-5.637,3.83-10.354,8.918-10.534C920.189,103.286,924.446,107.711,924.607,113.35z"/></g><path fill="#FFF" d="M920.688,112.702c0.036,1.302-0.885,2.39-2.059,2.431c-1.173,0.042-2.156-0.979-2.192-2.281 c-0.039-1.302,0.883-2.39,2.057-2.431C919.668,110.38,920.65,111.401,920.688,112.702z"/></g><polygon fill="#B62260" points="1057.018 148.215 1050.637 164.715 1064.816 164.715"/><path fill="#221E1D" d="M1064.673,235.335c-0.387-0.997-1.428-1.46-2.328-1.031c-28.527,13.548-49.936,0.255-50.172,0.105	c-0.848-0.544-1.931-0.224-2.421,0.714c-0.491,0.938-0.203,2.14,0.643,2.685c0.615,0.396,10.519,6.599,25.907,6.599	c7.879,0,17.197-1.626,27.439-6.492C1064.642,237.488,1065.058,236.333,1064.673,235.335z"/><rect width="87.21" height="37.226" x="779.076" y="309.104" fill="#7BDBBF"/><rect width="49.633" height="20.725" x="797.156" y="325.604" fill="#9DECD3"/><ellipse cx="804.02" cy="336.604" fill="#FFF" rx="4.254" ry="4.713"/><ellipse cx="816.309" cy="336.604" fill="#FFF" rx="4.254" ry="4.713"/><ellipse cx="828.598" cy="336.604" fill="#FFF" rx="4.254" ry="4.713"/><ellipse cx="840.889" cy="336.604" fill="#FFF" rx="4.254" ry="4.713"/><g><path fill="#9DECD3" d="M878.133,346.329h18.331c-8.585-22.261-30.76-30.939-30.76-30.939v14.929 C872.73,334.92,876.492,340.479,878.133,346.329z"/></g><g><path fill="#9DECD3" d="M766.842,346.329c1.642-5.85,5.402-11.409,12.43-16.011V315.39c0,0-22.176,8.679-30.76,30.939H766.842z"/></g><g><g><path fill="#FFF" d="M426.067,608.354c0.935,32.382-22.002,59.475-51.227,60.502c-29.225,1.039-53.666-24.376-54.601-56.755 c-0.933-32.388,22-59.478,51.225-60.511C400.689,550.559,425.134,575.973,426.067,608.354z"/><path fill="#221E1D" d="M407.543,609.011c0.613,21.052-14.298,38.656-33.29,39.327c-18.993,0.675-34.886-15.848-35.491-36.899 c-0.604-21.043,14.299-38.653,33.294-39.323C391.05,571.44,406.941,587.959,407.543,609.011z"/></g><path fill="#FFF" d="M392.913,606.594c0.135,4.859-3.303,8.921-7.685,9.074c-4.38,0.153-8.052-3.656-8.186-8.517 c-0.146-4.856,3.296-8.917,7.678-9.071C389.104,597.924,392.771,601.733,392.913,606.594z"/></g></svg>