<svg xmlns="http://www.w3.org/2000/svg" xmlns:xlink="http://www.w3.org/1999/xlink" id="Layer_1" width="700" height="700" x="0" y="0" enable-background="new -17.578 46 700 700" version="1.1" viewBox="-17.578 46 700 700" xml:space="preserve"><g><g><rect width="400.965" height="42.207" x="105.517" y="385.448" fill="#8CA5B4"/></g></g><g><g><rect width="21.104" height="84.414" x="337.655" y="585.931" fill="#A4BFCE"/></g></g><g><g><path fill="#8CA5B4" d="M422.069,702h-84.414c-5.827,0-10.554-4.725-10.554-10.552v-21.104c0-5.827,4.727-10.552,10.554-10.552 h24.806c4.536,0,9.043,0.732,13.347,2.166l49.599,16.532c4.31,1.436,7.215,5.468,7.215,10.009v2.948 C432.621,697.275,427.896,702,422.069,702z"/></g></g><g><g><rect width="21.104" height="84.414" x="253.241" y="585.931" fill="#A4BFCE"/></g></g><g><g><circle cx="263.793" cy="554.276" r="42.207" fill="#8CA5B4"/></g></g><g><g><circle cx="348.207" cy="554.276" r="42.207" fill="#8CA5B4"/></g></g><g><g><rect width="21.104" height="147.724" x="105.517" y="427.655" fill="#A4BFCE"/></g></g><g><g><circle cx="116.069" cy="406.552" r="31.655" fill="#B7D3E2"/></g></g><g><g><circle cx="116.069" cy="406.552" r="10.552" fill="#A4BFCE"/></g></g><g><g><polygon fill="#8CA5B4" points="126.621 512.069 105.517 522.621 105.517 501.518 126.621 490.966"/></g></g><g><g><polygon fill="#8CA5B4" points="126.621 469.862 105.517 480.414 105.517 459.311 126.621 448.759"/></g></g><g><g><path fill="#8CA5B4" d="M137.172,607.034c-5.833,0-10.552-4.719-10.552-10.552v-31.655c0-5.821-4.729-10.552-10.552-10.552 c-5.822,0-10.552,4.729-10.552,10.552v31.655c0,5.833-4.719,10.552-10.552,10.552s-10.552-4.719-10.552-10.552v-31.655 c0-17.455,14.2-31.654,31.655-31.654s31.655,14.199,31.655,31.654v31.655C147.724,602.315,143.005,607.034,137.172,607.034z"/></g></g><g><g><rect width="21.106" height="147.734" x="514.549" y="231.461" fill="#A4BFCE" transform="matrix(0.9665 0.2568 -0.2568 0.9665 96.0049 -124.594)"/></g></g><g><g><circle cx="495.931" cy="406.552" r="31.655" fill="#B7D3E2"/></g></g><g><g><circle cx="495.931" cy="406.552" r="10.552" fill="#A4BFCE"/></g></g><g><g><polygon fill="#8CA5B4" points="538.005 297.844 520.317 282.227 514.898 302.623 532.585 318.241"/></g></g><g><g><polygon fill="#8CA5B4" points="527.166 338.636 509.479 323.019 504.061 343.415 521.747 359.032"/></g></g><g><g><path fill="#8CA5B4" d="M531.797,197.935c5.636,1.498,8.985,7.271,7.488,12.908l-8.129,30.594 c-1.495,5.626,1.859,11.413,7.486,12.908c5.626,1.494,11.413-1.862,12.907-7.488l8.13-30.594 c1.497-5.637,7.271-8.986,12.907-7.488s8.985,7.27,7.487,12.908l-8.128,30.594c-4.482,16.87-21.854,26.947-38.725,22.464 c-16.871-4.483-26.948-21.853-22.466-38.722l8.13-30.594C520.387,199.786,526.159,196.438,531.797,197.935z"/></g></g><g><g><path fill="#A4BFCE" d="M390.414,575.379H221.586c-17.483,0-31.655-14.172-31.655-31.654V406.552h232.138v137.173 C422.069,561.207,407.896,575.379,390.414,575.379z"/></g></g><g><g><g><path fill="#B7D3E2" d="M422.069,406.552H189.931c-29.137,0-52.759-23.622-52.759-52.759V206.069 c0-29.137,23.622-52.758,52.759-52.758h232.138c29.137,0,52.758,23.621,52.758,52.758v147.724 C474.827,382.93,451.206,406.552,422.069,406.552z"/></g></g><g><g><path fill="#B7D3E2" d="M306,353.793c-62.791,0-120.964-14.735-168.828-39.785v39.785c0,29.137,23.622,52.759,52.759,52.759 h232.138c29.137,0,52.758-23.622,52.758-52.759v-39.785C426.964,339.058,368.791,353.793,306,353.793z"/></g></g><g><g><path fill="#7891A0" d="M237.414,301.035L237.414,301.035c-8.741,0-15.827-7.087-15.827-15.828v-21.104 c0-8.741,7.086-15.828,15.827-15.828l0,0c8.741,0,15.828,7.087,15.828,15.828v21.104 C253.241,293.948,246.155,301.035,237.414,301.035z"/></g></g><g><g><path fill="#7891A0" d="M374.586,301.035L374.586,301.035c-8.74,0-15.827-7.087-15.827-15.828v-21.104 c0-8.741,7.087-15.828,15.827-15.828l0,0c8.741,0,15.828,7.087,15.828,15.828v21.104 C390.414,293.948,383.327,301.035,374.586,301.035z"/></g></g><g><g><path fill="#8CA5B4" d="M311.256,357.377c-15.339,0-29.55-12.725-41.243-34.358v16.134 c11.693,21.633,25.904,34.358,41.243,34.358s29.551-12.726,41.244-34.358v-16.134 C340.807,344.652,326.595,357.377,311.256,357.377z"/></g></g><g><g><path fill="#A4BFCE" d="M242.689,174.414L242.689,174.414c-5.827,0-10.552-4.725-10.552-10.552v-42.207 c0-5.827,4.725-10.552,10.552-10.552l0,0c5.827,0,10.552,4.725,10.552,10.552v42.207 C253.241,169.689,248.517,174.414,242.689,174.414z"/></g></g><g><g><circle cx="242.689" cy="111.104" r="21.104" fill="#B7D3E2"/></g></g><g><g><path fill="#A4BFCE" d="M232.138,111.104c0-9.822,6.742-18.004,15.828-20.357c-1.696-0.44-3.443-0.747-5.277-0.747 c-11.654,0-21.103,9.448-21.103,21.104c0,11.654,9.449,21.104,21.103,21.104c1.833,0,3.58-0.308,5.276-0.747 C238.879,129.107,232.138,120.926,232.138,111.104z"/></g></g><g><g><path fill="#A4BFCE" d="M369.311,174.414L369.311,174.414c-5.825,0-10.552-4.725-10.552-10.552v-42.207 c0-5.827,4.727-10.552,10.552-10.552l0,0c5.827,0,10.554,4.725,10.554,10.552v42.207 C379.862,169.689,375.138,174.414,369.311,174.414z"/></g></g><g><g><circle cx="369.311" cy="111.104" r="21.104" fill="#B7D3E2"/></g></g><g><g><path fill="#A4BFCE" d="M358.759,111.104c0-9.822,6.741-18.004,15.827-20.357c-1.696-0.44-3.442-0.747-5.275-0.747 c-11.652,0-21.104,9.448-21.104,21.104c0,11.654,9.449,21.104,21.104,21.104c1.833,0,3.579-0.308,5.275-0.747 C365.5,129.107,358.759,120.926,358.759,111.104z"/></g></g></g><g><g><circle cx="306" cy="490.966" r="52.759" fill="#3467B4"/></g></g><g><g><circle cx="306" cy="490.966" r="31.655" fill="#FFC855"/></g></g><g><g><path fill="#FFB44B" d="M295.448,490.966c0-13.764,8.837-25.354,21.104-29.717c-3.313-1.179-6.832-1.938-10.552-1.938 c-17.483,0-31.655,14.174-31.655,31.655c0,17.482,14.172,31.655,31.655,31.655c3.72,0,7.236-0.76,10.552-1.939 C304.285,516.321,295.448,504.729,295.448,490.966z"/></g></g><g><g><circle cx="316.552" cy="480.414" r="10.552" fill="#FFF0BE"/></g></g><g><g><path fill="#8CA5B4" d="M337.655,427.655h-63.313c-11.656,0-21.104-9.448-21.104-21.104l0,0h105.518l0,0 C358.759,418.207,349.311,427.655,337.655,427.655z"/></g></g><g><g><path fill="#8CA5B4" d="M390.414,512.069L390.414,512.069c-5.827,0-10.552-4.727-10.552-10.554v-21.104 c0-5.827,4.725-10.552,10.552-10.552l0,0c5.827,0,10.552,4.725,10.552,10.552v21.104 C400.966,507.345,396.241,512.069,390.414,512.069z"/></g></g><g><g><path fill="#00D2BE" d="M390.414,490.966L390.414,490.966c-5.827,0-10.552-4.725-10.552-10.552l0,0 c0-5.827,4.725-10.552,10.552-10.552l0,0c5.827,0,10.552,4.725,10.552,10.552l0,0 C400.966,486.241,396.241,490.966,390.414,490.966z"/></g></g><g><g><path fill="#8CA5B4" d="M221.586,512.069L221.586,512.069c-5.828,0-10.552-4.727-10.552-10.554v-21.104 c0-5.827,4.724-10.552,10.552-10.552l0,0c5.827,0,10.551,4.725,10.551,10.552v21.104 C232.138,507.345,227.414,512.069,221.586,512.069z"/></g></g><g><g><path fill="#E15050" d="M221.586,490.966L221.586,490.966c-5.828,0-10.552-4.725-10.552-10.552l0,0 c0-5.827,4.724-10.552,10.552-10.552l0,0c5.827,0,10.551,4.725,10.551,10.552l0,0 C232.138,486.241,227.414,490.966,221.586,490.966z"/></g></g><g><g><path fill="#8CA5B4" d="M189.931,702h84.414c5.827,0,10.552-4.725,10.552-10.552v-21.104c0-5.827-4.725-10.552-10.552-10.552 h-24.806c-4.536,0-9.043,0.732-13.347,2.166l-49.597,16.532c-4.309,1.436-7.214,5.468-7.214,10.009v2.948 C179.379,697.275,184.104,702,189.931,702z"/></g></g><g><g><polygon fill="#3467B4" points="362.689 530.54 316.726 492.83 306.452 511.263 352.41 548.972"/></g></g><g><g><path fill="#FFF" d="M286.486,251.892c1.003,34.776-23.628,63.866-55.011,64.969c-31.381,1.12-57.632-26.177-58.634-60.951 c-1.002-34.776,23.624-63.864,55.008-64.977C259.232,189.82,285.489,217.113,286.486,251.892z"/><path fill="#221E1D" d="M266.596,252.593c0.655,22.604-15.354,41.513-35.756,42.233c-20.398,0.721-37.46-17.011-38.11-39.618 c-0.654-22.609,15.355-41.521,35.753-42.237C248.881,212.248,265.943,229.986,266.596,252.593z"/></g><path fill="#FFF" d="M250.886,249.997c0.14,5.215-3.547,9.582-8.257,9.749c-4.706,0.164-8.645-3.931-8.794-9.146 c-0.148-5.223,3.544-9.581,8.25-9.749C246.79,240.688,250.729,244.782,250.886,249.997z"/></g><g><g><path fill="#FFF" d="M439.893,250.602c1.033,35.84-24.352,65.819-56.693,66.957c-32.34,1.154-59.396-26.978-60.426-62.815 c-1.035-35.84,24.345-65.818,56.688-66.965S438.865,214.76,439.893,250.602z"/><path fill="#221E1D" d="M419.396,251.325c0.674,23.294-15.825,42.782-36.852,43.524c-21.021,0.743-38.605-17.531-39.277-40.829 c-0.672-23.301,15.826-42.791,36.85-43.529C401.138,209.746,418.722,228.027,419.396,251.325z"/></g><path fill="#FFF" d="M403.204,248.65c0.144,5.375-3.656,9.874-8.511,10.047c-4.851,0.169-8.909-4.051-9.063-9.425 c-0.153-5.383,3.652-9.874,8.502-10.046C398.981,239.055,403.042,243.276,403.204,248.65z"/></g></svg>