<svg xmlns="http://www.w3.org/2000/svg" xmlns:xlink="http://www.w3.org/1999/xlink" id="Capa_1" x="0" y="0" enable-background="new 0 0 53 53" version="1.1" viewBox="0 0 53 53" xml:space="preserve"><g><path fill="#F2ECBF" d="M17,32c0,5.247,4.253,9,9.5,9s9.5-3.753,9.5-9h11.475l-1.997-5.042 C41.865,18.742,40,11.214,40,2.239V0H12v3.5c0,8.158-1.542,14.896-4.544,22.482L5.273,32H17z"/><g><path fill="#298430" d="M42.283,17.896c0.84,3.088,1.901,6.119,3.195,9.062L47.475,32H52L42.283,17.896z"/><path fill="#298430" d="M9.648,19.393L1,32h4.273l2.184-6.018C8.31,23.824,9.032,21.622,9.648,19.393z"/></g><path fill="#BAB395" d="M32,6H21c-0.553,0-1-0.448-1-1s0.447-1,1-1h11c0.553,0,1,0.448,1,1S32.553,6,32,6z"/><path fill="#BAB395" d="M36,13H17c-0.553,0-1-0.448-1-1s0.447-1,1-1h19c0.553,0,1,0.448,1,1S36.553,13,36,13z"/><path fill="#BAB395" d="M38,20H15c-0.553,0-1-0.448-1-1s0.447-1,1-1h23c0.553,0,1,0.448,1,1S38.553,20,38,20z"/><path fill="#BAB395" d="M40,26H13c-0.553,0-1-0.448-1-1s0.447-1,1-1h27c0.553,0,1,0.448,1,1S40.553,26,40,26z"/><path fill="#BAB395" d="M30,36h-7c-0.553,0-1-0.448-1-1s0.447-1,1-1h7c0.553,0,1,0.448,1,1S30.553,36,30,36z"/><path fill="#BAB395" d="M32,31H21c-0.553,0-1-0.448-1-1s0.447-1,1-1h11c0.553,0,1,0.448,1,1S32.553,31,32,31z"/><path fill="#4DC95B" d="M47.475,32H36c0,5.247-4.253,9-9.5,9S17,37.247,17,32H5.273H1v21h51V32H47.475z"/></g></svg>