<svg xmlns="http://www.w3.org/2000/svg" xmlns:xlink="http://www.w3.org/1999/xlink" id="Capa_1" width="600" height="600" x="0" y="0" enable-background="new 96 96 600 600" version="1.1" viewBox="96 96 600 600" xml:space="preserve"><g><circle cx="404.127" cy="396" r="249.658" fill="#FBD971"/><path fill="#F29C1F" d="M249.577,377.988c-3.043,0-6.086-1.164-8.405-3.483c-4.649-4.647-4.649-12.162,0-16.811l100.875-100.874 c4.647-4.648,12.161-4.648,16.81,0c4.648,4.649,4.648,12.162,0,16.811L257.982,374.506 C255.664,376.836,252.621,377.988,249.577,377.988z"/><path fill="#F29C1F" d="M350.451,377.988c-3.043,0-6.086-1.164-8.405-3.483L241.172,273.632c-4.648-4.648-4.648-12.162,0-16.81 s12.161-4.648,16.81,0l100.875,100.874c4.648,4.648,4.648,12.162,0,16.811C356.537,376.836,353.494,377.988,350.451,377.988z"/><path fill="#F29C1F" d="M457.804,377.988c-3.044,0-6.087-1.164-8.405-3.483c-4.648-4.647-4.648-12.162,0-16.811l100.874-100.874 c4.648-4.648,12.162-4.648,16.811,0c4.647,4.649,4.647,12.162,0,16.811L466.209,374.506 C463.879,376.836,460.848,377.988,457.804,377.988z"/><path fill="#F29C1F" d="M558.678,377.988c-3.043,0-6.088-1.164-8.405-3.483L449.398,273.632c-4.648-4.648-4.648-12.162,0-16.81 c4.647-4.648,12.161-4.648,16.811,0l100.873,100.874c4.647,4.648,4.647,12.162,0,16.811 C564.764,376.836,561.721,377.988,558.678,377.988z"/><g><path fill="#FB7B76" d="M404.127,455.442v92.742c0,26.154,21.399,47.554,47.555,47.554h11.888c26.154,0,47.553-21.4,47.553-47.554 v-92.742C490.818,455.692,425.669,455.442,404.127,455.442z"/></g><path fill="#E64C3C" d="M458.018,534.036c-6.574,0-11.888-5.313-11.888-11.888v-1.961c0.012-30.459-0.844-49.277-2.557-56.055 c-2.318-2.152-3.781-5.254-3.781-8.689c0-6.575,5.315-11.888,11.89-11.888c15.348,0,16.501,19.865,17.428,35.819 c0.809,13.944,0.797,30.125,0.797,40.837v1.949C469.906,528.724,464.592,534.036,458.018,534.036z"/><path fill="#F0C419" d="M523.012,467.331H261.466c-6.575,0-11.889-5.314-11.889-11.888c0-6.575,5.314-11.888,11.889-11.888h261.546 c6.575,0,11.889,5.313,11.889,11.888C534.9,462.017,529.586,467.331,523.012,467.331z"/></g></svg>