<svg xmlns="http://www.w3.org/2000/svg" xmlns:xlink="http://www.w3.org/1999/xlink" id="Layer_1" width="600" height="600" x="0" y="0" enable-background="new 0 0 600 600" version="1.1" viewBox="0 0 600 600" xml:space="preserve"><path fill="#E2574C" d="M239.249,408.468v-43.49l-106.342,34.174c0,0,7.725-51.775,63.17-69.894	c16.815-5.178,31.356-5.178,43.173-2.591V147.529h53.171c-5.91-20.19-11.363-36.241-15.907-47.114	c-7.727-18.122-15.906-6.212-33.629,11.391c-12.727,11.909-44.991,38.314-93.618,52.81c-48.627,15.015-87.709,10.873-104.07,7.765	c-23.176-4.659-35.446-10.355-34.083,9.838c0.911,17.603,4.545,45.045,13.181,81.804c18.178,78.696,78.62,230.394,193.143,195.187	c29.993-9.318,51.353-27.439,65.896-50.739L239.249,408.468L239.249,408.468z M67.92,265.055l81.347-24.333	c0,0-2.272,35.723-32.721,45.044C86.098,294.565,67.92,265.055,67.92,265.055z"/><path fill="#EFC75E" d="M546.913,151.153c-21.813,4.142-73.621,9.837-137.699-9.837c-64.077-19.675-106.797-53.845-123.611-69.896	c-24.086-22.78-34.538-38.314-44.536-14.497c-9.09,21.228-20.906,55.399-32.267,103.546	c-24.542,104.066-42.72,323.586,108.613,369.666c151.79,46.078,232.226-154.285,256.766-258.351	c11.362-48.15,16.36-84.392,17.725-107.691C593.723,137.173,577.818,144.94,546.913,151.153z M242.431,237.615	c0,0,24.085-42.972,64.986-29.51c40.9,13.461,44.083,64.717,44.083,64.717L242.431,237.615z M341.502,426.589	c-71.351-23.814-82.255-88.533-82.255-88.533l191.323,60.576C450.57,399.148,411.94,449.886,341.502,426.589z M410.577,294.565	c0,0,23.177-42.452,62.262-29.51c39.082,13.46,42.264,64.719,42.264,64.719L410.577,294.565z"/><path fill="#DCB757" d="M346.956,428.144l-5.454-1.555c-71.351-23.814-82.255-88.533-82.255-88.533l100.89,32.098l51.804-228.321	c-0.907-0.517-1.816-0.517-2.725-0.517c-64.077-19.674-106.797-53.847-123.611-69.896c-24.086-22.78-34.538-38.313-44.536-14.497	c-9.089,21.229-20.906,55.398-32.267,103.547c-23.632,99.923-41.354,305.983,91.8,363.451l22.722,7.768L346.956,428.144	L346.956,428.144z M242.431,237.615c0,0,24.085-42.972,64.986-29.51c40.9,13.461,44.083,64.717,44.083,64.717L242.431,237.615z"/><path fill="#D05046" d="M201.529,377.404l-68.624,22.263c0,0,7.272-48.669,57.715-67.82l-39.083-167.232	c-0.91,0.519-1.818,0.519-3.181,1.037c-48.627,15.015-87.708,10.873-104.069,7.767c-23.177-4.661-35.448-10.355-34.085,9.837	c0.91,17.603,4.544,45.043,13.18,81.805c19.088,77.658,79.529,229.358,194.051,194.151l2.728-1.037	C220.163,458.171,201.529,377.404,201.529,377.404z M67.92,265.055l81.347-24.333c0,0-2.272,35.723-32.721,45.044	C86.098,294.565,67.92,265.055,67.92,265.055z"/></svg>