<svg xmlns="http://www.w3.org/2000/svg" xmlns:xlink="http://www.w3.org/1999/xlink" id="Capa_1" width="600" height="600" x="0" y="0" enable-background="new 6 96 600 600" version="1.1" viewBox="6 96 600 600" xml:space="preserve"><g id="XMLID_80_"><rect id="XMLID_115_" width="569.911" height="325.663" x="20.589" y="273.551" fill="#56B46F"/><polygon id="XMLID_114_" fill="#74BE86" points="549.793 273.551 40.942 273.551 40.942 232.843"/><path id="XMLID_79_" fill="#4D8157" d="M437.845,436.383c0,73.071-59.23,132.301-132.3,132.301 c-73.071,0-132.301-59.229-132.301-132.301c0-73.071,59.23-132.301,132.301-132.301 C378.614,304.082,437.845,363.312,437.845,436.383"/><path id="XMLID_112_" fill="#EAEAD7" d="M235.262,548.329c-37.207-23.416-62.019-64.735-62.019-111.946 c0-47.211,24.812-88.53,62.019-111.947H132.281c0.153,1.68,0.254,3.369,0.254,5.089c0,30.917-25.066,55.973-55.974,55.973 c-1.72,0-3.409-0.102-5.088-0.254v102.279c1.679-0.153,3.368-0.255,5.088-0.255c30.908,0,55.974,25.056,55.974,55.974 c0,1.72-0.102,3.409-0.254,5.088H235.262z"/><path id="XMLID_111_" fill="#EAEAD7" d="M534.526,385.498c-30.918,0-55.973-25.056-55.973-55.973c0-1.72,0.102-3.409,0.254-5.089 H375.826c37.208,23.417,62.019,64.736,62.019,111.947c0,47.211-24.811,88.53-62.019,111.946h102.981 c-0.152-1.679-0.254-3.368-0.254-5.088c0-30.918,25.055-55.974,55.973-55.974c1.721,0,3.409,0.102,5.089,0.255V385.243 C537.936,385.396,536.247,385.498,534.526,385.498"/><path id="XMLID_110_" fill="#EAEAD7" d="M76.562,354.966c-14.034,0-25.442-11.408-25.442-25.442 c0-14.035,11.409-25.442,25.442-25.442c14.034,0,25.443,11.408,25.443,25.442C102.005,343.558,90.596,354.966,76.562,354.966"/><path id="XMLID_109_" fill="#EAEAD7" d="M534.526,354.966c-14.034,0-25.442-11.408-25.442-25.442 c0-14.035,11.408-25.442,25.442-25.442s25.441,11.408,25.441,25.442C559.968,343.558,548.561,354.966,534.526,354.966"/><path id="XMLID_108_" fill="#EAEAD7" d="M76.562,568.684c-14.034,0-25.442-11.409-25.442-25.442 c0-14.034,11.409-25.443,25.442-25.443c14.034,0,25.443,11.409,25.443,25.443C102.005,557.274,90.596,568.684,76.562,568.684"/><path id="XMLID_107_" fill="#EAEAD7" d="M534.526,568.684c-14.034,0-25.442-11.409-25.442-25.442 c0-14.034,11.408-25.443,25.442-25.443s25.441,11.409,25.441,25.443C559.968,557.274,548.561,568.684,534.526,568.684"/><polygon id="XMLID_106_" fill="#83C38E" points="71.474 192.135 71.474 235.285 549.793 273.551 580.322 273.551"/><path id="XMLID_105_" fill="#EAEAD7" d="M362.21,467.168c7.226-2.238,12.538-8.914,12.538-16.854v-8.854 c0-6.788-3.907-12.649-9.546-15.621c-3.908-33.32-25.932-46.805-61.337-46.805c-1.669,0-3.317,0.061-4.926,0.193 c-12.04,0.957-24.211-1.303-34.215-8.05c-4.163-2.809-7.663-5.781-10.126-8.915c-1.129-1.424-3.379-0.519-3.165,1.292 c0.356,3.094,0.875,6.717,1.669,10.666c2.921,14.706,1.17,12.558-4.519,26.44c-3.145,7.673-5.17,16.19-6.117,25.208 c-5.597,2.991-9.485,8.823-9.485,15.591v8.854c0,7.939,5.323,14.615,12.538,16.854c4.793,17.932,14.635,32.271,31.763,39.649 v10.147c0,2.594-1.476,4.955-3.796,6.105l-34.205,16.853c-2.961,1.608-5.404,3.816-7.582,6.248 c21.086,14.209,46.499,22.513,73.844,22.513c26.329,0,50.803-7.786,71.412-21.046c-2.534-3.074-5.72-5.638-9.424-7.491 l-33.37-17.056c-2.279-1.16-3.715-3.501-3.715-6.056v-10.218C347.575,499.439,357.417,485.1,362.21,467.168"/></g></svg>