<svg xmlns="http://www.w3.org/2000/svg" xmlns:xlink="http://www.w3.org/1999/xlink" id="Layer_1" width="600" height="600" x="0" y="0" enable-background="new 6 96 600 600" version="1.1" viewBox="6 96 600 600" xml:space="preserve"><rect width="32.558" height="48.5" x="317.211" y="198.288" fill="#FFBCAB"/><rect width="32.558" height="26.866" x="317.211" y="198.288" fill="#FF9478"/><g><path fill="#FFBCAB" d="M367.822,246.786l59.841,66.275l57.916-38.48l3.214,5.24c7.508,12.245,3.978,28.236-7.991,36.179 l-40.996,27.208c-9.444,6.18-21.968,4.649-29.645-3.623l-46.398-51.051L367.822,246.786z"/><path fill="#FFBCAB" d="M291.449,578.42l33.869-153.772L270.631,445l-16.612,100.151c-0.27,1.628-1.677,2.821-3.328,2.821h-90.709 l-10.147,33.36l128.022,7.381C284.3,589.087,290.061,584.724,291.449,578.42z"/></g><path fill="#9CE0B8" d="M119.271,628.913v-81.027h42.009l-20.008,70.832c-2.176,7.445-9.002,10.195-16.759,10.195H119.271z"/><path fill="#781900" d="M374.974,120.119c-5.232-8.451-14.589-14.114-25.205-14.114h-28.411c-16.293,0-29.625,13.331-29.625,29.625	v23.988C341.288,157.806,365.81,132.618,374.974,120.119z"/><path fill="#FFBCAB" d="M291.732,159.617v24.224c0,16.293,13.331,29.625,29.625,29.625h28.411c16.293,0,29.625-13.331,29.625-29.625	v-48.21c0-5.675-1.623-10.99-4.419-15.51C365.81,132.618,341.288,157.806,291.732,159.617z"/><path fill="#9CE0B8" d="M439.135,685.999h-81.027v-42.008l69.017,20.168c7.117,2.08,12.011,8.607,12.011,16.023V685.999	L439.135,685.999z"/><path fill="#FFBCAB" d="M389.104,653.8l-30.996-9.809V530.502l2.755,4.496l-64.753-110.566l56.7-16.89l44.837,107.021	c0.784,1.872,1.118,3.903,0.974,5.927L389.104,653.8z"/><path fill="#52A2E7" d="M376.92,465.087l-24.109-57.546l17.719-150.44c0.843-8.423-5.36-16.003-13.784-16.845l-48.966-4.893	l-18.924,32.573l-8.481,72.177l-4.137,38.104c-18.188,18.188-20.047,46.507-5.604,66.781l-0.003,0.001l-8.779,52.925	c12.694,0.069,33.895,0.165,47.298,0.134l8.22-37.326l19.775,33.767L376.92,465.087z"/><g><path fill="#315591" d="M285.453,296.889c0.047-0.395-4.188,35.636-4.188,35.636l78.952,12.133l4.376-37.153L285.453,296.889z"/></g><g opacity=".46"><path fill="#24763D" d="M358.14,677.092V686h81.027v-5.817c0-1.052-0.107-2.084-0.297-3.091H358.14z"/></g><g opacity=".46"><path fill="#24763D" d="M128.18,547.887h-8.908v81.027h5.816c1.053,0,2.086-0.109,3.092-0.298V547.887z"/></g><path fill="#FFBCAB" d="M305.936,267.383l-73.213,2.364l-8.027,69.072l-6.021-0.922c-14.229-2.18-24.178-15.233-22.508-29.531	l5.698-48.816c1.381-11.201,10.638-19.774,21.911-20.294l80.858-3.947c8.961-0.438,16.54,6.554,16.826,15.521l0,0	C321.742,259.686,314.793,267.096,305.936,267.383z"/><polygon fill="#315591" points="306.151 441.578 309.98 494.276 317.384 460.666"/></svg>