<svg xmlns="http://www.w3.org/2000/svg" xmlns:xlink="http://www.w3.org/1999/xlink" width="24" height="24" x="0" y="0" enable-background="new 0 0 24 24" version="1.1" viewBox="0 0 24 24" xml:space="preserve"><g id="Header"><g><rect width="1400" height="3600" x="-618" y="-1592" fill="none"/></g></g><g id="Icon"><g><rect width="24" height="24" fill="none"/><path d="M12,4.5C7,4.5,2.7,7.6,1,12c1.7,4.4,6,7.5,11,7.5c5,0,9.3-3.1,11-7.5C21.3,7.6,17,4.5,12,4.5z M12,17c-2.8,0-5-2.2-5-5 s2.2-5,5-5c2.8,0,5,2.2,5,5S14.8,17,12,17z M12,9c-1.7,0-3,1.3-3,3s1.3,3,3,3c1.7,0,3-1.3,3-3S13.7,9,12,9z"/></g></g></svg>