<svg xmlns="http://www.w3.org/2000/svg" viewBox="-10 -10 120 120"><defs><filter id="shadow" width="200%" height="200%" x="-50%" y="-50%"><feOffset dx="0" dy="0" in="SourceAlpha" result="offOut"/><feGaussianBlur in="offOut" result="blurOut" stdDeviation="3"/><feComponentTransfer in="blurOut" result="opacityOut"><feFuncA slope=".5" type="linear"/></feComponentTransfer><feBlend in="SourceGraphic" in2="opacityOut" mode="normal"/></filter></defs><path fill="#000" d="M 5 18.25 L 50 2.25 L 96 18 L 88.5 77 L 50 98.25 L 12 77.25 Z" class="outline" filter="url(#shadow)"/><path fill="#de3641" d="M 5 18.25 L 50 2.25 L 50 98.25 L 12 77.25 Z" class="left"/><path fill="#b13138" d="M 50 2.25 L 96 18 L 88.5 77 L 50 98.25 Z" class="right"/><path fill="#fff" d="M 50 13 L 79.25 75.5 L 69.25 75.5 L 63 61.25 L 50 61.25 L 50 52.75 L 59.5 52.75 L 50 33.1 L 42 52.75 L 50 52.75 L 50 61.25 L 38.1 61.25 L 32.5 75.5 L 21.75 75.5 Z" class="letter"/></svg>