<svg xmlns="http://www.w3.org/2000/svg" xmlns:xlink="http://www.w3.org/1999/xlink" width="24" height="24" x="0" y="0" enable-background="new 0 0 24 24" version="1.1" viewBox="0 0 24 24" xml:space="preserve"><g id="Header"><g><rect width="1400" height="3600" x="-618" y="-2616" fill="none"/></g></g><g id="Icon"><g><g><rect width="24" height="24" fill="none"/></g><path d="M16,11c1.7,0,3-1.3,3-3c0-1.7-1.3-3-3-3c-1.7,0-3,1.3-3,3C13,9.7,14.3,11,16,11z M8,11c1.7,0,3-1.3,3-3c0-1.7-1.3-3-3-3 C6.3,5,5,6.3,5,8C5,9.7,6.3,11,8,11z M8,13c-2.3,0-7,1.2-7,3.5V19h14v-2.5C15,14.2,10.3,13,8,13z M16,13c-0.3,0-0.6,0-1,0.1 c1.2,0.8,2,2,2,3.4V19h6v-2.5C23,14.2,18.3,13,16,13z"/></g></g></svg>