<svg width="1200" height="630" viewBox="0 0 1200 630" xmlns="http://www.w3.org/2000/svg"><mask id="satori_om-id"><rect x="0" y="0" width="1200" height="630" fill="#fff"/></mask><rect x="0" y="0" width="1200" height="630" fill="white"/><mask id="satori_om-id-0"><rect x="42" y="42" width="164" height="24" fill="#fff"/></mask><mask id="satori_om-id-0-0"><rect x="42" y="42" width="24" height="24" fill="#fff"/></mask><rect x="42" y="42" width="24" height="24" fill="black"/><mask id="satori_om-id-0-1"><rect x="74" y="42" width="132" height="24" fill="#fff"/></mask><path fill="black" d="M80.6 60.7L77.4 60.7L74.4 49.8L77.5 49.8L79.1 57.1L79.2 57.1L81.0 49.8L84.0 49.8L85.8 57.1L85.9 57.1L87.6 49.8L90.6 49.8L87.6 60.7L84.4 60.7L82.6 53.9L82.4 53.9L80.6 60.7ZM94.9 60.7L91.9 60.7L91.9 49.8L94.9 49.8L94.9 60.7ZM93.4 48.4L93.4 48.4Q92.7 48.4 92.3 48.0Q91.8 47.5 91.8 46.9L91.8 46.9Q91.8 46.2 92.3 45.8Q92.7 45.3 93.4 45.3L93.4 45.3Q94.1 45.3 94.6 45.8Q95.0 46.2 95.0 46.9L95.0 46.9Q95.0 47.5 94.6 48.0Q94.1 48.4 93.4 48.4ZM106.1 52.9L106.1 52.9L103.3 53.1Q103.2 52.7 103.0 52.4Q102.8 52.2 102.4 52.0Q102.0 51.8 101.5 51.8L101.5 51.8Q100.8 51.8 100.3 52.1Q99.8 52.4 99.8 52.9L99.8 52.9Q99.8 53.3 100.1 53.6Q100.4 53.8 101.2 54.0L101.2 54.0L103.2 54.4Q104.8 54.7 105.6 55.4Q106.3 56.2 106.3 57.3L106.3 57.3Q106.3 58.4 105.7 59.2Q105.1 60.0 104.0 60.5Q102.9 60.9 101.5 60.9L101.5 60.9Q99.3 60.9 98.0 60.0Q96.7 59.1 96.5 57.6L96.5 57.6L99.5 57.4Q99.6 58.1 100.2 58.4Q100.7 58.8 101.5 58.8L101.5 58.8Q102.3 58.8 102.8 58.4Q103.3 58.1 103.3 57.6L103.3 57.6Q103.3 57.2 102.9 57.0Q102.6 56.7 101.9 56.6L101.9 56.6L100.0 56.2Q98.4 55.9 97.6 55.1Q96.8 54.3 96.8 53.1L96.8 53.1Q96.8 52.0 97.4 51.3Q98.0 50.5 99.0 50.1Q100.0 49.7 101.4 49.7L101.4 49.7Q103.5 49.7 104.7 50.5Q105.9 51.4 106.1 52.9ZM111.0 54.4L111.0 54.4L111.0 60.7L107.9 60.7L107.9 46.2L110.9 46.2L110.9 51.7L111.0 51.7Q111.4 50.8 112.2 50.2Q113.0 49.7 114.3 49.7L114.3 49.7Q115.4 49.7 116.2 50.2Q117.1 50.7 117.6 51.6Q118.0 52.5 118.0 53.8L118.0 53.8L118.0 60.7L115.0 60.7L115.0 54.3Q115.0 53.3 114.5 52.7Q114.0 52.2 113.1 52.2L113.1 52.2Q112.4 52.2 112.0 52.4Q111.5 52.7 111.2 53.2Q111.0 53.7 111.0 54.4ZM125.0 60.9L125.0 60.9Q123.4 60.9 122.2 60.2Q121.0 59.5 120.3 58.3Q119.7 57.0 119.7 55.3L119.7 55.3Q119.7 53.6 120.3 52.4Q121.0 51.1 122.2 50.4Q123.4 49.7 125.0 49.7L125.0 49.7Q126.7 49.7 127.9 50.4Q129.1 51.1 129.7 52.4Q130.4 53.6 130.4 55.3L130.4 55.3Q130.4 57.0 129.7 58.3Q129.1 59.5 127.9 60.2Q126.7 60.9 125.0 60.9ZM125.0 58.6L125.0 58.6Q125.8 58.6 126.3 58.2Q126.8 57.7 127.1 57.0Q127.3 56.2 127.3 55.3L127.3 55.3Q127.3 54.3 127.1 53.6Q126.8 52.8 126.3 52.4Q125.8 52.0 125.0 52.0L125.0 52.0Q124.3 52.0 123.8 52.4Q123.2 52.8 123.0 53.6Q122.7 54.3 122.7 55.3L122.7 55.3Q122.7 56.2 123.0 57.0Q123.2 57.7 123.8 58.2Q124.3 58.6 125.0 58.6ZM135.1 54.4L135.1 54.4L135.1 60.7L132.0 60.7L132.0 49.8L134.9 49.8L134.9 51.7L135.1 51.7Q135.4 50.8 136.3 50.2Q137.1 49.7 138.3 49.7L138.3 49.7Q139.5 49.7 140.3 50.2Q141.2 50.7 141.6 51.6Q142.1 52.5 142.1 53.8L142.1 53.8L142.1 60.7L139.1 60.7L139.1 54.3Q139.1 53.3 138.6 52.7Q138.0 52.2 137.1 52.2L137.1 52.2Q136.5 52.2 136.1 52.4Q135.6 52.7 135.3 53.2Q135.1 53.7 135.1 54.4ZM147.2 60.7L144.2 60.7L144.2 49.8L147.2 49.8L147.2 60.7ZM145.7 48.4L145.7 48.4Q145.0 48.4 144.5 48.0Q144.0 47.5 144.0 46.9L144.0 46.9Q144.0 46.2 144.5 45.8Q145.0 45.3 145.7 45.3L145.7 45.3Q146.4 45.3 146.8 45.8Q147.3 46.2 147.3 46.9L147.3 46.9Q147.3 47.5 146.8 48.0Q146.4 48.4 145.7 48.4ZM152.4 60.9L152.4 60.9Q151.3 60.9 150.5 60.6Q149.7 60.2 149.2 59.5Q148.8 58.8 148.8 57.7L148.8 57.7Q148.8 56.8 149.1 56.1Q149.4 55.5 150.0 55.2Q150.6 54.8 151.3 54.6Q152.1 54.4 152.9 54.3L152.9 54.3Q153.8 54.2 154.4 54.1Q155.0 54.0 155.2 53.9Q155.5 53.7 155.5 53.3L155.5 53.3L155.5 53.3Q155.5 52.6 155.1 52.2Q154.7 51.9 153.9 51.9L153.9 51.9Q153.1 51.9 152.6 52.2Q152.1 52.6 152.0 53.1L152.0 53.1L149.2 52.9Q149.4 51.9 150.0 51.2Q150.6 50.5 151.6 50.1Q152.6 49.7 153.9 49.7L153.9 49.7Q154.8 49.7 155.6 49.9Q156.5 50.1 157.1 50.5Q157.8 51.0 158.2 51.7Q158.5 52.4 158.5 53.4L158.5 53.4L158.5 60.7L155.7 60.7L155.7 59.2L155.6 59.2Q155.3 59.7 154.9 60.1Q154.4 60.5 153.8 60.7Q153.2 60.9 152.4 60.9ZM153.3 58.8L153.3 58.8Q153.9 58.8 154.4 58.6Q154.9 58.3 155.2 57.9Q155.5 57.4 155.5 56.8L155.5 56.8L155.5 55.7Q155.4 55.8 155.1 55.8Q154.9 55.9 154.6 56.0Q154.3 56.0 154.0 56.1Q153.7 56.1 153.4 56.2L153.4 56.2Q152.9 56.2 152.5 56.4Q152.1 56.6 151.9 56.9Q151.7 57.1 151.7 57.6L151.7 57.6Q151.7 58.2 152.1 58.5Q152.6 58.8 153.3 58.8ZM162.3 60.9L162.3 60.9Q161.6 60.9 161.1 60.4Q160.6 59.9 160.6 59.2L160.6 59.2Q160.6 58.5 161.1 58.0Q161.6 57.5 162.3 57.5L162.3 57.5Q163.0 57.5 163.5 58.0Q164.0 58.5 164.0 59.2L164.0 59.2Q164.0 59.7 163.8 60.1Q163.6 60.4 163.2 60.7Q162.8 60.9 162.3 60.9ZM166.2 46.2L169.2 46.2L169.2 60.7L166.2 60.7L166.2 46.2ZM176.2 60.9L176.2 60.9Q174.6 60.9 173.4 60.2Q172.2 59.5 171.5 58.3Q170.9 57.0 170.9 55.3L170.9 55.3Q170.9 53.6 171.5 52.4Q172.2 51.1 173.4 50.4Q174.6 49.7 176.2 49.7L176.2 49.7Q177.9 49.7 179.1 50.4Q180.3 51.1 181.0 52.4Q181.6 53.6 181.6 55.3L181.6 55.3Q181.6 57.0 181.0 58.3Q180.3 59.5 179.1 60.2Q177.9 60.9 176.2 60.9ZM176.3 58.6L176.3 58.6Q177.0 58.6 177.5 58.2Q178.0 57.7 178.3 57.0Q178.5 56.2 178.5 55.3L178.5 55.3Q178.5 54.3 178.3 53.6Q178.0 52.8 177.5 52.4Q177.0 52.0 176.3 52.0L176.3 52.0Q175.5 52.0 175.0 52.4Q174.5 52.8 174.2 53.6Q174.0 54.3 174.0 55.3L174.0 55.3Q174.0 56.2 174.2 57.0Q174.5 57.7 175.0 58.2Q175.5 58.6 176.3 58.6ZM189.9 49.8L193.1 49.8L189.3 60.7L185.9 60.7L182.0 49.8L185.2 49.8L187.5 57.6L187.6 57.6L189.9 49.8ZM198.9 60.9L198.9 60.9Q197.2 60.9 196.0 60.2Q194.8 59.6 194.2 58.3Q193.5 57.0 193.5 55.3L193.5 55.3Q193.5 53.6 194.2 52.4Q194.8 51.1 196.0 50.4Q197.2 49.7 198.8 49.7L198.8 49.7Q199.9 49.7 200.8 50.0Q201.7 50.4 202.4 51.0Q203.1 51.7 203.5 52.8Q203.9 53.8 203.9 55.2L203.9 55.2L203.9 56.0L194.7 56.0L194.7 54.2L201.1 54.2Q201.1 53.5 200.8 53.0Q200.5 52.5 200.0 52.2Q199.5 51.9 198.8 51.9L198.8 51.9Q198.2 51.9 197.6 52.2Q197.1 52.6 196.8 53.1Q196.5 53.6 196.5 54.3L196.5 54.3L196.5 56.0Q196.5 56.9 196.8 57.4Q197.1 58.0 197.7 58.4Q198.2 58.7 199.0 58.7L199.0 58.7Q199.5 58.7 199.9 58.5Q200.3 58.4 200.6 58.1Q200.9 57.8 201.1 57.4L201.1 57.4L203.9 57.6Q203.6 58.6 203.0 59.4Q202.3 60.1 201.3 60.5Q200.3 60.9 198.9 60.9Z "/><mask id="satori_om-id-1"><rect x="325" y="210" width="550" height="210" fill="#fff"/></mask><rect x="325" y="210" width="550" height="210" fill="black"/><path fill="white" d="M430.2 242.4L437.0 242.4L444.1 264.5L444.3 264.5L451.4 242.4L458.2 242.4L448.2 271.5L440.2 271.5L430.2 242.4ZM468.6 271.9L468.6 271.9Q465.3 271.9 462.9 270.5Q460.5 269.1 459.2 266.5Q457.9 264.0 457.9 260.7L457.9 260.7Q457.9 257.3 459.2 254.7Q460.5 252.2 462.9 250.8Q465.3 249.4 468.6 249.4L468.6 249.4Q471.9 249.4 474.3 250.8Q476.8 252.2 478.1 254.7Q479.4 257.3 479.4 260.7L479.4 260.7Q479.4 264.0 478.1 266.5Q476.8 269.1 474.3 270.5Q471.9 271.9 468.6 271.9ZM468.7 267.2L468.7 267.2Q470.2 267.2 471.2 266.4Q472.2 265.5 472.7 264.0Q473.2 262.5 473.2 260.6L473.2 260.6Q473.2 258.7 472.7 257.2Q472.2 255.7 471.2 254.9Q470.2 254.0 468.7 254.0L468.7 254.0Q467.1 254.0 466.1 254.9Q465.1 255.7 464.6 257.2Q464.0 258.7 464.0 260.6L464.0 260.6Q464.0 262.5 464.6 264.0Q465.1 265.5 466.1 266.4Q467.1 267.2 468.7 267.2ZM481.5 249.7L494.6 249.7L494.6 254.2L481.5 254.2L481.5 249.7ZM484.4 265.6L484.4 244.4L490.5 244.4L490.5 264.8Q490.5 265.6 490.8 266.1Q491.0 266.5 491.5 266.7Q491.9 266.9 492.5 266.9L492.5 266.9Q493.0 266.9 493.4 266.8Q493.8 266.7 494.1 266.7L494.1 266.7L495.0 271.2Q494.5 271.3 493.7 271.5Q492.9 271.7 491.7 271.8L491.7 271.8Q489.5 271.9 487.9 271.2Q486.3 270.5 485.3 269.1Q484.4 267.7 484.4 265.6L484.4 265.6ZM507.9 271.9L507.9 271.9Q504.6 271.9 502.1 270.5Q499.7 269.2 498.4 266.6Q497.1 264.1 497.1 260.7L497.1 260.7Q497.1 257.3 498.4 254.8Q499.7 252.2 502.1 250.8Q504.5 249.4 507.7 249.4L507.7 249.4Q509.9 249.4 511.7 250.1Q513.6 250.7 515.0 252.1Q516.4 253.5 517.2 255.6Q517.9 257.7 517.9 260.5L517.9 260.5L517.9 262.1L499.5 262.1L499.5 258.4L512.3 258.4Q512.3 257.1 511.7 256.0Q511.1 255.0 510.1 254.5Q509.1 253.9 507.8 253.9L507.8 253.9Q506.4 253.9 505.4 254.5Q504.3 255.2 503.7 256.2Q503.1 257.3 503.1 258.6L503.1 258.6L503.1 262.1Q503.1 263.7 503.7 264.9Q504.3 266.1 505.4 266.7Q506.5 267.4 508.0 267.4L508.0 267.4Q509.0 267.4 509.9 267.1Q510.7 266.8 511.3 266.2Q511.9 265.7 512.2 264.9L512.2 264.9L517.8 265.2Q517.4 267.2 516.1 268.7Q514.8 270.2 512.7 271.1Q510.6 271.9 507.9 271.9Z M539.3 271.5L533.2 271.5L533.2 249.7L539.3 249.7L539.3 271.5ZM536.3 246.8L536.3 246.8Q534.9 246.8 534.0 245.9Q533.0 245.0 533.0 243.8L533.0 243.8Q533.0 242.5 534.0 241.6Q534.9 240.7 536.3 240.7L536.3 240.7Q537.6 240.7 538.6 241.6Q539.6 242.5 539.6 243.8L539.6 243.8Q539.6 245.0 538.6 245.9Q537.6 246.8 536.3 246.8ZM549.9 258.9L549.9 258.9L549.9 271.5L543.8 271.5L543.8 249.7L549.6 249.7L549.6 253.5L549.8 253.5Q550.6 251.6 552.3 250.5Q554.0 249.4 556.4 249.4L556.4 249.4Q558.7 249.4 560.4 250.4Q562.0 251.4 563.0 253.2Q563.9 255.0 563.9 257.6L563.9 257.6L563.9 271.5L557.9 271.5L557.9 258.7Q557.9 256.7 556.8 255.5Q555.8 254.4 554.0 254.4L554.0 254.4Q552.8 254.4 551.8 254.9Q550.9 255.5 550.4 256.5Q549.9 257.5 549.9 258.9Z M575.8 249.7L588.9 249.7L588.9 254.2L575.8 254.2L575.8 249.7ZM578.8 265.6L578.8 244.4L584.8 244.4L584.8 264.8Q584.8 265.6 585.1 266.1Q585.3 266.5 585.8 266.7Q586.3 266.9 586.9 266.9L586.9 266.9Q587.3 266.9 587.7 266.8Q588.1 266.7 588.4 266.7L588.4 266.7L589.3 271.2Q588.9 271.3 588.0 271.5Q587.2 271.7 586.0 271.8L586.0 271.8Q583.8 271.9 582.2 271.2Q580.6 270.5 579.7 269.1Q578.8 267.7 578.8 265.6L578.8 265.6ZM599.0 258.9L599.0 258.9L599.0 271.5L593.0 271.5L593.0 242.4L598.9 242.4L598.9 253.5L599.1 253.5Q599.9 251.6 601.5 250.5Q603.2 249.4 605.6 249.4L605.6 249.4Q607.9 249.4 609.6 250.4Q611.3 251.3 612.3 253.2Q613.2 255.0 613.2 257.6L613.2 257.6L613.2 271.5L607.1 271.5L607.1 258.7Q607.2 256.6 606.1 255.5Q605.1 254.4 603.2 254.4L603.2 254.4Q602.0 254.4 601.1 254.9Q600.1 255.5 599.6 256.5Q599.1 257.5 599.0 258.9ZM627.6 271.9L627.6 271.9Q624.2 271.9 621.8 270.5Q619.4 269.2 618.1 266.6Q616.8 264.1 616.8 260.7L616.8 260.7Q616.8 257.3 618.1 254.8Q619.4 252.2 621.8 250.8Q624.1 249.4 627.3 249.4L627.3 249.4Q629.5 249.4 631.4 250.1Q633.2 250.7 634.6 252.1Q636.0 253.5 636.8 255.6Q637.6 257.7 637.6 260.5L637.6 260.5L637.6 262.1L619.2 262.1L619.2 258.4L631.9 258.4Q631.9 257.1 631.3 256.0Q630.8 255.0 629.8 254.5Q628.8 253.9 627.4 253.9L627.4 253.9Q626.1 253.9 625.0 254.5Q623.9 255.2 623.4 256.2Q622.8 257.3 622.7 258.6L622.7 258.6L622.7 262.1Q622.7 263.7 623.3 264.9Q623.9 266.1 625.1 266.7Q626.2 267.4 627.7 267.4L627.7 267.4Q628.7 267.4 629.5 267.1Q630.4 266.8 631.0 266.2Q631.6 265.7 631.9 264.9L631.9 264.9L637.5 265.2Q637.0 267.2 635.7 268.7Q634.4 270.2 632.4 271.1Q630.3 271.9 627.6 271.9Z M675.4 251.8L669.1 251.8Q668.8 250.7 668.3 249.9Q667.8 249.1 667.0 248.6Q666.2 248.0 665.2 247.7Q664.2 247.4 663.0 247.4L663.0 247.4Q660.8 247.4 659.1 248.5Q657.4 249.6 656.5 251.8Q655.6 253.9 655.6 256.9L655.6 256.9Q655.6 259.9 656.5 262.1Q657.4 264.2 659.1 265.3Q660.8 266.4 663.1 266.4L663.1 266.4Q665.2 266.4 666.7 265.7Q668.2 264.9 668.9 263.6Q669.7 262.2 669.7 260.4L669.7 260.4L671.0 260.5L663.5 260.5L663.5 255.9L675.7 255.9L675.7 259.6Q675.7 263.4 674.0 266.2Q672.4 268.9 669.6 270.4Q666.7 271.9 663.1 271.9L663.1 271.9Q659.0 271.9 655.9 270.1Q652.8 268.2 651.1 264.9Q649.3 261.6 649.3 257.0L649.3 257.0Q649.3 253.4 650.4 250.6Q651.4 247.9 653.3 245.9Q655.1 244.0 657.6 243.0Q660.1 242.0 662.9 242.0L662.9 242.0Q665.4 242.0 667.5 242.7Q669.7 243.4 671.3 244.7Q673.0 246.0 674.0 247.8Q675.1 249.6 675.4 251.8L675.4 251.8ZM679.8 242.4L685.9 242.4L685.9 271.5L679.8 271.5L679.8 242.4ZM700.3 271.9L700.3 271.9Q696.9 271.9 694.5 270.5Q692.1 269.1 690.8 266.5Q689.5 264.0 689.5 260.7L689.5 260.7Q689.5 257.3 690.8 254.7Q692.1 252.2 694.5 250.8Q696.9 249.4 700.3 249.4L700.3 249.4Q703.6 249.4 706.0 250.8Q708.4 252.2 709.7 254.7Q711.0 257.3 711.0 260.7L711.0 260.7Q711.0 264.0 709.7 266.5Q708.4 269.1 706.0 270.5Q703.6 271.9 700.3 271.9ZM700.3 267.2L700.3 267.2Q701.8 267.2 702.8 266.4Q703.8 265.5 704.3 264.0Q704.8 262.5 704.8 260.6L704.8 260.6Q704.8 258.7 704.3 257.2Q703.8 255.7 702.8 254.9Q701.8 254.0 700.3 254.0L700.3 254.0Q698.8 254.0 697.7 254.9Q696.7 255.7 696.2 257.2Q695.7 258.7 695.7 260.6L695.7 260.6Q695.7 262.5 696.2 264.0Q696.7 265.5 697.7 266.4Q698.8 267.2 700.3 267.2ZM720.7 271.5L714.7 271.5L714.7 242.4L720.8 242.4L720.8 253.3L721.0 253.3Q721.4 252.4 722.1 251.5Q722.9 250.6 724.1 250.0Q725.3 249.4 727.2 249.4L727.2 249.4Q729.6 249.4 731.6 250.6Q733.6 251.9 734.8 254.4Q736.0 256.8 736.0 260.6L736.0 260.6Q736.0 264.2 734.8 266.8Q733.7 269.3 731.7 270.5Q729.6 271.8 727.2 271.8L727.2 271.8Q725.4 271.8 724.2 271.2Q722.9 270.7 722.2 269.8Q721.4 268.9 721.0 268.0L721.0 268.0L720.7 268.0L720.7 271.5ZM720.7 260.6L720.7 260.6Q720.7 262.5 721.2 264.0Q721.7 265.4 722.8 266.2Q723.8 267.0 725.2 267.0L725.2 267.0Q726.7 267.0 727.7 266.2Q728.8 265.4 729.3 263.9Q729.8 262.5 729.8 260.6L729.8 260.6Q729.8 258.7 729.3 257.2Q728.8 255.8 727.8 255.0Q726.7 254.2 725.2 254.2L725.2 254.2Q723.8 254.2 722.8 255.0Q721.7 255.7 721.2 257.2Q720.7 258.6 720.7 260.6ZM745.9 271.9L745.9 271.9Q743.8 271.9 742.2 271.2Q740.6 270.4 739.6 269.0Q738.7 267.5 738.7 265.4L738.7 265.4Q738.7 263.6 739.4 262.3Q740.0 261.1 741.2 260.3Q742.3 259.6 743.8 259.2Q745.3 258.8 746.9 258.7L746.9 258.7Q748.8 258.5 750.0 258.3Q751.1 258.1 751.6 257.8Q752.2 257.4 752.2 256.7L752.2 256.7L752.2 256.6Q752.2 255.3 751.3 254.5Q750.5 253.8 748.9 253.8L748.9 253.8Q747.3 253.8 746.3 254.5Q745.4 255.2 745.1 256.3L745.1 256.3L739.5 255.8Q739.9 253.9 741.1 252.4Q742.4 250.9 744.4 250.2Q746.3 249.4 749.0 249.4L749.0 249.4Q750.8 249.4 752.4 249.8Q754.1 250.2 755.4 251.1Q756.7 252.0 757.5 253.4Q758.2 254.8 758.2 256.8L758.2 256.8L758.2 271.5L752.5 271.5L752.5 268.4L752.3 268.4Q751.8 269.5 750.9 270.2Q750.0 271.0 748.8 271.5Q747.6 271.9 745.9 271.9ZM747.7 267.7L747.7 267.7Q749.0 267.7 750.0 267.2Q751.0 266.6 751.6 265.7Q752.2 264.8 752.2 263.7L752.2 263.7L752.2 261.4Q751.9 261.5 751.4 261.7Q750.9 261.8 750.3 262.0Q749.7 262.1 749.1 262.2Q748.5 262.3 748.0 262.3L748.0 262.3Q746.9 262.5 746.1 262.8Q745.4 263.2 744.9 263.8Q744.5 264.3 744.5 265.2L744.5 265.2Q744.5 266.4 745.4 267.1Q746.3 267.7 747.7 267.7ZM762.6 242.4L768.7 242.4L768.7 271.5L762.6 271.5L762.6 242.4Z M416.2 328.0L410.1 328.0L410.1 298.9L421.6 298.9Q424.9 298.9 427.2 300.0Q429.5 301.2 430.8 303.3Q432.0 305.5 432.0 308.4L432.0 308.4Q432.0 311.3 430.7 313.3Q429.5 315.4 427.1 316.5Q424.8 317.6 421.4 317.6L421.4 317.6L413.7 317.6L413.7 312.7L420.4 312.7Q422.2 312.7 423.3 312.2Q424.5 311.7 425.1 310.8Q425.6 309.8 425.6 308.4L425.6 308.4Q425.6 306.9 425.1 305.9Q424.5 304.9 423.3 304.4Q422.2 303.9 420.4 303.9L420.4 303.9L416.2 303.9L416.2 328.0ZM419.2 314.7L425.8 314.7L433.0 328.0L426.2 328.0L419.2 314.7ZM445.5 328.4L445.5 328.4Q442.1 328.4 439.7 327.0Q437.3 325.6 436.0 323.1Q434.6 320.6 434.6 317.1L434.6 317.1Q434.6 313.8 436.0 311.2Q437.3 308.7 439.6 307.3Q442.0 305.8 445.2 305.8L445.2 305.8Q447.4 305.8 449.3 306.5Q451.1 307.2 452.5 308.6Q453.9 310.0 454.7 312.1Q455.5 314.1 455.5 316.9L455.5 316.9L455.5 318.6L437.1 318.6L437.1 314.8L449.8 314.8Q449.8 313.5 449.2 312.5Q448.6 311.5 447.6 310.9Q446.6 310.4 445.3 310.4L445.3 310.4Q443.9 310.4 442.9 311.0Q441.8 311.6 441.2 312.7Q440.6 313.7 440.6 315.0L440.6 315.0L440.6 318.6Q440.6 320.2 441.2 321.4Q441.8 322.6 442.9 323.2Q444.0 323.9 445.6 323.9L445.6 323.9Q446.6 323.9 447.4 323.6Q448.3 323.3 448.8 322.7Q449.4 322.2 449.8 321.3L449.8 321.3L455.4 321.7Q454.9 323.7 453.6 325.2Q452.3 326.7 450.2 327.5Q448.2 328.4 445.5 328.4ZM457.4 306.1L470.8 306.1L470.8 310.7L457.4 310.7L457.4 306.1ZM466.5 328.0L460.5 328.0L460.5 304.6Q460.5 302.2 461.4 300.6Q462.3 299.1 463.9 298.3Q465.6 297.5 467.6 297.5L467.6 297.5Q469.0 297.5 470.2 297.7Q471.3 297.9 471.9 298.1L471.9 298.1L470.8 302.6Q470.5 302.5 469.9 302.4Q469.4 302.3 468.9 302.3L468.9 302.3Q467.5 302.3 467.0 302.9Q466.5 303.6 466.5 304.7L466.5 304.7L466.5 328.0ZM483.4 328.4L483.4 328.4Q480.0 328.4 477.6 327.0Q475.2 325.6 473.9 323.1Q472.6 320.6 472.6 317.1L472.6 317.1Q472.6 313.8 473.9 311.2Q475.2 308.7 477.6 307.3Q479.9 305.8 483.2 305.8L483.2 305.8Q485.3 305.8 487.2 306.5Q489.0 307.2 490.4 308.6Q491.8 310.0 492.6 312.1Q493.4 314.1 493.4 316.9L493.4 316.9L493.4 318.6L475.0 318.6L475.0 314.8L487.7 314.8Q487.7 313.5 487.1 312.5Q486.6 311.5 485.6 310.9Q484.6 310.4 483.3 310.4L483.3 310.4Q481.9 310.4 480.8 311.0Q479.8 311.6 479.2 312.7Q478.6 313.7 478.5 315.0L478.5 315.0L478.5 318.6Q478.5 320.2 479.2 321.4Q479.8 322.6 480.9 323.2Q482.0 323.9 483.5 323.9L483.5 323.9Q484.5 323.9 485.3 323.6Q486.2 323.3 486.8 322.7Q487.4 322.2 487.7 321.3L487.7 321.3L493.3 321.7Q492.9 323.7 491.5 325.2Q490.2 326.7 488.2 327.5Q486.1 328.4 483.4 328.4ZM503.1 328.0L497.0 328.0L497.0 306.1L502.9 306.1L502.9 309.9L503.1 309.9Q503.7 307.9 505.1 306.9Q506.5 305.8 508.4 305.8L508.4 305.8Q508.8 305.8 509.4 305.9Q509.9 305.9 510.3 306.0L510.3 306.0L510.3 311.4Q509.8 311.3 509.1 311.2Q508.3 311.1 507.7 311.1L507.7 311.1Q506.4 311.1 505.3 311.7Q504.3 312.2 503.7 313.2Q503.1 314.3 503.1 315.6L503.1 315.6L503.1 328.0ZM522.0 328.4L522.0 328.4Q518.6 328.4 516.2 327.0Q513.8 325.6 512.5 323.1Q511.2 320.6 511.2 317.1L511.2 317.1Q511.2 313.8 512.5 311.2Q513.8 308.7 516.2 307.3Q518.5 305.8 521.7 305.8L521.7 305.8Q523.9 305.8 525.8 306.5Q527.6 307.2 529.0 308.6Q530.4 310.0 531.2 312.1Q532.0 314.1 532.0 316.9L532.0 316.9L532.0 318.6L513.6 318.6L513.6 314.8L526.3 314.8Q526.3 313.5 525.7 312.5Q525.2 311.5 524.2 310.9Q523.2 310.4 521.8 310.4L521.8 310.4Q520.5 310.4 519.4 311.0Q518.4 311.6 517.8 312.7Q517.2 313.7 517.1 315.0L517.1 315.0L517.1 318.6Q517.1 320.2 517.7 321.4Q518.4 322.6 519.5 323.2Q520.6 323.9 522.1 323.9L522.1 323.9Q523.1 323.9 523.9 323.6Q524.8 323.3 525.4 322.7Q526.0 322.2 526.3 321.3L526.3 321.3L531.9 321.7Q531.4 323.7 530.1 325.2Q528.8 326.7 526.8 327.5Q524.7 328.4 522.0 328.4ZM541.7 315.3L541.7 315.3L541.7 328.0L535.6 328.0L535.6 306.1L541.4 306.1L541.4 310.0L541.7 310.0Q542.4 308.1 544.1 307.0Q545.8 305.8 548.2 305.8L548.2 305.8Q550.5 305.8 552.2 306.8Q553.9 307.8 554.8 309.7Q555.7 311.5 555.7 314.1L555.7 314.1L555.7 328.0L549.7 328.0L549.7 315.1Q549.7 313.1 548.7 312.0Q547.6 310.9 545.8 310.9L545.8 310.9Q544.6 310.9 543.7 311.4Q542.7 311.9 542.2 312.9Q541.7 313.9 541.7 315.3ZM568.2 328.3L568.2 328.3Q565.7 328.3 563.7 327.0Q561.7 325.7 560.5 323.2Q559.4 320.7 559.4 317.1L559.4 317.1Q559.4 313.3 560.6 310.8Q561.8 308.3 563.8 307.1Q565.8 305.8 568.2 305.8L568.2 305.8Q570.0 305.8 571.3 306.5Q572.5 307.1 573.3 308.0Q574.0 308.9 574.4 309.8L574.4 309.8L574.6 309.8L574.6 298.9L580.6 298.9L580.6 328.0L574.7 328.0L574.7 324.5L574.4 324.5Q574.0 325.4 573.2 326.3Q572.4 327.1 571.2 327.7Q570.0 328.3 568.2 328.3ZM570.1 323.5L570.1 323.5Q571.6 323.5 572.6 322.7Q573.6 321.9 574.2 320.4Q574.7 319.0 574.7 317.0L574.7 317.0Q574.7 315.1 574.2 313.7Q573.6 312.2 572.6 311.4Q571.6 310.7 570.1 310.7L570.1 310.7Q568.6 310.7 567.6 311.5Q566.6 312.3 566.1 313.7Q565.6 315.2 565.6 317.0L565.6 317.0Q565.6 318.9 566.1 320.4Q566.6 321.9 567.6 322.7Q568.6 323.5 570.1 323.5ZM599.3 318.7L599.3 318.7L599.3 306.1L605.3 306.1L605.3 328.0L599.5 328.0L599.5 324.0L599.3 324.0Q598.5 325.9 596.8 327.1Q595.1 328.2 592.7 328.2L592.7 328.2Q590.5 328.2 588.8 327.2Q587.1 326.2 586.2 324.4Q585.3 322.6 585.3 320.0L585.3 320.0L585.3 306.1L591.3 306.1L591.3 318.9Q591.3 320.9 592.4 322.0Q593.4 323.1 595.1 323.1L595.1 323.1Q596.2 323.1 597.1 322.6Q598.1 322.1 598.7 321.1Q599.3 320.1 599.3 318.7ZM615.9 328.0L609.8 328.0L609.8 306.1L615.6 306.1L615.6 310.0L615.8 310.0Q616.5 308.1 618.1 307.0Q619.7 305.8 621.9 305.8L621.9 305.8Q624.2 305.8 625.7 307.0Q627.3 308.1 627.9 310.0L627.9 310.0L628.1 310.0Q628.7 308.1 630.5 307.0Q632.3 305.8 634.7 305.8L634.7 305.8Q637.7 305.8 639.6 307.8Q641.5 309.7 641.5 313.3L641.5 313.3L641.5 328.0L635.5 328.0L635.5 314.5Q635.5 312.7 634.5 311.7Q633.6 310.8 632.1 310.8L632.1 310.8Q630.5 310.8 629.5 311.9Q628.6 312.9 628.6 314.6L628.6 314.6L628.6 328.0L622.8 328.0L622.8 314.3Q622.8 312.7 621.8 311.8Q620.9 310.8 619.4 310.8L619.4 310.8Q618.4 310.8 617.6 311.3Q616.8 311.8 616.3 312.7Q615.9 313.6 615.9 314.9L615.9 314.9L615.9 328.0Z M667.0 328.4L667.0 328.4Q663.6 328.4 661.2 327.0Q658.8 325.6 657.5 323.0Q656.2 320.5 656.2 317.1L656.2 317.1Q656.2 313.7 657.5 311.2Q658.8 308.7 661.2 307.3Q663.6 305.8 667.0 305.8L667.0 305.8Q670.3 305.8 672.7 307.3Q675.1 308.7 676.4 311.2Q677.7 313.7 677.7 317.1L677.7 317.1Q677.7 320.5 676.4 323.0Q675.1 325.6 672.7 327.0Q670.3 328.4 667.0 328.4ZM667.0 323.7L667.0 323.7Q668.5 323.7 669.5 322.8Q670.5 322.0 671.0 320.5Q671.5 319.0 671.5 317.1L671.5 317.1Q671.5 315.2 671.0 313.7Q670.5 312.2 669.5 311.3Q668.5 310.5 667.0 310.5L667.0 310.5Q665.5 310.5 664.4 311.3Q663.4 312.2 662.9 313.7Q662.4 315.2 662.4 317.1L662.4 317.1Q662.4 319.0 662.9 320.5Q663.4 322.0 664.4 322.8Q665.5 323.7 667.0 323.7ZM687.4 315.3L687.4 315.3L687.4 328.0L681.3 328.0L681.3 306.1L687.1 306.1L687.1 310.0L687.3 310.0Q688.1 308.1 689.8 307.0Q691.5 305.8 693.9 305.8L693.9 305.8Q696.2 305.8 697.9 306.8Q699.6 307.8 700.5 309.7Q701.4 311.5 701.4 314.1L701.4 314.1L701.4 328.0L695.4 328.0L695.4 315.1Q695.4 313.1 694.4 312.0Q693.3 310.9 691.5 310.9L691.5 310.9Q690.3 310.9 689.4 311.4Q688.4 311.9 687.9 312.9Q687.4 313.9 687.4 315.3Z M727.5 328.0L721.5 328.0L713.2 298.9L719.9 298.9L724.7 319.1L724.9 319.1L730.3 298.9L736.0 298.9L741.3 319.1L741.6 319.1L746.4 298.9L753.1 298.9L744.8 328.0L738.8 328.0L733.2 308.9L733.0 308.9L727.5 328.0ZM759.8 328.4L759.8 328.4Q757.7 328.4 756.1 327.6Q754.5 326.9 753.5 325.5Q752.6 324.0 752.6 321.9L752.6 321.9Q752.6 320.0 753.2 318.8Q753.9 317.6 755.1 316.8Q756.2 316.1 757.7 315.7Q759.1 315.3 760.8 315.1L760.8 315.1Q762.7 314.9 763.8 314.8Q765.0 314.6 765.5 314.2Q766.0 313.9 766.0 313.2L766.0 313.2L766.0 313.1Q766.0 311.7 765.2 311.0Q764.4 310.3 762.8 310.3L762.8 310.3Q761.2 310.3 760.2 311.0Q759.2 311.7 758.9 312.8L758.9 312.8L753.3 312.3Q753.8 310.3 755.0 308.9Q756.3 307.4 758.2 306.6Q760.2 305.8 762.8 305.8L762.8 305.8Q764.7 305.8 766.3 306.3Q768.0 306.7 769.3 307.6Q770.6 308.5 771.3 309.9Q772.1 311.3 772.1 313.2L772.1 313.2L772.1 328.0L766.4 328.0L766.4 324.9L766.2 324.9Q765.7 325.9 764.8 326.7Q763.9 327.5 762.7 327.9Q761.4 328.4 759.8 328.4ZM761.5 324.2L761.5 324.2Q762.9 324.2 763.9 323.7Q764.9 323.1 765.5 322.2Q766.1 321.3 766.1 320.2L766.1 320.2L766.1 317.8Q765.8 318.0 765.3 318.2Q764.8 318.3 764.2 318.4Q763.6 318.6 763.0 318.7Q762.4 318.7 761.9 318.8L761.9 318.8Q760.8 319.0 760.0 319.3Q759.2 319.7 758.8 320.2Q758.3 320.8 758.3 321.7L758.3 321.7Q758.3 322.9 759.2 323.5Q760.2 324.2 761.5 324.2ZM782.5 328.0L776.5 328.0L776.5 306.1L782.3 306.1L782.3 309.9L782.6 309.9Q783.2 307.9 784.6 306.9Q786.0 305.8 787.8 305.8L787.8 305.8Q788.3 305.8 788.8 305.9Q789.3 305.9 789.7 306.0L789.7 306.0L789.7 311.4Q789.3 311.3 788.5 311.2Q787.8 311.1 787.2 311.1L787.2 311.1Q785.8 311.1 784.8 311.7Q783.7 312.2 783.1 313.2Q782.5 314.3 782.5 315.6L782.5 315.6L782.5 328.0Z M491.0 384.8L491.0 384.8Q489.0 384.8 487.3 384.1Q485.7 383.4 484.7 381.9Q483.8 380.5 483.8 378.3L483.8 378.3Q483.8 376.5 484.5 375.3Q485.1 374.0 486.3 373.3Q487.4 372.5 488.9 372.2Q490.4 371.8 492.0 371.6L492.0 371.6Q493.9 371.4 495.1 371.2Q496.2 371.1 496.8 370.7Q497.3 370.4 497.3 369.7L497.3 369.7L497.3 369.6Q497.3 368.2 496.4 367.5Q495.6 366.7 494.0 366.7L494.0 366.7Q492.4 366.7 491.4 367.5Q490.5 368.2 490.2 369.3L490.2 369.3L484.6 368.8Q485.0 366.8 486.2 365.4Q487.5 363.9 489.5 363.1Q491.5 362.3 494.1 362.3L494.1 362.3Q495.9 362.3 497.6 362.8Q499.2 363.2 500.5 364.1Q501.8 365.0 502.6 366.4Q503.3 367.8 503.3 369.7L503.3 369.7L503.3 384.4L497.6 384.4L497.6 381.4L497.4 381.4Q496.9 382.4 496.0 383.2Q495.1 384.0 493.9 384.4Q492.7 384.8 491.0 384.8ZM492.8 380.7L492.8 380.7Q494.1 380.7 495.1 380.1Q496.2 379.6 496.7 378.7Q497.3 377.8 497.3 376.6L497.3 376.6L497.3 374.3Q497.0 374.5 496.5 374.6Q496.1 374.8 495.4 374.9Q494.8 375.0 494.2 375.1Q493.6 375.2 493.1 375.3L493.1 375.3Q492.1 375.5 491.3 375.8Q490.5 376.1 490.0 376.7Q489.6 377.3 489.6 378.1L489.6 378.1Q489.6 379.4 490.5 380.0Q491.4 380.7 492.8 380.7ZM513.8 371.8L513.8 371.8L513.8 384.4L507.7 384.4L507.7 362.6L513.5 362.6L513.5 366.5L513.7 366.5Q514.5 364.6 516.2 363.4Q517.9 362.3 520.3 362.3L520.3 362.3Q522.6 362.3 524.3 363.3Q525.9 364.3 526.9 366.2Q527.8 368.0 527.8 370.5L527.8 370.5L527.8 384.4L521.8 384.4L521.8 371.6Q521.8 369.6 520.8 368.5Q519.7 367.4 517.9 367.4L517.9 367.4Q516.7 367.4 515.7 367.9Q514.8 368.4 514.3 369.4Q513.8 370.4 513.8 371.8ZM540.3 384.8L540.3 384.8Q537.8 384.8 535.8 383.5Q533.8 382.2 532.6 379.7Q531.5 377.2 531.5 373.5L531.5 373.5Q531.5 369.8 532.7 367.3Q533.9 364.8 535.9 363.6Q537.9 362.3 540.3 362.3L540.3 362.3Q542.1 362.3 543.4 362.9Q544.6 363.6 545.3 364.5Q546.1 365.4 546.5 366.3L546.5 366.3L546.7 366.3L546.7 355.3L552.7 355.3L552.7 384.4L546.8 384.4L546.8 380.9L546.5 380.9Q546.1 381.8 545.3 382.7Q544.5 383.6 543.3 384.2Q542.1 384.8 540.3 384.8ZM542.2 380.0L542.2 380.0Q543.7 380.0 544.7 379.2Q545.7 378.4 546.3 376.9Q546.8 375.5 546.8 373.5L546.8 373.5Q546.8 371.6 546.3 370.1Q545.7 368.7 544.7 367.9Q543.7 367.1 542.2 367.1L542.2 367.1Q540.7 367.1 539.7 368.0Q538.7 368.8 538.2 370.2Q537.6 371.6 537.6 373.5L537.6 373.5Q537.6 375.4 538.2 376.9Q538.7 378.3 539.7 379.2Q540.7 380.0 542.2 380.0Z M576.7 384.4L576.7 384.4L566.4 384.4L566.4 355.3L576.8 355.3Q581.2 355.3 584.4 357.1Q587.5 358.8 589.3 362.1Q591.0 365.3 591.0 369.9L591.0 369.9Q591.0 374.4 589.3 377.7Q587.5 380.9 584.4 382.7Q581.2 384.4 576.7 384.4ZM572.6 360.6L572.6 379.2L576.5 379.2Q579.2 379.2 581.1 378.2Q582.9 377.2 583.9 375.2Q584.8 373.1 584.8 369.9L584.8 369.9Q584.8 366.6 583.9 364.6Q582.9 362.5 581.1 361.6Q579.2 360.6 576.5 360.6L576.5 360.6L572.6 360.6ZM601.1 384.4L595.1 384.4L595.1 362.6L601.1 362.6L601.1 384.4ZM598.1 359.8L598.1 359.8Q596.8 359.8 595.8 358.9Q594.9 358.0 594.9 356.7L594.9 356.7Q594.9 355.5 595.8 354.6Q596.8 353.7 598.1 353.7L598.1 353.7Q599.5 353.7 600.4 354.6Q601.4 355.5 601.4 356.7L601.4 356.7Q601.4 358.0 600.4 358.9Q599.5 359.8 598.1 359.8ZM623.8 368.8L623.8 368.8L618.3 369.2Q618.1 368.5 617.6 367.9Q617.2 367.3 616.4 367.0Q615.7 366.6 614.6 366.6L614.6 366.6Q613.2 366.6 612.2 367.2Q611.3 367.8 611.3 368.8L611.3 368.8Q611.3 369.6 611.9 370.1Q612.5 370.6 614.0 371.0L614.0 371.0L618.0 371.8Q621.2 372.4 622.7 373.9Q624.3 375.3 624.3 377.7L624.3 377.7Q624.3 379.8 623.0 381.4Q621.8 383.1 619.6 384.0Q617.4 384.9 614.6 384.9L614.6 384.9Q610.2 384.9 607.7 383.0Q605.1 381.2 604.7 378.1L604.7 378.1L610.6 377.8Q610.9 379.1 611.9 379.8Q613.0 380.5 614.6 380.5L614.6 380.5Q616.2 380.5 617.2 379.9Q618.1 379.3 618.1 378.3L618.1 378.3Q618.1 377.5 617.4 376.9Q616.8 376.4 615.3 376.1L615.3 376.1L611.6 375.4Q608.4 374.7 606.8 373.1Q605.3 371.6 605.3 369.1L605.3 369.1Q605.3 367.0 606.4 365.5Q607.5 364.0 609.6 363.2Q611.7 362.3 614.5 362.3L614.5 362.3Q618.6 362.3 621.0 364.1Q623.4 365.8 623.8 368.8ZM637.7 384.9L637.7 384.9Q634.4 384.9 631.9 383.5Q629.5 382.1 628.2 379.6Q626.9 377.1 626.9 373.6L626.9 373.6Q626.9 370.3 628.2 367.7Q629.5 365.2 631.9 363.7Q634.3 362.3 637.5 362.3L637.5 362.3Q639.7 362.3 641.5 363.0Q643.4 363.7 644.8 365.1Q646.2 366.5 647.0 368.5Q647.8 370.6 647.8 373.4L647.8 373.4L647.8 375.1L629.3 375.1L629.3 371.3L642.1 371.3Q642.1 370.0 641.5 369.0Q640.9 368.0 639.9 367.4Q638.9 366.8 637.6 366.8L637.6 366.8Q636.2 366.8 635.2 367.5Q634.1 368.1 633.5 369.2Q632.9 370.2 632.9 371.5L632.9 371.5L632.9 375.1Q632.9 376.7 633.5 377.9Q634.1 379.1 635.2 379.7Q636.3 380.3 637.8 380.3L637.8 380.3Q638.8 380.3 639.7 380.1Q640.5 379.8 641.1 379.2Q641.7 378.6 642.0 377.8L642.0 377.8L647.6 378.2Q647.2 380.2 645.9 381.7Q644.6 383.2 642.5 384.0Q640.4 384.9 637.7 384.9ZM657.6 384.8L657.6 384.8Q655.5 384.8 653.9 384.1Q652.2 383.4 651.3 381.9Q650.4 380.5 650.4 378.3L650.4 378.3Q650.4 376.5 651.0 375.3Q651.7 374.0 652.8 373.3Q654.0 372.5 655.5 372.2Q656.9 371.8 658.6 371.6L658.6 371.6Q660.5 371.4 661.6 371.2Q662.8 371.1 663.3 370.7Q663.8 370.4 663.8 369.7L663.8 369.7L663.8 369.6Q663.8 368.2 663.0 367.5Q662.1 366.7 660.6 366.7L660.6 366.7Q659.0 366.7 658.0 367.5Q657.0 368.2 656.7 369.3L656.7 369.3L651.1 368.8Q651.6 366.8 652.8 365.4Q654.1 363.9 656.0 363.1Q658.0 362.3 660.6 362.3L660.6 362.3Q662.4 362.3 664.1 362.8Q665.8 363.2 667.1 364.1Q668.4 365.0 669.1 366.4Q669.9 367.8 669.9 369.7L669.9 369.7L669.9 384.4L664.2 384.4L664.2 381.4L664.0 381.4Q663.5 382.4 662.6 383.2Q661.7 384.0 660.5 384.4Q659.2 384.8 657.6 384.8ZM659.3 380.7L659.3 380.7Q660.7 380.7 661.7 380.1Q662.7 379.6 663.3 378.7Q663.9 377.8 663.9 376.6L663.9 376.6L663.9 374.3Q663.6 374.5 663.1 374.6Q662.6 374.8 662.0 374.9Q661.4 375.0 660.8 375.1Q660.2 375.2 659.7 375.3L659.7 375.3Q658.6 375.5 657.8 375.8Q657.0 376.1 656.6 376.7Q656.1 377.3 656.1 378.1L656.1 378.1Q656.1 379.4 657.0 380.0Q657.9 380.7 659.3 380.7ZM692.4 368.8L692.4 368.8L686.9 369.2Q686.7 368.5 686.3 367.9Q685.8 367.3 685.0 367.0Q684.3 366.6 683.2 366.6L683.2 366.6Q681.8 366.6 680.9 367.2Q679.9 367.8 679.9 368.8L679.9 368.8Q679.9 369.6 680.5 370.1Q681.1 370.6 682.7 371.0L682.7 371.0L686.6 371.8Q689.8 372.4 691.4 373.9Q692.9 375.3 692.9 377.7L692.9 377.7Q692.9 379.8 691.7 381.4Q690.4 383.1 688.2 384.0Q686.0 384.9 683.2 384.9L683.2 384.9Q678.9 384.9 676.3 383.0Q673.7 381.2 673.3 378.1L673.3 378.1L679.3 377.8Q679.5 379.1 680.6 379.8Q681.6 380.5 683.2 380.5L683.2 380.5Q684.8 380.5 685.8 379.9Q686.8 379.3 686.8 378.3L686.8 378.3Q686.8 377.5 686.1 376.9Q685.4 376.4 684.0 376.1L684.0 376.1L680.2 375.4Q677.0 374.7 675.4 373.1Q673.9 371.6 673.9 369.1L673.9 369.1Q673.9 367.0 675.0 365.5Q676.2 364.0 678.3 363.2Q680.3 362.3 683.1 362.3L683.1 362.3Q687.3 362.3 689.6 364.1Q692.0 365.8 692.4 368.8ZM706.4 384.9L706.4 384.9Q703.0 384.9 700.6 383.5Q698.2 382.1 696.8 379.6Q695.5 377.1 695.5 373.6L695.5 373.6Q695.5 370.3 696.8 367.7Q698.2 365.2 700.5 363.7Q702.9 362.3 706.1 362.3L706.1 362.3Q708.3 362.3 710.2 363.0Q712.0 363.7 713.4 365.1Q714.8 366.5 715.6 368.5Q716.4 370.6 716.4 373.4L716.4 373.4L716.4 375.1L698.0 375.1L698.0 371.3L710.7 371.3Q710.7 370.0 710.1 369.0Q709.5 368.0 708.5 367.4Q707.5 366.8 706.2 366.8L706.2 366.8Q704.8 366.8 703.8 367.5Q702.7 368.1 702.1 369.2Q701.5 370.2 701.5 371.5L701.5 371.5L701.5 375.1Q701.5 376.7 702.1 377.9Q702.7 379.1 703.8 379.7Q704.9 380.3 706.5 380.3L706.5 380.3Q707.5 380.3 708.3 380.1Q709.1 379.8 709.7 379.2Q710.3 378.6 710.7 377.8L710.7 377.8L716.3 378.2Q715.8 380.2 714.5 381.7Q713.2 383.2 711.1 384.0Q709.1 384.9 706.4 384.9Z "/></svg>