<svg xmlns="http://www.w3.org/2000/svg" xmlns:xlink="http://www.w3.org/1999/xlink" id="Layer_1" width="600" height="600" x="0" y="0" enable-background="new 96 96 600 600" version="1.1" viewBox="96 96 600 600" xml:space="preserve"><rect width="365.818" height="504.669" x="140.957" y="182.091" fill="#77757E"/><polygon fill="#ACAAB1" points="544.963 612.049 544.963 686.761 179.143 686.761 179.143 182.091 544.963 182.091 544.963 489.479"/><rect width="365.819" height="108.339" x="179.144" y="469.245" fill="#57545C"/><g><rect width="40.971" height="78.112" x="411.725" y="114.46" fill="#3E3B43"/><rect width="45.204" height="81.651" x="213.207" y="114.46" fill="#3E3B43"/></g><path fill="#DFDFE2" d="M544.963,480.931c0,72.415,58.703,131.119,131.119,131.119h-365.82	c-72.415,0-131.119-58.703-131.119-131.119v-298.84h365.82v265.594V480.931L544.963,480.931z"/><g><path fill="#77757E" d="M296.79,315.044c-3.445-3.444-9.03-3.444-12.474,0l-11.671,11.671l-11.67-11.671 c-3.445-3.444-9.03-3.444-12.475,0c-3.445,3.447-3.445,9.031,0,12.476l11.67,11.671l-11.67,11.67 c-3.445,3.446-3.445,9.031,0,12.477c1.723,1.722,3.981,2.582,6.237,2.582c2.257,0,4.516-0.86,6.237-2.582l11.67-11.671 l11.671,11.671c1.722,1.722,3.98,2.582,6.238,2.582c2.256,0,4.516-0.86,6.237-2.582c3.445-3.446,3.445-9.031,0-12.477l-11.67-11.67 l11.67-11.671C300.235,324.076,300.235,318.491,296.79,315.044z"/><path fill="#77757E" d="M395.082,315.044c-3.445-3.444-9.031-3.444-12.475,0l-11.671,11.671l-11.671-11.671 c-3.445-3.444-9.031-3.444-12.473,0c-3.446,3.447-3.446,9.031,0,12.476l11.67,11.671l-11.67,11.67 c-3.446,3.446-3.446,9.031,0,12.477c1.722,1.722,3.979,2.582,6.237,2.582c2.256,0,4.515-0.86,6.236-2.582l11.671-11.671 l11.671,11.671c1.723,1.722,3.98,2.582,6.236,2.582c2.258,0,4.517-0.86,6.238-2.582c3.445-3.446,3.445-9.031,0-12.477l-11.67-11.67 l11.67-11.671C398.529,324.076,398.529,318.491,395.082,315.044z"/><path fill="#77757E" d="M445.083,363.338c1.722,1.723,3.981,2.583,6.237,2.583s4.516-0.86,6.238-2.583l11.671-11.671l11.671,11.671 c1.723,1.723,3.982,2.583,6.238,2.583s4.516-0.86,6.238-2.583c3.443-3.446,3.443-9.031,0-12.476l-11.672-11.67l11.672-11.67 c3.443-3.446,3.443-9.03,0-12.476c-3.447-3.444-9.033-3.444-12.477,0l-11.671,11.671l-11.672-11.671 c-3.445-3.444-9.03-3.444-12.476,0c-3.445,3.446-3.445,9.031,0,12.476l11.671,11.67l-11.671,11.67 C441.637,354.307,441.637,359.892,445.083,363.338z"/><path fill="#77757E" d="M296.79,393.437c-3.445-3.444-9.03-3.444-12.474,0l-11.671,11.669l-11.67-11.669 c-3.445-3.444-9.03-3.444-12.475,0c-3.445,3.446-3.445,9.032,0,12.475l11.67,11.671l-11.67,11.67c-3.445,3.447-3.445,9.03,0,12.475 c1.723,1.722,3.981,2.585,6.237,2.585c2.257,0,4.516-0.861,6.237-2.585l11.671-11.67l11.671,11.67 c1.722,1.722,3.98,2.585,6.238,2.585c2.256,0,4.516-0.861,6.237-2.585c3.445-3.446,3.445-9.029,0-12.475l-11.67-11.67l11.67-11.671 C300.235,402.467,300.235,396.883,296.79,393.437z"/><path fill="#77757E" d="M395.082,393.438c-3.445-3.446-9.031-3.445-12.475,0l-11.671,11.67l-11.671-11.67 c-3.445-3.444-9.031-3.445-12.473,0c-3.446,3.445-3.446,9.031,0,12.475l11.67,11.671l-11.67,11.67 c-3.446,3.447-3.446,9.03,0,12.474c1.722,1.724,3.979,2.586,6.237,2.586c2.256,0,4.515-0.861,6.236-2.585l11.671-11.671 l11.671,11.671c1.723,1.722,3.98,2.585,6.236,2.585c2.258,0,4.517-0.861,6.238-2.586c3.445-3.445,3.445-9.029,0-12.474 l-11.67-11.67l11.67-11.671C398.529,402.467,398.529,396.883,395.082,393.438z"/><path fill="#77757E" d="M445.083,441.729c1.722,1.722,3.981,2.585,6.237,2.585s4.516-0.861,6.238-2.585l11.671-11.67l11.671,11.67 c1.723,1.722,3.982,2.585,6.238,2.585s4.516-0.861,6.238-2.585c3.443-3.445,3.443-9.028,0-12.475l-11.672-11.67l11.672-11.67 c3.443-3.446,3.443-9.03,0-12.477c-3.447-3.444-9.033-3.444-12.477,0l-11.671,11.67l-11.671-11.67 c-3.445-3.444-9.031-3.444-12.476,0c-3.444,3.446-3.444,9.03,0,12.477l11.671,11.67l-11.671,11.67 C441.637,432.697,441.637,438.282,445.083,441.729z"/><path fill="#77757E" d="M296.79,471.828c-3.445-3.445-9.03-3.445-12.474,0l-11.671,11.671l-11.67-11.671 c-3.445-3.445-9.03-3.445-12.475,0c-3.445,3.446-3.445,9.031,0,12.476l11.67,11.67l-11.67,11.671c-3.445,3.446-3.445,9.03,0,12.476 c1.723,1.721,3.981,2.583,6.237,2.583c2.257,0,4.516-0.861,6.237-2.583l11.671-11.671l11.671,11.671 c1.722,1.721,3.98,2.583,6.238,2.583c2.256,0,4.516-0.861,6.237-2.583c3.445-3.446,3.445-9.03,0-12.476l-11.67-11.671l11.67-11.67 C300.235,480.859,300.235,475.274,296.79,471.828z"/><path fill="#77757E" d="M395.082,471.828c-3.445-3.445-9.031-3.445-12.475,0l-11.671,11.671l-11.671-11.671 c-3.445-3.445-9.031-3.445-12.473,0c-3.446,3.446-3.446,9.031,0,12.476l11.67,11.67l-11.67,11.671 c-3.446,3.446-3.446,9.03,0,12.476c1.722,1.721,3.979,2.583,6.237,2.583c2.256,0,4.515-0.861,6.236-2.583l11.671-11.671 l11.671,11.671c1.723,1.721,3.98,2.583,6.236,2.583c2.258,0,4.517-0.861,6.238-2.583c3.445-3.446,3.445-9.03,0-12.476 l-11.67-11.671l11.67-11.67C398.529,480.859,398.529,475.274,395.082,471.828z"/><path fill="#77757E" d="M489.74,469.245h-41.024c-4.871,0-8.822,3.948-8.822,8.822v41.024c0,4.873,3.951,8.821,8.822,8.821h41.024 c4.871,0,8.822-3.947,8.822-8.821v-41.024C498.563,473.194,494.613,469.245,489.74,469.245z M480.92,510.27h-23.383v-23.381h23.383 V510.27z"/></g><rect width="401.363" height="77.423" x="143.6" y="182.091" fill="#FF3F62"/><g><path fill="#77757E" d="M273.553,220.805h-1.818c-12.776,0-23.132-10.356-23.132-23.133V114.46h48.08v83.212 C296.683,210.448,286.327,220.805,273.553,220.805z"/><path fill="#77757E" d="M470.137,220.805h-1.814c-12.777,0-23.133-10.356-23.133-23.133V114.46h48.08v83.212 C493.27,210.448,482.914,220.805,470.137,220.805z"/></g><rect width="35.544" height="77.423" x="143.6" y="182.091" fill="#C70024"/></svg>