<svg xmlns="http://www.w3.org/2000/svg" xmlns:xlink="http://www.w3.org/1999/xlink" id="Layer_1" width="600" height="600" x="0" y="0" enable-background="new 96 96 600 600" version="1.1" viewBox="96 96 600 600" xml:space="preserve"><path fill="#F7A872" d="M400.629,252.233c-4.507,0-8.394-3.378-8.926-7.961l0,0c-1.404-11.979-8.436-38.241-20.181-38.241	c-4.97,0-8.999-4.028-8.999-8.999s4.028-8.999,8.999-8.999c30.933,0,37.421,48.625,38.059,54.17c0.569,4.938-2.975,9.4-7.911,9.967	C401.32,252.214,400.973,252.233,400.629,252.233z"/><g><path fill="#4EB79B" d="M450.313,172.856v-18.651h-18.65c-23.321,0-42.227,18.907-42.227,42.229v18.651h18.65 C431.406,215.084,450.313,196.178,450.313,172.856z"/><path fill="#4EB79B" d="M436.94,380.082c28.567-13.586,48.315-42.708,48.315-76.448c0-46.731-37.884-90.667-84.615-60.4 c-46.73-30.268-84.614,13.669-84.614,60.4c0,33.739,19.748,62.862,48.315,76.448C369.687,382.625,431.597,382.625,436.94,380.082z"/></g><path fill="#D37250" d="M588.528,655.498h-355.04c-21.304,0-40.607-8.646-54.574-22.611c-13.952-13.967-22.597-33.256-22.597-54.574	c0-42.621,34.549-77.186,77.17-77.186l189.62-39.561l165.42,39.561"/><rect width="216.287" height="97.18" x="383.024" y="532.561" fill="#E6E6E6"/><path fill="#E88158" d="M622.704,545.232H425.431c-18.23,0-33.065,14.848-33.065,33.078c0,18.246,14.834,33.08,33.065,33.08h197.274	v44.107H425.432c-21.305,0-40.608-8.646-54.574-22.611c-13.952-13.967-22.597-33.256-22.597-54.574	c0-42.621,34.549-77.186,77.17-77.186l72.064-37.162l96.413,37.162h28.796V545.232L622.704,545.232L622.704,545.232z"/><path fill="#F4BD64" d="M593.909,382.231H383.357v0.068c-0.596-0.039-1.194-0.068-1.799-0.068H171.006v35.994H190.8v46.912h-19.794	v35.994h210.552c0.606,0,1.204-0.027,1.799-0.068v0.068H593.91c14.71,0,26.648-11.938,26.648-26.648v-65.615	C620.558,394.157,608.619,382.231,593.909,382.231z"/><rect width="192.218" height="73.787" x="190.805" y="404.783" fill="#CCC"/><path fill="#DDA758" d="M171.006,465.137h201.206v-46.912H171.006v-35.994h210.552c14.709,0,26.648,11.926,26.648,26.634v65.617	c0,14.711-11.938,26.648-26.648,26.648H171.006V465.137z"/><path fill="#40A084" d="M401.225,380.086c1.656,0.792,8.723,1.332,17.866,1.633c-20.386,0.672-51.063,0.121-54.747-1.633	c-28.567-13.594-48.315-42.713-48.315-76.45c0-42.845,31.843-83.338,73.14-66.445c-21.921,10.006-36.258,37.698-36.258,66.445	C352.908,337.374,372.658,366.493,401.225,380.086z"/></svg>