<svg xmlns="http://www.w3.org/2000/svg" xmlns:xlink="http://www.w3.org/1999/xlink" id="Capa_1" width="600" height="600" x="0" y="0" enable-background="new 96 96 600 600" version="1.1" viewBox="96 96 600 600" xml:space="preserve"><polygon fill="#FFF" points="607.746 351.682 519.021 351.682 288.337 351.682 199.613 351.682 167.184 608.983 635.375 608.983"/><path fill="#556080" d="M607.746,351.682l27.629,257.302H167.184l32.429-257.302h88.724h230.684H607.746 M631.658,325.064h-23.912	h-88.725H288.337h-88.724h-23.477l-2.937,23.291l-32.429,257.301L137,635.601h30.184h468.191H665l-3.167-29.456l-27.629-257.301	L631.658,325.064L631.658,325.064z"/><path fill="#EBBA16" d="M258.411,573.494c-2.28,0-4.552-0.143-6.823-0.417c-1.934-0.231-3.886-0.595-5.794-1.101	c-4.747-1.225-7.595-6.068-6.371-10.807c1.225-4.746,6.06-7.63,10.807-6.37c1.17,0.293,2.342,0.523,3.514,0.665	c3.575,0.444,7.195,0.328,10.78-0.133c4.898-0.577,9.308,2.83,9.91,7.691c0.613,4.863-2.83,9.3-7.692,9.911	C263.965,573.299,261.169,573.494,258.411,573.494z M299.667,563.22c-3.558,0-6.911-2.156-8.278-5.679	c-1.766-4.579,0.515-9.716,5.075-11.472c5.252-2.032,10.54-4.285,15.74-6.735c4.463-2.086,9.724-0.168,11.801,4.26	c2.077,4.436,0.178,9.724-4.259,11.8c-5.572,2.617-11.259,5.039-16.884,7.213C301.814,563.033,300.733,563.22,299.667,563.22z M225.609,547.853c-4.499,0-8.349-3.406-8.819-7.967c-0.178-1.748-0.249-3.506-0.249-5.253c0-1.029,0.027-2.059,0.081-3.078	c0.203-4.161,0.878-8.358,1.996-12.476c1.278-4.746,6.184-7.567,10.877-6.245c4.729,1.277,7.533,6.14,6.247,10.877	c-0.781,2.893-1.251,5.829-1.384,8.721c-0.036,0.729-0.063,1.465-0.063,2.201c0,1.144,0.044,2.308,0.168,3.45	c0.497,4.88-3.061,9.228-7.932,9.734C226.212,547.835,225.911,547.853,225.609,547.853z M346.976,538.988	c-2.901,0-5.75-1.421-7.453-4.037c-2.67-4.116-1.5-9.609,2.608-12.279c4.747-3.078,9.458-6.388,14.019-9.821	c3.939-2.946,9.476-2.139,12.43,1.739c2.945,3.912,2.165,9.476-1.739,12.43c-4.898,3.683-9.956,7.231-15.04,10.541	C350.302,538.527,348.635,538.988,346.976,538.988z M389.199,506.604c-2.742,0-5.438-1.27-7.187-3.647	c-2.883-3.957-2.014-9.511,1.952-12.395c1.854-1.341,3.745-2.661,5.688-3.913c3.345-2.174,6.93-4.231,10.646-6.104	c4.401-2.191,9.717-0.426,11.917,3.939c2.2,4.373,0.435,9.715-3.94,11.916c-3.141,1.579-6.148,3.3-8.961,5.119	c-1.667,1.092-3.3,2.219-4.897,3.391C392.837,506.054,391.009,506.604,389.199,506.604z M247.631,502.407	c-3.15,0-6.202-1.676-7.808-4.641c-2.342-4.303-0.737-9.688,3.566-12.022c4.596-2.493,9.502-4.045,14.587-4.613	c2.573-0.293,5.261-0.284,7.905,0.07c4.853,0.64,8.278,5.093,7.63,9.955c-0.639,4.845-4.978,8.261-9.955,7.63	c-1.181-0.159-2.405-0.159-3.602-0.018c-2.804,0.302-5.528,1.17-8.101,2.564C250.505,502.062,249.06,502.407,247.631,502.407z M437.803,485.976c-4.099,0-7.782-2.849-8.668-7.018c-1.021-4.801,2.031-9.512,6.822-10.532c5.705-1.224,11.844-2.235,18.26-3.035	c4.906-0.719,9.29,2.839,9.894,7.711c0.603,4.862-2.85,9.298-7.712,9.894c-5.9,0.737-11.534,1.667-16.733,2.776	C439.037,485.913,438.415,485.976,437.803,485.976z M490.683,480.501c-4.729,0-8.668-3.734-8.854-8.509	c-0.196-4.897,3.603-9.031,8.5-9.228l17.683-0.727c4.88-0.444,9.05,3.558,9.272,8.465c0.221,4.889-3.567,9.04-8.466,9.262	l-17.763,0.728C490.94,480.501,490.808,480.501,490.683,480.501z M543.73,476.57c-4.125,0-7.817-2.883-8.686-7.079	c-0.986-4.8,2.095-9.494,6.895-10.487c5.127-1.057,8.926-2.537,11.951-4.657c3.877-3.025,9.777-2.529,12.758,1.322	c3.008,3.877,2.627,9.218-1.241,12.226c-0.487,0.372-0.977,0.736-1.499,1.082c-4.827,3.407-10.905,5.865-18.385,7.409	C544.93,476.509,544.316,476.57,543.73,476.57z M579.833,440.814c-0.869,0-1.748-0.133-2.626-0.399	c-4.676-1.446-7.302-6.423-5.847-11.099c0.47-1.518,0.763-3.026,0.86-4.489l0.036-1.029c0-2.031-0.392-4.1-1.153-6.157	c-1.704-4.597,0.628-9.698,5.234-11.401c4.559-1.695,9.706,0.629,11.401,5.233c1.497,4.038,2.262,8.189,2.262,12.334	c0,0.744-0.026,1.481-0.07,2.217c-0.196,2.875-0.746,5.732-1.624,8.554C587.136,438.375,583.622,440.814,579.833,440.814z M534.938,404.376c-3.868,0-7.426-2.547-8.526-6.469c-1.331-4.711,1.402-9.616,6.122-10.939c6.912-1.951,14.17-2.537,21.17-1.597	c4.853,0.656,8.26,5.119,7.603,9.981c-0.647,4.854-5.021,8.26-9.98,7.603c-4.622-0.611-9.387-0.203-13.975,1.073	C536.545,404.27,535.746,404.376,534.938,404.376z"/><path fill="#DD352E" d="M499.387,237.857c-4.649-35.48-23.192-81.458-96.018-81.458c-72.816,0-91.369,45.978-96.018,81.458	c-2.547,19.448-1.118,39.207,2.928,58.398c22.261,105.521,77.279,168.771,90.294,182.567c1.527,1.615,4.064,1.615,5.59,0	c13.017-13.796,68.033-77.048,90.296-182.567C500.514,277.064,501.942,257.306,499.387,237.857z M403.369,306.54	c-31.099,0-56.306-25.207-56.306-56.305s25.207-56.296,56.306-56.296c31.098,0,56.305,25.207,56.305,56.296	C459.674,281.333,434.467,306.54,403.369,306.54z"/><g><path fill="#B02721" d="M403.377,185.066c-35.941,0-65.176,29.235-65.176,65.168c0,35.943,29.235,65.177,65.176,65.177 c35.943,0,65.179-29.235,65.179-65.177C468.546,214.302,439.312,185.066,403.377,185.066z M403.377,297.666 c-26.146,0-47.431-21.276-47.431-47.432s21.276-47.423,47.431-47.423c26.156,0,47.434,21.267,47.434,47.423 C450.811,276.39,429.524,297.666,403.377,297.666z"/></g></svg>