<svg xmlns="http://www.w3.org/2000/svg" xmlns:xlink="http://www.w3.org/1999/xlink" id="Capa_1" x="0" y="0" enable-background="new 0 0 42 42" version="1.1" viewBox="0 0 42 42" xml:space="preserve"><g><circle cx="21" cy="21" r="21" fill="#FBD971"/><path fill="#C03A2B" d="M10,27c0,6.075,4.925,11,11,11s11-4.925,11-11H10z"/><circle cx="12" cy="15" r="6" fill="#FFF"/><circle cx="30" cy="15" r="6" fill="#FFF"/><path fill="#FFF" d="M10,27c0,2.119,2.905,3.926,7,4.654V27H10z"/><path fill="#FFF" d="M19,27v4.913C19.649,31.968,20.316,32,21,32s1.351-0.032,2-0.087V27H19z"/><path fill="#FFF" d="M32,27h-7v4.654C29.095,30.926,32,29.119,32,27z"/><path fill="#ECF0F1" d="M17,27v4.654c0.64,0.114,1.308,0.202,2,0.26V27H17z"/><path fill="#ECF0F1" d="M23,27v4.913c0.692-0.058,1.36-0.146,2-0.26V27H23z"/><circle cx="10" cy="13.5" r="3.5" fill="#AF8066"/><circle cx="28" cy="13.5" r="3.5" fill="#AF8066"/></g></svg>