<svg xmlns="http://www.w3.org/2000/svg" xmlns:xlink="http://www.w3.org/1999/xlink" id="Layer_1" width="600" height="600" x="0" y="0" enable-background="new 6 96 600 600" version="1.1" viewBox="6 96 600 600" xml:space="preserve"><g><path fill="#314E55" d="M130.493,195.907c0-6.197-5.02-11.223-11.223-11.223H73.067l54.499-59.771 c2.991-3.289,3.771-8.027,1.972-12.093c-1.798-4.067-5.817-6.691-10.268-6.691H47.642c-6.202,0-11.222,5.025-11.222,11.222 c0,6.198,5.02,11.222,11.222,11.222h46.205l-54.5,59.771c-2.992,3.288-3.771,8.026-1.973,12.093 c1.797,4.066,5.819,6.69,10.269,6.69h71.629C125.474,207.127,130.493,202.104,130.493,195.907z"/><path fill="#314E55" d="M171.085,184.684h46.203l-54.5,59.772c-2.992,3.288-3.771,8.026-1.973,12.093 c1.798,4.065,5.819,6.69,10.269,6.69h71.629c6.202,0,11.222-5.025,11.222-11.222s-5.02-11.223-11.222-11.223H196.51l54.5-59.771 c2.992-3.289,3.771-8.027,1.973-12.093c-1.797-4.066-5.82-6.691-10.269-6.691h-71.627c-6.203,0-11.223,5.025-11.223,11.223 C159.863,179.659,164.882,184.684,171.085,184.684z"/><path fill="#314E55" d="M152.905,353.015c0-6.197-5.02-11.222-11.223-11.222h-21.536l30.302-37.88 c2.696-3.365,3.211-7.984,1.349-11.869c-1.874-3.891-5.798-6.361-10.115-6.361H96.793c-6.203,0-11.223,5.025-11.223,11.222 s5.02,11.223,11.223,11.223h21.534l-30.302,37.88c-2.695,3.364-3.211,7.984-1.348,11.869c1.874,3.891,5.797,6.362,10.115,6.362 h44.888C147.886,364.238,152.905,359.213,152.905,353.015z"/><path fill="#314E55" d="M472.209,244.619c-20.997-14.708-43.979-25.928-68.297-33.358c-4.658-1.425-9.688,0.307-12.472,4.295 c-2.783,3.983-2.695,9.311,0.229,13.19c57.514,76.363,59.289,180.342,4.406,258.728c-54.894,78.392-153.197,112.286-244.64,84.347 c-4.647-1.424-9.688,0.307-12.472,4.297c-2.783,3.982-2.695,9.31,0.23,13.188c15.289,20.302,33.699,38.056,54.719,52.779 c42.258,29.59,90.752,43.793,138.809,43.787c76.538-0.006,151.936-36.05,199.071-103.365 C608.519,472.926,581.789,321.349,472.209,244.619z"/></g><path fill="#81A4E3" d="M513.403,569.629c-69.633,99.448-207.192,123.678-306.612,54.071c-9.733-6.816-18.839-14.339-27.267-22.52	c90.051,13.748,181.341-24.29,234.941-100.831c53.581-76.543,58.148-175.225,14.401-255.26	c10.564,5.124,20.745,11.107,30.477,17.919C558.785,332.637,583.039,470.189,513.403,569.629z"/></svg>