<svg xmlns="http://www.w3.org/2000/svg" xmlns:xlink="http://www.w3.org/1999/xlink" id="Capa_1" width="600" height="600" x="0" y="0" enable-background="new 0 0 600 600" version="1.1" viewBox="0 0 600 600" xml:space="preserve"><g><path fill="#0391FD" d="M492.552,210.698v208.128c0,26.809-21.728,48.535-48.524,48.535h-207.44l-98.448,108.293V467.361H68.525 C41.727,467.361,20,445.635,20,418.836V210.708c0-26.807,21.727-48.535,48.525-48.535h375.492 C470.824,162.172,492.552,183.9,492.552,210.698z"/><path fill="#0F71D3" d="M542.475,24.345h-375.5c-26.798,0-48.525,21.728-48.525,48.535v89.292h325.578 c26.798,0,48.524,21.728,48.524,48.536v118.826h49.923c26.797,0,48.525-21.727,48.525-48.535V72.879 C591,46.072,569.271,24.345,542.475,24.345z"/><path fill="#FFF" d="M266.12,270.613H128.293c-5.444,0-9.845-4.41-9.845-9.846c0-5.434,4.401-9.845,9.845-9.845H266.12 c5.445,0,9.846,4.412,9.846,9.845C275.966,266.203,271.565,270.613,266.12,270.613z"/><path fill="#FFF" d="M394.104,329.684H128.293c-5.444,0-9.845-4.412-9.845-9.846c0-5.436,4.401-9.846,9.845-9.846h265.811 c5.444,0,9.846,4.41,9.846,9.846C403.948,325.271,399.548,329.684,394.104,329.684z"/><path fill="#FFF" d="M394.104,388.752H128.293c-5.444,0-9.845-4.41-9.845-9.846s4.401-9.844,9.845-9.844h265.811 c5.444,0,9.846,4.408,9.846,9.844C403.948,384.34,399.548,388.752,394.104,388.752z"/></g></svg>