<svg xmlns="http://www.w3.org/2000/svg" xmlns:xlink="http://www.w3.org/1999/xlink" id="Layer_1" width="600" height="600" x="0" y="0" enable-background="new 6 96 600 600" version="1.1" viewBox="6 96 600 600" xml:space="preserve"><path fill="#EFEFEF" d="M44.625,108h514.75C574.019,108,586,119.981,586,134.625v514.75C586,664.019,574.019,676,559.375,676H44.625	C29.981,675.999,18,664.017,18,649.373V134.625C18,119.981,29.981,108,44.625,108z"/><path fill="#2B414D" d="M71.25,214.5h461.5c9.763,0,17.75,7.987,17.75,17.75v390.5c0,9.763-7.987,17.75-17.75,17.75H71.25	c-9.763,0-17.75-7.987-17.75-17.75v-390.5C53.5,222.487,61.488,214.5,71.25,214.5z"/><path fill="#E4E7E7" d="M142.25,294.374h257.375c4.881,0,8.875,3.994,8.875,8.875v8.875c0,4.88-3.994,8.875-8.875,8.875H142.25	c-4.881,0-8.875-3.995-8.875-8.875v-8.875C133.375,298.368,137.369,294.374,142.25,294.374z"/><path fill="#E35E53" d="M248.75,356.5h-106.5c-4.881,0-8.875,3.994-8.875,8.875v8.875c0,4.881,3.994,8.875,8.875,8.875h106.5	c4.881,0,8.875-3.994,8.875-8.875v-8.875C257.625,360.493,253.63,356.5,248.75,356.5z M222.125,480.75H142.25	c-4.881,0-8.875,3.993-8.875,8.875v8.875c0,4.881,3.994,8.875,8.875,8.875h79.875c4.881,0,8.875-3.994,8.875-8.875v-8.875	C231,484.742,227.006,480.75,222.125,480.75z M461.749,480.75h-53.251c-4.881,0-8.875,3.993-8.875,8.875v8.875	c0,4.881,3.994,8.875,8.875,8.875h53.251c4.881,0,8.875-3.994,8.875-8.875v-8.875C470.624,484.742,466.63,480.75,461.749,480.75z"/><path fill="#26A6D1" d="M461.749,356.5H302c-4.881,0-8.875,3.994-8.875,8.875v8.875c0,4.881,3.994,8.875,8.875,8.875h159.75	c4.881,0,8.875-3.994,8.875-8.875v-8.875C470.624,360.493,466.63,356.5,461.749,356.5z M461.749,542.874H142.25	c-4.881,0-8.875,3.994-8.875,8.875v8.875c0,4.882,3.994,8.875,8.875,8.875h319.499c4.881,0,8.875-3.993,8.875-8.875v-8.875	C470.624,546.868,466.63,542.874,461.749,542.874z"/><path fill="#49B8A4" d="M355.249,418.624H142.25c-4.881,0-8.875,3.994-8.875,8.875v8.875c0,4.881,3.994,8.875,8.875,8.875h212.999	c4.881,0,8.875-3.994,8.875-8.875v-8.875C364.124,422.618,360.13,418.624,355.249,418.624z M355.249,480.75h-79.874	c-4.881,0-8.875,3.993-8.875,8.875v8.875c0,4.881,3.994,8.875,8.875,8.875h79.874c4.881,0,8.875-3.994,8.875-8.875v-8.875	C364.124,484.742,360.13,480.75,355.249,480.75z"/><path fill="#BFC3C5" d="M71.25,143.5c-9.763,0-17.75,7.987-17.75,17.75S61.488,179,71.25,179S89,171.013,89,161.25	S81.012,143.5,71.25,143.5z M124.5,143.5c-9.763,0-17.75,7.987-17.75,17.75S114.737,179,124.5,179c9.763,0,17.75-7.987,17.75-17.75	S134.263,143.5,124.5,143.5z M177.75,143.5c-9.763,0-17.75,7.987-17.75,17.75S167.987,179,177.75,179	c9.763,0,17.75-7.987,17.75-17.75S187.512,143.5,177.75,143.5z"/></svg>