<svg xmlns="http://www.w3.org/2000/svg" xmlns:xlink="http://www.w3.org/1999/xlink" id="Capa_1" width="600" height="600" x="0" y="0" enable-background="new 6 96 600 600" version="1.1" viewBox="6 96 600 600" xml:space="preserve"><g><path fill="#C5411E" d="M294.069,223.792c7.147,10.438,21.689,10.519,28.986,0.18c24.451-34.69,64.015-57.239,108.663-57.239 c74.244,0,127.71,63.515,134.436,139.2c0,0,3.633,18.796-4.354,52.615c-10.88,46.071-36.433,87.005-70.901,118.231L308.471,639.53 L129.127,476.771c-34.47-31.229-60.022-72.163-70.901-118.233c-7.987-33.83-4.355-52.616-4.355-52.616 c6.726-75.684,60.193-139.199,134.437-139.199C232.887,166.723,270.379,189.193,294.069,223.792z"/><path fill="#F7E6A1" d="M266.716,499.41c-0.21,0-0.42,0-0.631-0.021c-3.854-0.239-7.227-2.691-8.658-6.265l-51.444-128.621 l-40.275,86.675c-1.651,3.532-5.195,5.794-9.087,5.794H26.509c-5.535,0-10.009-4.484-10.009-10.008 c0-5.525,4.474-10.009,10.009-10.009h123.727l47.34-101.897c1.691-3.613,5.185-5.916,9.358-5.785 c3.984,0.11,7.537,2.582,9.018,6.285l52.235,130.583l39.824-71.682c1.742-3.133,5.015-5.095,8.598-5.146 c3.934,0.13,6.905,1.812,8.747,4.884l16.896,28.386l34.77-165.443c1.001-4.724,4.894-8.297,10.038-7.947 c4.815,0.121,8.878,3.664,9.639,8.428l28.674,179.324h161.621c5.533,0,10.008,4.485,10.008,10.01 c0,5.523-4.475,10.008-10.008,10.008H416.846c-4.916,0-9.108-3.573-9.879-8.427L385.489,314.23l-28.906,137.568 c-0.851,4.033-4.084,7.137-8.147,7.816c-4.013,0.711-8.126-1.201-10.238-4.754l-21.118-35.481l-41.596,74.876 C273.691,497.447,270.329,499.41,266.716,499.41z"/></g></svg>