<svg xmlns="http://www.w3.org/2000/svg" xmlns:xlink="http://www.w3.org/1999/xlink" id="Layer_1" width="640" height="480" x="0" y="0" enable-background="new 0 0 640 480" version="1.1" viewBox="0 0 640 480" xml:space="preserve"><g><path d="M271.772,343.158c0-27.186,22.039-49.226,49.226-49.226s49.226,22.04,49.226,49.226"/><path d="M306.441,307.961c1.738,0.166,2.998,1.849,2.814,3.757l0,0c-0.183,1.906-1.74,3.317-3.479,3.151l-138.79-13.334 c-1.737-0.166-2.998-1.849-2.813-3.756l0,0c0.181-1.906,1.739-3.318,3.477-3.152L306.441,307.961z"/><g><g><g><path fill="#FF5722" d="M87.878,245.517l28.021,10.197c7.818-19.854,18.597-38.809,32.334-56.192l-22.84-19.168 C109.376,200.474,96.871,222.465,87.878,245.517z"/><path fill="#FF5722" d="M100.487,332c0.584-23,4.292-43.391,11.114-64.107L83.58,257.837C75.58,281.844,71.262,307,70.666,332 H100.487z"/><path fill="#4CAF50" d="M520.757,179.9l-22.841,19.165c13.846,17.426,24.707,36.438,32.584,56.361l28.021-10.197 C549.468,222.107,536.882,200.057,520.757,179.9z"/><path fill="#8BC34A" d="M439.911,147.558c14.559,8.958,28.314,19.732,40.931,32.346c3.091,3.094,6.063,6.263,8.934,9.485 l22.84-19.163c-3.433-3.878-6.986-7.688-10.697-11.398c-14.505-14.501-30.336-26.854-47.098-37.092L439.911,147.558z"/><path fill="#4CAF50" d="M534.814,267.6c6.883,20.806,10.624,41.4,11.211,64.4h29.822c-0.6-25-4.948-50.357-13.014-74.455 L534.814,267.6z"/><path fill="#03A9F4" d="M216.868,141.617c65.913-35.836,146.076-35.961,212.09-0.373l14.911-25.827 c-75.216-40.889-166.797-40.767-241.913,0.375L216.868,141.617z"/><path fill="#F4DC31" d="M156.352,189.826c2.993-3.375,6.088-6.69,9.32-9.923c12.422-12.42,25.949-23.062,40.26-31.939 l-14.908-25.822c-16.514,10.159-32.119,22.377-46.428,36.686c-3.85,3.852-7.532,7.805-11.082,11.835L156.352,189.826z"/></g><path fill="none" stroke="#000" stroke-miterlimit="10" stroke-width="6" d="M323.253,74.662 C179.476,74.662,62.917,189,62.917,335h520.678C583.595,189,467.037,74.662,323.253,74.662z"/></g><g><path d="M325.444,140.737c0,3.125-0.456,5.459-1.369,7.007c-0.913,1.548-2.344,2.321-4.294,2.321 c-1.893,0-3.302-0.741-4.234-2.227c-0.932-1.484-1.417-3.716-1.454-6.695v-3.638c0-3.096,0.456-5.403,1.374-6.929 c0.917-1.521,2.343-2.284,4.285-2.284c1.912,0,3.325,0.724,4.243,2.169c0.917,1.445,1.398,3.633,1.449,6.564V140.737z M322.867,137.054c0-2.24-0.248-3.893-0.742-4.955c-0.495-1.062-1.285-1.593-2.373-1.593c-1.057,0-1.833,0.521-2.328,1.564 c-0.495,1.042-0.752,2.616-0.771,4.722v4.365c0,2.233,0.256,3.909,0.771,5.029c0.515,1.12,1.3,1.681,2.357,1.681 c1.049,0,1.821-0.529,2.314-1.586c0.495-1.058,0.751-2.674,0.771-4.846V137.054z"/></g><g><path d="M131.845,277.355h-6.01v-2.199h6.01V277.355z"/><path d="M141.915,285.257h-2.589v-17.942l-4.453,1.992v-2.445l6.636-2.896h0.407V285.257z"/></g><g><path d="M514.176,285.561h-2.589v-17.945l-4.453,1.993v-2.443l6.636-2.897h0.406V285.561z"/></g><path d="M641,398.106c0,4.02-6.995,7.894-16.972,7.894H17.065C7.088,406-1,402.126-1,398.106v-57.871 c0-4.02,8.088-7.235,18.065-7.235h606.963c9.977,0,16.972,3.216,16.972,7.235V398.106z"/></g><text fill="#FFF" font-family="'RobotoCondensed-Regular'" font-size="31.613" transform="matrix(1 0 0 1 141.4619 381.9756)">Strong Negative Relationship</text></g></svg>