<svg xmlns="http://www.w3.org/2000/svg" xmlns:xlink="http://www.w3.org/1999/xlink" id="Layer_1" width="640" height="480" x="0" y="0" enable-background="new 0 0 640 480" version="1.1" viewBox="0 0 640 480" xml:space="preserve"><g><path d="M271.922,334.189c0-27.102,21.969-49.072,49.073-49.072c27.103,0,49.071,21.972,49.071,49.072"/><path d="M320.273,302.062c1.064,1.375,0.704,3.439-0.811,4.608l0,0c-1.51,1.168-3.598,0.999-4.662-0.378l-85.02-109.961 c-1.064-1.375-0.703-3.441,0.809-4.606l0,0c1.512-1.171,3.6-1.002,4.664,0.375L320.273,302.062z"/><g><g><g><path fill="#FF5722" d="M88.602,245.501l27.934,10.165c7.794-19.792,18.539-38.687,32.233-56.017L126,180.542 C110.032,200.599,97.566,222.521,88.602,245.501z"/><path fill="#FF5722" d="M101.17,331c0.583-22,4.279-42.898,11.08-63.551l-27.934-10.203C76.341,281.18,72.037,307,71.442,331 H101.17z"/><path fill="#4CAF50" d="M520.132,180.088l-22.771,19.105c13.803,17.372,24.63,36.324,32.482,56.186l27.934-10.165 C548.753,222.165,536.206,200.183,520.132,180.088z"/><path fill="#8BC34A" d="M439.537,147.847c14.514,8.931,28.227,19.67,40.804,32.245c3.081,3.084,6.044,6.243,8.905,9.456 l22.77-19.103c-3.423-3.866-6.965-7.664-10.664-11.363c-14.46-14.456-30.241-26.771-46.95-36.977L439.537,147.847z"/><path fill="#4CAF50" d="M534.146,267.158c6.86,20.74,10.591,41.842,11.176,63.842h29.729c-0.598-24-4.933-50.021-12.973-74.044 L534.146,267.158z"/><path fill="#03A9F4" d="M217.189,141.925c65.708-35.725,145.622-35.85,211.429-0.372l14.865-25.747 c-74.981-40.762-166.277-40.64-241.159,0.373L217.189,141.925z"/><path fill="#F4DC31" d="M156.861,189.984c2.983-3.365,6.069-6.669,9.291-9.892c12.384-12.382,25.868-22.99,40.135-31.839 l-14.861-25.742c-16.463,10.127-32.019,22.308-46.284,36.571c-3.838,3.839-7.509,7.78-11.047,11.799L156.861,189.984z"/></g><path fill="none" stroke="#000" stroke-miterlimit="10" stroke-width="6" d="M323.243,75.473 C179.914,75.473,63.718,189,63.718,335h519.057C582.773,189,466.579,75.473,323.243,75.473z"/></g><g><path d="M325.428,141.048c0,3.115-0.455,5.443-1.365,6.985c-0.91,1.544-2.336,2.314-4.279,2.314c-1.887,0-3.292-0.738-4.222-2.22 c-0.929-1.48-1.412-3.705-1.449-6.674v-3.627c0-3.086,0.455-5.387,1.37-6.907c0.914-1.517,2.336-2.277,4.272-2.277 c1.906,0,3.314,0.721,4.23,2.162c0.912,1.441,1.394,3.622,1.443,6.544V141.048L325.428,141.048z M322.857,137.376 c0-2.233-0.246-3.88-0.739-4.939s-1.28-1.588-2.365-1.588c-1.054,0-1.828,0.521-2.321,1.559c-0.494,1.039-0.75,2.608-0.769,4.708 v4.351c0,2.227,0.255,3.897,0.769,5.014c0.513,1.117,1.295,1.676,2.35,1.676c1.045,0,1.815-0.527,2.308-1.581 c0.493-1.054,0.748-2.666,0.77-4.831v-4.369H322.857z"/></g><g><path d="M132.431,277.24h-5.992v-2.192h5.992V277.24z"/><path d="M142.47,285.117h-2.581V267.23l-4.439,1.985v-2.438l6.615-2.887h0.406L142.47,285.117L142.47,285.117z"/></g><g><path d="M513.571,285.42h-2.581v-17.889l-4.439,1.986v-2.437l6.615-2.89h0.405V285.42L513.571,285.42z"/></g><path d="M640,397.615c0,4.007-6.973,8.385-16.919,8.385H18.008C8.062,406,0,401.622,0,397.615v-57.69 C0,335.918,8.062,333,18.008,333h605.073c9.946,0,16.919,2.918,16.919,6.925V397.615z"/></g><text fill="#FFF" font-family="'RobotoCondensed-Regular'" font-size="31.514" transform="matrix(1 0 0 1 150.665 381.5342)">Weak Negative Relationship</text></g></svg>