<svg xmlns="http://www.w3.org/2000/svg" xmlns:xlink="http://www.w3.org/1999/xlink" id="Layer_1" width="792" height="792" x="0" y="0" enable-background="new -90 0 792 792" version="1.1" viewBox="-90 0 792 792" xml:space="preserve"><path fill="#FFCA4F" d="M306.001,702C474.539,702,612,564.539,612,396.001C612,227.461,474.539,90,306.001,90	C137.462,90,0,227.461,0,396.001C0,564.539,137.462,702,306.001,702z"/><path fill="#EC4B53" d="M396.93,574.501c2.604,1.25,74.932,35.221,110.626-23.997c36.351-60.309,9.61-58.013,9.032-62.943	c-0.579-4.932,52.932-60.979-12.336-103.112c0,0-79.307-180.926-283.368-92.529c0,0-62.79-9.089-93.356,59.483	c0,0-76.007,28.091-44.614,118.139c31.394,90.049,106.575,49.571,106.575,49.571c10.318,56.118,75.475,69.854,122.271,45.436	c0,0,15.698,17.349,34.699,10.738c0.664-2.61,5.855-0.669,2.428-9.52c4.798-7.076,15.688-10.846,35.181-1.875	c1.024,0.845,2.84,2.284,2.56,2.112L396.93,574.501z"/><path fill="#FF5B61" d="M133.574,353.5c-0.888,1.478-49.96,13.789-53.419,62.308c-5.321,74.644,47.237,127.455,110.45,95.221	c13.194,53.05,85.167,73.04,124.268,41.754c0,0,10.248,25.567,34.014,12.984l1.159,1.269c5.712-0.079,20.817,9.322,34.021-3.144	c0.915,0.755,2.458,1.98,2.582,2.113c1.867,0.203,4.518-0.613,5.856,0.155c80.729,46.34,133.133-33.423,124.277-65.341	c-1.239-4.463-3.391-5.256-7.132-7.496c0,0-1.433-5.652,3.962-12.022c22.906-27.045,34.647-69.079-13.091-92.461	C452.17,281.769,334.198,235.5,217.477,297.705C148.992,293.638,134.345,352.216,133.574,353.5L133.574,353.5z"/><path fill="#EC4B53" d="M257.604,313.929c-2.326,0.631-4.729-0.741-5.361-3.067s0.74-4.729,3.066-5.359	c0.103-0.029,34.202-9.601,42.089,18.185c4.887-2.677,12.333-5.089,20.917-2.202c-1.09-9.473,1.645-22.568,22.589-27.952	c2.336-0.597,4.713,0.815,5.31,3.152c0.597,2.335-0.815,4.713-3.152,5.31c-23.973,6.164-13.872,26.368-13.844,26.422l-0.015,0.008	c0.712,1.465,0.568,3.274-0.518,4.634c-1.5,1.883-4.249,2.19-6.129,0.685c-10.812-8.648-20.228-3.278-23.695-0.654	c-0.128,16.262-22.074,19.926-22.139,19.936v-0.001c-1.302,0.215-2.682-0.155-3.715-1.128c-25.178-23.693-53.034,6.408-53.116,6.491	l-0.002-0.002c-1.364,1.454-3.6,1.824-5.393,0.774c-24.945-14.621-3.438-58.19,1.592-67.597c3.044,0.103,4.796,0.356,4.796,0.356	c1.357-0.589,2.687-1.12,4.034-1.684c0.502,1.206,0.461,2.622-0.232,3.841c-0.069,0.125-23.79,41.342-8.376,55.618	c8.521-7.718,35.226-27.943,60.945-5.736c4.224-1.091,13.697-4.431,12.771-12.29l-0.018-0.202	C287.187,305.631,257.688,313.905,257.604,313.929L257.604,313.929z M519.812,490.503L519.812,490.503	c-1.707-1.126-3.097-1.86-3.225-2.943c-0.102-0.856,1.427-3.254,3.682-6.848c-2.83-13.491-13.684-13.084-19.593-11.777	c-2.376-5.385-6.276-17.522-1.54-31.93c0.069-0.171,0.128-0.344,0.178-0.52c6.135-17.447,34.567-10.358,34.648-10.337	c0.672,0.161,1.345,0.156,1.974,0.018c-0.526-2.993-1.35-6.016-2.512-9.049c-7.703-1.386-30.5-3.979-40.018,11.5	c-3.712-2.193-9.208-4.205-15.138-2.125c-5.745-22.571-26.824-14.284-26.89-14.259c-2.261,0.838-3.412,3.356-2.569,5.617	c0.84,2.26,3.358,3.41,5.617,2.569c0.037-0.014,12.33-4.862,15.653,9.672c-7.653,2.125-23.065,8.441-25.265,25.13	c-0.314,2.392,1.372,4.587,3.767,4.898c2.392,0.31,4.585-1.377,4.898-3.768c1.961-14.892,20.135-18.249,22.058-18.563	c0.941-0.109,1.779-0.51,2.432-1.104c4.575-3.94,9.465-1.661,12.085,0.162c-3.303,12.052-1.653,22.691,0.545,29.893	c-21.289-5.036-33.719,9.752-35.374,11.88c-0.173,0.204-0.331,0.426-0.468,0.663c-12.235,21.414-37.032,13.115-44.845,9.814	c-0.763-35.072-40.518-27.845-40.635-27.824c-2.381,0.416-3.979,2.688-3.563,5.069c0.417,2.383,2.687,3.979,5.069,3.563	c0.086-0.014,28.423-5.158,30.3,18.026c-33.911,4.365-39.909,34.739-39.927,34.828c-0.482,2.365,1.045,4.675,3.407,5.155	c2.365,0.482,4.674-1.043,5.155-3.408c0.016-0.073,5.077-25.734,34.968-28.161c6.597,3.045,40.546,16.859,57.535-12.484	c1.378-1.761,13.205-15.784,34.177-5.828c1.112,0.581,2.454,0.67,3.665,0.177l0.004,0.009c0.033-0.011,11.967-5.007,12.148,9.389	c0.03,2.411,2.008,4.344,4.42,4.314C517.899,491.913,519.026,491.365,519.812,490.503L519.812,490.503z M505.818,385.493	L505.818,385.493c-0.234,0.183-0.495,0.347-0.775,0.483c-9.918,4.872-15.19,16.334-15.205,16.367	c-1.04,2.186-3.655,3.114-5.842,2.072c-2.183-1.04-3.111-3.655-2.071-5.839c0.017-0.041,6.487-14.128,19.223-20.415	c2.088,3.96,3.104,6.284,3.104,6.284C504.79,384.792,505.298,385.144,505.818,385.493L505.818,385.493z M130.414,345.338	L130.414,345.338c-0.991,1.952-1.955,3.971-2.886,6.062c0,0-1.507,0.559-4.011,1.768c0.095,0.214,0.211,0.427,0.344,0.631	c1.324,2.025,4.038,2.591,6.063,1.27c0.815-0.536,2.07-1.085,3.649-1.568c4.317-1.321,10.581-2.031,16.91-0.688	c6.116,1.294,12.273,4.577,16.631,11.239c0.818,1.251,1.572,2.616,2.259,4.1c-8.149,1.804-22.172,7.411-24.248,24.726	c-0.283,2.403,1.433,4.581,3.836,4.864c2.402,0.282,4.582-1.436,4.864-3.837c1.836-15.306,17.613-17.517,21.039-17.82	c15.198,4.797,16.19,18.479,16.196,18.516c0.207,2.403,2.325,4.182,4.727,3.974c2.402-0.208,4.18-2.324,3.974-4.727	c-0.006-0.056-1.378-18.703-20.944-25.649c-1.212-3.407-2.692-6.374-4.369-8.942c-5.826-8.907-14.02-13.288-22.148-15.008	c-7.917-1.679-15.805-0.773-21.259,0.894L130.414,345.338L130.414,345.338z M98.995,501.016L98.995,501.016	c2.23,2.984,4.533,5.673,6.897,8.078c0.947-0.775,1.563-1.941,1.602-3.262c0.376-12.938,3.218-23.22,9.092-30.22	c4.289-5.117,10.347-8.57,18.41-10.13c0.612,10.875,4.436,18.065,9.605,22.188c0.083,0.075,0.171,0.147,0.262,0.219	c3.087,2.373,6.61,3.659,10.218,3.998c3.515,0.326,7.099-0.258,10.422-1.627c6.866-2.83,12.694-9.034,14.517-17.414	c0.511-2.363-0.992-4.696-3.358-5.206c-2.362-0.511-4.695,0.994-5.206,3.356c-1.171,5.394-4.896,9.375-9.277,11.18	c-2.042,0.843-4.214,1.208-6.309,1.011c-2.001-0.187-3.952-0.9-5.663-2.215c-0.07-0.057-0.147-0.109-0.218-0.16	c-3.412-2.743-5.925-7.949-6.296-16.246l0.057-0.002c10.39-0.293,13.77-2.847,13.629-7.712c-0.078-2.729-1.702-5.109-3.75-8.108	c-4.255-6.229-11.178-16.361,0.753-30.738c1.543-1.863,1.284-4.625-0.582-6.164c-1.862-1.545-4.625-1.284-6.166,0.582	c-16.133,19.442-6.907,32.946-1.23,41.256c1.25,1.828,2.24,3.277,2.244,3.411c0.025,0.937-1.312-1.369-5.139-1.26	c-15.292,0.437-26.28,5.398-33.636,14.166C103.417,477.691,99.959,488.187,98.995,501.016L98.995,501.016z M185.527,520.964	L185.527,520.964c2.535-1.084,3.962-1.853,3.962-1.853c0.269,1.453,0.582,2.876,0.923,4.274l0.191-0.046	c2.335-0.614,3.73-3.008,3.116-5.344c-2.141-8.085-0.895-24.471,7.603-39.477c5.849-10.322,15.167-19.885,29.235-25.42	c1.327-0.415,2.317-1.411,2.778-2.624c1.189-2.496,10.916-21.892,24.712-18.648c3.348,1.29,28.55,10.344,38.333-4.879	c9.965,1.07,39.906,1.624,44.549-29.567c12.599-1.608,53.339-9.906,56.596-50.141c8.949,1.091,26.98,0.594,38.017-18.029	c1.229-2.081,0.538-4.766-1.542-5.994c-2.081-1.229-4.766-0.538-5.997,1.543c-9.443,15.94-25.588,14.605-31.326,13.541	c-11.829-31.02-39.237-14.731-39.318-14.684c-2.09,1.2-2.81,3.87-1.61,5.959c1.2,2.09,3.871,2.811,5.961,1.61	c0.054-0.032,19.209-11.428,27.249,11.524c-0.459,36.635-36.896,44.388-48.627,45.937c-10.593-38.64-42.538-17.823-42.631-17.765	c-2.042,1.286-2.656,3.986-1.371,6.028c1.286,2.043,3.987,2.656,6.03,1.371c0.064-0.042,23.212-15.135,30.192,15.389	c-2.855,30.111-35.491,24.647-37.669,24.248c-2.009-0.434-4.109,0.603-4.945,2.564c-5.123,12.057-26.553,4.041-28.81,3.16	c-0.241-0.109-0.495-0.199-0.761-0.265c-1.119-0.279-2.21-0.467-3.281-0.575c-6.591-25.201,8.303-25.07,8.346-25.07	c2.412-0.029,4.345-2.01,4.317-4.422c-0.03-2.411-2.008-4.341-4.419-4.313c-0.078,0-25.581-0.112-17.02,34.73	c-11.744,3.743-19.487,16.555-22.081,21.45c-16.039,3.777-18.827-6.981-18.836-7.013l-0.011,0.002	c-0.505-1.905-2.264-3.287-4.322-3.24c-10.973,0.297-10.981-11.538-10.981-11.569c-0.037-2.411-2.024-4.335-4.435-4.299	c-2.412,0.039-4.337,2.025-4.301,4.437c0,0.054,0.002,18.529,16.868,20.07c1.617,3.155,5.018,7.852,11.532,10.039	c-7.874,5.875-13.755,13.061-18.025,20.598c-9.716,17.155-11.014,36.374-8.46,46.018	C185.327,520.483,185.419,520.73,185.527,520.964L185.527,520.964z M307.836,566.481L307.836,566.481	c-0.802-1.632-0.525-3.656,0.825-5.016c2.887-2.887,5.468-12.825,4.846-23.425c-0.229-3.896-0.926-7.82-2.241-11.422	c-1.262-3.455-3.099-6.619-5.647-9.166l-0.007-0.008l-0.009,0.008c-4.386-4.388-11.071-7.089-20.877-6.571	c-0.177,0.02-0.356,0.033-0.542,0.033c-0.238,0-0.472-0.021-0.7-0.058c-1.993-0.22-19.463-1.778-18.316,12.016	c0.198,2.411-1.597,4.53-4.009,4.728c-2.411,0.197-4.526-1.595-4.724-4.007c-1.584-19.002,14.861-21.579,23.365-21.654v-15.549	c-26.461,1.345-18.245-29.702-18.224-29.797c0.596-2.337,2.973-3.746,5.31-3.151c2.337,0.596,3.747,2.973,3.152,5.31	c-0.016,0.061-5.761,21.806,13.394,18.406c0.77-0.134,1.53-0.058,2.217,0.188c2.892,0.812,32.171,8.348,43.74-16.543	c-10.795-7.871-23.2,0.117-23.25,0.149c-2.044,1.285-4.745,0.672-6.031-1.371c-1.284-2.042-0.67-4.742,1.371-6.028	c0.102-0.064,35.513-22.852,48.318,25.99c0.605,2.334-0.798,4.72-3.135,5.326c-2.336,0.604-4.722-0.799-5.326-3.136	c-1.551-5.909-3.494-10.465-5.672-13.95c-12.304,22.01-36.227,20.934-47.098,19.121v15.186c10.375,0.3,17.908,3.837,23.234,9.162	l-0.011,0.009c3.522,3.523,6.021,7.785,7.696,12.377c1.622,4.446,2.476,9.206,2.753,13.89c0.756,12.866-3.08,25.667-7.284,30.006	c-2.048-1.717-3.195-2.985-3.195-2.985C310.467,565.223,309.154,565.862,307.836,566.481L307.836,566.481z M356.359,439.262	L356.359,439.262c-1.823,1.579-4.586,1.381-6.166-0.447c-1.578-1.826-1.38-4.586,0.447-6.165c0.057-0.049,12.676-11.2,27.248-9.909	c-1.272-7.028-0.419-14.339,2.364-20.88c3.329-7.822,9.413-14.572,17.91-18.456c1.459-0.667,2.993-1.25,4.603-1.739	c10.648-3.241,17.469-0.355,21.763,3.831c2.37-8.868,7.703-19.965,19.691-26.09c22.857-11.673,39.205,9.492,39.254,9.553	c1.485,1.901,1.146,4.649-0.755,6.132s-4.646,1.145-6.131-0.756c-0.033-0.044-12-15.527-28.393-7.151	c-12.937,6.605-15.935,21.089-16.625,27.89c11.873,4.141,7.691,26.532,7.679,26.602c-0.416,2.383-2.688,3.979-5.068,3.562	c-2.384-0.416-3.979-2.684-3.563-5.069c0.006-0.049,3.146-17.237-3.481-17.009c-2.149,0.068-3.983-1.431-4.413-3.463l-0.008,0.005	c-0.008-0.041-2.817-14.118-17.418-9.678c-1.214,0.371-2.387,0.815-3.505,1.327c-6.391,2.922-10.974,8.018-13.491,13.935	c-2.53,5.948-2.979,12.705-1.09,18.914c0.146,0.489,0.311,0.978,0.495,1.464c5.908,3.138,11.758,9.041,16.885,19.182	c1.088,2.154,0.221,4.785-1.937,5.872c-2.155,1.089-4.785,0.222-5.873-1.937C380.967,417.507,356.429,439.201,356.359,439.262z M423.137,541.625L423.137,541.625c-1.174,2.107-3.833,2.866-5.944,1.695c-2.106-1.174-2.866-3.834-1.694-5.944	c0.049-0.087,16.168-29.726,38.868-16.994c4.502-4.787,14.463-13.063,29.03-12.39c22.771,1.058,20.019,19.913,20.012,19.966	c-0.312,2.392-2.507,4.08-4.898,3.767c-2.39-0.313-4.077-2.506-3.767-4.897c0.005-0.026,1.409-9.491-11.724-10.1	c-11.06-0.513-18.619,5.712-22.068,9.357c14.538,19.052-6.838,38.677-6.903,38.735c-1.759,1.654-4.526,1.569-6.181-0.188	c-1.656-1.76-1.572-4.53,0.188-6.185c0.048-0.045,16.938-15.574,4.295-28.983C436.065,517.892,423.173,541.557,423.137,541.625	L423.137,541.625z"/><path fill="#F5A209" d="M348.887,565.768c2.846,6.288-1.764,6.908-2.428,9.52c4.275,4.038,22.813,14.017,36.33,25.586	c16.397,14.036,13.895,19.629,24.801,20.278c5.544,0.329,17.178-2.112,16.229-9.964c-1.701-14.062-26.967-36.723-26.967-36.723	s0.024,0.011,0.077,0.037l-10.303-8.496C374.406,574.652,361.722,572.046,348.887,565.768z"/><path fill="#FBB429" d="M348.887,565.768c7.311,7.973,44.748,38.826,52.345,47.484c7.596,8.657,21.514,0.163,17.902-9.62	c-3.612-9.787-32.507-37.626-32.507-37.626c0.281,0.172-1.535-1.268-2.56-2.112C367.709,573.125,356.916,566.039,348.887,565.768	L348.887,565.768z"/><path fill="#20D0C2" d="M226.379,95.722c-47.711,0-86.389,38.677-86.389,86.388c0,47.712,38.678,86.391,86.389,86.391	c13.845,0,26.932-3.261,38.528-9.052l43.918,25.292l-26.888-36.479c18.853-15.845,30.833-39.599,30.833-66.151	C312.769,134.398,274.092,95.722,226.379,95.722L226.379,95.722z"/><path fill="#20D0C2" d="M481.62,137.722c47.713,0,86.392,38.677,86.392,86.388c0,47.712-38.679,86.391-86.392,86.391	c-13.846,0-26.928-3.261-38.525-9.052l-43.919,25.292l26.888-36.479c-18.852-15.845-30.831-39.599-30.831-66.151	C395.232,176.398,433.909,137.722,481.62,137.722L481.62,137.722z"/><path fill="#20D0C2" d="M-19.222,220.603c-41.702,23.181-56.717,75.777-33.537,117.479c23.181,41.702,75.779,56.718,117.48,33.537	c12.102-6.727,21.956-15.934,29.278-26.63l50.674,0.769l-41.224-18.82c8.778-23.009,7.709-49.591-5.191-72.799	C75.078,212.436,22.481,197.421-19.222,220.603L-19.222,220.603z"/><path fill="#20D0C2" d="M-75.926,548.375c-3.291,47.598,32.626,88.852,80.223,92.143c47.598,3.291,88.853-32.628,92.144-80.225	c0.955-13.813-1.395-27.093-6.373-39.062l28.261-42.068l-38.246,24.308c-14.508-19.9-37.378-33.49-63.867-35.321	C-31.383,464.859-72.635,500.776-75.926,548.375L-75.926,548.375z"/><path fill="#20D0C2" d="M180.092,739.531c38.518,28.154,92.567,19.754,120.722-18.765c28.155-38.519,19.754-92.569-18.765-120.724	c-11.178-8.17-23.666-13.261-36.446-15.428l-20.531-46.336l0.181,45.316c-24.57,1.669-48.259,13.775-63.928,35.213	C133.17,657.328,141.572,711.376,180.092,739.531L180.092,739.531z"/><path fill="#20D0C2" d="M512.362,765.073c47.367,5.721,90.404-28.04,96.125-75.406c5.721-47.368-28.042-90.405-75.408-96.126	c-13.746-1.66-27.129,0.008-39.336,4.367l-40.568-30.375l22.319,39.438c-20.615,13.472-35.357,35.616-38.541,61.978	C431.233,716.317,464.994,759.353,512.362,765.073L512.362,765.073z"/><path fill="#20D0C2" d="M655.268,577.47c41.879-22.86,57.296-75.341,34.437-117.218c-22.861-41.879-75.343-57.297-117.221-34.438	c-12.152,6.635-22.077,15.766-29.48,26.406l-50.667-1.157l41.079,19.136c-8.955,22.94-8.09,49.53,4.633,72.837	C560.909,584.914,613.388,600.33,655.268,577.47L655.268,577.47z"/><text fill="#FFF" font-family="'MyriadPro-Regular'" font-size="120" transform="matrix(1 0 0 1 -8 337.7402)">1</text><text fill="#FFF" font-family="'MyriadPro-Regular'" font-size="120" transform="matrix(1 0 0 1 196 222.7402)">7</text><text fill="#FFF" font-family="'MyriadPro-Regular'" font-size="120" transform="matrix(1 0 0 1 453 262.7402)">2</text><text fill="#FFF" font-family="'MyriadPro-Regular'" font-size="120" transform="matrix(1 0 0 1 -23 593.4736)">4</text><text fill="#FFF" font-family="'MyriadPro-Regular'" font-size="120" transform="matrix(1 0 0 1 203 708.7402)">5</text><text fill="#FFF" font-family="'MyriadPro-Regular'" font-size="120" transform="matrix(1 0 0 1 498.3359 721.7402)">3</text><text fill="#FFF" font-family="'MyriadPro-Regular'" font-size="120" transform="matrix(1 0 0 1 579 538.2793)">6</text></svg>