<svg xmlns="http://www.w3.org/2000/svg" xmlns:xlink="http://www.w3.org/1999/xlink" width="24" height="24" x="0" y="0" enable-background="new 0 0 24 24" version="1.1" viewBox="0 0 24 24" xml:space="preserve"><g id="Header"><g><rect width="1400" height="3600" x="-618" y="-440" fill="none"/></g></g><g id="Icon"><g><g><path fill-opacity=".9" d="M12,2C6.5,2,2,6.5,2,12s4.5,10,10,10c5.5,0,10-4.5,10-10S17.5,2,12,2z M12,20c-4.4,0-8-3.6-8-8 s3.6-8,8-8c4.4,0,8,3.6,8,8S16.4,20,12,20z"/></g><rect width="24" height="24" fill="none"/><polygon fill-opacity=".9" points="12.5 7 11 7 11 13 16.2 16.2 17 14.9 12.5 12.2"/></g></g></svg>