<svg xmlns="http://www.w3.org/2000/svg" xmlns:xlink="http://www.w3.org/1999/xlink" id="Capa_1" width="600" height="600" x="0" y="0" enable-background="new 96 96 600 600" version="1.1" viewBox="96 96 600 600" xml:space="preserve"><path fill="#EA6248" d="M599.604,144.443c-1.997-1.748-4.634-2.543-7.297-2.229l-286.75,37.102	c-4.616,0.602-8.066,4.524-8.066,9.176v55.656v38.961v240.823c-16.067-18.407-41.125-30.294-69.366-30.294	c-48.535,0-87.875,34.975-87.875,78.106c0,43.133,39.34,78.108,87.875,78.108S316,614.879,316,571.747	c0-3.071-0.25-6.087-0.639-9.074c0.37-0.999,0.639-2.044,0.639-3.173V291.231l268.249-34.715v174.907	c-16.076-18.398-41.135-30.285-69.375-30.285c-48.534,0-87.875,34.975-87.875,78.106c0,43.133,39.341,78.106,87.875,78.106	c48.535,0,87.875-34.974,87.875-78.106c0-0.85-0.111-1.674-0.139-2.515c0.018-0.251,0.139-0.464,0.139-0.713V245.99v-38.951v-55.648	C602.749,148.727,601.603,146.192,599.604,144.443z"/></svg>