<svg xmlns="http://www.w3.org/2000/svg" xmlns:xlink="http://www.w3.org/1999/xlink" id="Layer_1" width="600" height="600" x="0" y="0" enable-background="new 96 96 600 600" version="1.1" viewBox="96 96 600 600" xml:space="preserve"><path fill="#5DACD8" d="M586.472,383.431c14.3-27.52,20.426-54.688,17.697-78.813l-0.918-8.12l-16.24,1.837l0.918,8.119	c2.057,18.189-1.871,38.69-11.365,59.939c-12.99-20.25-30.13-40.104-50.258-58.168c-5.593-26.491-14.223-51.264-25.263-72.63	c23.151,2.398,42.876,9.254,57.606,20.15l6.57,4.859l9.719-13.14l-6.571-4.859c-19.541-14.453-46.142-22.738-77.128-24.104	c-25.633-40.26-59.322-62.367-95.241-62.367s-69.609,22.108-95.243,62.367c-30.98,1.367-57.581,9.648-77.125,24.092l-6.572,4.858	l9.713,13.144l6.572-4.857c14.734-10.89,34.46-17.743,57.609-20.14c-11.04,21.367-19.671,46.14-25.261,72.63	c-20.131,18.067-37.269,37.919-50.26,58.168c-9.494-21.248-13.422-41.75-11.365-59.938l0.917-8.12l-16.24-1.837l-0.918,8.12	c-2.729,24.125,3.397,51.292,17.696,78.813c-22.05,42.351-24.353,82.587-6.396,113.684c17.96,31.102,53.959,49.226,101.656,51.304	c16.659,26.136,37.126,45.025,59.41,54.733l7.492,3.263l6.528-14.982l-7.492-3.264c-16.796-7.317-32.586-20.966-46.226-39.8	c24.022-1.127,49.786-6.052,75.501-14.45c25.718,8.398,51.479,13.323,75.502,14.45c-13.639,18.833-29.429,32.483-46.228,39.8	l-7.491,3.264l6.528,14.982l7.492-3.263c22.284-9.708,42.753-28.601,59.41-54.733c47.698-2.079,83.696-20.204,101.656-51.304	C610.823,466.017,608.521,425.781,586.472,383.431z M567.834,383.45c-9.489,16.415-22.033,32.752-36.942,48.161	c2.047-15.749,3.099-31.862,3.099-48.161c0-16.296-1.052-32.406-3.099-48.154C545.805,350.708,558.348,367.042,567.834,383.45z M481.908,532.268c-18.946-0.012-39.361-2.708-60.168-7.915c14.652-6.101,29.132-13.245,43.256-21.398	c14.121-8.151,27.547-17.118,40.156-26.76C499.252,496.831,491.376,515.861,481.908,532.268z M310.088,532.268	c-9.468-16.405-17.344-35.435-23.242-56.072c12.609,9.642,26.037,18.606,40.157,26.759c14.123,8.153,28.604,15.3,43.256,21.4	C349.45,529.561,329.039,532.258,310.088,532.268z M370.257,242.545c-14.652,6.101-29.132,13.245-43.256,21.399	c-14.125,8.154-27.549,17.121-40.153,26.758c5.898-20.632,13.774-39.663,23.24-56.073	C329.037,234.643,349.449,237.339,370.257,242.545z M335.173,488.8c-19.742-11.397-38.065-24.432-54.543-38.741	c-4.154-21.438-6.282-43.824-6.282-66.608c0-22.778,2.128-45.162,6.282-66.6c16.465-14.307,34.788-27.345,54.543-38.75	c19.748-11.402,40.199-20.752,60.825-27.867c20.625,7.114,41.076,16.464,60.824,27.867c19.754,11.404,38.075,24.44,54.543,38.75	c4.153,21.438,6.282,43.822,6.282,66.6c0,22.784-2.129,45.171-6.282,66.608c-16.477,14.309-34.8,27.343-54.543,38.741	c-19.747,11.401-40.197,20.754-60.824,27.866C375.373,509.552,354.922,500.201,335.173,488.8z M481.907,234.631	c9.466,16.41,17.342,35.439,23.241,56.073c-12.604-9.639-26.03-18.604-40.154-26.759c-14.124-8.154-28.604-15.299-43.255-21.399	C442.547,237.34,462.963,234.644,481.907,234.631z M395.999,172.477c27.539,0,53.979,16.245,75.524,46.066	c-24.026,1.125-49.798,6.039-75.525,14.439c-25.728-8.402-51.499-13.319-75.525-14.441	C342.02,188.722,368.459,172.477,395.999,172.477z M261.104,335.296c-2.045,15.748-3.099,31.858-3.099,48.154	c0,16.301,1.052,32.413,3.099,48.161c-14.91-15.411-27.453-31.747-36.942-48.161C233.647,367.042,246.19,350.71,261.104,335.296z M213.283,488.94c-13.768-23.842-12.917-54.867,2.138-88.452c12.997,20.266,30.138,40.127,50.271,58.194	c5.593,26.498,14.224,51.275,25.267,72.635C254.348,527.562,227.052,512.787,213.283,488.94z M578.713,488.94	c-13.769,23.847-41.066,38.621-77.675,42.378c11.043-21.361,19.674-46.138,25.266-72.634c20.135-18.068,37.275-37.93,50.272-58.194	C591.629,434.074,592.479,465.099,578.713,488.94z"/><circle cx="395.995" cy="383.445" r="69.047" fill="#4EB79B"/><path fill="#40A084" d="M395.999,452.498c-38.136,0-69.047-30.913-69.047-69.047c0-38.137,30.913-69.047,69.047-69.047	c-21.208,0-38.382,30.912-38.382,69.047C357.616,421.586,374.792,452.498,395.999,452.498z"/><g><circle cx="395.995" cy="602.596" r="33.27" fill="#F7A872"/><circle cx="585.791" cy="273.875" r="33.27" fill="#F7A872"/><circle cx="206.21" cy="273.875" r="33.27" fill="#F7A872"/></g><g><path fill="#E09461" d="M205.865,306.801c-6,0-11.621-1.603-16.463-4.419c-9.834-5.679-16.463-16.325-16.463-28.507 c0-18.191,14.746-32.925,32.926-32.925c-8.438,0-15.272,14.734-15.272,32.925c0,12.181,3.079,22.828,7.636,28.507 C200.474,305.199,203.084,306.801,205.865,306.801z"/><path fill="#E09461" d="M585.442,306.801c-6,0-11.621-1.603-16.463-4.419c-9.834-5.679-16.463-16.325-16.463-28.507 c0-18.191,14.745-32.925,32.926-32.925c-8.438,0-15.271,14.734-15.271,32.925c0,12.181,3.079,22.828,7.635,28.507 C580.05,305.199,582.661,306.801,585.442,306.801z"/><path fill="#E09461" d="M395.654,635.523c-5.999,0-11.62-1.604-16.462-4.42c-9.835-5.678-16.463-16.324-16.463-28.507 c0-18.191,14.746-32.925,32.925-32.925c-8.438,0-15.271,14.734-15.271,32.925c0,12.181,3.079,22.828,7.636,28.507 C390.262,633.924,392.871,635.523,395.654,635.523z"/></g></svg>