<svg xmlns="http://www.w3.org/2000/svg" xmlns:xlink="http://www.w3.org/1999/xlink" id="Layer_1" width="600" height="600" x="0" y="0" enable-background="new 6 96 600 600" version="1.1" viewBox="6 96 600 600" xml:space="preserve"><path fill="#FFBCAB" d="M465.916,95.105c0,60.321-36.906,58.311-36.906,160.748c0,101.695,84.884,172.636,84.884,278.431	s-62.74,163.608-62.74,163.608H157.755c0,0-62.74-57.813-62.74-163.608s84.882-176.737,84.882-278.431	c0-102.437-36.905-100.427-36.905-160.748H465.916z"/><path fill="#F29E91" d="M297.068,697.895V556.376c0-5.094,4.132-9.226,9.227-9.226c5.097,0,9.227,4.132,9.227,9.226v141.519H297.068	L297.068,697.895z"/><g><path fill="#9CE0B8" d="M5.003,288.453h62.219c3.005,0,5.441-2.435,5.441-5.441v-22.019c0-4.848,5.862-7.274,9.289-3.847 l38.223,39.453c2.125,2.125,2.125,5.57,0,7.696L84.311,340.16c-3.428,3.428-9.289,1-9.289-3.848v-14.124 c0-3.005-2.436-5.441-5.441-5.441H5.003V288.453z"/><path fill="#9CE0B8" d="M607.997,308.854h-62.22c-3.005,0-5.44,2.436-5.44,5.441v22.018c0,4.849-5.861,7.275-9.288,3.848 l-38.224-39.454c-2.123-2.124-2.123-5.571,0-7.696l35.865-35.866c3.429-3.428,9.289-1,9.289,3.848v14.124 c0,3.006,2.436,5.44,5.44,5.44h64.576v28.294h0.001V308.854z"/></g><g><path fill="#F29E91" d="M481.019,414.816l-135.68,146.676c-21.922,21.921-57.463,21.921-79.383,0L127.889,414.816H481.019z"/><path fill="#F29E91" d="M306.606,336.071c-5.096,0-9.227-4.131-9.227-9.226v-19.512c0-5.095,4.131-9.226,9.227-9.226 c5.097,0,9.226,4.13,9.226,9.226v19.512C315.832,331.939,311.701,336.071,306.606,336.071z"/></g><path fill="#52A2E7" d="M481.019,414.816l-135.68,134.188c-21.922,21.919-57.463,21.919-79.383,0L127.889,414.816H481.019z"/></svg>