<svg xmlns="http://www.w3.org/2000/svg" xmlns:xlink="http://www.w3.org/1999/xlink" id="Layer_1" width="612" height="612" x="0" y="0" enable-background="new 26.421 90 612 612" version="1.1" viewBox="26.421 90 612 612" xml:space="preserve"><g><g><rect width="400.965" height="42.207" x="131.852" y="385.447" fill="#8CA5B4"/></g></g><g><g><rect width="21.104" height="84.414" x="363.99" y="585.93" fill="#A4BFCE"/></g></g><g><g><path fill="#8CA5B4" d="M448.404,702H363.99c-5.828,0-10.555-4.725-10.555-10.553v-21.104c0-5.828,4.727-10.553,10.555-10.553 h24.805c4.537,0,9.043,0.732,13.348,2.166l49.6,16.533c4.309,1.436,7.215,5.467,7.215,10.008v2.949 C458.955,697.275,454.23,702,448.404,702z"/></g></g><g><g><rect width="21.104" height="84.414" x="279.576" y="585.93" fill="#A4BFCE"/></g></g><g><g><circle cx="290.127" cy="554.275" r="42.207" fill="#8CA5B4"/></g></g><g><g><circle cx="374.541" cy="554.275" r="42.207" fill="#8CA5B4"/></g></g><g><g><rect width="21.104" height="147.725" x="131.852" y="427.654" fill="#A4BFCE"/></g></g><g><g><circle cx="142.403" cy="406.552" r="31.655" fill="#B7D3E2"/></g></g><g><g><circle cx="142.403" cy="406.552" r="10.552" fill="#A4BFCE"/></g></g><g><g><polygon fill="#8CA5B4" points="152.956 512.068 131.852 522.621 131.852 501.518 152.956 490.965"/></g></g><g><g><polygon fill="#8CA5B4" points="152.956 469.861 131.852 480.414 131.852 459.311 152.956 448.758"/></g></g><g><g><path fill="#8CA5B4" d="M163.506,607.033c-5.833,0-10.552-4.719-10.552-10.551v-31.656c0-5.82-4.729-10.551-10.552-10.551 c-5.822,0-10.552,4.729-10.552,10.551v31.656c0,5.832-4.719,10.551-10.552,10.551s-10.552-4.719-10.552-10.551v-31.656 c0-17.455,14.2-31.654,31.655-31.654s31.655,14.199,31.655,31.654v31.656C174.059,602.314,169.339,607.033,163.506,607.033z"/></g></g><g><g><rect width="21.108" height="147.739" x="540.887" y="231.481" fill="#A4BFCE" transform="matrix(-0.9665 -0.2568 0.2568 -0.9665 1005.9797 742.0677)"/></g></g><g><g><circle cx="522.266" cy="406.552" r="31.655" fill="#B7D3E2"/></g></g><g><g><circle cx="522.266" cy="406.552" r="10.552" fill="#A4BFCE"/></g></g><g><g><polygon fill="#8CA5B4" points="564.34 297.843 546.652 282.227 541.232 302.623 558.92 318.241"/></g></g><g><g><polygon fill="#8CA5B4" points="553.5 338.635 535.813 323.019 530.395 343.415 548.082 359.031"/></g></g><g><g><path fill="#8CA5B4" d="M558.131,197.935c5.637,1.498,8.986,7.271,7.488,12.908l-8.129,30.594 c-1.494,5.626,1.859,11.413,7.486,12.908c5.625,1.494,11.412-1.862,12.906-7.488l8.131-30.594 c1.496-5.637,7.271-8.986,12.906-7.488c5.637,1.498,8.986,7.27,7.488,12.908l-8.129,30.594 c-4.482,16.87-21.854,26.947-38.725,22.464c-16.871-4.483-26.949-21.853-22.467-38.722l8.131-30.594 C546.721,199.786,552.494,196.438,558.131,197.935z"/></g></g><g><g><path fill="#A4BFCE" d="M416.748,575.379H247.92c-17.483,0-31.655-14.172-31.655-31.654V406.551h232.139v137.174 C448.404,561.207,434.23,575.379,416.748,575.379z"/></g></g><g><g><g><path fill="#B7D3E2" d="M448.404,406.551H216.266c-29.137,0-52.759-23.621-52.759-52.758V206.068 c0-29.137,23.622-52.758,52.759-52.758h232.139c29.137,0,52.758,23.621,52.758,52.758v147.725 C501.162,382.93,477.541,406.551,448.404,406.551z"/></g></g><g><g><path fill="#B7D3E2" d="M332.334,353.793c-62.791,0-120.964-14.735-168.828-39.786v39.786c0,29.137,23.622,52.758,52.759,52.758 h232.139c29.137,0,52.758-23.621,52.758-52.758v-39.786C453.299,339.058,395.125,353.793,332.334,353.793z"/></g></g><g><g><path fill="#7891A0" d="M263.749,301.035L263.749,301.035c-8.741,0-15.827-7.087-15.827-15.828v-21.104 c0-8.741,7.086-15.828,15.827-15.828l0,0c8.741,0,15.828,7.087,15.828,15.828v21.104 C279.576,293.948,272.489,301.035,263.749,301.035z"/></g></g><g><g><path fill="#7891A0" d="M400.92,301.035L400.92,301.035c-8.74,0-15.826-7.087-15.826-15.828v-21.104 c0-8.741,7.086-15.828,15.826-15.828l0,0c8.742,0,15.828,7.087,15.828,15.828v21.104 C416.748,293.948,409.662,301.035,400.92,301.035z"/></g></g><g><g><path fill="#8CA5B4" d="M337.59,357.377c-15.339,0-29.55-12.726-41.243-34.358v16.134c11.693,21.633,25.904,34.359,41.243,34.359 c15.339,0,29.55-12.727,41.244-34.359v-16.134C367.141,344.651,352.93,357.377,337.59,357.377z"/></g></g><g><g><path fill="#A4BFCE" d="M269.023,174.414L269.023,174.414c-5.827,0-10.552-4.725-10.552-10.552v-42.207 c0-5.827,4.725-10.552,10.552-10.552l0,0c5.827,0,10.552,4.725,10.552,10.552v42.207 C279.576,169.688,274.852,174.414,269.023,174.414z"/></g></g><g><g><circle cx="269.023" cy="111.104" r="21.104" fill="#B7D3E2"/></g></g><g><g><path fill="#A4BFCE" d="M258.473,111.104c0-9.822,6.742-18.004,15.828-20.357c-1.696-0.44-3.443-0.747-5.277-0.747 c-11.654,0-21.103,9.448-21.103,21.104c0,11.654,9.449,21.104,21.103,21.104c1.833,0,3.58-0.308,5.276-0.747 C265.213,129.106,258.473,120.925,258.473,111.104z"/></g></g><g><g><path fill="#A4BFCE" d="M395.645,174.414L395.645,174.414c-5.824,0-10.551-4.725-10.551-10.552v-42.207 c0-5.827,4.727-10.552,10.551-10.552l0,0c5.828,0,10.555,4.725,10.555,10.552v42.207 C406.197,169.688,401.473,174.414,395.645,174.414z"/></g></g><g><g><circle cx="395.645" cy="111.104" r="21.104" fill="#B7D3E2"/></g></g><g><g><path fill="#A4BFCE" d="M385.094,111.104c0-9.822,6.74-18.004,15.826-20.357c-1.695-0.44-3.441-0.747-5.275-0.747 c-11.65,0-21.104,9.448-21.104,21.104c0,11.654,9.449,21.104,21.104,21.104c1.834,0,3.58-0.308,5.275-0.747 C391.834,129.106,385.094,120.925,385.094,111.104z"/></g></g></g><g><g><path fill="#8CA5B4" d="M216.266,702h84.414c5.827,0,10.552-4.725,10.552-10.553v-21.104c0-5.828-4.725-10.553-10.552-10.553 h-24.806c-4.536,0-9.043,0.732-13.347,2.166L212.93,678.49c-4.309,1.436-7.214,5.467-7.214,10.008v2.949 C205.713,697.275,210.438,702,216.266,702z"/></g></g><g><g><path fill="#FFF" d="M312.82,251.892c1.003,34.776-23.628,63.866-55.011,64.969c-31.381,1.12-57.632-26.177-58.634-60.951 c-1.002-34.776,23.624-63.864,55.008-64.977C285.566,189.819,311.824,217.113,312.82,251.892z"/><path fill="#221E1D" d="M292.931,252.592c0.655,22.604-15.354,41.513-35.756,42.233c-20.398,0.721-37.46-17.011-38.11-39.618 c-0.654-22.609,15.355-41.521,35.753-42.237C275.215,212.248,292.277,229.985,292.931,252.592z"/></g><path fill="#FFF" d="M277.221,249.997c0.14,5.215-3.547,9.582-8.257,9.749c-4.706,0.164-8.645-3.931-8.794-9.146 c-0.148-5.223,3.544-9.581,8.25-9.749C273.125,240.688,277.063,244.782,277.221,249.997z"/></g><g><g><path fill="#FFF" d="M466.227,250.602c1.033,35.84-24.352,65.819-56.691,66.957c-32.34,1.154-59.397-26.978-60.426-62.815 c-1.035-35.84,24.344-65.818,56.688-66.965C438.139,186.631,465.199,214.759,466.227,250.602z"/><path fill="#221E1D" d="M445.73,251.325c0.674,23.294-15.824,42.782-36.852,43.524c-21.021,0.743-38.605-17.531-39.277-40.829 c-0.672-23.301,15.826-42.791,36.85-43.529C427.473,209.746,445.057,228.026,445.73,251.325z"/></g><path fill="#FFF" d="M429.539,248.649c0.143,5.375-3.656,9.874-8.512,10.047c-4.852,0.169-8.908-4.051-9.063-9.425 c-0.154-5.383,3.652-9.874,8.502-10.046C425.316,239.055,429.377,243.275,429.539,248.649z"/></g></svg>