<svg width="648" height="648" viewBox="0 0 648 648" fill="none" xmlns="http://www.w3.org/2000/svg">
<g opacity="0.8" filter="url(#filter0_d_6_270)">
<path d="M574 310C574 171.929 462.071 60 324 60C185.929 60 74 171.929 74 310C74 448.071 185.929 560 324 560C462.071 560 574 448.071 574 310Z" fill="#1D1A27"/>
</g>
<g opacity="0.8" filter="url(#filter1_d_6_270)">
<path d="M574 310C574 171.929 462.071 60 324 60C185.929 60 74 171.929 74 310C74 448.071 185.929 560 324 560C462.071 560 574 448.071 574 310Z" fill="#1D1A27"/>
</g>
<g opacity="0.8" filter="url(#filter2_d_6_270)">
<path d="M440 472.5C440 469.462 437.538 467 434.5 467C431.462 467 429 469.462 429 472.5V473.5C429 476.538 431.462 479 434.5 479C437.538 479 440 476.538 440 473.5V472.5Z" fill="#7EF36F"/>
</g>
<path d="M169.435 171.2V208.064H181.595V216H147.995V208.064H161.051V180.16L154.075 184.384L149.723 177.856L161.051 171.264V171.2H169.435ZM203.072 184.96C206.315 184.96 209.216 185.643 211.776 187.008C214.336 188.373 216.341 190.272 217.792 192.704C219.285 195.136 220.032 197.867 220.032 200.896C220.032 203.925 219.285 206.656 217.792 209.088C216.341 211.52 214.336 213.419 211.776 214.784C209.216 216.149 206.315 216.832 203.072 216.832C199.872 216.832 196.971 216.149 194.368 214.784C191.808 213.419 189.803 211.52 188.352 209.088C186.901 206.656 186.176 203.925 186.176 200.896C186.176 197.952 186.88 195.264 188.288 192.832H188.224L201.792 171.2H211.456L202.816 184.96H203.072ZM203.072 208.704C205.461 208.704 207.445 207.957 209.024 206.464C210.645 204.928 211.456 203.072 211.456 200.896C211.456 198.72 210.645 196.885 209.024 195.392C207.403 193.856 205.419 193.088 203.072 193.088C200.768 193.088 198.805 193.835 197.184 195.328C195.563 196.821 194.752 198.677 194.752 200.896C194.752 203.115 195.563 204.971 197.184 206.464C198.805 207.957 200.768 208.704 203.072 208.704ZM243.447 184.96C246.69 184.96 249.591 185.643 252.151 187.008C254.711 188.373 256.716 190.272 258.167 192.704C259.66 195.136 260.407 197.867 260.407 200.896C260.407 203.925 259.66 206.656 258.167 209.088C256.716 211.52 254.711 213.419 252.151 214.784C249.591 216.149 246.69 216.832 243.447 216.832C240.247 216.832 237.346 216.149 234.743 214.784C232.183 213.419 230.178 211.52 228.727 209.088C227.276 206.656 226.551 203.925 226.551 200.896C226.551 197.952 227.255 195.264 228.663 192.832H228.599L242.167 171.2H251.831L243.191 184.96H243.447ZM243.447 208.704C245.836 208.704 247.82 207.957 249.399 206.464C251.02 204.928 251.831 203.072 251.831 200.896C251.831 198.72 251.02 196.885 249.399 195.392C247.778 193.856 245.794 193.088 243.447 193.088C241.143 193.088 239.18 193.835 237.559 195.328C235.938 196.821 235.127 198.677 235.127 200.896C235.127 203.115 235.938 204.971 237.559 206.464C239.18 207.957 241.143 208.704 243.447 208.704ZM313.252 192.192C314.745 193.429 315.918 194.965 316.772 196.8C317.625 198.592 318.052 200.491 318.052 202.496C318.052 204.928 317.454 207.189 316.26 209.28C315.108 211.328 313.529 212.971 311.524 214.208C309.518 215.403 307.342 216 304.996 216H284.772V171.2H304.036C306.254 171.2 308.302 171.776 310.18 172.928C312.057 174.08 313.55 175.637 314.66 177.6C315.769 179.52 316.324 181.589 316.324 183.808C316.324 185.344 316.046 186.837 315.492 188.288C314.98 189.739 314.233 191.04 313.252 192.192ZM293.092 179.136V189.184L304.036 189.12C305.23 189.12 306.297 188.651 307.236 187.712C308.174 186.731 308.644 185.536 308.644 184.128C308.644 182.72 308.174 181.547 307.236 180.608C306.297 179.627 305.23 179.136 304.036 179.136H293.092ZM304.996 208C306.404 208 307.598 207.445 308.58 206.336C309.561 205.227 310.052 203.925 310.052 202.432C310.052 200.896 309.561 199.573 308.58 198.464C307.598 197.355 306.404 196.8 304.996 196.8H293.092V208H304.996ZM324.147 216V171.2H332.467V216H324.147ZM348.717 171.2V208.064H367.661V216H340.397V171.2H348.717ZM381.279 171.2V208.064H400.223V216H372.959V171.2H381.279ZM405.522 216V171.2H413.842V216H405.522ZM443.224 216.832C439.042 216.832 435.181 215.808 431.64 213.76C428.098 211.669 425.282 208.853 423.192 205.312C421.144 201.771 420.12 197.909 420.12 193.728C420.12 189.547 421.144 185.685 423.192 182.144C425.282 178.603 428.098 175.808 431.64 173.76C435.181 171.669 439.042 170.624 443.224 170.624C447.405 170.624 451.266 171.669 454.808 173.76C458.349 175.808 461.144 178.603 463.192 182.144C465.282 185.685 466.328 189.547 466.328 193.728C466.328 197.909 465.282 201.771 463.192 205.312C461.144 208.853 458.349 211.669 454.808 213.76C451.266 215.808 447.405 216.832 443.224 216.832ZM443.224 208.448C445.869 208.448 448.322 207.787 450.583 206.464C452.845 205.141 454.637 203.349 455.96 201.088C457.282 198.827 457.944 196.373 457.944 193.728C457.944 191.083 457.282 188.629 455.96 186.368C454.637 184.107 452.845 182.315 450.583 180.992C448.322 179.669 445.869 179.008 443.224 179.008C440.578 179.008 438.104 179.669 435.8 180.992C433.538 182.315 431.746 184.107 430.424 186.368C429.101 188.629 428.44 191.083 428.44 193.728C428.44 196.373 429.101 198.827 430.424 201.088C431.746 203.349 433.538 205.141 435.8 206.464C438.104 207.787 440.578 208.448 443.224 208.448ZM499.519 199.36V171.2H507.903V216H500.799L481.279 185.664V216H472.959V171.2H481.279V171.264L481.343 171.2L499.519 199.36Z" fill="white"/>
<path d="M133.504 236.8C134.92 236.8 136.228 237.148 137.428 237.844C138.628 238.54 139.576 239.488 140.272 240.688C140.968 241.864 141.316 243.16 141.316 244.576C141.316 245.992 140.968 247.3 140.272 248.5C139.576 249.7 138.628 250.648 137.428 251.344C136.228 252.04 134.92 252.388 133.504 252.388H127.672V262H125.08V236.8H133.504ZM133.504 249.904C134.464 249.904 135.352 249.664 136.168 249.184C136.984 248.704 137.632 248.056 138.112 247.24C138.592 246.424 138.832 245.536 138.832 244.576C138.832 243.616 138.592 242.74 138.112 241.948C137.632 241.132 136.984 240.484 136.168 240.004C135.352 239.524 134.464 239.284 133.504 239.284H127.672V249.904H133.504ZM157.28 262.468C154.928 262.468 152.756 261.88 150.764 260.704C148.772 259.528 147.188 257.944 146.012 255.952C144.86 253.96 144.284 251.788 144.284 249.436C144.284 247.084 144.86 244.912 146.012 242.92C147.188 240.928 148.772 239.356 150.764 238.204C152.756 237.028 154.928 236.44 157.28 236.44C159.632 236.44 161.804 237.028 163.796 238.204C165.788 239.356 167.36 240.928 168.512 242.92C169.688 244.912 170.276 247.084 170.276 249.436C170.276 251.788 169.688 253.96 168.512 255.952C167.36 257.944 165.788 259.528 163.796 260.704C161.804 261.88 159.632 262.468 157.28 262.468ZM157.28 259.876C159.176 259.876 160.916 259.408 162.5 258.472C164.108 257.536 165.38 256.276 166.316 254.692C167.252 253.084 167.72 251.332 167.72 249.436C167.72 247.54 167.252 245.8 166.316 244.216C165.38 242.632 164.108 241.372 162.5 240.436C160.916 239.5 159.176 239.032 157.28 239.032C155.384 239.032 153.644 239.5 152.06 240.436C150.476 241.372 149.216 242.632 148.28 244.216C147.344 245.8 146.876 247.54 146.876 249.436C146.876 251.332 147.344 253.084 148.28 254.692C149.216 256.276 150.476 257.536 152.06 258.472C153.644 259.408 155.384 259.876 157.28 259.876ZM189.58 236.8V239.212H181.84V262H179.284V239.212H171.544V236.8H189.58ZM195.769 250.516V259.552H207.361V262H193.177V236.8H207.217V239.212H195.769V248.068H206.281V250.516H195.769ZM227.932 257.032V236.8H230.524V262H228.22L214.648 241.12V262H212.056V236.8H214.684L227.932 257.032ZM252.475 236.8V239.212H244.735V262H242.179V239.212H234.439V236.8H252.475ZM256.107 262V236.8H258.699V262H256.107ZM283.886 262H281.15L278.846 255.916H267.074L264.77 262H261.962L271.538 236.8H274.31L283.886 262ZM272.942 240.4L268.01 253.468H277.91L272.942 240.4ZM289.742 236.8V259.552H301.622V262H287.15V236.8H289.742ZM308.094 236.8V259.552H319.974V262H305.502V236.8H308.094ZM335.996 236.8H338.948L329.732 252.172V262H327.14V252.172L317.96 236.8H320.876L328.436 249.364L335.996 236.8ZM372.779 236.872V236.8H375.371V262H372.779V241.336L364.175 255.88H363.491L354.887 241.3V262.036H352.295V236.836H354.887V236.872L355.103 236.8L363.851 251.632L372.599 236.8L372.779 236.872ZM384.206 250.516V259.552H395.798V262H381.614V236.8H395.654V239.212H384.206V248.068H394.718V250.516H384.206ZM409.386 236.8C411.738 236.8 413.898 237.352 415.866 238.456C417.834 239.56 419.394 241.084 420.546 243.028C421.698 244.948 422.274 247.084 422.274 249.436C422.274 251.788 421.698 253.924 420.546 255.844C419.394 257.74 417.834 259.24 415.866 260.344C413.898 261.448 411.738 262 409.386 262H400.494V236.8H409.386ZM409.386 259.552C411.282 259.552 413.01 259.108 414.57 258.22C416.154 257.332 417.402 256.12 418.314 254.584C419.226 253.048 419.682 251.332 419.682 249.436C419.682 247.54 419.226 245.812 418.314 244.252C417.402 242.692 416.154 241.468 414.57 240.58C413.01 239.668 411.282 239.212 409.386 239.212H403.086V259.552H409.386ZM427.002 262V236.8H429.594V262H427.002ZM434.183 249.436C434.183 247.084 434.759 244.912 435.911 242.92C437.087 240.928 438.671 239.356 440.663 238.204C442.655 237.028 444.827 236.44 447.179 236.44C449.579 236.44 451.787 237.052 453.803 238.276C455.819 239.476 457.391 241.084 458.519 243.1L456.251 244.324C455.339 242.716 454.079 241.432 452.471 240.472C450.863 239.512 449.099 239.032 447.179 239.032C445.283 239.032 443.543 239.5 441.959 240.436C440.375 241.372 439.115 242.632 438.179 244.216C437.243 245.8 436.775 247.54 436.775 249.436C436.775 251.332 437.243 253.084 438.179 254.692C439.115 256.276 440.375 257.536 441.959 258.472C443.543 259.408 445.283 259.876 447.179 259.876C449.099 259.876 450.863 259.396 452.471 258.436C454.103 257.452 455.375 256.156 456.287 254.548L458.555 255.772C457.427 257.788 455.843 259.408 453.803 260.632C451.763 261.856 449.555 262.468 447.179 262.468C444.827 262.468 442.655 261.88 440.663 260.704C438.671 259.528 437.087 257.944 435.911 255.952C434.759 253.96 434.183 251.788 434.183 249.436ZM462.826 262V236.8H465.418V262H462.826ZM487.561 257.032V236.8H490.153V262H487.849L474.277 241.12V262H471.685V236.8H474.313L487.561 257.032ZM515.355 262H512.619L510.315 255.916H498.543L496.239 262H493.431L503.007 236.8H505.779L515.355 262ZM504.411 240.4L499.479 253.468H509.379L504.411 240.4ZM521.211 236.8V259.552H533.091V262H518.619V236.8H521.211ZM243.931 278.872V278.8H246.523V304H243.931V283.336L235.327 297.88H234.643L226.039 283.3V304.036H223.447V278.836H226.039V278.872L226.255 278.8L235.003 293.632L243.751 278.8L243.931 278.872ZM264.12 304.468C261.768 304.468 259.596 303.88 257.604 302.704C255.612 301.528 254.028 299.944 252.852 297.952C251.7 295.96 251.124 293.788 251.124 291.436C251.124 289.084 251.7 286.912 252.852 284.92C254.028 282.928 255.612 281.356 257.604 280.204C259.596 279.028 261.768 278.44 264.12 278.44C266.472 278.44 268.644 279.028 270.636 280.204C272.628 281.356 274.2 282.928 275.352 284.92C276.528 286.912 277.116 289.084 277.116 291.436C277.116 293.788 276.528 295.96 275.352 297.952C274.2 299.944 272.628 301.528 270.636 302.704C268.644 303.88 266.472 304.468 264.12 304.468ZM264.12 301.876C266.016 301.876 267.756 301.408 269.34 300.472C270.948 299.536 272.22 298.276 273.156 296.692C274.092 295.084 274.56 293.332 274.56 291.436C274.56 289.54 274.092 287.8 273.156 286.216C272.22 284.632 270.948 283.372 269.34 282.436C267.756 281.5 266.016 281.032 264.12 281.032C262.224 281.032 260.484 281.5 258.9 282.436C257.316 283.372 256.056 284.632 255.12 286.216C254.184 287.8 253.716 289.54 253.716 291.436C253.716 293.332 254.184 295.084 255.12 296.692C256.056 298.276 257.316 299.536 258.9 300.472C260.484 301.408 262.224 301.876 264.12 301.876ZM284.433 278.8V301.552H296.313V304H281.841V278.8H284.433ZM302.749 292.516V301.552H314.341V304H300.157V278.8H314.197V281.212H302.749V290.068H313.261V292.516H302.749ZM317.815 291.436C317.815 289.084 318.391 286.912 319.543 284.92C320.719 282.928 322.303 281.356 324.295 280.204C326.287 279.028 328.459 278.44 330.811 278.44C333.211 278.44 335.419 279.052 337.435 280.276C339.451 281.476 341.023 283.084 342.151 285.1L339.883 286.324C338.971 284.716 337.711 283.432 336.103 282.472C334.495 281.512 332.731 281.032 330.811 281.032C328.915 281.032 327.175 281.5 325.591 282.436C324.007 283.372 322.747 284.632 321.811 286.216C320.875 287.8 320.407 289.54 320.407 291.436C320.407 293.332 320.875 295.084 321.811 296.692C322.747 298.276 324.007 299.536 325.591 300.472C327.175 301.408 328.915 301.876 330.811 301.876C332.731 301.876 334.495 301.396 336.103 300.436C337.735 299.452 339.007 298.156 339.919 296.548L342.187 297.772C341.059 299.788 339.475 301.408 337.435 302.632C335.395 303.856 333.187 304.468 330.811 304.468C328.459 304.468 326.287 303.88 324.295 302.704C322.303 301.528 320.719 299.944 319.543 297.952C318.391 295.96 317.815 293.788 317.815 291.436ZM362.114 278.8H364.706V295.468C364.706 297.244 364.322 298.816 363.554 300.184C362.786 301.528 361.706 302.572 360.314 303.316C358.922 304.06 357.314 304.432 355.49 304.432C353.666 304.432 352.058 304.06 350.666 303.316C349.298 302.572 348.23 301.528 347.462 300.184C346.718 298.816 346.346 297.244 346.346 295.468V278.8H348.902V295.468C348.902 297.388 349.49 298.936 350.666 300.112C351.842 301.264 353.45 301.84 355.49 301.84C357.602 301.84 359.234 301.264 360.386 300.112C361.538 298.96 362.114 297.412 362.114 295.468V278.8ZM372.992 278.8V301.552H384.872V304H370.4V278.8H372.992ZM391.308 292.516V301.552H402.9V304H388.716V278.8H402.756V281.212H391.308V290.068H401.82V292.516H391.308ZM415.983 304.432C413.511 304.432 411.423 303.892 409.719 302.812C408.015 301.732 406.827 300.268 406.155 298.42L408.603 297.124C409.131 298.588 410.019 299.752 411.267 300.616C412.539 301.48 414.123 301.912 416.019 301.912C417.363 301.912 418.491 301.684 419.403 301.228C420.339 300.772 421.035 300.184 421.491 299.464C421.971 298.744 422.211 297.988 422.211 297.196C422.211 296.02 421.647 295.084 420.519 294.388C419.391 293.692 417.675 292.996 415.371 292.3C413.547 291.748 412.095 291.244 411.015 290.788C409.959 290.308 409.071 289.636 408.351 288.772C407.631 287.908 407.271 286.768 407.271 285.352C407.271 283.96 407.631 282.736 408.351 281.68C409.071 280.6 410.055 279.784 411.303 279.232C412.551 278.656 413.919 278.368 415.407 278.368C417.471 278.368 419.247 278.86 420.735 279.844C422.247 280.828 423.387 282.136 424.155 283.768L421.707 284.956C421.155 283.684 420.339 282.688 419.259 281.968C418.203 281.248 416.919 280.888 415.407 280.888C414.255 280.888 413.259 281.104 412.419 281.536C411.603 281.944 410.979 282.496 410.547 283.192C410.115 283.888 409.899 284.62 409.899 285.388C409.899 286.228 410.127 286.912 410.583 287.44C411.039 287.944 411.639 288.352 412.383 288.664C413.127 288.976 414.195 289.348 415.587 289.78L416.307 289.996C418.275 290.62 419.811 291.184 420.915 291.688C422.043 292.168 422.979 292.864 423.723 293.776C424.491 294.664 424.875 295.816 424.875 297.232C424.875 298.672 424.503 299.932 423.759 301.012C423.015 302.092 421.959 302.932 420.591 303.532C419.247 304.132 417.711 304.432 415.983 304.432Z" fill="white"/>
<path d="M268.045 443.824V446H252.397V445.168C252.589 443.163 253.25 441.243 254.381 439.408C255.533 437.573 257.069 436.229 258.989 435.376C259.245 435.248 259.629 435.077 260.141 434.864C261.314 434.331 262.221 433.872 262.861 433.488C263.522 433.104 264.066 432.613 264.493 432.016C264.941 431.419 265.165 430.683 265.165 429.808C265.165 428.869 264.909 428.069 264.397 427.408C263.906 426.725 263.277 426.213 262.509 425.872C261.741 425.509 260.973 425.328 260.205 425.328C258.712 425.328 257.41 425.659 256.301 426.32C255.192 426.96 254.53 427.92 254.317 429.2L252.141 428.944C252.312 427.728 252.781 426.693 253.549 425.84C254.338 424.987 255.309 424.347 256.461 423.92C257.634 423.472 258.882 423.248 260.205 423.248C261.4 423.248 262.541 423.504 263.629 424.016C264.738 424.507 265.634 425.243 266.317 426.224C267.021 427.205 267.373 428.368 267.373 429.712C267.373 431.099 267.042 432.251 266.381 433.168C265.741 434.064 264.952 434.779 264.013 435.312C263.074 435.824 261.688 436.485 259.853 437.296C258.616 437.851 257.57 438.725 256.717 439.92C255.885 441.093 255.298 442.395 254.957 443.824H268.045ZM281.206 423.6V443.824H287.894V446H271.574V443.824H278.934V425.968L274.262 427.952L273.206 426.128L278.934 423.6H281.206ZM292.575 446.32C292.17 446.256 291.892 446.128 291.743 445.936C291.615 445.744 291.551 445.435 291.551 445.008C291.551 444.581 291.668 444.261 291.903 444.048C292.138 443.813 292.458 443.696 292.863 443.696C293.29 443.696 293.62 443.824 293.855 444.08C294.09 444.315 294.207 444.645 294.207 445.072C294.207 445.563 294.143 445.979 294.015 446.32C293.887 446.683 293.642 447.141 293.279 447.696L292.383 449.04L291.647 448.432L292.575 446.32ZM305.64 446.384C303.848 446.384 302.312 445.904 301.032 444.944C299.773 443.984 298.813 442.64 298.152 440.912C297.512 439.163 297.192 437.125 297.192 434.8C297.192 432.475 297.512 430.448 298.152 428.72C298.813 426.971 299.773 425.616 301.032 424.656C302.312 423.696 303.848 423.216 305.64 423.216C307.432 423.216 308.968 423.696 310.248 424.656C311.528 425.616 312.488 426.971 313.128 428.72C313.789 430.448 314.12 432.475 314.12 434.8C314.12 437.125 313.789 439.163 313.128 440.912C312.488 442.64 311.528 443.984 310.248 444.944C308.968 445.904 307.432 446.384 305.64 446.384ZM305.64 444.08C307.603 444.08 309.117 443.28 310.184 441.68C311.272 440.08 311.816 437.787 311.816 434.8C311.816 431.813 311.272 429.52 310.184 427.92C309.117 426.32 307.603 425.52 305.64 425.52C303.699 425.52 302.184 426.32 301.096 427.92C300.008 429.52 299.464 431.813 299.464 434.8C299.464 437.787 300.008 440.08 301.096 441.68C302.184 443.28 303.699 444.08 305.64 444.08ZM325.265 446.384C323.473 446.384 321.937 445.904 320.657 444.944C319.398 443.984 318.438 442.64 317.777 440.912C317.137 439.163 316.817 437.125 316.817 434.8C316.817 432.475 317.137 430.448 317.777 428.72C318.438 426.971 319.398 425.616 320.657 424.656C321.937 423.696 323.473 423.216 325.265 423.216C327.057 423.216 328.593 423.696 329.873 424.656C331.153 425.616 332.113 426.971 332.753 428.72C333.414 430.448 333.745 432.475 333.745 434.8C333.745 437.125 333.414 439.163 332.753 440.912C332.113 442.64 331.153 443.984 329.873 444.944C328.593 445.904 327.057 446.384 325.265 446.384ZM325.265 444.08C327.228 444.08 328.742 443.28 329.809 441.68C330.897 440.08 331.441 437.787 331.441 434.8C331.441 431.813 330.897 429.52 329.809 427.92C328.742 426.32 327.228 425.52 325.265 425.52C323.324 425.52 321.809 426.32 320.721 427.92C319.633 429.52 319.089 431.813 319.089 434.8C319.089 437.787 319.633 440.08 320.721 441.68C321.809 443.28 323.324 444.08 325.265 444.08ZM344.89 446.384C343.098 446.384 341.562 445.904 340.282 444.944C339.023 443.984 338.063 442.64 337.402 440.912C336.762 439.163 336.442 437.125 336.442 434.8C336.442 432.475 336.762 430.448 337.402 428.72C338.063 426.971 339.023 425.616 340.282 424.656C341.562 423.696 343.098 423.216 344.89 423.216C346.682 423.216 348.218 423.696 349.498 424.656C350.778 425.616 351.738 426.971 352.378 428.72C353.039 430.448 353.37 432.475 353.37 434.8C353.37 437.125 353.039 439.163 352.378 440.912C351.738 442.64 350.778 443.984 349.498 444.944C348.218 445.904 346.682 446.384 344.89 446.384ZM344.89 444.08C346.853 444.08 348.367 443.28 349.434 441.68C350.522 440.08 351.066 437.787 351.066 434.8C351.066 431.813 350.522 429.52 349.434 427.92C348.367 426.32 346.853 425.52 344.89 425.52C342.949 425.52 341.434 426.32 340.346 427.92C339.258 429.52 338.714 431.813 338.714 434.8C338.714 437.787 339.258 440.08 340.346 441.68C341.434 443.28 342.949 444.08 344.89 444.08ZM258.305 460.6C260.395 460.6 262.315 461.091 264.065 462.072C265.814 463.053 267.201 464.408 268.225 466.136C269.249 467.843 269.761 469.741 269.761 471.832C269.761 473.923 269.249 475.821 268.225 477.528C267.201 479.213 265.814 480.547 264.065 481.528C262.315 482.509 260.395 483 258.305 483H250.401V460.6H258.305ZM258.305 480.824C259.99 480.824 261.526 480.429 262.913 479.64C264.321 478.851 265.43 477.773 266.241 476.408C267.051 475.043 267.457 473.517 267.457 471.832C267.457 470.147 267.051 468.611 266.241 467.224C265.43 465.837 264.321 464.749 262.913 463.96C261.526 463.149 259.99 462.744 258.305 462.744H252.705V480.824H258.305ZM290.187 483H287.595L282.667 474.456H282.411H276.235V483H273.931V460.6H282.411C283.67 460.6 284.833 460.909 285.899 461.528C286.966 462.147 287.809 462.989 288.427 464.056C289.046 465.101 289.355 466.253 289.355 467.512C289.355 468.941 288.95 470.243 288.139 471.416C287.35 472.589 286.315 473.432 285.035 473.944L290.187 483ZM276.235 462.808V472.248H282.411C283.265 472.248 284.054 472.035 284.779 471.608C285.505 471.181 286.081 470.605 286.507 469.88C286.934 469.155 287.147 468.365 287.147 467.512C287.147 466.659 286.934 465.88 286.507 465.176C286.081 464.451 285.505 463.875 284.779 463.448C284.054 463.021 283.265 462.808 282.411 462.808H276.235ZM307.442 460.6H309.746V475.416C309.746 476.995 309.405 478.392 308.722 479.608C308.039 480.803 307.079 481.731 305.842 482.392C304.605 483.053 303.175 483.384 301.554 483.384C299.933 483.384 298.503 483.053 297.266 482.392C296.05 481.731 295.101 480.803 294.418 479.608C293.757 478.392 293.426 476.995 293.426 475.416V460.6H295.698V475.416C295.698 477.123 296.221 478.499 297.266 479.544C298.311 480.568 299.741 481.08 301.554 481.08C303.431 481.08 304.882 480.568 305.906 479.544C306.93 478.52 307.442 477.144 307.442 475.416V460.6ZM324.95 472.184H336.534V473.496C336.534 475.267 336.043 476.92 335.062 478.456C334.08 479.971 332.736 481.176 331.03 482.072C329.344 482.968 327.478 483.416 325.43 483.416C323.339 483.416 321.408 482.893 319.638 481.848C317.867 480.803 316.459 479.395 315.414 477.624C314.39 475.853 313.878 473.923 313.878 471.832C313.878 469.741 314.39 467.811 315.414 466.04C316.459 464.269 317.867 462.872 319.638 461.848C321.408 460.803 323.339 460.28 325.43 460.28C327.478 460.28 329.366 460.781 331.094 461.784C332.822 462.787 334.198 464.131 335.222 465.816L333.398 467.128C332.566 465.741 331.446 464.643 330.038 463.832C328.63 463 327.094 462.584 325.43 462.584C323.744 462.584 322.198 463 320.79 463.832C319.382 464.664 318.262 465.784 317.43 467.192C316.598 468.6 316.182 470.147 316.182 471.832C316.182 473.517 316.598 475.075 317.43 476.504C318.262 477.912 319.382 479.032 320.79 479.864C322.198 480.696 323.744 481.112 325.43 481.112C326.987 481.112 328.395 480.824 329.654 480.248C330.912 479.672 331.936 478.872 332.726 477.848C333.515 476.824 333.995 475.651 334.166 474.328H324.95V472.184ZM347.982 483.384C345.784 483.384 343.928 482.904 342.414 481.944C340.899 480.984 339.843 479.683 339.246 478.04L341.422 476.888C341.891 478.189 342.68 479.224 343.79 479.992C344.92 480.76 346.328 481.144 348.014 481.144C349.208 481.144 350.211 480.941 351.022 480.536C351.854 480.131 352.472 479.608 352.878 478.968C353.304 478.328 353.518 477.656 353.518 476.952C353.518 475.907 353.016 475.075 352.014 474.456C351.011 473.837 349.486 473.219 347.438 472.6C345.816 472.109 344.526 471.661 343.566 471.256C342.627 470.829 341.838 470.232 341.198 469.464C340.558 468.696 340.238 467.683 340.238 466.424C340.238 465.187 340.558 464.099 341.198 463.16C341.838 462.2 342.712 461.475 343.822 460.984C344.931 460.472 346.147 460.216 347.47 460.216C349.304 460.216 350.883 460.653 352.206 461.528C353.55 462.403 354.563 463.565 355.246 465.016L353.07 466.072C352.579 464.941 351.854 464.056 350.894 463.416C349.955 462.776 348.814 462.456 347.47 462.456C346.446 462.456 345.56 462.648 344.814 463.032C344.088 463.395 343.534 463.885 343.15 464.504C342.766 465.123 342.574 465.773 342.574 466.456C342.574 467.203 342.776 467.811 343.182 468.28C343.587 468.728 344.12 469.091 344.782 469.368C345.443 469.645 346.392 469.976 347.63 470.36L348.27 470.552C350.019 471.107 351.384 471.608 352.366 472.056C353.368 472.483 354.2 473.101 354.862 473.912C355.544 474.701 355.886 475.725 355.886 476.984C355.886 478.264 355.555 479.384 354.894 480.344C354.232 481.304 353.294 482.051 352.078 482.584C350.883 483.117 349.518 483.384 347.982 483.384ZM247.951 520.384C245.753 520.384 243.897 519.904 242.383 518.944C240.868 517.984 239.812 516.683 239.215 515.04L241.391 513.888C241.86 515.189 242.649 516.224 243.759 516.992C244.889 517.76 246.297 518.144 247.983 518.144C249.177 518.144 250.18 517.941 250.991 517.536C251.823 517.131 252.441 516.608 252.847 515.968C253.273 515.328 253.487 514.656 253.487 513.952C253.487 512.907 252.985 512.075 251.983 511.456C250.98 510.837 249.455 510.219 247.407 509.6C245.785 509.109 244.495 508.661 243.535 508.256C242.596 507.829 241.807 507.232 241.167 506.464C240.527 505.696 240.207 504.683 240.207 503.424C240.207 502.187 240.527 501.099 241.167 500.16C241.807 499.2 242.681 498.475 243.791 497.984C244.9 497.472 246.116 497.216 247.439 497.216C249.273 497.216 250.852 497.653 252.175 498.528C253.519 499.403 254.532 500.565 255.215 502.016L253.039 503.072C252.548 501.941 251.823 501.056 250.863 500.416C249.924 499.776 248.783 499.456 247.439 499.456C246.415 499.456 245.529 499.648 244.783 500.032C244.057 500.395 243.503 500.885 243.119 501.504C242.735 502.123 242.543 502.773 242.543 503.456C242.543 504.203 242.745 504.811 243.151 505.28C243.556 505.728 244.089 506.091 244.751 506.368C245.412 506.645 246.361 506.976 247.599 507.36L248.239 507.552C249.988 508.107 251.353 508.608 252.335 509.056C253.337 509.483 254.169 510.101 254.831 510.912C255.513 511.701 255.855 512.725 255.855 513.984C255.855 515.264 255.524 516.384 254.863 517.344C254.201 518.304 253.263 519.051 252.047 519.584C250.852 520.117 249.487 520.384 247.951 520.384ZM273.453 497.6V499.744H266.573V520H264.301V499.744H257.421V497.6H273.453ZM290.63 497.6H292.934V512.416C292.934 513.995 292.592 515.392 291.91 516.608C291.227 517.803 290.267 518.731 289.03 519.392C287.792 520.053 286.363 520.384 284.742 520.384C283.12 520.384 281.691 520.053 280.454 519.392C279.238 518.731 278.288 517.803 277.606 516.608C276.944 515.392 276.614 513.995 276.614 512.416V497.6H278.886V512.416C278.886 514.123 279.408 515.499 280.454 516.544C281.499 517.568 282.928 518.08 284.742 518.08C286.619 518.08 288.07 517.568 289.094 516.544C290.118 515.52 290.63 514.144 290.63 512.416V497.6ZM305.899 497.6C307.989 497.6 309.909 498.091 311.659 499.072C313.408 500.053 314.795 501.408 315.819 503.136C316.843 504.843 317.355 506.741 317.355 508.832C317.355 510.923 316.843 512.821 315.819 514.528C314.795 516.213 313.408 517.547 311.659 518.528C309.909 519.509 307.989 520 305.899 520H297.995V497.6H305.899ZM305.899 517.824C307.584 517.824 309.12 517.429 310.507 516.64C311.915 515.851 313.024 514.773 313.835 513.408C314.645 512.043 315.051 510.517 315.051 508.832C315.051 507.147 314.645 505.611 313.835 504.224C313.024 502.837 311.915 501.749 310.507 500.96C309.12 500.149 307.584 499.744 305.899 499.744H300.299V517.824H305.899ZM321.557 520V497.6H323.861V520H321.557ZM331.704 509.792V517.824H342.008V520H329.4V497.6H341.88V499.744H331.704V507.616H341.048V509.792H331.704ZM354.086 497.6C356.177 497.6 358.097 498.091 359.846 499.072C361.595 500.053 362.982 501.408 364.006 503.136C365.03 504.843 365.542 506.741 365.542 508.832C365.542 510.923 365.03 512.821 364.006 514.528C362.982 516.213 361.595 517.547 359.846 518.528C358.097 519.509 356.177 520 354.086 520H346.182V497.6H354.086ZM354.086 517.824C355.771 517.824 357.307 517.429 358.694 516.64C360.102 515.851 361.211 514.773 362.022 513.408C362.833 512.043 363.238 510.517 363.238 508.832C363.238 507.147 362.833 505.611 362.022 504.224C361.211 502.837 360.102 501.749 358.694 500.96C357.307 500.149 355.771 499.744 354.086 499.744H348.486V517.824H354.086Z" fill="white"/>
<path d="M399.421 460.046L413.875 474.5L399.421 488.954" stroke="white" stroke-width="2" stroke-linecap="square"/>
<path d="M412.677 474.5L383.125 474.5" stroke="white" stroke-width="2" stroke-linecap="square"/>
<path d="M332.875 120.938H337.5V132.5H332.875V120.938Z" fill="white"/>
<path d="M335.188 148.688C331.529 148.688 327.952 147.603 324.909 145.57C321.867 143.537 319.496 140.648 318.096 137.267C316.696 133.887 316.329 130.167 317.043 126.578C317.757 122.99 319.519 119.693 322.106 117.106C324.693 114.519 327.99 112.757 331.578 112.043C335.167 111.329 338.887 111.696 342.267 113.096C345.648 114.496 348.537 116.867 350.57 119.909C352.603 122.952 353.688 126.529 353.688 130.188C353.688 135.094 351.738 139.8 348.269 143.269C344.8 146.738 340.094 148.688 335.188 148.688ZM335.188 116.313C332.443 116.313 329.761 117.126 327.479 118.651C325.197 120.175 323.419 122.342 322.369 124.878C321.319 127.413 321.044 130.203 321.579 132.894C322.114 135.586 323.436 138.058 325.376 139.999C327.317 141.939 329.789 143.261 332.481 143.796C335.172 144.331 337.962 144.057 340.497 143.006C343.033 141.956 345.2 140.178 346.724 137.896C348.249 135.614 349.063 132.932 349.063 130.188C349.063 126.508 347.601 122.978 344.999 120.376C342.397 117.774 338.867 116.313 335.188 116.313Z" fill="white"/>
<path d="M335.188 139.438C336.465 139.438 337.5 138.402 337.5 137.125C337.5 135.848 336.465 134.812 335.188 134.812C333.91 134.812 332.875 135.848 332.875 137.125C332.875 138.402 333.91 139.438 335.188 139.438Z" fill="white"/>
<path d="M328.25 81.625H291.25C290.023 81.625 288.847 82.1123 287.98 82.9796C287.112 83.847 286.625 85.0234 286.625 86.25V95.5C286.625 96.7266 287.112 97.903 287.98 98.7704C288.847 99.6377 290.023 100.125 291.25 100.125V141.75C291.25 142.977 291.737 144.153 292.605 145.02C293.472 145.888 294.648 146.375 295.875 146.375H314.375V141.75H295.875V137.125H307.438V104.75H295.875V100.125H323.625V107.062H328.25V100.125C329.477 100.125 330.653 99.6377 331.52 98.7704C332.388 97.903 332.875 96.7266 332.875 95.5V86.25C332.875 85.0234 332.388 83.847 331.52 82.9796C330.653 82.1123 329.477 81.625 328.25 81.625ZM302.812 109.375V132.5H295.875V109.375H302.812ZM291.25 95.5V86.25H328.25V95.5H291.25Z" fill="white"/>
<defs>
<filter id="filter0_d_6_270" x="3.05176e-05" y="0" width="648" height="648" filterUnits="userSpaceOnUse" color-interpolation-filters="sRGB">
<feFlood flood-opacity="0" result="BackgroundImageFix"/>
<feColorMatrix in="SourceAlpha" type="matrix" values="0 0 0 0 0 0 0 0 0 0 0 0 0 0 0 0 0 0 127 0" result="hardAlpha"/>
<feOffset dy="14"/>
<feGaussianBlur stdDeviation="37"/>
<feColorMatrix type="matrix" values="0 0 0 0 0 0 0 0 0 0 0 0 0 0 0 0 0 0 0.45 0"/>
<feBlend mode="normal" in2="BackgroundImageFix" result="effect1_dropShadow_6_270"/>
<feBlend mode="normal" in="SourceGraphic" in2="effect1_dropShadow_6_270" result="shape"/>
</filter>
<filter id="filter1_d_6_270" x="3.05176e-05" y="0" width="648" height="648" filterUnits="userSpaceOnUse" color-interpolation-filters="sRGB">
<feFlood flood-opacity="0" result="BackgroundImageFix"/>
<feColorMatrix in="SourceAlpha" type="matrix" values="0 0 0 0 0 0 0 0 0 0 0 0 0 0 0 0 0 0 127 0" result="hardAlpha"/>
<feOffset dy="14"/>
<feGaussianBlur stdDeviation="37"/>
<feColorMatrix type="matrix" values="0 0 0 0 0 0 0 0 0 0 0 0 0 0 0 0 0 0 0.45 0"/>
<feBlend mode="normal" in2="BackgroundImageFix" result="effect1_dropShadow_6_270"/>
<feBlend mode="normal" in="SourceGraphic" in2="effect1_dropShadow_6_270" result="shape"/>
</filter>
<filter id="filter2_d_6_270" x="355" y="407" width="159" height="160" filterUnits="userSpaceOnUse" color-interpolation-filters="sRGB">
<feFlood flood-opacity="0" result="BackgroundImageFix"/>
<feColorMatrix in="SourceAlpha" type="matrix" values="0 0 0 0 0 0 0 0 0 0 0 0 0 0 0 0 0 0 127 0" result="hardAlpha"/>
<feOffset dy="14"/>
<feGaussianBlur stdDeviation="37"/>
<feColorMatrix type="matrix" values="0 0 0 0 0 0 0 0 0 0 0 0 0 0 0 0 0 0 0.45 0"/>
<feBlend mode="normal" in2="BackgroundImageFix" result="effect1_dropShadow_6_270"/>
<feBlend mode="normal" in="SourceGraphic" in2="effect1_dropShadow_6_270" result="shape"/>
</filter>
</defs>
</svg>
