<svg xmlns="http://www.w3.org/2000/svg" xmlns:xlink="http://www.w3.org/1999/xlink" id="Layer_1" x="0" y="0" enable-background="new 0 0 512 512" version="1.1" viewBox="0 0 512 512" xml:space="preserve"><circle cx="256" cy="256" r="256" fill="#386895"/><path fill="#273B7A" d="M511.921,262.32L366.933,117.334l-22.302,98.457l-35.19,25.986L172.799,117.332l-24.483,94.192	l95.041,78.951L117.332,394.666l116.355,116.355C241.042,511.655,248.48,512,256,512C395.273,512,508.564,400.784,511.921,262.32z"/><rect width="277.325" height="221.867" x="117.329" y="172.804" fill="#FFF"/><g><rect width="138.378" height="221.867" x="256.293" y="172.804" fill="#D0D1D3"/><rect width="243.071" height="175.597" x="134.465" y="195.784" fill="#D0D1D3"/></g><rect width="121.242" height="175.597" x="256.293" y="195.784" fill="#A6A8AA"/><rect width="277.325" height="55.458" x="117.329" y="145.067" fill="#C92F00"/><rect width="138.378" height="55.458" x="256.293" y="145.067" fill="#930000"/><rect width="27.738" height="55.458" x="145.067" y="117.329" fill="#FFEDB5"/><rect width="27.738" height="55.458" x="339.196" y="117.329" fill="#FEE187"/><g><rect width="28.444" height="28.444" x="156.444" y="227.556" fill="#273B7A"/><rect width="28.444" height="28.444" x="213.333" y="227.556" fill="#273B7A"/></g><g><rect width="28.444" height="28.444" x="270.222" y="227.556" fill="#121149"/><rect width="28.444" height="28.444" x="327.111" y="227.556" fill="#121149"/></g><g><rect width="28.444" height="28.444" x="156.444" y="271.084" fill="#EAA22F"/><rect width="28.444" height="28.444" x="213.333" y="271.084" fill="#EAA22F"/></g><g><rect width="28.444" height="28.444" x="270.222" y="271.084" fill="#E09112"/><rect width="28.444" height="28.444" x="327.111" y="271.084" fill="#E09112"/></g><g><rect width="28.444" height="28.444" x="156.444" y="315.906" fill="#FF5419"/><rect width="28.444" height="28.444" x="213.333" y="315.906" fill="#FF5419"/></g><g><rect width="28.444" height="28.444" x="270.222" y="315.906" fill="#C92F00"/><rect width="28.444" height="28.444" x="327.111" y="315.906" fill="#C92F00"/></g></svg>