<svg xmlns="http://www.w3.org/2000/svg" xmlns:xlink="http://www.w3.org/1999/xlink" id="Capa_1" width="600" height="600" x="0" y="0" enable-background="new 6 96 600 600" version="1.1" viewBox="6 96 600 600" xml:space="preserve"><path fill="none" stroke="#556080" stroke-linecap="round" stroke-miterlimit="10" stroke-width="2" d="M213.508,281.903v-93.079	c0-11.575,9.389-20.964,20.964-20.964h148.132c11.585,0,20.975,9.389,20.975,20.964v93.079"/><path fill="#A97C50" d="M565.045,633.536H52.042c-10.55,0-19.103-8.554-19.103-19.104V272.494c0-10.548,8.553-19.102,19.103-19.102	h513.003c10.551,0,19.103,8.553,19.103,19.102v341.938C584.147,624.982,575.596,633.536,565.045,633.536z"/><path fill="#997046" d="M108.968,253.393H52.042c-10.55,0-19.103,8.553-19.103,19.102v341.938c0,10.55,8.553,19.104,19.103,19.104	h56.926V253.393z"/><path fill="#997046" d="M565.045,253.393h-56.927v380.144h56.927c10.551,0,19.103-8.554,19.103-19.104V272.494	C584.147,261.946,575.596,253.393,565.045,253.393z"/><rect width="19.006" height="380.144" x="99.465" y="253.393" fill="#D1A074"/><rect width="19.007" height="380.144" x="498.615" y="253.393" fill="#D1A074"/><rect width="76.028" height="28.511" x="80.458" y="224.881" fill="#C7CAC7"/><rect width="76.03" height="28.511" x="460.6" y="224.881" fill="#C7CAC7"/></svg>